<svg width="24" height="25" viewBox="0 0 24 25" fill="none" xmlns="http://www.w3.org/2000/svg">
<path d="M10.8 17.3H13.2V19.7H10.8V17.3ZM12 0.5C5.376 0.5 0 5.876 0 12.5C0 19.124 5.376 24.5 12 24.5C18.624 24.5 24 19.124 24 12.5C24 5.876 18.624 0.5 12 0.5ZM12 22.1C6.708 22.1 2.4 17.792 2.4 12.5C2.4 7.208 6.708 2.9 12 2.9C17.292 2.9 21.6 7.208 21.6 12.5C21.6 17.792 17.292 22.1 12 22.1ZM12 5.3C9.348 5.3 7.2 7.448 7.2 10.1H9.6C9.6 8.78 10.68 7.7 12 7.7C13.32 7.7 14.4 8.78 14.4 10.1C14.4 12.5 10.8 12.2 10.8 16.1H13.2C13.2 13.4 16.8 13.1 16.8 10.1C16.8 7.448 14.652 5.3 12 5.3Z" fill="#ACACAC"/>
</svg>
