<svg width="21" height="22" viewBox="0 0 21 22" fill="none" xmlns="http://www.w3.org/2000/svg">
<mask id="path-1-inside-1_3519_1842" fill="white">
<path d="M20.7949 20.3051L14.9039 14.4141C16.1989 12.8893 16.9066 10.9762 16.9066 8.95343C16.9066 6.69547 16.0272 4.5726 14.4307 2.97613C12.834 1.37943 10.7112 0.5 8.45343 0.5C6.1957 0.5 4.0726 1.37943 2.4759 2.9759C0.879433 4.5726 0 6.69547 0 8.95343C0 11.2114 0.879433 13.334 2.4759 14.9307C4.07237 16.5274 6.19523 17.4066 8.4532 17.4066C10.476 17.4066 12.3891 16.6989 13.9139 15.4039L19.8049 21.2949C19.9418 21.4316 20.1208 21.5 20.3 21.5C20.4792 21.5 20.6582 21.4316 20.7949 21.2949C21.0684 21.0217 21.0684 20.5783 20.7949 20.3051ZM3.46593 13.9409C0.715867 11.1909 0.715867 6.716 3.46593 3.96593C4.84097 2.5909 6.6472 1.9035 8.45343 1.9035C10.2597 1.9035 12.0657 2.59113 13.4409 3.96593C16.191 6.716 16.191 11.1909 13.4409 13.9409C10.6904 16.6908 6.216 16.6908 3.46593 13.9409Z"/>
</mask>
<path d="M20.7949 20.3051L14.9039 14.4141C16.1989 12.8893 16.9066 10.9762 16.9066 8.95343C16.9066 6.69547 16.0272 4.5726 14.4307 2.97613C12.834 1.37943 10.7112 0.5 8.45343 0.5C6.1957 0.5 4.0726 1.37943 2.4759 2.9759C0.879433 4.5726 0 6.69547 0 8.95343C0 11.2114 0.879433 13.334 2.4759 14.9307C4.07237 16.5274 6.19523 17.4066 8.4532 17.4066C10.476 17.4066 12.3891 16.6989 13.9139 15.4039L19.8049 21.2949C19.9418 21.4316 20.1208 21.5 20.3 21.5C20.4792 21.5 20.6582 21.4316 20.7949 21.2949C21.0684 21.0217 21.0684 20.5783 20.7949 20.3051ZM3.46593 13.9409C0.715867 11.1909 0.715867 6.716 3.46593 3.96593C4.84097 2.5909 6.6472 1.9035 8.45343 1.9035C10.2597 1.9035 12.0657 2.59113 13.4409 3.96593C16.191 6.716 16.191 11.1909 13.4409 13.9409C10.6904 16.6908 6.216 16.6908 3.46593 13.9409Z" fill="#FF7624"/>
<path d="M20.7949 20.3051L18.8144 22.2856L18.8153 22.2864L20.7949 20.3051ZM14.9039 14.4141L12.7691 12.6011L11.0979 14.569L12.9235 16.3946L14.9039 14.4141ZM2.4759 2.9759L0.49558 0.995291L0.495291 0.99558L2.4759 2.9759ZM13.9139 15.4039L15.8944 13.4235L14.0688 11.5979L12.1009 13.2691L13.9139 15.4039ZM19.8049 21.2949L17.8244 23.2754L17.8261 23.2771L19.8049 21.2949ZM20.7949 21.2949L18.8153 19.3136L18.8144 19.3144L20.7949 21.2949ZM3.46593 13.9409L1.48547 15.9214L1.48555 15.9215L3.46593 13.9409ZM13.4409 3.96593L15.4214 1.98547L15.4211 1.98513L13.4409 3.96593ZM13.4409 13.9409L15.4211 15.9216L15.4214 15.9214L13.4409 13.9409ZM22.7754 18.3246L16.8844 12.4337L12.9235 16.3946L18.8144 22.2856L22.7754 18.3246ZM17.0387 16.2272C18.7632 14.1967 19.7074 11.6412 19.7074 8.95343H14.1058C14.1058 10.3112 13.6347 11.5819 12.7691 12.6011L17.0387 16.2272ZM19.7074 8.95343C19.7074 5.95259 18.5329 3.11735 16.4112 0.995669L12.4503 4.9566C13.5215 6.02785 14.1058 7.43834 14.1058 8.95343H19.7074ZM16.4112 0.995669C14.2894 -1.12617 11.4541 -2.3008 8.45343 -2.3008V3.3008C9.96819 3.3008 11.3787 3.88504 12.4503 4.9566L16.4112 0.995669ZM8.45343 -2.3008C5.45283 -2.3008 2.61743 -1.12625 0.49558 0.995291L4.45622 4.95651C5.52777 3.88512 6.93857 3.3008 8.45343 3.3008V-2.3008ZM0.495291 0.99558C-1.62622 3.1174 -2.8008 5.95256 -2.8008 8.95343H2.8008C2.8008 7.43838 3.38509 6.0278 4.45651 4.95622L0.495291 0.99558ZM-2.8008 8.95343C-2.8008 11.9544 -1.62617 14.7893 0.495291 16.9111L4.45651 12.9504C3.38503 11.8788 2.8008 10.4684 2.8008 8.95343H-2.8008ZM0.495291 16.9111C2.61716 19.0332 5.45253 20.2074 8.4532 20.2074V14.6058C6.93793 14.6058 5.52758 14.0216 4.45651 12.9504L0.495291 16.9111ZM8.4532 20.2074C11.141 20.2074 13.6965 19.2632 15.7269 17.5387L12.1009 13.2691C11.0817 14.1347 9.81095 14.6058 8.4532 14.6058V20.2074ZM11.9334 17.3844L17.8244 23.2754L21.7853 19.3144L15.8944 13.4235L11.9334 17.3844ZM17.8261 23.2771C18.5077 23.9575 19.4069 24.3008 20.3 24.3008V18.6992C20.8347 18.6992 21.376 18.9058 21.7836 19.3127L17.8261 23.2771ZM20.3 24.3008C21.1927 24.3008 22.093 23.9577 22.7754 23.2754L18.8144 19.3144C19.2233 18.9055 19.7657 18.6992 20.3 18.6992V24.3008ZM22.7745 23.2762C24.1429 21.909 24.1429 19.691 22.7745 18.3238L18.8153 22.2864C17.9938 21.4657 17.9938 20.1343 18.8153 19.3136L22.7745 23.2762ZM5.4464 11.9605C3.79011 10.3042 3.79011 7.60268 5.4464 5.9464L1.48547 1.98547C-2.35838 5.82932 -2.35838 12.0776 1.48547 15.9214L5.4464 11.9605ZM5.4464 5.9464C6.27327 5.11953 7.35698 4.7043 8.45343 4.7043V-0.8973C5.93742 -0.8973 3.40867 0.0622706 1.48547 1.98547L5.4464 5.9464ZM8.45343 4.7043C9.54953 4.7043 10.6333 5.11953 11.4608 5.94673L15.4211 1.98513C13.498 0.062732 10.9698 -0.8973 8.45343 -0.8973V4.7043ZM11.4605 5.9464C13.1168 7.60268 13.1168 10.3042 11.4605 11.9605L15.4214 15.9214C19.2652 12.0776 19.2652 5.82932 15.4214 1.98547L11.4605 5.9464ZM11.4607 11.9602C9.80382 13.6167 7.10253 13.6165 5.44631 11.9604L1.48555 15.9215C5.32947 19.7651 11.577 19.7648 15.4211 15.9216L11.4607 11.9602Z" fill="#454545" mask="url(#path-1-inside-1_3519_1842)"/>
</svg>
