<svg width="18" height="17" viewBox="0 0 18 17" fill="none" xmlns="http://www.w3.org/2000/svg">
<path d="M14.2213 0.5C14.326 0.499924 14.4293 0.524509 14.5227 0.571765C14.6161 0.61902 14.6971 0.687618 14.7591 0.772L14.808 0.849333L17.7084 6.20756L17.7422 6.29022L17.7529 6.32578L17.7707 6.41644L17.776 6.5C17.776 6.56007 17.768 6.61987 17.752 6.67778L17.7102 6.78889L17.6764 6.85022C17.6568 6.88225 17.6345 6.91258 17.6098 6.94089L17.6631 6.87156L17.6409 6.90267L9.41867 16.2404C9.35038 16.3313 9.25931 16.4024 9.15467 16.4467L9.06756 16.476L8.99822 16.4911L8.88889 16.5L8.8 16.4947L8.69511 16.4716C8.6408 16.456 8.58879 16.4333 8.54044 16.404L8.53244 16.3978C8.49025 16.3719 8.45144 16.3408 8.41689 16.3053L0.159111 6.93111L0.136 6.90267L0.100444 6.85022C0.0500803 6.76889 0.0179356 6.67761 0.00622219 6.58267L0 6.5L0.00266669 6.44133L0.0142223 6.36222C0.0197604 6.33633 0.0268849 6.3108 0.0355555 6.28578L0.0551111 6.23333L0.0799999 6.18267L2.96889 0.849333C3.01869 0.757296 3.08947 0.678277 3.17548 0.618669C3.2615 0.559061 3.36033 0.52054 3.464 0.506222L3.55467 0.5H14.2213ZM11.5529 7.16667H6.22044L8.88711 13.9996L11.5529 7.16667ZM4.79022 7.16667H2.14133L6.89778 12.5658L4.79022 7.16667ZM15.6329 7.16667H12.9849L10.88 12.5622L15.6329 7.16667ZM6.19644 1.83333H3.95111L1.784 5.83333H4.91644L6.19644 1.83333ZM10.1787 1.83333H7.59644L6.31556 5.83333H11.4578L10.1778 1.83333H10.1787ZM13.8231 1.83333H11.5787L12.8587 5.83333H15.9893L13.8231 1.83333Z" fill="#FF7624"/>
</svg>
