<svg width="20" height="19" viewBox="0 0 20 19" fill="none" xmlns="http://www.w3.org/2000/svg">
<path d="M11.6328 9.44771L19.7328 1.7527C19.9149 1.55078 20.01 1.29103 19.9992 1.02537C19.9884 0.759712 19.8724 0.50771 19.6746 0.319721C19.4767 0.131732 19.2114 0.0216032 18.9318 0.011342C18.6521 0.00108079 18.3787 0.0914432 18.1662 0.264371L10.0662 7.95937L1.96616 0.253815C1.7536 0.0808875 1.48018 -0.009474 1.20054 0.000787218C0.920905 0.0110484 0.655639 0.121177 0.457757 0.309165C0.259874 0.497154 0.143948 0.749156 0.133147 1.01481C0.122346 1.28047 0.217464 1.54022 0.399493 1.74215L8.49949 9.44771L0.388382 17.1427C0.272069 17.2373 0.177602 17.3538 0.11091 17.4847C0.044217 17.6157 0.00673852 17.7583 0.000827977 17.9037C-0.00508257 18.0491 0.0207018 18.194 0.0765624 18.3295C0.132423 18.4649 0.217154 18.588 0.325437 18.6908C0.433721 18.7937 0.563217 18.8742 0.705801 18.9273C0.848384 18.9803 1.00098 19.0048 1.154 18.9992C1.30702 18.9936 1.45717 18.958 1.59502 18.8946C1.73286 18.8313 1.85544 18.7415 1.95505 18.631L10.0662 10.936L18.1662 18.631C18.3787 18.804 18.6521 18.8943 18.9318 18.8841C19.2114 18.8738 19.4767 18.7637 19.6746 18.5757C19.8724 18.3877 19.9884 18.1357 19.9992 17.87C20.01 17.6044 19.9149 17.3446 19.7328 17.1427L11.6328 9.44771Z" fill="#232323"/>
</svg>
