<svg width="22" height="22" viewBox="0 0 22 22" fill="none" xmlns="http://www.w3.org/2000/svg">
<path d="M10.4695 7.91616L17.7595 1.60817C17.9234 1.44264 18.009 1.22971 17.9993 1.01194C17.9895 0.794162 17.8852 0.587582 17.7071 0.433479C17.529 0.279375 17.2903 0.189096 17.0386 0.180684C16.7869 0.172273 16.5408 0.246347 16.3495 0.388105L9.05954 6.69609L1.76954 0.379452C1.57824 0.237694 1.33217 0.16362 1.08049 0.172032C0.828815 0.180444 0.590076 0.270721 0.411981 0.424825C0.233886 0.578929 0.129554 0.785509 0.119832 1.00328C0.110111 1.22106 0.195718 1.43398 0.359544 1.59952L7.64954 7.91616L0.349544 14.2241C0.244862 14.3017 0.159842 14.3972 0.0998186 14.5045C0.0397953 14.6119 0.00606467 14.7288 0.000745179 14.848C-0.00457431 14.9671 0.0186316 15.086 0.0689062 15.197C0.119181 15.3081 0.195439 15.4089 0.292894 15.4932C0.390349 15.5776 0.506896 15.6435 0.635221 15.687C0.763546 15.7305 0.900878 15.7506 1.0386 15.746C1.17632 15.7414 1.31145 15.7122 1.43551 15.6603C1.55958 15.6084 1.6699 15.5348 1.75954 15.4442L9.05954 9.13622L16.3495 15.4442C16.5408 15.586 16.7869 15.66 17.0386 15.6516C17.2903 15.6432 17.529 15.5529 17.7071 15.3988C17.8852 15.2447 17.9895 15.0381 17.9993 14.8204C18.009 14.6026 17.9234 14.3897 17.7595 14.2241L10.4695 7.91616Z" fill="#ACACAC"/>
</svg>
