<svg width="12" height="8" viewBox="0 0 12 8" fill="none" xmlns="http://www.w3.org/2000/svg">
<path d="M1.79666 0.5C1.60795 0.50004 1.42311 0.553475 1.26348 0.654131C1.10386 0.754786 0.975978 0.898554 0.89461 1.06882C0.813243 1.23908 0.781713 1.4289 0.803664 1.61633C0.825616 1.80375 0.900153 1.98114 1.01866 2.128L4.83266 6.851C4.97327 7.02511 5.15105 7.16556 5.35298 7.26204C5.55491 7.35853 5.77587 7.4086 5.99966 7.4086C6.22346 7.4086 6.44442 7.35853 6.64635 7.26204C6.84828 7.16556 7.02606 7.02511 7.16666 6.851L10.9817 2.128C11.1002 1.98114 11.1747 1.80375 11.1967 1.61633C11.2186 1.4289 11.1871 1.23908 11.1057 1.06882C11.0243 0.898554 10.8965 0.754786 10.7368 0.654131C10.5772 0.553475 10.3924 0.50004 10.2037 0.5H1.79666Z" fill="#FF7624"/>
</svg>
