<svg width="18" height="21" viewBox="0 0 18 21" fill="none" xmlns="http://www.w3.org/2000/svg">
<path d="M7.7277 12.5312C7.72025 12.5536 7.67375 12.5517 7.58819 12.5257C7.50262 12.4996 7.38543 12.4568 7.23662 12.3973L7.01341 12.2969C6.68603 12.1481 6.36237 11.9658 6.04243 11.75C5.99034 11.7128 5.83781 11.5956 5.58484 11.3984C5.33186 11.2013 5.19049 11.0952 5.16073 11.0804C4.66222 11.8467 4.16371 12.5201 3.6652 13.1004C3.06252 13.8073 2.67189 14.2165 2.49332 14.3281C2.46356 14.343 2.39101 14.3579 2.27569 14.3728C2.16036 14.3876 2.09154 14.3876 2.06921 14.3728C2.11386 14.343 2.41892 14.0007 2.98439 13.346C3.14064 13.1674 3.45872 12.7396 3.93863 12.0625C4.41854 11.3854 4.71058 10.9464 4.81475 10.7455C4.94124 10.5223 5.13097 10.1559 5.38395 9.64621C5.63692 9.13653 5.77085 8.84821 5.78573 8.78125C5.72621 8.77381 5.31698 8.89658 4.55805 9.14955C4.49853 9.16443 4.39622 9.19234 4.25113 9.23326C4.10604 9.27418 3.9777 9.30952 3.86609 9.33929C3.75448 9.36905 3.69124 9.38765 3.67636 9.39509C3.66148 9.40997 3.65404 9.44903 3.65404 9.51228C3.65404 9.57552 3.65031 9.61086 3.64287 9.6183C3.60567 9.69271 3.49034 9.74851 3.29689 9.78571C3.12576 9.8378 2.95091 9.8378 2.77234 9.78571C2.63841 9.75595 2.53424 9.67783 2.45984 9.55134C2.43008 9.5067 2.41148 9.42113 2.40404 9.29464C2.44868 9.27976 2.53982 9.26116 2.67747 9.23884C2.81512 9.21652 2.92487 9.1942 3.00671 9.17188C3.43826 9.05283 3.82889 8.93378 4.17859 8.81473C4.92264 8.55432 5.3021 8.42411 5.31698 8.42411C5.39139 8.40923 5.55136 8.33668 5.79689 8.20647C6.04243 8.07626 6.20612 7.99628 6.28796 7.96652C6.35493 7.9442 6.43491 7.91443 6.52792 7.87723C6.62092 7.84003 6.67487 7.81957 6.68975 7.81585C6.70463 7.81213 6.72695 7.81399 6.75671 7.82143C6.77159 7.91071 6.76787 8.03348 6.74555 8.18973C6.74555 8.20461 6.69905 8.30506 6.60604 8.49107C6.51304 8.67708 6.41445 8.87612 6.31029 9.08817C6.20612 9.30022 6.14287 9.42485 6.12055 9.46205C5.93454 9.83408 5.64808 10.3214 5.26118 10.9241L5.97546 11.2366C6.06475 11.2812 6.34191 11.4003 6.80694 11.5938C7.27197 11.7872 7.52308 11.8914 7.56029 11.9062C7.59005 11.9137 7.62911 12.0086 7.67747 12.1908C7.72584 12.3731 7.74258 12.4866 7.7277 12.5312ZM5.43975 7.10714C5.46207 7.21875 5.44719 7.32292 5.39511 7.41964C5.30582 7.59077 5.11981 7.73214 4.83707 7.84375C4.61386 7.93304 4.39064 7.97768 4.16743 7.97768C3.97398 7.95536 3.79168 7.85863 3.62055 7.6875C3.51639 7.57589 3.44942 7.42336 3.41966 7.22991L3.43082 7.19643C3.45314 7.21875 3.52569 7.23735 3.64845 7.25223C3.77122 7.26711 3.86981 7.26711 3.94421 7.25223C4.01862 7.23735 4.23439 7.17783 4.59154 7.07366C4.85939 6.98438 5.06401 6.93229 5.20537 6.91741C5.33186 6.91741 5.40999 6.98065 5.43975 7.10714ZM13.2299 8.54688L13.9331 11.0804L12.3817 10.6116L13.2299 8.54688ZM0.863857 17.4754L8.60939 14.8862V3.3683L0.863857 5.96875V17.4754ZM14.7143 13.9375L15.8527 14.2835L13.8326 6.95089L12.7165 6.60491L10.3058 12.5871L11.4442 12.933L11.9464 11.7054L14.3014 12.4308L14.7143 13.9375ZM9.10046 3.20089L15.4956 5.25446V1.01339L9.10046 3.20089ZM12.5714 17.9665L14.3348 18.1116L13.7322 19.8973L13.2857 19.1607C12.3185 19.7783 11.2917 20.1801 10.2054 20.3661C9.77383 20.4554 9.43528 20.5 9.18975 20.5H8.25225C7.66445 20.5 6.92226 20.3549 6.02569 20.0647C5.12911 19.7746 4.44645 19.4583 3.9777 19.1161C3.91817 19.064 3.88841 19.0045 3.88841 18.9375C3.88841 18.878 3.90701 18.8278 3.94421 18.7868C3.98142 18.7459 4.02978 18.7254 4.0893 18.7254C4.11906 18.7254 4.18603 18.7533 4.2902 18.8092C4.39436 18.865 4.50783 18.9263 4.6306 18.9933C4.75337 19.0603 4.82963 19.1012 4.85939 19.1161C5.40255 19.3914 5.99592 19.6202 6.63953 19.8025C7.28313 19.9847 7.86906 20.0759 8.39734 20.0759C9.10418 20.0759 9.72546 20.0219 10.2612 19.9141C10.7969 19.8062 11.381 19.6183 12.0134 19.3504C12.125 19.2984 12.2385 19.2407 12.3538 19.1775C12.4691 19.1142 12.5956 19.0435 12.7333 18.9654C12.8709 18.8873 12.977 18.8259 13.0514 18.7812L12.5714 17.9665ZM17.5714 5.92411V17.9665L8.93305 15.221C8.82889 15.2656 7.4338 15.74 4.74779 16.644C2.06177 17.548 0.692726 18 0.640642 18C0.543916 18 0.476952 17.9516 0.43975 17.8549C0.43975 17.8475 0.436029 17.8363 0.428589 17.8214V5.79018C0.45091 5.72321 0.465791 5.68601 0.473232 5.67857C0.510434 5.63393 0.584839 5.59301 0.696446 5.5558C1.49258 5.28795 2.04689 5.10193 2.35939 4.99777V0.712054L8.58707 2.92188C8.60195 2.92188 9.19905 2.71726 10.3784 2.30804C11.5577 1.89881 12.7333 1.49516 13.9052 1.0971C15.077 0.699033 15.6778 0.5 15.7076 0.5C15.8564 0.5 15.9308 0.578125 15.9308 0.734375V5.39955L17.5714 5.92411Z" fill="#FF7624"/>
</svg>
