<svg width="34" height="30" viewBox="0 0 34 30" fill="none" xmlns="http://www.w3.org/2000/svg">
<path d="M26.901 0.5C27.0954 0.499862 27.287 0.544423 27.4605 0.630074C27.6339 0.715725 27.7843 0.840057 27.8993 0.993L27.9901 1.13317L33.3746 10.8449L33.4373 10.9948L33.4571 11.0592L33.4901 11.2236L33.5 11.375C33.5001 11.4839 33.4851 11.5923 33.4554 11.6972L33.3779 11.8986L33.3152 12.0098C33.2787 12.0678 33.2373 12.1228 33.1914 12.1741L33.2904 12.0484L33.2492 12.1048L17.9851 29.0296C17.8584 29.1942 17.6893 29.3231 17.4951 29.4033L17.3333 29.4565L17.2046 29.4839L17.0017 29.5L16.8366 29.4903L16.6419 29.4484C16.5411 29.4202 16.4445 29.379 16.3548 29.326L16.3399 29.3147C16.2616 29.2677 16.1896 29.2115 16.1254 29.1472L0.795379 12.1564L0.752475 12.1048L0.686469 12.0098C0.592971 11.8624 0.533296 11.6969 0.511551 11.5248L0.5 11.375L0.504951 11.2687L0.526403 11.1253C0.536684 11.0783 0.54991 11.0321 0.566007 10.9867L0.60231 10.8917L0.648515 10.7998L6.01155 1.13317C6.10401 0.966349 6.2354 0.823126 6.39508 0.715088C6.55476 0.607049 6.73825 0.537229 6.93069 0.511278L7.09901 0.5H26.901ZM21.9472 12.5833H12.0479L16.9984 24.9679L21.9472 12.5833ZM9.39274 12.5833H4.47525L13.3053 22.3692L9.39274 12.5833ZM29.5215 12.5833H24.6056L20.698 22.3628L29.5215 12.5833ZM12.0033 2.91667H7.83498L3.81188 10.1667H9.62706L12.0033 2.91667ZM19.396 2.91667H14.6023L12.2244 10.1667H21.7706L19.3944 2.91667H19.396ZM26.1617 2.91667H21.9951L24.3713 10.1667H30.1832L26.1617 2.91667Z" fill="#FF7624"/>
</svg>
