<svg width="12" height="18" viewBox="0 0 12 18" fill="none" xmlns="http://www.w3.org/2000/svg">
<path d="M11.8198 4.726L7.61987 0.476056C7.56707 0.416733 7.50217 0.369723 7.42965 0.338275C7.35714 0.306827 7.27874 0.291691 7.19987 0.293915H1.19998C0.882017 0.294876 0.577349 0.423116 0.352515 0.650628C0.127681 0.87814 0.000949619 1.18644 0 1.50819V16.0794C0.000949619 16.4012 0.127681 16.7095 0.352515 16.937C0.577349 17.1645 0.882017 17.2927 1.19998 17.2937H10.7998C11.1178 17.2927 11.4224 17.1645 11.6473 16.937C11.8721 16.7095 11.9988 16.4012 11.9998 16.0794V5.151C12.002 5.07119 11.987 4.99186 11.9559 4.91848C11.9249 4.8451 11.8784 4.77943 11.8198 4.726ZM7.19987 1.75104L10.5598 5.151H7.19987V1.75104ZM10.7998 16.0794H1.19998V1.50819H5.99989V5.151C6.00084 5.47275 6.12757 5.78104 6.35241 6.00855C6.57724 6.23607 6.88191 6.36431 7.19987 6.36527H10.7998V16.0794Z" fill="#454545"/>
</svg>
