<svg width="15" height="15" viewBox="0 0 15 15" fill="none" xmlns="http://www.w3.org/2000/svg">
<path d="M1.47368 8.60453L8.10526 8.60526C8.47706 8.60515 8.83515 8.74556 9.10777 8.99837C9.38039 9.25117 9.54738 9.59768 9.57526 9.96842L9.57895 10.0789V11.1842C9.57821 13.7632 6.84084 14.5 4.78947 14.5C2.78379 14.5 0.121579 13.7956 0.00368429 11.3537L0 11.1842V10.0782C0 9.30158 0.601263 8.66495 1.36316 8.60821L1.47368 8.60526V8.60453ZM9.74105 8.60526H13.2632C14.0398 8.60526 14.6764 9.20653 14.7324 9.96842L14.7368 10.0789V10.8158C14.7361 13.072 12.6309 13.7632 11.0526 13.7632C10.518 13.7644 9.98635 13.6844 9.47579 13.5259C9.72337 13.2415 9.92305 12.9165 10.0667 12.5481C10.3904 12.6204 10.721 12.6573 11.0526 12.6579L11.2494 12.6535C11.9752 12.6218 13.5233 12.386 13.6264 10.9668L13.6316 10.8158V10.0789C13.6315 9.99276 13.6012 9.90932 13.546 9.84311C13.4908 9.7769 13.4142 9.73208 13.3295 9.71642L13.2632 9.71053H10.2782C10.2173 9.34982 10.0665 9.01026 9.83979 8.72316L9.74105 8.60526ZM1.47368 9.70979L1.4 9.71716C1.32928 9.73188 1.2643 9.76667 1.21284 9.81737C1.16213 9.86852 1.12733 9.93327 1.11263 10.0038L1.10526 10.0782V11.1842C1.10526 11.9277 1.43684 12.4531 2.14937 12.8362C2.758 13.1641 3.62526 13.3623 4.55589 13.3911L4.78947 13.3947L5.02305 13.3911C5.95368 13.3623 6.82021 13.1641 7.42958 12.8362C8.09716 12.4766 8.43095 11.9925 8.47 11.3205L8.47368 11.1835V10.0789C8.47357 9.99276 8.4433 9.90932 8.38812 9.84311C8.33294 9.7769 8.25634 9.73208 8.17158 9.71642L8.10526 9.71053L1.47368 9.70979ZM4.78947 0.5C5.66888 0.5 6.51226 0.849341 7.13409 1.47117C7.75592 2.093 8.10526 2.93639 8.10526 3.81579C8.10526 4.69519 7.75592 5.53858 7.13409 6.16041C6.51226 6.78224 5.66888 7.13158 4.78947 7.13158C3.91007 7.13158 3.06669 6.78224 2.44486 6.16041C1.82303 5.53858 1.47368 4.69519 1.47368 3.81579C1.47368 2.93639 1.82303 2.093 2.44486 1.47117C3.06669 0.849341 3.91007 0.5 4.78947 0.5ZM11.4211 1.97368C12.105 1.97368 12.761 2.24539 13.2446 2.72904C13.7283 3.21269 14 3.86865 14 4.55263C14 5.23661 13.7283 5.89258 13.2446 6.37622C12.761 6.85987 12.105 7.13158 11.4211 7.13158C10.7371 7.13158 10.0811 6.85987 9.59746 6.37622C9.11382 5.89258 8.8421 5.23661 8.8421 4.55263C8.8421 3.86865 9.11382 3.21269 9.59746 2.72904C10.0811 2.24539 10.7371 1.97368 11.4211 1.97368ZM4.78947 1.60526C3.57074 1.60526 2.57895 2.59705 2.57895 3.81579C2.57895 5.03453 3.57074 6.02632 4.78947 6.02632C6.00821 6.02632 7 5.03453 7 3.81579C7 2.59705 6.00821 1.60526 4.78947 1.60526ZM11.4211 3.07895C10.6083 3.07895 9.94737 3.73989 9.94737 4.55263C9.94737 5.36537 10.6083 6.02632 11.4211 6.02632C12.2338 6.02632 12.8947 5.36537 12.8947 4.55263C12.8947 3.73989 12.2338 3.07895 11.4211 3.07895Z" fill="#212121"/>
</svg>
