<svg width="159" height="89" viewBox="0 0 159 89" fill="none" xmlns="http://www.w3.org/2000/svg">
<path d="M51.3245 48.6411L47.8396 41.4365C47.8396 41.4365 34.9639 11.0633 9.56864 5.375C8.75629 5.57809 8.65381 10.1504 8.65381 10.1504C8.65381 10.1504 12.5143 11.0652 14.3421 12.1812C25.2101 19.0881 38.8636 27.2209 44.2464 49.0612C46.8959 48.6411 51.3245 48.6411 51.3245 48.6411Z" fill="#454545"/>
<path d="M6.05208 11.3766C9.36137 11.3766 12.0441 8.82989 12.0441 5.68832C12.0441 2.54675 9.36137 0 6.05208 0C2.74278 0 0.0600586 2.54675 0.0600586 5.68832C0.0600586 8.82989 2.74278 11.3766 6.05208 11.3766Z" fill="#FF7624"/>
<path d="M106.998 48.007L110.207 40.7314C110.207 40.7314 123.083 10.3582 148.478 4.66992C149.291 4.87301 149.393 9.44527 149.393 9.44527C149.393 9.44527 145.533 10.3601 143.705 11.4762C132.837 18.383 119.183 26.5158 113.801 48.3561C109.025 46.4259 106.998 48.007 106.998 48.007Z" fill="#454545"/>
<path d="M152.948 11.3766C149.639 11.3766 146.956 8.82989 146.956 5.68832C146.956 2.54675 149.639 0 152.948 0C156.257 0 158.94 2.54675 158.94 5.68832C158.94 8.82989 156.257 11.3766 152.948 11.3766Z" fill="#FF7624"/>
<path d="M11.5071 69.2383C9.61964 68.6644 9.69264 66.2851 11.6342 65.8975C29.8081 62.2687 84.2695 53.7801 148.315 66.4363C150.307 66.8299 150.419 69.3847 148.477 69.9516L99.5669 84.8865C99.7703 84.8865 98.3567 84.9719 99.5669 84.8865H61.3715C61.16 84.8865 59.7093 84.016 59.5083 83.9549L11.5071 69.2383Z" fill="#454545"/>
<path d="M46.2627 43.8971C46.2627 43.8971 78.3668 31.0856 110.795 43.8971H46.2627Z" fill="#454545"/>
<path d="M80.3192 80.2742C69.1155 80.1245 60.0094 81.7766 59.9802 83.9641C59.9509 86.1516 69.0097 88.0462 80.2134 88.1958C91.4171 88.3455 100.523 86.6935 100.552 84.506C100.582 82.3185 91.5229 80.4238 80.3192 80.2742Z" fill="#FF7624"/>
<path d="M11.1842 66.3038C11.1051 66.361 10.9883 66.291 10.9883 66.1934V66.1934C10.9883 66.1624 10.9881 66.1444 11.0122 66.125C11.7812 65.5055 29.6892 51.9515 45.7335 47.1558C46.3782 46.9631 46.9242 47.6323 46.6233 48.2341V48.2341C46.5222 48.4364 46.3405 48.5841 46.122 48.6424C30.614 52.7741 13.2204 64.8303 11.1842 66.3038Z" fill="#454545"/>
<path d="M148.938 67.1816C148.697 66.9549 128.257 51.0433 109.254 45.3685C108.5 45.1434 107.861 45.9257 108.213 46.6293V46.6293C108.331 46.8657 108.544 47.0386 108.8 47.1066C127.965 52.206 148.69 66.9509 148.938 67.1816Z" fill="#454545"/>
<path fill-rule="evenodd" clip-rule="evenodd" d="M78.6298 31.0844C62.7392 31.0844 51.4165 38.4144 48.7114 44.0969C48.4778 44.5875 48.6766 45.031 49.1443 45.3678C49.6252 45.7141 50.4026 45.9507 51.2919 45.9507H106.412C107.301 45.9507 108.077 45.7139 108.555 45.3686C109.019 45.0332 109.214 44.5922 108.974 44.1042C106.186 38.4234 94.531 31.0844 78.6298 31.0844ZM47.0698 43.7717C49.9823 37.6533 61.9386 29.9766 78.6298 29.9766C95.3146 29.9766 107.608 37.6504 110.611 43.7699C111.048 44.6593 110.672 45.5022 109.836 46.1062C109.014 46.7003 107.762 47.0585 106.412 47.0585H51.2919C49.9414 47.0585 48.6894 46.7005 47.8652 46.107C47.0278 45.5039 46.6458 44.6622 47.0698 43.7717Z" fill="#454545"/>
<path d="M44.278 48.2099C43.667 49.7146 99.299 50.3833 113.571 48.1377C114.877 44.3647 112.5 43.6958 112.028 43.3977C82.3266 40.3523 57.8108 41.0209 45.8206 43.4712C44.8887 43.3977 42.7241 45.0334 44.278 48.2099Z" fill="#454545"/>
<path d="M44.278 48.2099C43.667 49.7146 99.299 50.3833 113.571 48.1377C114.877 44.3647 112.5 43.6958 112.028 43.3977C82.3266 40.3523 57.8108 41.0209 45.8206 43.4712C44.8887 43.3977 42.7241 45.0334 44.278 48.2099Z" fill="#454545"/>
</svg>
