<svg width="14" height="14" viewBox="0 0 14 14" fill="none" xmlns="http://www.w3.org/2000/svg">
<path d="M7.93982 7.00045L13.4665 1.47378C13.5757 1.34625 13.6328 1.1822 13.6263 1.01441C13.6198 0.84663 13.5503 0.68747 13.4315 0.568741C13.3128 0.450011 13.1536 0.380456 12.9859 0.373975C12.8181 0.367494 12.654 0.424565 12.5265 0.533783L6.99982 6.06045L1.47315 0.527116C1.34762 0.40158 1.17735 0.331055 0.999819 0.331055C0.822285 0.331055 0.652022 0.40158 0.526486 0.527116C0.40095 0.652652 0.330425 0.822915 0.330425 1.00045C0.330425 1.17798 0.40095 1.34825 0.526486 1.47378L6.05982 7.00045L0.526486 12.5271C0.456698 12.5869 0.400018 12.6604 0.360002 12.7431C0.319987 12.8258 0.2975 12.9159 0.293954 13.0077C0.290407 13.0996 0.305878 13.1911 0.339394 13.2767C0.372911 13.3622 0.423749 13.4399 0.488719 13.5049C0.553689 13.5699 0.631387 13.6207 0.716937 13.6542C0.802487 13.6877 0.894042 13.7032 0.985855 13.6996C1.07767 13.6961 1.16776 13.6736 1.25047 13.6336C1.33318 13.5936 1.40672 13.5369 1.46649 13.4671L6.99982 7.94045L12.5265 13.4671C12.654 13.5763 12.8181 13.6334 12.9859 13.6269C13.1536 13.6204 13.3128 13.5509 13.4315 13.4322C13.5503 13.3134 13.6198 13.1543 13.6263 12.9865C13.6328 12.8187 13.5757 12.6547 13.4665 12.5271L7.93982 7.00045Z" fill="#8A8A8A"/>
</svg>
