<svg width="26" height="26" viewBox="0 0 26 26" fill="none" xmlns="http://www.w3.org/2000/svg">
<path fill-rule="evenodd" clip-rule="evenodd" d="M26 12.7596C26 12.9189 26 13.0778 26 13.237C25.9892 13.3061 25.9784 13.3756 25.9683 13.4448C25.7253 15.1033 24.314 16.2823 22.6385 16.2455C20.557 16.1998 18.4752 16.1688 16.3937 16.1317C16.3474 16.1307 16.3011 16.1317 16.2443 16.1317C16.2443 16.2087 16.2443 16.2655 16.2443 16.3223C16.2443 18.4268 16.245 20.5314 16.2431 22.6359C16.2431 22.8164 16.2408 22.9997 16.212 23.1773C15.9897 24.5447 15.2107 25.4398 13.8968 25.8652C13.6852 25.9337 13.4588 25.9562 13.239 26C13.0798 26 12.9209 26 12.7617 26C12.6621 25.9832 12.5625 25.9657 12.4629 25.9499C10.8904 25.6993 9.7119 24.2793 9.74552 22.6924C9.79119 20.5482 9.82639 18.404 9.8654 16.2598C9.86635 16.2211 9.86223 16.1827 9.86001 16.131C9.80895 16.131 9.76613 16.1301 9.72332 16.131C9.4493 16.1377 9.17528 16.1469 8.90125 16.1513C7.06652 16.1824 5.2321 16.2135 3.39736 16.2408C3.19501 16.2436 2.98886 16.2414 2.79001 16.2084C1.51314 15.9968 0.64414 15.2765 0.188706 14.0687C0.0951455 13.8206 0.061528 13.5497 0 13.2893C0 13.0949 0 12.9001 0 12.7057C0.00792886 12.681 0.0202973 12.6572 0.0231517 12.6318C0.127178 11.7519 0.525208 11.0316 1.20931 10.4727C1.81317 9.9798 2.51155 9.74857 3.29079 9.7492C5.42207 9.7511 7.55303 9.74984 9.68399 9.74952C9.74362 9.74952 9.80292 9.74413 9.82988 9.74286C9.82988 9.04029 9.83781 8.35516 9.8283 7.67067C9.80768 6.19416 9.77597 4.71733 9.7544 3.24114C9.75155 3.05654 9.76614 2.86876 9.79976 2.68733C10.069 1.23239 11.1911 0.176473 12.6678 0.0207339C13.7978 -0.0985287 14.7426 0.298908 15.4832 1.15627C16.022 1.78017 16.2529 2.52017 16.251 3.34232C16.2466 5.42054 16.2497 7.49875 16.2497 9.57697C16.2497 9.63184 16.2497 9.68703 16.2497 9.75015C16.3319 9.75015 16.389 9.75015 16.446 9.75015C18.524 9.75015 20.602 9.74952 22.68 9.75174C22.8564 9.75174 23.0349 9.75745 23.2081 9.78568C24.4869 9.99597 25.3546 10.7176 25.8091 11.9254C25.9083 12.1903 25.9382 12.4811 26 12.7596Z" fill="#F0BABA"/>
</svg>
