<svg width="19" height="18" viewBox="0 0 19 18" fill="none" xmlns="http://www.w3.org/2000/svg">
<path d="M11.1208 8.91094L18.344 1.95856C18.5063 1.77612 18.5912 1.54144 18.5815 1.30142C18.5719 1.0614 18.4685 0.833713 18.2921 0.663866C18.1156 0.494019 17.879 0.394518 17.6297 0.385247C17.3803 0.375976 17.1365 0.457618 16.9469 0.613858L9.72367 7.56624L2.50041 0.604321C2.31086 0.448081 2.06704 0.36644 1.81767 0.375711C1.5683 0.384982 1.33174 0.484482 1.15528 0.654329C0.978815 0.824176 0.875438 1.05186 0.865806 1.29188C0.856173 1.5319 0.940996 1.76658 1.10332 1.94902L8.32658 8.91094L1.09341 15.8633C0.989691 15.9488 0.905449 16.054 0.845975 16.1724C0.786501 16.2907 0.753079 16.4195 0.747809 16.5509C0.742538 16.6822 0.765531 16.8132 0.815346 16.9356C0.86516 17.058 0.94072 17.1691 1.03728 17.2621C1.13385 17.355 1.24933 17.4277 1.37648 17.4757C1.50363 17.5236 1.6397 17.5457 1.77616 17.5407C1.91262 17.5356 2.04651 17.5034 2.16944 17.4462C2.29237 17.3889 2.40168 17.3079 2.4905 17.208L9.72367 10.2556L16.9469 17.208C17.1365 17.3643 17.3803 17.4459 17.6297 17.4366C17.879 17.4274 18.1156 17.3279 18.2921 17.158C18.4685 16.9882 18.5719 16.7605 18.5815 16.5205C18.5912 16.2804 18.5063 16.0458 18.344 15.8633L11.1208 8.91094Z" fill="#ACACAC"/>
</svg>
