<svg width="178" height="54" viewBox="0 0 178 54" fill="none" xmlns="http://www.w3.org/2000/svg">
<path d="M20.9974 25.6346L20.0182 23.5715C20.0182 23.5715 16.4003 14.8741 9.26462 13.2452C9.03636 13.3034 9.00757 14.6127 9.00757 14.6127C9.00757 14.6127 10.0923 14.8746 10.6059 15.1942C13.6597 17.172 17.4961 19.5009 19.0086 25.7549C19.753 25.6346 20.9974 25.6346 20.9974 25.6346Z" fill="#454545"/>
<path d="M8.27681 14.9633C9.20668 14.9633 9.96048 14.234 9.96048 13.3344C9.96048 12.4348 9.20668 11.7056 8.27681 11.7056C7.34694 11.7056 6.59314 12.4348 6.59314 13.3344C6.59314 14.234 7.34694 14.9633 8.27681 14.9633Z" fill="#FF7624"/>
<path d="M36.6413 25.4528L37.5431 23.3694C37.5431 23.3694 41.161 14.672 48.2967 13.0431C48.5249 13.1012 48.5537 14.4105 48.5537 14.4105C48.5537 14.4105 47.469 14.6725 46.9554 14.9921C43.9016 16.9699 40.0652 19.2987 38.5527 25.5528C37.2109 25 36.6413 25.4528 36.6413 25.4528Z" fill="#454545"/>
<path d="M49.5527 14.9633C48.6228 14.9633 47.869 14.234 47.869 13.3344C47.869 12.4348 48.6228 11.7056 49.5527 11.7056C50.4825 11.7056 51.2363 12.4348 51.2363 13.3344C51.2363 14.234 50.4825 14.9633 49.5527 14.9633Z" fill="#FF7624"/>
<path d="M9.80935 31.5313C9.27899 31.367 9.2995 30.6857 9.84506 30.5747C14.9517 29.5356 30.2545 27.1048 48.2505 30.729C48.8101 30.8417 48.8417 31.5733 48.2958 31.7356L34.5529 36.0122C34.61 36.0122 34.2129 36.0367 34.5529 36.0122H23.8205C23.7611 36.0122 23.3535 35.763 23.297 35.7455L9.80935 31.5313Z" fill="#454545"/>
<path d="M19.5754 24.2753C19.5754 24.2753 28.5962 20.6067 37.708 24.2753H19.5754Z" fill="#454545"/>
<path d="M29.145 34.6936C25.997 34.6507 23.4383 35.1238 23.4301 35.7502C23.4219 36.3766 25.9672 36.9191 29.1153 36.962C32.2634 37.0048 34.8221 36.5318 34.8303 35.9054C34.8385 35.279 32.2931 34.7364 29.145 34.6936Z" fill="#FF7624"/>
<path d="M9.71923 30.6918C9.69701 30.7082 9.66419 30.6882 9.66418 30.6602V30.6602C9.66418 30.6514 9.66413 30.6462 9.6709 30.6406C9.88699 30.4632 14.9189 26.582 19.4271 25.2088C19.6082 25.1536 19.7617 25.3452 19.6771 25.5175V25.5175C19.6487 25.5754 19.5977 25.6178 19.5363 25.6344C15.1787 26.8176 10.2914 30.2699 9.71923 30.6918Z" fill="#454545"/>
<path d="M48.4264 30.9436C48.3584 30.8786 42.6153 26.3223 37.2755 24.6973C37.0637 24.6329 36.8843 24.8569 36.9832 25.0583V25.0583C37.0164 25.126 37.0762 25.1756 37.148 25.195C42.5331 26.6553 48.3566 30.8775 48.4264 30.9436Z" fill="#454545"/>
<path fill-rule="evenodd" clip-rule="evenodd" d="M28.6699 20.6074C24.2049 20.6074 21.0234 22.7064 20.2633 24.3336C20.1977 24.4741 20.2535 24.601 20.3849 24.6975C20.5201 24.7967 20.7385 24.8644 20.9884 24.8644H36.4762C36.7262 24.8644 36.9443 24.7966 37.0785 24.6977C37.2089 24.6017 37.2635 24.4754 37.1962 24.3357C36.4129 22.7089 33.138 20.6074 28.6699 20.6074ZM19.802 24.2404C20.6204 22.4884 23.9799 20.2902 28.6699 20.2902C33.3581 20.2902 36.8124 22.4876 37.6563 24.2399C37.7789 24.4946 37.6733 24.736 37.4385 24.9089C37.2076 25.0791 36.8557 25.1816 36.4762 25.1816H20.9884C20.6089 25.1816 20.2571 25.0791 20.0255 24.9091C19.7902 24.7365 19.6829 24.4954 19.802 24.2404Z" fill="#454545"/>
<path d="M19.0174 25.5114C18.8458 25.9423 34.4776 26.1338 38.4878 25.4907C38.8547 24.4103 38.1868 24.2188 38.0543 24.1334C29.7085 23.2614 22.82 23.4528 19.4509 24.1545C19.189 24.1334 18.5808 24.6018 19.0174 25.5114Z" fill="#454545"/>
<path d="M19.0174 25.5114C18.8458 25.9423 34.4776 26.1338 38.4878 25.4907C38.8547 24.4103 38.1868 24.2188 38.0543 24.1334C29.7085 23.2614 22.82 23.4528 19.4509 24.1545C19.189 24.1334 18.5808 24.6018 19.0174 25.5114Z" fill="#454545"/>
<path d="M53.6983 30.9238C53.5271 31.0983 53.2988 31.1852 53.0423 31.1852C52.7858 31.1852 52.5575 31.0983 52.3863 30.9238C52.2151 30.7494 52.1293 30.5162 52.1293 30.2542V23.7393C52.1293 23.4773 52.2151 23.2447 52.3863 23.0703C52.5575 22.8958 52.7858 22.8088 53.0423 22.8088C53.2988 22.8088 53.5271 22.8963 53.6983 23.0703C53.8695 23.2447 53.9553 23.4773 53.9553 23.7393V30.2836C53.9553 30.545 53.8695 30.7494 53.6983 30.9238Z" fill="#FF7624"/>
<path d="M67.3416 29.3538C67.7693 29.3538 68.1122 29.2663 68.4258 29.1207C68.6824 28.9462 68.9112 28.7718 69.0823 28.5391C69.2535 28.3065 69.3394 28.0451 69.3965 27.7831C69.453 27.5217 69.4818 27.2597 69.4818 27.0266C69.4818 26.794 69.4253 26.5325 69.3965 26.2706C69.3394 26.0086 69.2253 25.7472 69.0823 25.5146C68.9112 25.2814 68.6824 25.0781 68.4258 24.933C68.1688 24.7586 67.7693 24.7004 67.3416 24.7004H56.7244C56.4674 24.7004 56.2396 24.6129 56.0685 24.4384C55.8973 24.264 55.8114 24.0314 55.8114 23.7694C55.8114 23.5074 55.8973 23.2748 56.0685 23.1003C56.2396 22.9259 56.4679 22.8384 56.7244 22.8384H67.7128C68.2834 22.8384 68.74 22.984 69.1682 23.2455C69.5965 23.5074 69.9388 23.827 70.2524 24.2634C70.566 24.6705 70.766 25.1069 70.9377 25.6303C71.1089 26.1249 71.166 26.5902 71.166 27.1136C71.166 27.6087 71.0801 28.0734 70.9377 28.5685C70.7665 29.0625 70.5383 29.499 70.2818 29.8772C69.9671 30.2843 69.6247 30.6332 69.2541 30.8952C68.8829 31.1572 68.3981 31.3023 67.884 31.3316H56.7244C56.4674 31.3316 56.2396 31.2441 56.0685 31.0697C55.8973 30.8952 55.8114 30.6626 55.8114 30.4012V27.2011C55.8114 26.9391 55.8973 26.707 56.0685 26.5325C56.2396 26.3581 56.4679 26.2706 56.7244 26.2706C56.981 26.2706 57.2092 26.3581 57.3804 26.5325C57.5516 26.707 57.6375 26.9396 57.6375 27.2011V29.5571H67.3416V29.3538Z" fill="#FF7624"/>
<path d="M91.7438 30.8367C91.5726 31.0693 91.3156 31.1856 91.0585 31.1856C90.8015 31.1856 90.5738 31.0986 90.4026 30.9242C90.2314 30.7497 90.1455 30.5165 90.1455 30.2546C90.1455 30.022 90.2026 29.8182 90.3167 29.673L94.9405 23.4483C95.1688 23.1288 95.4541 22.925 95.7965 22.7505C96.1389 22.576 96.5383 22.4885 96.9095 22.4885C97.2802 22.4885 97.6513 22.576 97.9937 22.7505C98.3361 22.925 98.5932 23.1576 98.8214 23.4483L103.388 29.7024C103.474 29.7899 103.531 29.8768 103.559 30.0225C103.616 30.11 103.645 30.2551 103.645 30.3714C103.645 30.6334 103.559 30.866 103.388 31.0399C103.217 31.2144 102.989 31.3019 102.732 31.3019C102.418 31.3019 102.161 31.1568 101.99 30.953L97.5948 24.9902C97.509 24.9027 97.366 24.7576 97.2524 24.6413C97.1095 24.4957 96.9954 24.4669 96.8524 24.4669C96.71 24.4669 96.5959 24.525 96.453 24.6413C96.3106 24.7864 96.2247 24.8739 96.1394 24.9902L91.7438 30.8367Z" fill="#FF7624"/>
<path d="M117.717 22.8376C118.059 22.8376 118.402 22.9251 118.715 23.0703C119.029 23.2159 119.286 23.3904 119.543 23.6518C119.772 23.8844 119.971 24.1464 120.114 24.4372C120.257 24.7279 120.343 25.1062 120.343 25.4551C120.343 25.8041 120.257 26.153 120.114 26.4737C119.971 26.7932 119.8 27.0552 119.543 27.259C119.315 27.4916 119.03 27.6661 118.715 27.8406C118.402 27.9857 118.059 28.0732 117.717 28.0732H107.328V30.4292C107.328 30.6912 107.242 30.9244 107.071 31.0988C106.899 31.2733 106.671 31.3602 106.415 31.3602C106.158 31.3602 105.929 31.2728 105.758 31.0988C105.586 30.9244 105.5 30.6912 105.5 30.4292V23.7393C105.5 23.4774 105.586 23.2447 105.758 23.0703C105.929 22.8958 106.158 22.8088 106.415 22.8088C106.414 22.8376 117.717 22.8376 117.717 22.8376ZM107.298 24.6698V26.066H117.744C117.915 26.066 118.087 25.9785 118.258 25.8334C118.401 25.6883 118.487 25.5133 118.487 25.31C118.487 25.1356 118.401 24.9611 118.258 24.8154C118.115 24.6703 117.944 24.5828 117.744 24.5828H107.298V24.6698Z" fill="#454545"/>
<path d="M137.467 26.9978C137.467 27.4918 137.381 27.9576 137.238 28.481C137.067 28.975 136.838 29.4115 136.553 29.8479C136.238 30.255 135.868 30.6039 135.468 30.8659C135.04 31.1273 134.555 31.2735 134.012 31.2735H125.422C124.909 31.2148 124.423 31.099 124.052 30.8376C123.652 30.5756 123.31 30.2267 123.025 29.8191C122.71 29.412 122.511 28.9756 122.368 28.5103C122.196 28.0163 122.139 27.5505 122.139 27.0559C122.139 26.5613 122.225 26.0961 122.368 25.5727C122.539 25.0781 122.768 24.6422 123.053 24.2058C123.367 23.7982 123.71 23.4493 124.138 23.1878C124.566 22.9259 125.051 22.7808 125.594 22.7808H134.184C134.697 22.8389 135.183 22.9552 135.554 23.2172C135.954 23.4786 136.296 23.8281 136.581 24.2352C136.896 24.6428 137.094 25.0787 137.238 25.5439C137.41 26.038 137.467 26.5027 137.467 26.9978ZM134.669 29.0919C134.926 28.9174 135.155 28.743 135.326 28.5098C135.497 28.2772 135.582 28.0158 135.64 27.7538C135.697 27.4918 135.725 27.2304 135.725 26.9978C135.725 26.7646 135.669 26.5027 135.64 26.2412C135.611 25.9798 135.468 25.7178 135.326 25.4852C135.155 25.2526 134.926 25.0488 134.669 24.9037C134.413 24.7292 134.012 24.6711 133.585 24.6711H125.993C125.565 24.6711 125.165 24.7586 124.909 24.9037C124.652 25.0781 124.423 25.2526 124.252 25.4852C124.081 25.7178 123.995 25.9798 123.938 26.2412C123.882 26.5032 123.852 26.7646 123.852 26.9978C123.852 27.2304 123.909 27.4918 123.938 27.7538C123.995 28.0158 124.109 28.2772 124.252 28.5098C124.423 28.743 124.652 28.9462 124.909 29.0919C125.166 29.2663 125.565 29.3245 125.993 29.3245H133.585C134.042 29.3538 134.384 29.2663 134.669 29.0919Z" fill="#454545"/>
<path d="M141.148 26.0658H145.487C146.143 26.0658 146.771 25.9783 147.427 25.8039C148.084 25.6294 148.683 25.3968 149.282 25.106C149.882 24.8441 150.453 24.4951 150.995 24.1462C151.566 23.7973 152.079 23.3902 152.594 23.0413C152.822 22.8668 153.021 22.7793 153.25 22.7793C153.507 22.7793 153.735 22.8668 153.906 23.0413C154.077 23.2157 154.163 23.4483 154.163 23.7098C154.163 23.8842 154.106 24.0587 153.991 24.2044C153.906 24.3495 153.763 24.4663 153.649 24.5533C153.307 24.8147 152.993 25.0473 152.707 25.2511C152.394 25.4838 152.108 25.6876 151.794 25.862C151.481 26.0365 151.195 26.2691 150.852 26.4436C150.538 26.618 150.196 26.7925 149.825 26.967C150.167 27.1414 150.51 27.3159 150.852 27.4904C151.166 27.6648 151.508 27.8393 151.794 28.0719C152.108 28.2464 152.394 28.4795 152.707 28.6828C153.022 28.916 153.307 29.1779 153.649 29.3807C153.792 29.4682 153.906 29.6138 153.991 29.7296C154.077 29.8752 154.163 30.0502 154.163 30.2247C154.163 30.4867 154.077 30.7187 153.906 30.8932C153.735 31.0677 153.507 31.1552 153.25 31.1552C153.021 31.1552 152.822 31.0677 152.594 30.8932C152.08 30.4861 151.566 30.1372 150.995 29.7883C150.424 29.4393 149.881 29.1192 149.282 28.8285C148.683 28.5665 148.084 28.3051 147.427 28.1589C146.771 27.9844 146.143 27.8969 145.487 27.8969H141.148V30.253C141.148 30.5149 141.063 30.7481 140.892 30.9226C140.72 31.097 140.492 31.184 140.292 31.184C140.035 31.184 139.807 31.097 139.636 30.9226C139.465 30.7481 139.379 30.5149 139.379 30.253V23.7391C139.379 23.4772 139.465 23.2445 139.636 23.0701C139.807 22.8956 140.035 22.8086 140.235 22.8086C140.492 22.8086 140.72 22.8961 140.892 23.0701C141.063 23.2445 141.148 23.4772 141.148 23.7391V26.0658Z" fill="#454545"/>
<path d="M97.0523 29.7309C97.6199 29.7309 98.08 29.262 98.08 28.6835C98.08 28.1051 97.6199 27.6362 97.0523 27.6362C96.4848 27.6362 96.0247 28.1051 96.0247 28.6835C96.0247 29.262 96.4848 29.7309 97.0523 29.7309Z" fill="#FF7624"/>
<path d="M72.7642 26.9984C72.7642 26.5033 72.85 26.0386 72.9924 25.5147C73.1636 25.0201 73.3919 24.5837 73.6777 24.1472C73.9913 23.7401 74.3337 23.3912 74.7619 23.1292C75.1902 22.8673 75.6755 22.7222 76.2174 22.7222H87.2345C87.491 22.7222 87.7193 22.8097 87.8905 22.9841C88.0617 23.1586 88.1475 23.3912 88.1475 23.6526C88.1475 23.9141 88.0617 24.1472 87.8905 24.3217C87.7193 24.4962 87.491 24.5837 87.2345 24.5837H76.6173C76.1891 24.5837 75.7891 24.6712 75.5321 24.8163C75.2755 24.9907 75.0473 25.1652 74.8761 25.3978C74.7049 25.6304 74.619 25.8924 74.5625 26.1538C74.5049 26.4158 74.4766 26.6772 74.4766 26.9104C74.4766 27.143 74.5337 27.4044 74.5625 27.6664C74.619 27.9283 74.7337 28.1898 74.8761 28.4224C75.0473 28.6555 75.2755 28.8588 75.5321 29.0045C75.7891 29.1789 76.1891 29.2371 76.6173 29.2371H87.2345C87.491 29.2371 87.7193 29.3246 87.8905 29.4991C88.0617 29.6735 88.1475 29.9061 88.1475 30.1676C88.1475 30.429 88.0617 30.6627 87.8905 30.8371C87.7193 31.0116 87.491 31.0991 87.2345 31.0991H76.075C75.5614 31.0991 75.0761 30.9535 74.7049 30.6915C74.3054 30.4295 73.963 30.1099 73.6777 29.6735C73.3641 29.2664 73.1641 28.8007 73.0217 28.3066C72.85 27.9582 72.7642 27.4636 72.7642 26.9984Z" fill="#FF7624"/>
<path d="M75.7327 26.998C75.7327 26.7361 75.8185 26.5029 75.9609 26.3284C76.1038 26.154 76.2756 26.067 76.4745 26.067H87.1775C87.4063 26.067 87.5775 26.154 87.6911 26.3284C87.834 26.5029 87.9199 26.7361 87.9199 26.998C87.9199 27.26 87.834 27.4921 87.6911 27.6665C87.5487 27.841 87.377 27.9285 87.1775 27.9285H76.4745C76.2462 27.9285 76.075 27.841 75.9609 27.6665C75.818 27.4345 75.7327 27.2013 75.7327 26.998Z" fill="#FF7624"/>
<path d="M155.219 26.8224C155.219 26.3273 155.305 25.8626 155.447 25.3386C155.619 24.8441 155.848 24.4076 156.133 23.9712C156.447 23.5641 156.79 23.2152 157.218 22.9532C157.646 22.6913 158.131 22.5461 158.673 22.5461H169.661C169.918 22.5461 170.147 22.6336 170.318 22.8081C170.489 22.9826 170.574 23.2152 170.574 23.4766C170.574 23.7386 170.489 23.9712 170.318 24.1457C170.147 24.3201 169.918 24.4076 169.661 24.4076H159.044C158.616 24.4076 158.216 24.4951 157.959 24.6408C157.703 24.8152 157.475 24.9897 157.303 25.2223C157.132 25.4549 157.046 25.7169 156.989 25.9783C156.932 26.2398 156.903 26.5017 156.903 26.7349C156.903 26.9675 156.96 27.2289 156.989 27.4909C157.046 27.7529 157.16 28.0143 157.303 28.2469C157.475 28.4801 157.703 28.6833 157.959 28.829C158.216 29.0034 158.616 29.0616 159.044 29.0616H169.661C169.918 29.0616 170.147 29.1491 170.318 29.3236C170.489 29.498 170.574 29.7306 170.574 29.9921C170.574 30.2535 170.489 30.4872 170.318 30.6617C170.147 30.8361 169.918 30.9236 169.661 30.9236H158.502C157.989 30.9236 157.503 30.778 157.132 30.516C156.732 30.254 156.39 29.9345 156.105 29.498C155.79 29.0909 155.591 28.6252 155.447 28.1311C155.305 27.7822 155.219 27.2871 155.219 26.8224Z" fill="#454545"/>
<path d="M158.188 26.7642C158.188 26.5023 158.273 26.2702 158.416 26.0957C158.559 25.9212 158.73 25.8337 158.93 25.8337H169.632C169.861 25.8337 170.032 25.9212 170.146 26.0957C170.26 26.2702 170.374 26.5028 170.374 26.7642C170.374 27.0256 170.289 27.2593 170.146 27.4338C170.003 27.6083 169.831 27.6952 169.632 27.6952H158.93C158.701 27.6952 158.529 27.6083 158.416 27.4338C158.273 27.2593 158.188 27.0262 158.188 26.7642Z" fill="#454545"/>
<path d="M57.8165 36.1036L56.5474 40.566H55.9066L54.8889 36.9743L53.8335 40.566L53.1989 40.5724L51.9739 36.1036H52.5833L53.5382 39.8874L54.5936 36.1036H55.2344L56.2396 39.8746L57.2008 36.1036H57.8165Z" fill="#454545"/>
<path d="M60.3917 36.9935C60.6514 36.9935 60.8859 37.0511 61.0953 37.1664C61.3048 37.2774 61.4681 37.446 61.5854 37.6722C61.7068 37.8984 61.7676 38.1737 61.7676 38.4981V40.566H61.2021V38.5813C61.2021 38.2313 61.1163 37.9645 60.9446 37.781C60.7729 37.5932 60.5383 37.4993 60.2409 37.4993C59.9394 37.4993 59.6986 37.5953 59.5185 37.7874C59.3426 37.9795 59.2546 38.2591 59.2546 38.6261V40.566H58.6829V35.8283H59.2546V37.5569C59.3677 37.3777 59.5227 37.2389 59.7195 37.1408C59.9205 37.0426 60.1446 36.9935 60.3917 36.9935Z" fill="#454545"/>
<path d="M66.0834 38.6773C66.0834 38.7883 66.0771 38.9057 66.0646 39.0295H63.3129C63.3338 39.3752 63.449 39.6462 63.6584 39.8426C63.872 40.0346 64.1296 40.1307 64.4312 40.1307C64.6783 40.1307 64.8835 40.0731 65.0468 39.9578C65.2144 39.8383 65.3316 39.6804 65.3986 39.484H66.0143C65.9222 39.8212 65.7379 40.0965 65.4615 40.3099C65.185 40.5191 64.8416 40.6237 64.4312 40.6237C64.1045 40.6237 63.8113 40.549 63.5516 40.3996C63.2961 40.2502 63.0951 40.0389 62.9485 39.7657C62.8019 39.4883 62.7286 39.1682 62.7286 38.8054C62.7286 38.4426 62.7998 38.1246 62.9422 37.8514C63.0846 37.5783 63.2836 37.3691 63.5391 37.224C63.7987 37.0746 64.0961 36.9999 64.4312 36.9999C64.7578 36.9999 65.0468 37.0725 65.2981 37.2176C65.5494 37.3627 65.7421 37.5633 65.8761 37.8194C66.0143 38.0713 66.0834 38.3572 66.0834 38.6773ZM65.4929 38.5557C65.4929 38.3338 65.4447 38.1438 65.3484 37.9859C65.2521 37.8237 65.1201 37.7021 64.9526 37.621C64.7893 37.5356 64.6071 37.4929 64.406 37.4929C64.117 37.4929 63.8699 37.5868 63.6647 37.7746C63.4637 37.9624 63.3485 38.2228 63.3192 38.5557H65.4929Z" fill="#454545"/>
<path d="M67.6506 37.6274C67.7511 37.4268 67.8935 37.271 68.0778 37.16C68.2662 37.049 68.4945 36.9935 68.7625 36.9935V37.5953H68.6118C67.971 37.5953 67.6506 37.9496 67.6506 38.6581V40.566H67.0789V37.0575H67.6506V37.6274Z" fill="#454545"/>
<path d="M72.8045 38.6773C72.8045 38.7883 72.7982 38.9057 72.7856 39.0295H70.034C70.0549 39.3752 70.1701 39.6462 70.3795 39.8426C70.5931 40.0346 70.8507 40.1307 71.1522 40.1307C71.3993 40.1307 71.6045 40.0731 71.7679 39.9578C71.9354 39.8383 72.0527 39.6804 72.1197 39.484H72.7354C72.6432 39.8212 72.4589 40.0965 72.1825 40.3099C71.9061 40.5191 71.5627 40.6237 71.1522 40.6237C70.8255 40.6237 70.5324 40.549 70.2727 40.3996C70.0172 40.2502 69.8162 40.0389 69.6696 39.7657C69.523 39.4883 69.4497 39.1682 69.4497 38.8054C69.4497 38.4426 69.5209 38.1246 69.6633 37.8514C69.8057 37.5783 70.0046 37.3691 70.2601 37.224C70.5198 37.0746 70.8172 36.9999 71.1522 36.9999C71.4789 36.9999 71.7679 37.0725 72.0192 37.2176C72.2705 37.3627 72.4631 37.5633 72.5972 37.8194C72.7354 38.0713 72.8045 38.3572 72.8045 38.6773ZM72.2139 38.5557C72.2139 38.3338 72.1658 38.1438 72.0694 37.9859C71.9731 37.8237 71.8412 37.7021 71.6737 37.621C71.5103 37.5356 71.3281 37.4929 71.1271 37.4929C70.8381 37.4929 70.591 37.5868 70.3858 37.7746C70.1847 37.9624 70.0696 38.2228 70.0402 38.5557H72.2139Z" fill="#454545"/>
<path d="M76.413 37.5377V39.6057C76.413 39.7764 76.4486 39.8981 76.5198 39.9706C76.591 40.0389 76.7145 40.0731 76.8904 40.0731H77.3113V40.566H76.7962C76.4779 40.566 76.2392 40.4913 76.08 40.342C75.9208 40.1926 75.8413 39.9471 75.8413 39.6057V37.5377H75.3952V37.0575H75.8413V36.174H76.413V37.0575H77.3113V37.5377H76.413Z" fill="#454545"/>
<path d="M79.9536 36.9935C80.2133 36.9935 80.4479 37.0511 80.6573 37.1664C80.8667 37.2774 81.03 37.446 81.1473 37.6722C81.2688 37.8984 81.3295 38.1737 81.3295 38.4981V40.566H80.7641V38.5813C80.7641 38.2313 80.6782 37.9645 80.5065 37.781C80.3348 37.5932 80.1002 37.4993 79.8029 37.4993C79.5013 37.4993 79.2605 37.5953 79.0804 37.7874C78.9045 37.9795 78.8165 38.2591 78.8165 38.6261V40.566H78.2448V35.8283H78.8165V37.5569C78.9296 37.3777 79.0846 37.2389 79.2814 37.1408C79.4825 37.0426 79.7065 36.9935 79.9536 36.9935Z" fill="#454545"/>
<path d="M85.6453 38.6773C85.6453 38.7883 85.6391 38.9057 85.6265 39.0295H82.8748C82.8958 39.3752 83.0109 39.6462 83.2204 39.8426C83.434 40.0346 83.6915 40.1307 83.9931 40.1307C84.2402 40.1307 84.4454 40.0731 84.6088 39.9578C84.7763 39.8383 84.8936 39.6804 84.9606 39.484H85.5762C85.4841 39.8212 85.2998 40.0965 85.0234 40.3099C84.747 40.5191 84.4035 40.6237 83.9931 40.6237C83.6664 40.6237 83.3732 40.549 83.1136 40.3996C82.8581 40.2502 82.657 40.0389 82.5104 39.7657C82.3639 39.4883 82.2906 39.1682 82.2906 38.8054C82.2906 38.4426 82.3618 38.1246 82.5042 37.8514C82.6466 37.5783 82.8455 37.3691 83.101 37.224C83.3607 37.0746 83.658 36.9999 83.9931 36.9999C84.3198 36.9999 84.6088 37.0725 84.86 37.2176C85.1113 37.3627 85.304 37.5633 85.438 37.8194C85.5762 38.0713 85.6453 38.3572 85.6453 38.6773ZM85.0548 38.5557C85.0548 38.3338 85.0066 38.1438 84.9103 37.9859C84.814 37.8237 84.682 37.7021 84.5145 37.621C84.3512 37.5356 84.169 37.4929 83.968 37.4929C83.679 37.4929 83.4319 37.5868 83.2266 37.7746C83.0256 37.9624 82.9104 38.2228 82.8811 38.5557H85.0548Z" fill="#454545"/>
<path d="M93.1426 37.0575L92.0683 40.566H91.4778L90.6485 37.781L89.8192 40.566H89.2287L88.1481 37.0575H88.7324L89.524 40.0026L90.3784 37.0575H90.9626L91.7982 40.009L92.5772 37.0575H93.1426Z" fill="#454545"/>
<path d="M95.4523 40.6237C95.1298 40.6237 94.8366 40.549 94.5728 40.3996C94.3131 40.2502 94.1079 40.0389 93.9571 39.7657C93.8105 39.4883 93.7372 39.1682 93.7372 38.8054C93.7372 38.4469 93.8126 38.131 93.9634 37.8578C94.1183 37.5804 94.3278 37.3691 94.5916 37.224C94.8555 37.0746 95.1507 36.9999 95.4774 36.9999C95.8041 36.9999 96.0994 37.0746 96.3632 37.224C96.6271 37.3691 96.8344 37.5783 96.9852 37.8514C97.1402 38.1246 97.2176 38.4426 97.2176 38.8054C97.2176 39.1682 97.1381 39.4883 96.9789 39.7657C96.8239 40.0389 96.6124 40.2502 96.3444 40.3996C96.0763 40.549 95.779 40.6237 95.4523 40.6237ZM95.4523 40.1115C95.6575 40.1115 95.8502 40.0624 96.0303 39.9642C96.2104 39.866 96.3549 39.7188 96.4637 39.5225C96.5768 39.3261 96.6334 39.0871 96.6334 38.8054C96.6334 38.5237 96.5789 38.2847 96.47 38.0883C96.3611 37.892 96.2187 37.7469 96.0428 37.653C95.8669 37.5548 95.6764 37.5057 95.4711 37.5057C95.2617 37.5057 95.0691 37.5548 94.8932 37.653C94.7214 37.7469 94.5832 37.892 94.4785 38.0883C94.3738 38.2847 94.3215 38.5237 94.3215 38.8054C94.3215 39.0914 94.3717 39.3325 94.4722 39.5289C94.577 39.7252 94.7152 39.8724 94.8869 39.9706C95.0586 40.0645 95.2471 40.1115 95.4523 40.1115Z" fill="#454545"/>
<path d="M98.7818 37.6274C98.8823 37.4268 99.0247 37.271 99.209 37.16C99.3975 37.049 99.6258 36.9935 99.8938 36.9935V37.5953H99.743C99.1022 37.5953 98.7818 37.9496 98.7818 38.6581V40.566H98.2101V37.0575H98.7818V37.6274Z" fill="#454545"/>
<path d="M101.366 35.8283V40.566H100.795V35.8283H101.366Z" fill="#454545"/>
<path d="M102.368 38.799C102.368 38.4405 102.439 38.1267 102.581 37.8578C102.724 37.5847 102.919 37.3734 103.166 37.224C103.417 37.0746 103.698 36.9999 104.008 36.9999C104.276 36.9999 104.525 37.064 104.755 37.192C104.985 37.3158 105.161 37.4801 105.283 37.685V35.8283H105.861V40.566H105.283V39.9066C105.17 40.1157 105.002 40.2886 104.78 40.4252C104.558 40.5575 104.299 40.6237 104.001 40.6237C103.696 40.6237 103.417 40.5468 103.166 40.3932C102.919 40.2395 102.724 40.024 102.581 39.7465C102.439 39.4691 102.368 39.1533 102.368 38.799ZM105.283 38.8054C105.283 38.5408 105.23 38.3103 105.126 38.1139C105.021 37.9176 104.879 37.7682 104.699 37.6658C104.523 37.5591 104.328 37.5057 104.114 37.5057C103.901 37.5057 103.706 37.5569 103.53 37.6594C103.354 37.7618 103.214 37.9112 103.109 38.1075C103.004 38.3039 102.952 38.5344 102.952 38.799C102.952 39.0679 103.004 39.3026 103.109 39.5032C103.214 39.6996 103.354 39.8511 103.53 39.9578C103.706 40.0603 103.901 40.1115 104.114 40.1115C104.328 40.1115 104.523 40.0603 104.699 39.9578C104.879 39.8511 105.021 39.6996 105.126 39.5032C105.23 39.3026 105.283 39.07 105.283 38.8054Z" fill="#454545"/>
<path d="M108.77 38.8054C108.77 38.4426 108.841 38.1267 108.983 37.8578C109.126 37.5847 109.323 37.3734 109.574 37.224C109.829 37.0746 110.121 36.9999 110.447 36.9999C110.87 36.9999 111.218 37.1045 111.49 37.3136C111.767 37.5228 111.949 37.813 112.037 38.1844H111.421C111.362 37.971 111.247 37.8024 111.075 37.6786C110.908 37.5548 110.699 37.4929 110.447 37.4929C110.121 37.4929 109.857 37.6082 109.656 37.8386C109.455 38.0649 109.354 38.3871 109.354 38.8054C109.354 39.2279 109.455 39.5545 109.656 39.785C109.857 40.0154 110.121 40.1307 110.447 40.1307C110.699 40.1307 110.908 40.0709 111.075 39.9514C111.243 39.8319 111.358 39.6612 111.421 39.4392H112.037C111.945 39.7978 111.76 40.0859 111.484 40.3035C111.207 40.517 110.862 40.6237 110.447 40.6237C110.121 40.6237 109.829 40.549 109.574 40.3996C109.323 40.2502 109.126 40.0389 108.983 39.7657C108.841 39.4926 108.77 39.1725 108.77 38.8054Z" fill="#454545"/>
<path d="M114.542 40.6237C114.219 40.6237 113.926 40.549 113.662 40.3996C113.403 40.2502 113.197 40.0389 113.047 39.7657C112.9 39.4883 112.827 39.1682 112.827 38.8054C112.827 38.4469 112.902 38.131 113.053 37.8578C113.208 37.5804 113.417 37.3691 113.681 37.224C113.945 37.0746 114.24 36.9999 114.567 36.9999C114.894 36.9999 115.189 37.0746 115.453 37.224C115.717 37.3691 115.924 37.5783 116.075 37.8514C116.23 38.1246 116.307 38.4426 116.307 38.8054C116.307 39.1682 116.228 39.4883 116.068 39.7657C115.913 40.0389 115.702 40.2502 115.434 40.3996C115.166 40.549 114.868 40.6237 114.542 40.6237ZM114.542 40.1115C114.747 40.1115 114.94 40.0624 115.12 39.9642C115.3 39.866 115.444 39.7188 115.553 39.5225C115.666 39.3261 115.723 39.0871 115.723 38.8054C115.723 38.5237 115.668 38.2847 115.56 38.0883C115.451 37.892 115.308 37.7469 115.132 37.653C114.956 37.5548 114.766 37.5057 114.561 37.5057C114.351 37.5057 114.159 37.5548 113.983 37.653C113.811 37.7469 113.673 37.892 113.568 38.0883C113.463 38.2847 113.411 38.5237 113.411 38.8054C113.411 39.0914 113.461 39.3325 113.562 39.5289C113.666 39.7252 113.805 39.8724 113.976 39.9706C114.148 40.0645 114.337 40.1115 114.542 40.1115Z" fill="#454545"/>
<path d="M121.44 36.9935C121.708 36.9935 121.946 37.0511 122.156 37.1664C122.365 37.2774 122.531 37.446 122.652 37.6722C122.774 37.8984 122.834 38.1737 122.834 38.4981V40.566H122.269V38.5813C122.269 38.2313 122.183 37.9645 122.011 37.781C121.844 37.5932 121.616 37.4993 121.327 37.4993C121.029 37.4993 120.793 37.5975 120.617 37.7938C120.441 37.9859 120.353 38.2655 120.353 38.6325V40.566H119.787V38.5813C119.787 38.2313 119.702 37.9645 119.53 37.781C119.362 37.5932 119.134 37.4993 118.845 37.4993C118.548 37.4993 118.311 37.5975 118.135 37.7938C117.959 37.9859 117.871 38.2655 117.871 38.6325V40.566H117.3V37.0575H117.871V37.5633C117.984 37.3798 118.135 37.2389 118.324 37.1408C118.516 37.0426 118.728 36.9935 118.958 36.9935C119.247 36.9935 119.503 37.0597 119.725 37.192C119.947 37.3243 120.112 37.5185 120.221 37.7746C120.317 37.5271 120.476 37.335 120.698 37.1984C120.92 37.0618 121.167 36.9935 121.44 36.9935Z" fill="#454545"/>
<path d="M127.154 38.6773C127.154 38.7883 127.148 38.9057 127.135 39.0295H124.384C124.405 39.3752 124.52 39.6462 124.729 39.8426C124.943 40.0346 125.2 40.1307 125.502 40.1307C125.749 40.1307 125.954 40.0731 126.118 39.9578C126.285 39.8383 126.402 39.6804 126.469 39.484H127.085C126.993 39.8212 126.809 40.0965 126.532 40.3099C126.256 40.5191 125.912 40.6237 125.502 40.6237C125.175 40.6237 124.882 40.549 124.622 40.3996C124.367 40.2502 124.166 40.0389 124.019 39.7657C123.873 39.4883 123.799 39.1682 123.799 38.8054C123.799 38.4426 123.871 38.1246 124.013 37.8514C124.155 37.5783 124.354 37.3691 124.61 37.224C124.87 37.0746 125.167 36.9999 125.502 36.9999C125.829 36.9999 126.118 37.0725 126.369 37.2176C126.62 37.3627 126.813 37.5633 126.947 37.8194C127.085 38.0713 127.154 38.3572 127.154 38.6773ZM126.564 38.5557C126.564 38.3338 126.515 38.1438 126.419 37.9859C126.323 37.8237 126.191 37.7021 126.023 37.621C125.86 37.5356 125.678 37.4929 125.477 37.4929C125.188 37.4929 124.941 37.5868 124.735 37.7746C124.534 37.9624 124.419 38.2228 124.39 38.5557H126.564Z" fill="#454545"/>
<path d="M129.368 40.6237C129.105 40.6237 128.868 40.5788 128.659 40.4892C128.449 40.3953 128.284 40.2673 128.162 40.1051C128.041 39.9386 127.974 39.7487 127.961 39.5353H128.552C128.568 39.7103 128.648 39.8532 128.79 39.9642C128.937 40.0752 129.128 40.1307 129.362 40.1307C129.58 40.1307 129.752 40.0816 129.877 39.9834C130.003 39.8853 130.066 39.7615 130.066 39.6121C130.066 39.4584 129.999 39.3453 129.865 39.2728C129.731 39.1959 129.523 39.1212 129.243 39.0487C128.987 38.9804 128.778 38.9121 128.615 38.8438C128.455 38.7712 128.317 38.6667 128.2 38.5301C128.087 38.3892 128.03 38.2057 128.03 37.9795C128.03 37.8002 128.083 37.6359 128.187 37.4865C128.292 37.3371 128.441 37.2197 128.633 37.1344C128.826 37.0447 129.046 36.9999 129.293 36.9999C129.674 36.9999 129.982 37.0981 130.217 37.2944C130.451 37.4908 130.577 37.7597 130.593 38.1011H130.022C130.009 37.9176 129.936 37.7703 129.802 37.6594C129.672 37.5484 129.496 37.4929 129.274 37.4929C129.069 37.4929 128.906 37.5377 128.784 37.6274C128.663 37.717 128.602 37.8344 128.602 37.9795C128.602 38.0947 128.638 38.1908 128.709 38.2676C128.784 38.3402 128.876 38.3999 128.985 38.4469C129.098 38.4895 129.253 38.5386 129.45 38.5941C129.697 38.6624 129.898 38.7307 130.053 38.799C130.208 38.863 130.34 38.9612 130.449 39.0935C130.562 39.2258 130.621 39.3987 130.625 39.6121C130.625 39.8042 130.573 39.977 130.468 40.1307C130.363 40.2843 130.214 40.406 130.022 40.4956C129.833 40.581 129.616 40.6237 129.368 40.6237Z" fill="#454545"/>
<path d="M134.286 37.5377V39.6057C134.286 39.7764 134.321 39.8981 134.393 39.9706C134.464 40.0389 134.587 40.0731 134.763 40.0731H135.184V40.566H134.669C134.351 40.566 134.112 40.4913 133.953 40.342C133.794 40.1926 133.714 39.9471 133.714 39.6057V37.5377H133.268V37.0575H133.714V36.174H134.286V37.0575H135.184V37.5377H134.286Z" fill="#454545"/>
<path d="M137.619 40.6237C137.297 40.6237 137.003 40.549 136.74 40.3996C136.48 40.2502 136.275 40.0389 136.124 39.7657C135.977 39.4883 135.904 39.1682 135.904 38.8054C135.904 38.4469 135.979 38.131 136.13 37.8578C136.285 37.5804 136.495 37.3691 136.758 37.224C137.022 37.0746 137.318 36.9999 137.644 36.9999C137.971 36.9999 138.266 37.0746 138.53 37.224C138.794 37.3691 139.001 37.5783 139.152 37.8514C139.307 38.1246 139.384 38.4426 139.384 38.8054C139.384 39.1682 139.305 39.4883 139.146 39.7657C138.991 40.0389 138.779 40.2502 138.511 40.3996C138.243 40.549 137.946 40.6237 137.619 40.6237ZM137.619 40.1115C137.824 40.1115 138.017 40.0624 138.197 39.9642C138.377 39.866 138.522 39.7188 138.631 39.5225C138.744 39.3261 138.8 39.0871 138.8 38.8054C138.8 38.5237 138.746 38.2847 138.637 38.0883C138.528 37.892 138.386 37.7469 138.21 37.653C138.034 37.5548 137.843 37.5057 137.638 37.5057C137.429 37.5057 137.236 37.5548 137.06 37.653C136.888 37.7469 136.75 37.892 136.645 38.0883C136.541 38.2847 136.488 38.5237 136.488 38.8054C136.488 39.0914 136.539 39.3325 136.639 39.5289C136.744 39.7252 136.882 39.8724 137.054 39.9706C137.225 40.0645 137.414 40.1115 137.619 40.1115Z" fill="#454545"/>
<path d="M142.588 36.4877C142.479 36.4877 142.387 36.4493 142.312 36.3725C142.236 36.2957 142.198 36.2018 142.198 36.0908C142.198 35.9798 142.236 35.8859 142.312 35.8091C142.387 35.7323 142.479 35.6938 142.588 35.6938C142.693 35.6938 142.781 35.7323 142.852 35.8091C142.927 35.8859 142.965 35.9798 142.965 36.0908C142.965 36.2018 142.927 36.2957 142.852 36.3725C142.781 36.4493 142.693 36.4877 142.588 36.4877ZM142.864 37.0575V40.566H142.293V37.0575H142.864Z" fill="#454545"/>
<path d="M145.757 36.9935C146.176 36.9935 146.515 37.1237 146.775 37.3841C147.034 37.6402 147.164 38.0115 147.164 38.4981V40.566H146.599V38.5813C146.599 38.2313 146.513 37.9645 146.341 37.781C146.169 37.5932 145.935 37.4993 145.638 37.4993C145.336 37.4993 145.095 37.5953 144.915 37.7874C144.739 37.9795 144.651 38.2591 144.651 38.6261V40.566H144.08V37.0575H144.651V37.5569C144.764 37.3777 144.917 37.2389 145.11 37.1408C145.307 37.0426 145.522 36.9935 145.757 36.9935Z" fill="#454545"/>
<path d="M150.016 36.9935C150.435 36.9935 150.774 37.1237 151.034 37.3841C151.294 37.6402 151.424 38.0115 151.424 38.4981V40.566H150.858V38.5813C150.858 38.2313 150.772 37.9645 150.601 37.781C150.429 37.5932 150.194 37.4993 149.897 37.4993C149.595 37.4993 149.355 37.5953 149.174 37.7874C148.999 37.9795 148.911 38.2591 148.911 38.6261V40.566H148.339V37.0575H148.911V37.5569C149.024 37.3777 149.177 37.2389 149.369 37.1408C149.566 37.0426 149.782 36.9935 150.016 36.9935Z" fill="#454545"/>
<path d="M154.1 40.6237C153.777 40.6237 153.484 40.549 153.22 40.3996C152.96 40.2502 152.755 40.0389 152.604 39.7657C152.458 39.4883 152.385 39.1682 152.385 38.8054C152.385 38.4469 152.46 38.131 152.611 37.8578C152.766 37.5804 152.975 37.3691 153.239 37.224C153.503 37.0746 153.798 36.9999 154.125 36.9999C154.452 36.9999 154.747 37.0746 155.011 37.224C155.274 37.3691 155.482 37.5783 155.633 37.8514C155.788 38.1246 155.865 38.4426 155.865 38.8054C155.865 39.1682 155.785 39.4883 155.626 39.7657C155.471 40.0389 155.26 40.2502 154.992 40.3996C154.724 40.549 154.426 40.6237 154.1 40.6237ZM154.1 40.1115C154.305 40.1115 154.498 40.0624 154.678 39.9642C154.858 39.866 155.002 39.7188 155.111 39.5225C155.224 39.3261 155.281 39.0871 155.281 38.8054C155.281 38.5237 155.226 38.2847 155.117 38.0883C155.009 37.892 154.866 37.7469 154.69 37.653C154.514 37.5548 154.324 37.5057 154.119 37.5057C153.909 37.5057 153.716 37.5548 153.541 37.653C153.369 37.7469 153.231 37.892 153.126 38.0883C153.021 38.2847 152.969 38.5237 152.969 38.8054C152.969 39.0914 153.019 39.3325 153.12 39.5289C153.224 39.7252 153.363 39.8724 153.534 39.9706C153.706 40.0645 153.894 40.1115 154.1 40.1115Z" fill="#454545"/>
<path d="M158.139 40.0282L159.207 37.0575H159.817L158.466 40.566H157.8L156.449 37.0575H157.065L158.139 40.0282Z" fill="#454545"/>
<path d="M160.406 38.799C160.406 38.4405 160.478 38.1267 160.62 37.8578C160.762 37.5847 160.957 37.3734 161.204 37.224C161.455 37.0746 161.734 36.9999 162.04 36.9999C162.341 36.9999 162.603 37.0661 162.825 37.1984C163.047 37.3307 163.212 37.4972 163.321 37.6978V37.0575H163.899V40.566H163.321V39.913C163.208 40.1179 163.039 40.2886 162.812 40.4252C162.59 40.5575 162.331 40.6237 162.033 40.6237C161.728 40.6237 161.451 40.5468 161.204 40.3932C160.957 40.2395 160.762 40.024 160.62 39.7465C160.478 39.4691 160.406 39.1533 160.406 38.799ZM163.321 38.8054C163.321 38.5408 163.269 38.3103 163.164 38.1139C163.06 37.9176 162.917 37.7682 162.737 37.6658C162.561 37.5591 162.366 37.5057 162.153 37.5057C161.939 37.5057 161.744 37.5569 161.569 37.6594C161.393 37.7618 161.252 37.9112 161.148 38.1075C161.043 38.3039 160.991 38.5344 160.991 38.799C160.991 39.0679 161.043 39.3026 161.148 39.5032C161.252 39.6996 161.393 39.8511 161.569 39.9578C161.744 40.0603 161.939 40.1115 162.153 40.1115C162.366 40.1115 162.561 40.0603 162.737 39.9578C162.917 39.8511 163.06 39.6996 163.164 39.5032C163.269 39.3026 163.321 39.07 163.321 38.8054Z" fill="#454545"/>
<path d="M165.804 37.5377V39.6057C165.804 39.7764 165.839 39.8981 165.91 39.9706C165.982 40.0389 166.105 40.0731 166.281 40.0731H166.702V40.566H166.187C165.868 40.566 165.63 40.4913 165.471 40.342C165.311 40.1926 165.232 39.9471 165.232 39.6057V37.5377H164.786V37.0575H165.232V36.174H165.804V37.0575H166.702V37.5377H165.804Z" fill="#454545"/>
<path d="M170.777 38.6773C170.777 38.7883 170.77 38.9057 170.758 39.0295H168.006C168.027 39.3752 168.142 39.6462 168.352 39.8426C168.565 40.0346 168.823 40.1307 169.124 40.1307C169.371 40.1307 169.577 40.0731 169.74 39.9578C169.908 39.8383 170.025 39.6804 170.092 39.484H170.708C170.615 39.8212 170.431 40.0965 170.155 40.3099C169.878 40.5191 169.535 40.6237 169.124 40.6237C168.798 40.6237 168.505 40.549 168.245 40.3996C167.989 40.2502 167.788 40.0389 167.642 39.7657C167.495 39.4883 167.422 39.1682 167.422 38.8054C167.422 38.4426 167.493 38.1246 167.635 37.8514C167.778 37.5783 167.977 37.3691 168.232 37.224C168.492 37.0746 168.789 36.9999 169.124 36.9999C169.451 36.9999 169.74 37.0725 169.991 37.2176C170.243 37.3627 170.435 37.5633 170.569 37.8194C170.708 38.0713 170.777 38.3572 170.777 38.6773ZM170.186 38.5557C170.186 38.3338 170.138 38.1438 170.042 37.9859C169.945 37.8237 169.813 37.7021 169.646 37.621C169.482 37.5356 169.3 37.4929 169.099 37.4929C168.81 37.4929 168.563 37.5868 168.358 37.7746C168.157 37.9624 168.042 38.2228 168.012 38.5557H170.186Z" fill="#454545"/>
</svg>
