<svg width="16" height="19" viewBox="0 0 16 19" fill="none" xmlns="http://www.w3.org/2000/svg">
<path d="M6.60428 0.988939C6.95922 0.673178 7.40847 0.5 7.87265 0.5C8.33684 0.5 8.78608 0.673178 9.14102 0.988939L15.0455 6.24457C15.489 6.63975 15.7453 7.22053 15.7453 7.8327V16.8842C15.7453 17.3127 15.584 17.7237 15.2969 18.0267C15.0099 18.3298 14.6205 18.5 14.2145 18.5H11.1529C10.7469 18.5 10.3576 18.3298 10.0705 18.0267C9.78341 17.7237 9.62213 17.3127 9.62213 16.8842V11.8058C9.62213 11.7446 9.59909 11.6859 9.55808 11.6426C9.51707 11.5993 9.46144 11.575 9.40345 11.575H6.34186C6.28386 11.575 6.22824 11.5993 6.18722 11.6426C6.14621 11.6859 6.12317 11.7446 6.12317 11.8058V16.8842C6.12317 17.3127 5.96189 17.7237 5.67481 18.0267C5.38774 18.3298 4.99837 18.5 4.59238 18.5H1.53079C1.32977 18.5 1.13071 18.4582 0.944984 18.377C0.75926 18.2958 0.590506 18.1768 0.448359 18.0267C0.306212 17.8767 0.193454 17.6986 0.116525 17.5025C0.0395952 17.3065 0 17.0964 0 16.8842V7.8327C0 7.22053 0.256298 6.63975 0.699791 6.24457L6.60428 0.988939ZM8.29515 2.048C8.17688 1.94291 8.02725 1.88528 7.87265 1.88528C7.71805 1.88528 7.56842 1.94291 7.45015 2.048L1.54566 7.30271C1.4726 7.36763 1.41384 7.44862 1.3735 7.54C1.33316 7.63138 1.31221 7.73096 1.31211 7.83178V16.8832C1.31211 17.0107 1.41008 17.1141 1.53079 17.1141H4.59238C4.65038 17.1141 4.706 17.0898 4.74701 17.0465C4.78802 17.0032 4.81106 16.9445 4.81106 16.8832V11.8049C4.81106 10.912 5.49686 10.1891 6.34186 10.1891H9.40345C10.2484 10.1891 10.9342 10.912 10.9342 11.8049V16.8832C10.9342 17.0107 11.0322 17.1141 11.1529 17.1141H14.2145C14.2725 17.1141 14.3281 17.0898 14.3691 17.0465C14.4102 17.0032 14.4332 16.9445 14.4332 16.8832V7.8327C14.4331 7.73189 14.4121 7.63231 14.3718 7.54092C14.3315 7.44954 14.2727 7.36856 14.1996 7.30363L8.29515 2.048Z" fill="#15436D"/>
</svg>
