<svg width="12" height="7" viewBox="0 0 12 7" fill="none" xmlns="http://www.w3.org/2000/svg">
<path d="M5.99995 6.57515C6.13328 6.57515 6.26262 6.55015 6.38795 6.50015C6.51328 6.45015 6.61728 6.38348 6.69995 6.30015L11.3 1.70015C11.4833 1.51681 11.575 1.28348 11.575 1.00015C11.575 0.716813 11.4833 0.483482 11.3 0.300152C11.1166 0.116812 10.8833 0.0251523 10.6 0.0251523C10.3166 0.0251523 10.0833 0.116812 9.89995 0.300152L5.99995 4.20015L2.09995 0.300153C1.9166 0.116813 1.6833 0.0251531 1.4 0.0251531C1.1166 0.0251531 0.8833 0.116813 0.7 0.300153C0.5166 0.483483 0.425 0.716814 0.425 1.00015C0.425 1.28348 0.5166 1.51681 0.7 1.70015L5.29995 6.30015C5.39995 6.40015 5.50828 6.47115 5.62495 6.51315C5.74162 6.55515 5.86662 6.57582 5.99995 6.57515Z" fill="#2970b1"/>
</svg>
