<svg width="16" height="18" viewBox="0 0 16 18" fill="none" xmlns="http://www.w3.org/2000/svg">
<g id="Group 49272">
<path id="Vector_3" d="M4.92976 9.12769H2.42296C2.23577 9.12769 2.0842 9.27929 2.0842 9.46577C2.0842 9.65225 2.23646 9.80454 2.42296 9.80454H4.92976C5.11624 9.80454 5.26716 9.65294 5.26716 9.46646C5.26716 9.27998 5.11624 9.12769 4.92976 9.12769Z" fill="#454545"/>
<g id="Group 49271">
<path id="Vector_2" d="M15.4802 3.74787L12.33 0.599184C12.2651 0.536318 12.1799 0.5 12.0897 0.5H3.52171C3.33519 0.5 3.18291 0.651562 3.18291 0.838758V3.64939H0.338758C0.151571 3.64939 0 3.80165 0 3.98815V10.354C0 10.5419 0.151571 10.6934 0.338758 10.6934H3.18291V17.1619C3.18291 17.3484 3.33519 17.5 3.52171 17.5H15.2392C15.4264 17.5 15.5758 17.3477 15.5758 17.1619V3.98815C15.5765 3.89804 15.5416 3.81213 15.4802 3.74787ZM12.4285 1.65596L14.4213 3.64939H12.4285V1.65596ZM0.677516 10.0167V4.32687H3.52171H6.36586V10.0167H3.52171H0.677516ZM14.9004 16.8232H3.8604V10.6941H6.70455C6.8925 10.6941 7.04402 10.5419 7.04402 10.3547V3.98815C7.04402 3.80165 6.8925 3.64939 6.70455 3.64939H3.8604V1.17682H11.7517V3.98815C11.7517 4.17534 11.9033 4.32687 12.0897 4.32687H14.8997L14.9004 16.8232Z" fill="#454545"/>
<path id="Vector_4" d="M5.45234 4.80109H5.21481C5.02833 4.80109 4.87672 4.95269 4.87672 5.13917C4.87672 5.32565 5.02833 5.47725 5.21481 5.47725H5.45234C5.63951 5.47725 5.79103 5.32565 5.79103 5.13917C5.79103 4.95269 5.63882 4.80109 5.45234 4.80109Z" fill="#454545"/>
<path id="Vector_5" d="M11.2485 13.4672C10.4513 13.4672 9.79791 12.8199 9.79791 12.0157C9.79791 11.2178 10.4445 10.5642 11.2485 10.5642C12.0464 10.5642 12.6998 11.2117 12.6998 12.0157C12.6998 12.8129 12.0464 13.4672 11.2485 13.4672ZM11.2485 11.097C10.7448 11.097 10.3306 11.5105 10.3306 12.0149C10.3306 12.5186 10.7448 12.9322 11.2485 12.9322C11.7529 12.9322 12.1663 12.5186 12.1663 12.0149C12.1663 11.5105 11.7529 11.097 11.2485 11.097ZM11.2485 15.4759H11.211C10.9481 15.4759 10.7219 15.4461 10.7074 15.4461C10.5867 15.43 10.4965 15.3406 10.4736 15.2198L10.3986 14.6787C10.2327 14.626 10.0746 14.5587 9.92399 14.4754L9.50292 14.7987C9.40506 14.8743 9.27751 14.8659 9.17964 14.7987C9.17202 14.7911 8.9916 14.6489 8.80365 14.4677L8.77302 14.4379C8.58507 14.2491 8.44973 14.0695 8.44212 14.0611C8.36727 13.9633 8.36727 13.8356 8.44212 13.7378L8.77302 13.3013C8.68978 13.1508 8.63016 12.9857 8.57737 12.8199L8.05082 12.7449C7.93011 12.7288 7.83994 12.6325 7.8254 12.511C7.8177 12.5034 7.78793 12.2771 7.78793 12.0149V11.9768C7.78793 11.713 7.81848 11.4876 7.81848 11.4731C7.8338 11.353 7.92396 11.2629 8.04398 11.2399L8.58507 11.1642C8.63777 10.9984 8.70578 10.8402 8.78834 10.6904L8.46505 10.2692C8.3902 10.1707 8.39782 10.0429 8.46505 9.94516C8.47267 9.93746 8.61562 9.75713 8.79595 9.56831L8.82659 9.53854C9.01453 9.35129 9.19495 9.21517 9.20257 9.20756C9.30035 9.13193 9.42877 9.13193 9.52663 9.20756L9.96224 9.53854C10.1136 9.45599 10.2786 9.39559 10.4445 9.34281L10.5201 8.81695C10.5354 8.69701 10.6325 8.60676 10.7532 8.59153C10.7616 8.58305 10.9871 8.55328 11.2492 8.55328H11.2875C11.5512 8.55328 11.7766 8.58305 11.7919 8.58305C11.911 8.59837 12.002 8.68931 12.0242 8.80856L12.1006 9.35129C12.2657 9.40321 12.4239 9.47122 12.5737 9.55455L12.9956 9.23049C13.0934 9.15555 13.221 9.16247 13.3196 9.23049C13.3272 9.23888 13.5069 9.38105 13.6948 9.56217L13.7255 9.5928C13.9134 9.78006 14.0487 9.96039 14.0564 9.96809C14.132 10.0659 14.132 10.1936 14.0564 10.2922L13.7331 10.7279C13.8156 10.8784 13.8759 11.0443 13.9287 11.2101L14.4545 11.285C14.5753 11.3004 14.6655 11.3974 14.6808 11.5189C14.6808 11.5265 14.7105 11.7589 14.7105 12.0226V12.0601C14.7105 12.3246 14.6808 12.55 14.6808 12.5645C14.6655 12.6845 14.5753 12.7747 14.4545 12.7976L13.9119 12.8733C13.8592 13.0384 13.7919 13.1966 13.7086 13.3472L14.0319 13.7767C14.1076 13.8746 14.0999 14.0022 14.0319 14.1001C14.0243 14.107 13.8821 14.2881 13.7002 14.4762L13.6704 14.506C13.4824 14.694 13.3021 14.83 13.2951 14.8369C13.1966 14.9133 13.0689 14.9133 12.9711 14.8369L12.5347 14.499C12.3849 14.5816 12.2183 14.642 12.0532 14.6948L11.9784 15.2198C11.963 15.3406 11.866 15.43 11.7452 15.4461C11.7383 15.4461 11.5121 15.4759 11.2485 15.4759ZM10.978 14.9339C11.046 14.9424 11.1285 14.9424 11.211 14.9424H11.2485C11.331 14.9424 11.4143 14.9424 11.4824 14.9339L11.5504 14.4387C11.5656 14.3255 11.6482 14.2423 11.7536 14.2124C11.9868 14.1597 12.213 14.0695 12.4155 13.9418C12.4751 13.9044 12.5508 13.896 12.6188 13.9113C12.6563 13.9197 12.6944 13.9418 12.7243 13.964L13.1224 14.2652C13.1752 14.22 13.2347 14.1673 13.2967 14.1069L13.3265 14.078C13.3861 14.0176 13.4389 13.9572 13.4839 13.9044L13.1828 13.5062C13.1148 13.4152 13.1148 13.2953 13.1667 13.2042C13.2959 13.0086 13.3853 12.7908 13.4381 12.5653C13.4595 12.453 13.5504 12.3612 13.6635 12.3467L14.1679 12.2787C14.1748 12.2114 14.1748 12.1289 14.1748 12.0456V12.0157C14.1748 11.9332 14.1748 11.8499 14.1679 11.7818L13.6712 11.7138C13.5657 11.6986 13.4756 11.6167 13.4457 11.5105C13.393 11.2774 13.3021 11.0595 13.182 10.857C13.166 10.8409 13.1599 10.8188 13.1523 10.7966C13.1216 10.7141 13.1362 10.6162 13.1896 10.5482L13.4977 10.1424C13.4526 10.0896 13.3998 10.03 13.3402 9.96887L13.3097 9.93902C13.2493 9.87862 13.1896 9.8267 13.1362 9.78084L12.738 10.082C12.6402 10.15 12.5125 10.15 12.4224 10.082C12.2267 9.96195 12.0081 9.87178 11.7827 9.81138C11.6772 9.78923 11.5955 9.69906 11.5794 9.58588L11.5113 9.08217C11.4433 9.07456 11.3616 9.07456 11.2783 9.07456H11.2477C11.1659 9.07456 11.0827 9.07456 11.0153 9.08217L10.9473 9.59427C10.9321 9.71351 10.8412 9.80377 10.7211 9.81978C10.4949 9.87178 10.2771 9.96273 10.0815 10.0827C10.0219 10.1209 9.94545 10.1286 9.87813 10.1133C9.84075 10.1049 9.8025 10.0827 9.77273 10.0606L9.38143 9.75938C9.32865 9.80455 9.26833 9.85724 9.20794 9.91764L9.17739 9.94741C9.11777 10.007 9.06498 10.0674 9.0199 10.1209L9.32103 10.5191C9.38749 10.6094 9.38749 10.7225 9.33557 10.8204C9.32865 10.828 9.32865 10.8356 9.32103 10.8425C9.19954 11.0382 9.11007 11.2567 9.05737 11.4822C9.03521 11.5877 8.94505 11.6695 8.83186 11.6855L8.32746 11.7536C8.31985 11.8216 8.31985 11.9042 8.31985 11.9867V12.0173C8.31985 12.0998 8.31985 12.1832 8.32746 12.2504L8.82425 12.3184C8.94505 12.3337 9.03522 12.4239 9.04975 12.5439V12.5523C9.10245 12.7778 9.19262 12.988 9.31342 13.1836C9.3508 13.2509 9.36612 13.3342 9.33557 13.4099C9.32865 13.4397 9.30572 13.4696 9.28356 13.4993L8.98935 13.8914C9.03521 13.9434 9.08713 14.0038 9.14753 14.0642L9.17739 14.094C9.2377 14.1544 9.29732 14.2071 9.3508 14.2522L9.74902 13.951C9.84758 13.8762 9.99054 13.883 10.0807 13.9587C10.2764 14.0794 10.4873 14.162 10.7051 14.2224C10.8105 14.2445 10.8923 14.3347 10.9084 14.4487L10.978 14.9339Z" fill="#454545"/>
</g>
</g>
</svg>
