<svg width="12" height="7" viewBox="0 0 12 7" fill="none" xmlns="http://www.w3.org/2000/svg">
<path d="M6.00005 0.424853C5.86672 0.424853 5.73738 0.449854 5.61205 0.499854C5.48672 0.549854 5.38272 0.61652 5.30005 0.699854L0.700048 5.29985C0.516715 5.48319 0.425049 5.71652 0.425049 5.99985C0.425049 6.28319 0.516715 6.51652 0.700048 6.69985C0.883382 6.88319 1.11672 6.97485 1.40005 6.97485C1.68338 6.97485 1.91672 6.88319 2.10005 6.69985L6.00005 2.79985L9.90005 6.69985C10.0834 6.88319 10.3167 6.97485 10.6 6.97485C10.8834 6.97485 11.1167 6.88319 11.3 6.69985C11.4834 6.51652 11.575 6.28319 11.575 5.99985C11.575 5.71652 11.4834 5.48319 11.3 5.29985L6.70005 0.699854C6.60005 0.599854 6.49172 0.528853 6.37505 0.486854C6.25838 0.444854 6.13338 0.424187 6.00005 0.424853Z" fill="#2970b1"/>
</svg>
