<svg width="22" height="20" viewBox="0 0 22 20" fill="none" xmlns="http://www.w3.org/2000/svg">
<path d="M0.215031 1.82791C0.215031 0.996604 0.888938 0.322697 1.72024 0.322697H12.5514C13.3827 0.322697 14.0566 0.996604 14.0566 1.82791V12.1494C14.0566 12.9807 13.3827 13.6546 12.5514 13.6546H1.72025C0.888939 13.6546 0.215031 12.9807 0.215031 12.1494V1.82791Z" fill="#E3F2FF" stroke="#15436D" stroke-width="0.430061"/>
<rect x="2.54858" y="2.65625" width="3.56791" height="3.56792" fill="#15436D"/>
<rect x="8.15527" y="6.22412" width="3.56791" height="3.56792" fill="#15436D"/>
<path d="M0 10.8115H14.2717V12.1495C14.2717 13.0996 13.5015 13.8697 12.5514 13.8697H1.72025C0.770182 13.8697 0 13.0996 0 12.1495V10.8115Z" fill="#15436D"/>
<path d="M12.3127 8.74249C11.3054 8.74249 10.4888 9.55907 10.4888 10.5664V17.4445C10.4888 18.4518 11.3054 19.2684 12.3127 19.2684H19.5521C20.5594 19.2684 21.376 18.4518 21.376 17.4445V10.5664C21.376 9.55906 20.5594 8.74249 19.5521 8.74249H12.3127Z" fill="#15436D" stroke="#E3F2FF" stroke-width="0.75184"/>
<path d="M17.7213 14.5608H16.1792V16.1246H15.5639V14.5608H14.029V14.0034H15.5639V12.4323H16.1792V14.0034H17.7213V14.5608Z" fill="white"/>
</svg>
