<svg width="19" height="19" viewBox="0 0 19 19" fill="none" xmlns="http://www.w3.org/2000/svg">
<path d="M0.21809 2.47519C0.21809 1.63205 0.901586 0.948559 1.74472 0.948559H12.73C13.5731 0.948559 14.2566 1.63205 14.2566 2.47519V12.9435C14.2566 13.7866 13.5731 14.4701 12.73 14.4701H1.74472C0.901587 14.4701 0.21809 13.7866 0.21809 12.9435V2.47519Z" fill="white" stroke="#454545" stroke-width="0.43618"/>
<rect x="2.58478" y="3.31519" width="3.61868" height="3.61868" fill="#454545"/>
<rect x="8.27127" y="6.9339" width="3.61868" height="3.61868" fill="#454545"/>
<path d="M0 11.5865H14.4747V12.9435C14.4747 13.9071 13.6936 14.6882 12.73 14.6882H1.74472C0.78114 14.6882 0 13.9071 0 12.9435V11.5865Z" fill="#454545"/>
<path d="M18.2181 16.1611V16.161V15.7605C18.2181 15.603 18.1871 15.447 18.1268 15.3015C18.0665 15.1559 17.9781 15.0237 17.8667 14.9123C17.7553 14.8009 17.623 14.7126 17.4774 14.6524C17.3749 14.6099 17.2671 14.582 17.1573 14.5692L17.1528 14.5604H17.018H12.0005C11.8429 14.5604 11.6869 14.5914 11.5414 14.6517C11.3958 14.712 11.2636 14.8004 11.1522 14.9118C11.0409 15.0232 10.9525 15.1555 10.8923 15.3011C10.8321 15.4466 10.8011 15.6026 10.8012 15.7601C10.8012 15.7601 10.8012 15.7602 10.8012 15.7602L10.8012 16.1615L10.8012 16.1615C10.8012 16.4563 10.8931 16.7437 11.0641 16.9838L11.0641 16.9838C11.79 18.0031 12.9689 18.4876 14.5081 18.4876C16.0464 18.4876 17.226 18.0035 17.9537 16.9855C18.1256 16.745 18.2181 16.4567 18.2181 16.1611ZM16.2048 10.0306C15.7548 9.58057 15.1445 9.32776 14.5081 9.32776C13.8717 9.32776 13.2614 9.58057 12.8114 10.0306C12.3614 10.4805 12.1086 11.0909 12.1086 11.7272C12.1086 12.3636 12.3614 12.9739 12.8114 13.4239C13.2614 13.8739 13.8717 14.1267 14.5081 14.1267C15.1445 14.1267 15.7548 13.8739 16.2048 13.4239C16.6548 12.9739 16.9076 12.3636 16.9076 11.7272C16.9076 11.0909 16.6548 10.4805 16.2048 10.0306Z" fill="#454545" stroke="white" stroke-width="0.436267"/>
</svg>
