<svg width="32" height="32" viewBox="0 0 32 32" fill="none" xmlns="http://www.w3.org/2000/svg">
<g clip-path="url(#clip0_104_2)">
<path d="M5.05368 0H26.2513C29.0437 0 31.3049 2.24208 31.3049 5.00481V26.0034C31.3049 28.7662 29.0437 31.0082 26.2513 31.0082H5.05368C2.26125 31.0082 0 28.7662 0 26.0034V5.00481C0 2.24208 2.26125 0 5.05368 0Z" fill="#8A767A"/>
<g clip-path="url(#clip1_104_2)">
<path d="M13.1926 18.3265C12.9735 18.3265 12.7973 18.1209 12.7973 17.8673C12.7973 17.6137 12.9751 17.408 13.1926 17.408H15.3563C15.5754 17.408 15.7516 17.6137 15.7516 17.8673C15.7516 18.1209 15.5738 18.3265 15.3563 18.3265H13.1926ZM20.598 16.4231C21.814 16.4231 22.9141 16.9024 23.711 17.6786C24.5079 18.4548 25 19.5264 25 20.7108C25 21.8952 24.5079 22.9667 23.711 23.7429C22.9141 24.5191 21.814 24.9985 20.598 24.9985C19.382 24.9985 18.2819 24.5191 17.4851 23.7429C16.6882 22.9667 16.196 21.8952 16.196 20.7108C16.196 19.5264 16.6882 18.4548 17.4851 17.6786C18.2819 16.9024 19.382 16.4231 20.598 16.4231ZM20.2615 18.7053C20.2615 18.4935 20.4377 18.3219 20.6552 18.3219C20.8727 18.3219 21.0489 18.4935 21.0489 18.7053V20.703L22.5823 21.5875C22.7696 21.6942 22.8316 21.9292 22.7204 22.1117C22.6109 22.2941 22.3696 22.3544 22.1823 22.2462L20.4758 21.2612C20.3488 21.1978 20.2615 21.0695 20.2615 20.9195V18.7053ZM23.1554 18.2214C22.5014 17.5843 21.5965 17.19 20.598 17.19C19.5995 17.19 18.6947 17.5843 18.0407 18.2214C17.3866 18.8584 16.9818 19.7397 16.9818 20.7123C16.9818 21.6849 17.3866 22.5662 18.0407 23.2033C18.6947 23.8403 19.5995 24.2346 20.598 24.2346C21.5965 24.2346 22.5014 23.8403 23.1554 23.2033C23.8094 22.5662 24.2142 21.6849 24.2142 20.7123C24.2142 19.7397 23.8094 18.8584 23.1554 18.2214ZM14.0006 22.9992C14.261 22.9992 14.4721 23.2048 14.4721 23.4584C14.4721 23.712 14.261 23.9176 14.0006 23.9176H8.09851C7.7969 23.9176 7.52227 23.797 7.32225 23.6038C7.12382 23.4105 7 23.143 7 22.8492V7.06999C7 6.77466 7.12382 6.50871 7.32225 6.31388C7.52068 6.12061 7.79531 6 8.09851 6H21.5759C21.8775 6 22.1521 6.12061 22.3521 6.31388C22.5506 6.50716 22.6744 6.77466 22.6744 7.06999V14.3805C22.6744 14.6341 22.4633 14.8398 22.2029 14.8398C21.9426 14.8398 21.7315 14.6341 21.7315 14.3805V7.06999C21.7315 7.02979 21.714 6.99268 21.6854 6.96484C21.6568 6.93701 21.6187 6.92 21.5775 6.92H8.09851C8.05724 6.92 8.01755 6.93701 7.99056 6.96484C7.9604 6.99113 7.94294 7.02824 7.94294 7.06999V22.8492C7.94294 22.8894 7.9604 22.9281 7.98898 22.9543C8.01755 22.9822 8.05565 22.9992 8.09692 22.9992H14.0006ZM10.0352 17.2086H11.2178C11.3036 17.2086 11.3734 17.2766 11.3734 17.3601V18.512C11.3734 18.5955 11.3036 18.6636 11.2178 18.6636H10.0352C9.94947 18.6636 9.87962 18.5955 9.87962 18.512V17.3601C9.88121 17.2751 9.95105 17.2086 10.0352 17.2086ZM10.0352 9.32284H11.2178C11.3036 9.32284 11.3734 9.39087 11.3734 9.47437V10.6263C11.3734 10.7098 11.3036 10.7778 11.2178 10.7778H10.0352C9.94947 10.7778 9.87962 10.7098 9.87962 10.6263V9.47437C9.88121 9.39087 9.95105 9.32284 10.0352 9.32284ZM13.1926 10.4408C12.9735 10.4408 12.7973 10.2351 12.7973 9.98153C12.7973 9.72795 12.9751 9.5223 13.1926 9.5223H18.8217C19.0407 9.5223 19.217 9.72795 19.217 9.98153C19.217 10.2351 19.0392 10.4408 18.8217 10.4408H13.1926ZM10.5194 14.6805C10.4178 14.7594 10.2717 14.7393 10.1685 14.6418C10.1574 14.6341 10.1463 14.6248 10.1352 14.614L9.63992 14.1161C9.53673 14.011 9.56054 13.8363 9.69389 13.7249C9.82723 13.6136 10.0193 13.6074 10.1241 13.7126L10.3939 13.9832L11.2623 13.3028C11.3782 13.2116 11.556 13.2518 11.6576 13.391C11.7591 13.5301 11.7465 13.7172 11.6306 13.8084L10.5194 14.6805ZM12.9323 14.2955C12.7132 14.2955 12.537 14.0898 12.537 13.8363C12.537 13.5827 12.7148 13.377 12.9323 13.377H18.5613C18.7804 13.377 18.9566 13.5827 18.9566 13.8363C18.9566 14.0898 18.7788 14.2955 18.5613 14.2955H12.9323Z" fill="white"/>
</g>
</g>
<defs>
<clipPath id="clip0_104_2">
<rect width="32" height="32" fill="white"/>
</clipPath>
<clipPath id="clip1_104_2">
<rect width="18" height="19" fill="white" transform="translate(7 6)"/>
</clipPath>
</defs>
</svg>
