<svg xmlns="http://www.w3.org/2000/svg" width="19" height="19" viewBox="0 0 19 19" fill="none">
<path d="M0.21809 2.47519C0.21809 1.63205 0.901586 0.948559 1.74472 0.948559H12.73C13.5731 0.948559 14.2566 1.63205 14.2566 2.47519V12.9435C14.2566 13.7866 13.5731 14.4701 12.73 14.4701H1.74472C0.901587 14.4701 0.21809 13.7866 0.21809 12.9435V2.47519Z" fill="#E3F2FF" stroke="#15436D" stroke-width="0.43618"/>
<rect x="2.58496" y="3.31519" width="3.61868" height="3.61868" fill="#15436D"/>
<rect x="8.27148" y="6.93384" width="3.61868" height="3.61868" fill="#15436D"/>
<path d="M0 11.5864H14.4747V12.9434C14.4747 13.907 13.6936 14.6882 12.73 14.6882H1.74472C0.78114 14.6882 0 13.907 0 12.9434V11.5864Z" fill="#15436D"/>
<path d="M18.2179 16.1611V16.161V15.7605C18.2179 15.603 18.1869 15.447 18.1265 15.3015C18.0662 15.1559 17.9779 15.0237 17.8664 14.9123C17.755 14.8009 17.6227 14.7126 17.4772 14.6524C17.3746 14.6099 17.2669 14.582 17.157 14.5692L17.1526 14.5604H17.0177H12.0002C11.8427 14.5604 11.6867 14.5914 11.5411 14.6517C11.3956 14.712 11.2634 14.8004 11.152 14.9118C11.0406 15.0232 10.9523 15.1555 10.892 15.3011C10.8318 15.4466 10.8009 15.6026 10.8009 15.7601C10.8009 15.7601 10.8009 15.7602 10.8009 15.7602L10.8009 16.1615L10.8009 16.1615C10.8009 16.4563 10.8929 16.7437 11.0639 16.9838L11.0639 16.9838C11.7898 18.0031 12.9687 18.4876 14.5079 18.4876C16.0462 18.4876 17.2257 18.0035 17.9534 16.9855C18.1254 16.745 18.2178 16.4567 18.2179 16.1611ZM16.2046 10.0306C15.7546 9.58057 15.1443 9.32776 14.5079 9.32776C13.8715 9.32776 13.2612 9.58057 12.8112 10.0306C12.3612 10.4805 12.1084 11.0909 12.1084 11.7272C12.1084 12.3636 12.3612 12.9739 12.8112 13.4239C13.2612 13.8739 13.8715 14.1267 14.5079 14.1267C15.1443 14.1267 15.7546 13.8739 16.2046 13.4239C16.6545 12.9739 16.9073 12.3636 16.9073 11.7272C16.9073 11.0909 16.6545 10.4805 16.2046 10.0306Z" fill="#15436D" stroke="#E3F2FF" stroke-width="0.436267"/>
</svg>