<svg width="17" height="17" viewBox="0 0 17 17" fill="none" xmlns="http://www.w3.org/2000/svg">
<path d="M16.7866 3.63525L14.5599 0.588752C14.3579 0.305507 14.0357 0.143066 13.6762 0.143066H3.32571C2.96623 0.143066 2.64428 0.305507 2.44402 0.586113L0.220571 3.6285C-0.0568094 3.98564 -0.0738159 4.50052 0.176589 4.87642L7.5996 16.3778C7.80603 16.6774 8.14703 16.8569 8.51179 16.8569C8.88212 16.8569 9.21756 16.6736 9.40668 16.3707L16.83 4.86851C17.0725 4.46475 17.0534 3.97802 16.7866 3.63525ZM16.294 3.95485H11.8799L14.0922 0.942662L16.294 3.95485ZM8.5156 15.2339L6.09717 4.54128H10.934L8.5156 15.2339ZM8.5156 0.933279L10.7235 3.95485H6.30741L8.5156 0.933279ZM5.72948 3.75195L3.50985 0.729495H7.93797L5.72948 3.75195ZM9.09294 0.729495H13.5214L11.3017 3.75195L9.09294 0.729495ZM2.91932 0.929467C2.92078 0.927121 2.92313 0.925655 2.92489 0.92331L5.15068 3.95485H0.708187L2.91932 0.929467ZM0.666843 4.55477C0.664204 4.55066 0.663618 4.54568 0.660979 4.54128H5.4955L8.10334 16.0699C8.09836 16.0637 8.09191 16.059 8.08751 16.0523L0.666843 4.55477ZM8.94106 16.0109L11.5354 4.54128H16.34C16.3368 4.54714 16.3359 4.55301 16.3327 4.55858L8.94106 16.0109Z" fill="black"/>
</svg>
