<svg width="32" height="32" viewBox="0 0 32 32" fill="none" xmlns="http://www.w3.org/2000/svg">
<path d="M5.20642 0.152739H26.404C29.1964 0.152739 31.4576 2.39482 31.4576 5.15755V26.1561C31.4576 28.9189 29.1964 31.1609 26.404 31.1609H5.20642C2.41399 31.1609 0.152739 28.9189 0.152739 26.1561V5.15755C0.152739 2.39482 2.41399 0.152739 5.20642 0.152739Z" fill="url(#paint0_linear_1962_77)" stroke="#585858" stroke-width="0.305478"/>
<path d="M7.37596 17.48C7.35737 17.4241 7.34601 17.3644 7.34067 17.3096L9.32216 12.7238L13.5852 12.7039L13.6597 12.7035L13.7053 12.6446C15.982 9.70103 19.3768 7.20722 23.7779 7.88394C21.3308 10.2208 19.0218 12.6013 17.0732 14.6487C16.3958 15.3605 15.7625 16.0315 15.1822 16.6463C14.0995 17.7934 13.2015 18.7448 12.5463 19.4007L10.8528 17.8368C11.0787 17.1895 11.392 16.4492 11.7909 15.6703L11.9047 15.4479H11.6549H9.94872H9.87615L9.83031 15.5042C9.61658 15.7665 9.26002 16.1855 8.88663 16.5878C8.51027 16.9933 8.12699 17.3707 7.85753 17.559L7.93895 17.6755L7.85752 17.559C7.72871 17.649 7.63896 17.6761 7.58164 17.6788C7.53022 17.6811 7.49461 17.6646 7.464 17.6351C7.42954 17.6019 7.3989 17.5489 7.37596 17.48Z" fill="#1F7793" stroke="#585858" stroke-width="0.305478"/>
<path d="M16.5455 20.5423V20.2918L16.3228 20.4065C15.6877 20.7337 15.0835 21.0006 14.5424 21.2054L12.8538 19.7336C13.5828 19.0046 14.6953 17.8345 16.0472 16.4125C16.4773 15.9601 16.9316 15.4823 17.4055 14.985C19.3959 12.8966 21.7348 10.4631 24.0845 8.12908C24.9471 12.6106 22.383 16.117 19.3835 18.4545L19.3246 18.5004V18.575V22.3118V22.3192L19.3253 22.3265C19.3289 22.3634 19.3254 22.428 19.3031 22.4868C19.2818 22.5427 19.2489 22.5817 19.198 22.6006L19.198 22.6006C18.9889 22.6784 16.1478 23.8682 14.7308 24.4629C14.6151 24.4609 14.4813 24.4326 14.4 24.3719C14.3606 24.3426 14.3371 24.3086 14.328 24.2658C14.3193 24.2253 14.3206 24.1623 14.3557 24.0689C14.9645 23.5637 16.0383 22.472 16.5032 21.9854L16.5455 21.9411V21.8799V20.5423Z" fill="#1F7793" stroke="#585858" stroke-width="0.305478"/>
<path d="M7.19041 16.8608C7.17183 16.805 7.16046 16.7452 7.15512 16.6904L9.13662 12.1047L13.3996 12.0847L13.4742 12.0844L13.5197 12.0254C15.7964 9.08189 19.1913 6.58809 23.5923 7.2648C21.1453 9.60165 18.8362 11.9821 16.8877 14.0296C16.2103 14.7414 15.577 15.4123 14.9967 16.0271C13.914 17.1742 13.0159 18.1256 12.3607 18.7815L10.6672 17.2176C10.8931 16.5703 11.2065 15.8301 11.6053 15.0511L11.7192 14.8288H11.4694H9.76317H9.6906L9.64476 14.885C9.43104 15.1474 9.07447 15.5663 8.70108 15.9687C8.32472 16.3742 7.94144 16.7515 7.67198 16.9398C7.54317 17.0299 7.45341 17.057 7.3961 17.0596C7.34468 17.062 7.30906 17.0454 7.27846 17.0159C7.244 16.9827 7.21336 16.9297 7.19041 16.8608Z" fill="white" stroke="#585858" stroke-width="0.305478"/>
<path d="M16.359 19.927V19.6765L16.1363 19.7912C15.5011 20.1184 14.897 20.3855 14.3559 20.5901L12.6673 19.1183C13.3963 18.3893 14.5089 17.2191 15.8609 15.797C16.291 15.3447 16.7452 14.8669 17.219 14.3698C19.2094 12.2814 21.5483 9.84789 23.8979 7.51384C24.7606 11.9954 22.1965 15.5017 19.1969 17.8393L19.1381 17.8851V17.9597V21.6966V21.7039L19.1388 21.7112C19.1423 21.7481 19.1389 21.8128 19.1165 21.8716C19.0953 21.9275 19.0623 21.9665 19.0115 21.9854L19.0115 21.9854C18.8023 22.0631 15.9613 23.2529 14.5442 23.8477C14.4286 23.8456 14.2948 23.8173 14.2135 23.7567C14.1741 23.7273 14.1506 23.6933 14.1414 23.6506C14.1328 23.61 14.134 23.5471 14.1692 23.4537C14.7779 22.9484 15.8518 21.8567 16.3167 21.3702L16.359 21.3259V21.2647V19.927Z" fill="#BAEEFF" stroke="#585858" stroke-width="0.305478"/>
<path d="M9.77333 20.301L11.0959 18.5835L11.8817 19.3362L8.94434 22.3454L9.77333 20.301Z" fill="white" stroke="#585858" stroke-width="0.305478"/>
<path d="M12.995 20.3488L11.2084 21.8056L9.22555 22.602L12.2119 19.6436L12.995 20.3488Z" fill="#BAEEFF" stroke="#585858" stroke-width="0.305478"/>
<defs>
<linearGradient id="paint0_linear_1962_77" x1="3.90481" y1="7.60349e-07" x2="26.4981" y2="30.7807" gradientUnits="userSpaceOnUse">
<stop stop-color="#FF7624"/>
<stop offset="1" stop-color="#EA6F26"/>
</linearGradient>
</defs>
</svg>
