<svg width="33" height="27" viewBox="0 0 33 27" fill="none" xmlns="http://www.w3.org/2000/svg">
<path d="M0 12C0 5.37258 5.37258 0 12 0H33V19C33 23.4183 29.4183 27 25 27H0V12Z" fill="#E3F2FF"/>
<path d="M24.4166 16.6895C24.1943 16.5601 23.91 16.6367 23.7816 16.8598C22.3696 19.312 19.7429 20.8353 16.9262 20.8353C12.7957 20.8353 9.39624 17.639 9.04434 13.5795L9.27221 13.8561C9.3641 13.9677 9.49676 14.0254 9.63048 14.0254C9.73486 14.0254 9.8399 13.9901 9.92661 13.9181C10.1243 13.7537 10.152 13.4593 9.98823 13.2606L8.87768 11.9129C8.87742 11.9125 8.87702 11.9123 8.87662 11.9119C8.866 11.8991 8.85299 11.8881 8.84077 11.8763C8.82988 11.8657 8.81979 11.854 8.80823 11.8448C8.80784 11.8444 8.80744 11.844 8.80704 11.8436C8.80027 11.8382 8.7927 11.8349 8.78579 11.8301C8.76773 11.8173 8.74954 11.8045 8.73015 11.7946C8.719 11.7889 8.70731 11.7855 8.69576 11.7807C8.67929 11.7739 8.66323 11.7665 8.64623 11.7617C8.63282 11.7578 8.61901 11.7563 8.60533 11.7538C8.58953 11.7509 8.57399 11.747 8.55805 11.7456C8.54464 11.7446 8.5315 11.7456 8.51808 11.7458C8.50148 11.7458 8.48502 11.7451 8.46842 11.747C8.4558 11.7484 8.44359 11.7519 8.43097 11.7543C8.41411 11.7577 8.39724 11.7602 8.38078 11.7653C8.36697 11.7695 8.35409 11.7762 8.34067 11.7818C8.32633 11.7878 8.31173 11.7927 8.29791 11.8003C8.28092 11.8096 8.26525 11.8216 8.24931 11.833C8.24068 11.8393 8.23125 11.8438 8.22289 11.8508C8.22236 11.8512 8.22196 11.8518 8.22143 11.8522C8.21027 11.8616 8.20071 11.8733 8.19035 11.8839C8.1784 11.896 8.16539 11.9075 8.15503 11.9207C8.15463 11.9211 8.15423 11.9215 8.15384 11.9219L7.09947 13.2699C6.94078 13.4726 6.9757 13.7661 7.17755 13.9254C7.2628 13.9928 7.36399 14.0254 7.46451 14.0254C7.60222 14.0254 7.73846 13.9641 7.83022 13.847L8.10603 13.4946C8.41942 18.1098 12.2543 21.7691 16.9263 21.7691C20.0737 21.7691 23.0089 20.0672 24.5863 17.3275C24.7146 17.1042 24.6388 16.8187 24.4166 16.6895Z" fill="#15436D"/>
<path d="M26.6746 11.8437C26.4731 11.6843 26.1807 11.7191 26.0221 11.9221L25.7462 12.2745C25.4329 7.6593 21.598 4 16.9259 4C13.7452 4 10.7945 5.72912 9.22558 8.51272C9.09903 8.73711 9.17764 9.02208 9.401 9.14908C9.62462 9.27622 9.908 9.19711 10.0344 8.97285C11.4387 6.48142 14.0793 4.93387 16.9259 4.93387C21.0564 4.93387 24.4559 8.12996 24.8078 12.1895L24.5801 11.9131C24.4163 11.7141 24.1233 11.6867 23.9257 11.851C23.7279 12.0154 23.7003 12.3098 23.8639 12.5085L24.9745 13.8563C24.9749 13.8568 24.9754 13.8571 24.9758 13.8576C24.9962 13.8822 25.0192 13.9051 25.0452 13.9257C25.046 13.9263 25.047 13.9268 25.0478 13.9273C25.0532 13.9316 25.0593 13.9346 25.0649 13.9386C25.0852 13.953 25.1061 13.9658 25.1277 13.9766C25.1365 13.9809 25.1454 13.9845 25.1543 13.9883C25.175 13.9969 25.1961 14.004 25.2176 14.0095C25.226 14.0116 25.2341 14.014 25.2424 14.0157C25.2722 14.0216 25.3021 14.0255 25.3321 14.0255H25.3323H25.3326C25.3635 14.0255 25.3943 14.0213 25.425 14.0151C25.4338 14.0133 25.4422 14.0107 25.4509 14.0084C25.4728 14.0025 25.4943 13.9952 25.5155 13.9861C25.5249 13.9821 25.534 13.9781 25.5432 13.9734C25.5649 13.9624 25.5854 13.9492 25.6056 13.9344C25.6119 13.9298 25.6185 13.9261 25.6246 13.9211C25.6259 13.9201 25.6275 13.9194 25.6289 13.9182C25.6545 13.8969 25.6769 13.8733 25.6968 13.8482C25.6971 13.8478 25.6975 13.8475 25.6979 13.8471L26.7527 12.4993C26.9114 12.2965 26.8764 12.003 26.6746 11.8437Z" fill="#15436D"/>
<path d="M13.9305 16.1436V16.3693H13.4874C13.2307 16.3693 13.0226 16.5784 13.0226 16.8362V18.2944C13.0226 18.5523 13.2307 18.7613 13.4874 18.7613H20.3655C20.6222 18.7613 20.8303 18.5523 20.8303 18.2944V16.8362C20.8303 16.5784 20.6222 16.3693 20.3655 16.3693H19.9222V16.1436C19.9222 15.664 19.757 15.1944 19.4571 14.8211L17.9001 12.8845L19.4571 10.9479C19.757 10.5748 19.9222 10.1052 19.9222 9.62544V9.39985H20.3655C20.6222 9.39985 20.8303 9.1908 20.8303 8.93291V7.47475C20.8303 7.21687 20.6222 7.00781 20.3655 7.00781H13.4873C13.2306 7.00781 13.0225 7.21687 13.0225 7.47475V8.93291C13.0225 9.1908 13.2306 9.39985 13.4873 9.39985H13.9304V9.62544C13.9304 10.1052 14.0956 10.5749 14.3956 10.9479L15.9527 12.8845L14.3957 14.8211C14.0957 15.1944 13.9305 15.664 13.9305 16.1436ZM19.9006 17.8275H13.952V17.3032H14.3952H19.4573H19.9006V17.8275ZM13.952 7.94155H19.9006V8.46585H19.4573H14.3953H13.9522L13.952 7.94155ZM14.8601 9.62531V9.39972H18.9926V9.62531C18.9926 9.89213 18.9007 10.1535 18.7339 10.3611L17.0806 12.4176H16.7721L15.1189 10.3611C14.952 10.1535 14.8601 9.89226 14.8601 9.62531ZM14.8601 16.1436C14.8601 15.8768 14.952 15.6154 15.1189 15.4078L16.7721 13.3514H17.0806L18.7337 15.4078C18.9007 15.6155 18.9926 15.8769 18.9926 16.1437V16.3694H14.8601V16.1436Z" fill="#15436D"/>
</svg>
