<svg width="33" height="27" viewBox="0 0 33 27" fill="none" xmlns="http://www.w3.org/2000/svg">
<path d="M0 12C0 5.37258 5.37258 0 12 0H33V19C33 23.4183 29.4183 27 25 27H0V12Z" fill="#E3F2FF"/>
<path d="M23.6687 17.1447C23.456 17.0209 23.1839 17.0941 23.061 17.3076C21.7096 19.6545 19.1957 21.1124 16.5 21.1124C12.5468 21.1124 9.29334 18.0534 8.95655 14.1682L9.17464 14.4329C9.26259 14.5398 9.38955 14.5949 9.51753 14.5949C9.61742 14.5949 9.71795 14.5612 9.80094 14.4923C9.99018 14.335 10.0166 14.0532 9.85991 13.8631L8.79706 12.5732C8.7968 12.5728 8.79642 12.5726 8.79604 12.5722C8.78587 12.5599 8.77342 12.5495 8.76172 12.5381C8.7513 12.528 8.74164 12.5168 8.73059 12.508C8.73021 12.5076 8.72982 12.5072 8.72944 12.5068C8.72296 12.5017 8.71572 12.4985 8.70911 12.4939C8.69183 12.4817 8.67441 12.4694 8.65586 12.46C8.64518 12.4545 8.634 12.4513 8.62294 12.4467C8.60718 12.4402 8.59181 12.433 8.57554 12.4284C8.5627 12.4247 8.54948 12.4233 8.53639 12.4209C8.52127 12.4181 8.5064 12.4144 8.49115 12.4131C8.47831 12.4121 8.46573 12.4131 8.4529 12.4132C8.43701 12.4132 8.42125 12.4126 8.40536 12.4144C8.39329 12.4158 8.3816 12.4191 8.36952 12.4214C8.35338 12.4246 8.33724 12.427 8.32149 12.4319C8.30827 12.436 8.29594 12.4423 8.2831 12.4477C8.26938 12.4535 8.2554 12.4582 8.24218 12.4655C8.22591 12.4743 8.21092 12.4858 8.19567 12.4967C8.18741 12.5027 8.17838 12.5071 8.17038 12.5137C8.16987 12.5141 8.16949 12.5147 8.16898 12.5151C8.1583 12.5241 8.14915 12.5353 8.13924 12.5454C8.1278 12.557 8.11535 12.568 8.10543 12.5806C8.10505 12.581 8.10467 12.5814 8.10429 12.5818L7.09519 13.8719C6.94332 14.0659 6.97675 14.3468 7.16992 14.4993C7.25152 14.5638 7.34836 14.5949 7.44456 14.5949C7.57636 14.5949 7.70675 14.5363 7.79457 14.4242L8.05854 14.087C8.35847 18.504 12.0287 22.0062 16.5001 22.0062C19.5123 22.0062 22.3215 20.3773 23.8312 17.7553C23.9539 17.5415 23.8814 17.2683 23.6687 17.1447Z" fill="#15436D"/>
<path d="M25.8308 12.5069C25.638 12.3543 25.3582 12.3876 25.2063 12.582L24.9423 12.9192C24.6424 8.50216 20.9722 5 16.5008 5C13.4566 5 10.6327 6.65487 9.1311 9.31894C9.00998 9.5337 9.08522 9.80642 9.29898 9.92798C9.513 10.0497 9.78421 9.97394 9.9052 9.75931C11.2492 7.37487 13.7764 5.89377 16.5008 5.89377C20.4539 5.89377 23.7074 8.95262 24.0442 12.8378L23.8262 12.5733C23.6695 12.3829 23.3891 12.3566 23.1999 12.5139C23.0107 12.6712 22.9843 12.953 23.1409 13.1431L24.2037 14.4331C24.2041 14.4336 24.2046 14.4338 24.205 14.4343C24.2245 14.4578 24.2465 14.4798 24.2714 14.4995C24.2722 14.5001 24.2731 14.5005 24.2739 14.501C24.2791 14.5051 24.2849 14.508 24.2903 14.5119C24.3097 14.5256 24.3297 14.5379 24.3504 14.5482C24.3588 14.5523 24.3673 14.5558 24.3758 14.5593C24.3956 14.5676 24.4158 14.5744 24.4364 14.5796C24.4444 14.5817 24.4522 14.584 24.4602 14.5856C24.4886 14.5913 24.5172 14.595 24.546 14.595H24.5462H24.5465C24.5761 14.595 24.6056 14.591 24.6349 14.585C24.6433 14.5834 24.6513 14.5808 24.6597 14.5786C24.6807 14.573 24.7013 14.566 24.7215 14.5573C24.7305 14.5535 24.7393 14.5496 24.748 14.5452C24.7687 14.5346 24.7884 14.5219 24.8078 14.5078C24.8137 14.5034 24.8201 14.4998 24.8259 14.4951C24.8272 14.4941 24.8287 14.4935 24.83 14.4923C24.8545 14.4719 24.876 14.4493 24.8951 14.4253C24.8953 14.4249 24.8957 14.4246 24.8961 14.4243L25.9056 13.1343C26.0574 12.9402 26.024 12.6593 25.8308 12.5069Z" fill="#15436D"/>
<path d="M15.4419 13.5276L15.8038 13.1657C15.9024 13.0671 15.9188 12.8865 15.8202 12.771L15.6229 12.5244C15.7213 12.3601 15.7874 12.1957 15.8366 12.0149L16.149 11.9819C16.2969 11.9655 16.4121 11.834 16.4121 11.6862L16.4285 11.1929C16.4285 11.0451 16.3133 10.9135 16.1654 10.8971L15.8202 10.8477C15.7874 10.6832 15.7213 10.5354 15.6229 10.3874L15.8366 10.1241C15.9352 9.9927 15.9352 9.82848 15.8202 9.71325L15.4747 9.36799C15.3761 9.26937 15.1955 9.25297 15.0802 9.35158L14.8172 9.54882C14.6694 9.4666 14.4883 9.38439 14.3241 9.35158L14.2909 9.00632C14.2745 8.85829 14.1431 8.74327 13.9954 8.74327L13.5021 8.72687C13.3543 8.72687 13.2225 8.84189 13.2061 8.98992L13.1733 9.31878C12.9758 9.36799 12.8116 9.4338 12.6472 9.53242L12.3839 9.31878C12.2689 9.23656 12.1047 9.23656 11.9895 9.35158L11.6442 9.69685C11.5292 9.79526 11.5292 9.9763 11.6114 10.0913L11.8086 10.338C11.7098 10.5024 11.6442 10.6668 11.595 10.8477L11.2825 10.8805C11.1345 10.9135 11.0195 11.0285 11.0195 11.1765V11.6698C11.0195 11.834 11.1345 11.9491 11.2825 11.9655L11.5786 12.0149C11.6278 12.1957 11.6934 12.3601 11.792 12.5244L11.595 12.7546C11.4964 12.8696 11.5128 13.0343 11.6114 13.1493L11.9566 13.4948C12.0715 13.6098 12.2361 13.6098 12.3675 13.5276L12.5814 13.3465C12.7458 13.4451 12.9264 13.5276 13.1239 13.577L13.1569 13.8728C13.1733 14.0207 13.2881 14.1357 13.4363 14.1357H13.9296C14.0938 14.1357 14.2089 14.0205 14.2417 13.8728L14.2745 13.577C14.4555 13.5276 14.653 13.4616 14.8172 13.3465L15.0638 13.5442C15.1627 13.626 15.3433 13.626 15.4419 13.5276ZM13.6994 12.426C13.1733 12.4096 12.7458 11.9819 12.7458 11.4396C12.7458 10.9135 13.1897 10.486 13.7158 10.486C14.2417 10.486 14.6694 10.9299 14.6694 11.456C14.6694 11.9983 14.2417 12.426 13.6994 12.426Z" fill="#15436D"/>
<path d="M21.3953 13.9115L20.9351 13.8133C20.9022 13.6157 20.8366 13.4184 20.7542 13.2212L21.0831 12.8759C21.1817 12.7609 21.1817 12.5965 21.0831 12.4813L20.6226 11.939C20.5406 11.8235 20.3597 11.7909 20.2281 11.873L19.8336 12.136C19.669 12.0046 19.4716 11.9062 19.2745 11.8235L19.2581 11.3471C19.2581 11.199 19.1263 11.0676 18.9951 11.0512L18.2713 11.0016C18.1237 10.9852 17.9921 11.084 17.9593 11.2318L17.8607 11.6757C17.6304 11.7251 17.4006 11.7909 17.2032 11.8896L16.8745 11.5607C16.7593 11.4621 16.5784 11.4621 16.4794 11.5607L15.9207 12.021C15.8053 12.1032 15.7725 12.2842 15.8711 12.4157L16.1011 12.7773C15.9699 12.9746 15.8711 13.172 15.7889 13.3856L15.3616 13.4018C15.1972 13.4018 15.0822 13.5171 15.0658 13.6649L14.9999 14.3718C14.9999 14.5363 15.0986 14.6677 15.23 14.7005L15.6577 14.7829C15.6905 15.0131 15.7561 15.2266 15.8547 15.424L15.559 15.7363C15.4602 15.8513 15.4602 16.0155 15.559 16.131L16.0029 16.6735C16.1011 16.8053 16.266 16.8217 16.4136 16.7393L16.7425 16.5088C16.9399 16.6571 17.1537 16.7721 17.3674 16.8545L17.384 17.2656C17.384 17.4134 17.499 17.5448 17.6466 17.5448L18.3536 17.6106C18.518 17.627 18.6496 17.5284 18.6824 17.3802L18.7646 16.9857C19.0113 16.9365 19.2415 16.8543 19.455 16.7557L19.7672 17.0515C19.8824 17.1499 20.0467 17.1499 20.1615 17.0515L20.7208 16.5914C20.836 16.5088 20.8526 16.3282 20.7702 16.1968L20.5238 15.8347C20.6552 15.6377 20.7538 15.4402 20.836 15.2264L21.2795 15.21C21.4277 15.21 21.5592 15.095 21.5756 14.9469L21.6412 14.2402C21.6418 14.076 21.5434 13.9445 21.3953 13.9115ZM19.4718 14.4378C19.4226 15.079 18.8469 15.5556 18.1895 15.5062C17.5482 15.4406 17.0715 14.8653 17.1205 14.224C17.1865 13.5829 17.7623 13.106 18.4032 13.1556C19.0609 13.2212 19.5374 13.7967 19.4718 14.4378Z" fill="#15436D"/>
</svg>
