<svg width="8" height="11" viewBox="0 0 8 11" fill="none" xmlns="http://www.w3.org/2000/svg">
<path d="M7.93381 5.37547L4.27537 0.150781C4.2427 0.104183 4.19965 0.0662022 4.14977 0.0399822C4.09988 0.0137622 4.0446 5.6754e-05 3.98851 0H3.98766C3.93136 0.000120184 3.87589 0.0139678 3.82588 0.0403921C3.77586 0.0668164 3.73274 0.105055 3.7001 0.151929L0.0652515 5.37662C0.0276747 5.43064 0.00539601 5.49419 0.000862954 5.5603C-0.0036701 5.6264 0.00971807 5.69251 0.0395563 5.75135C0.0692293 5.81027 0.114244 5.85968 0.16964 5.89413C0.225037 5.92858 0.288666 5.94674 0.353518 5.94661H2.06416L2.06402 10.6392C2.064 10.6866 2.07313 10.7335 2.09088 10.7773C2.10862 10.8211 2.13465 10.8609 2.16746 10.8944C2.20027 10.9279 2.23922 10.9545 2.28209 10.9726C2.32496 10.9907 2.3709 11 2.4173 11L5.58233 10.9999C5.62874 10.9999 5.67469 10.9905 5.71757 10.9724C5.76045 10.9543 5.79941 10.9277 5.83222 10.8941C5.86503 10.8606 5.89105 10.8208 5.90879 10.777C5.92653 10.7331 5.93564 10.6862 5.9356 10.6388V5.94675H7.64681C7.77879 5.94675 7.89997 5.87071 7.96091 5.75063C7.99063 5.69161 8.00382 5.62535 7.99904 5.55915C7.99426 5.49296 7.97169 5.4294 7.93381 5.37547Z" fill="#454545"/>
</svg>   
