<svg width="28" height="27" viewBox="0 0 28 27" fill="none" xmlns="http://www.w3.org/2000/svg">
<path d="M0.5 4C0.5 2.067 2.067 0.5 4 0.5H24C25.933 0.5 27.5 2.067 27.5 4V23C27.5 24.933 25.933 26.5 24 26.5H4C2.067 26.5 0.5 24.933 0.5 23V4Z" fill="white" stroke="#454545"/>
<path d="M17.9338 13.3755L14.2754 8.15078C14.2427 8.10418 14.1996 8.0662 14.1498 8.03998C14.0999 8.01376 14.0446 8.00006 13.9885 8H13.9877C13.9314 8.00012 13.8759 8.01397 13.8259 8.04039C13.7759 8.06682 13.7327 8.10505 13.7001 8.15193L10.0653 13.3766C10.0277 13.4306 10.0054 13.4942 10.0009 13.5603C9.99633 13.6264 10.0097 13.6925 10.0396 13.7513C10.0692 13.8103 10.1142 13.8597 10.1696 13.8941C10.225 13.9286 10.2887 13.9467 10.3535 13.9466H12.0642L12.064 18.6392C12.064 18.6866 12.0731 18.7335 12.0909 18.7773C12.1086 18.8211 12.1346 18.8609 12.1675 18.8944C12.2003 18.9279 12.2392 18.9545 12.2821 18.9726C12.325 18.9907 12.3709 19 12.4173 19L15.5823 18.9999C15.6287 18.9999 15.6747 18.9905 15.7176 18.9724C15.7605 18.9543 15.7994 18.9277 15.8322 18.8941C15.865 18.8606 15.891 18.8208 15.9088 18.777C15.9265 18.7331 15.9356 18.6862 15.9356 18.6388V13.9467H17.6468C17.7788 13.9467 17.9 13.8707 17.9609 13.7506C17.9906 13.6916 18.0038 13.6254 17.999 13.5592C17.9943 13.493 17.9717 13.4294 17.9338 13.3755Z" fill="#454545"/>
</svg>
  