<svg width="23" height="22" viewBox="0 0 23 22" fill="none" xmlns="http://www.w3.org/2000/svg">
<path d="M12.8443 10.5689L21.7879 1.9607C21.9888 1.73481 22.0939 1.44424 22.0819 1.14705C22.07 0.849868 21.942 0.56796 21.7235 0.357663C21.505 0.147365 21.2121 0.0241669 20.9034 0.012688C20.5946 0.00120905 20.2927 0.102295 20.058 0.295744L11.1145 8.90392L2.17092 0.283936C1.93623 0.0904864 1.63434 -0.0105983 1.32557 0.000880638C1.01681 0.0123596 0.723919 0.135557 0.505429 0.345854C0.286938 0.556152 0.15894 0.838059 0.147013 1.13524C0.135087 1.43243 0.240111 1.723 0.441098 1.94889L9.38465 10.5689L0.428829 19.177C0.300403 19.2829 0.196098 19.4132 0.12246 19.5597C0.0488219 19.7062 0.00744029 19.8657 0.000914205 20.0284C-0.00561188 20.191 0.0228577 20.3531 0.0845358 20.5047C0.146214 20.6562 0.239769 20.7938 0.359329 20.9089C0.478889 21.024 0.621872 21.114 0.779305 21.1734C0.936737 21.2327 1.10522 21.2601 1.27418 21.2539C1.44313 21.2476 1.60892 21.2078 1.76112 21.1369C1.91333 21.066 2.04867 20.9656 2.15865 20.842L11.1145 12.2338L20.058 20.842C20.2927 21.0354 20.5946 21.1365 20.9034 21.1251C21.2121 21.1136 21.505 20.9904 21.7235 20.7801C21.942 20.5698 22.07 20.2879 22.0819 19.9907C22.0939 19.6935 21.9888 19.4029 21.7879 19.177L12.8443 10.5689Z" fill="#ACACAC"/>
</svg>
