<svg width="40" height="41" viewBox="0 0 40 41" fill="none" xmlns="http://www.w3.org/2000/svg">
<circle cx="20" cy="20.5" r="20" fill="#E5E5E5"/>
<path fill-rule="evenodd" clip-rule="evenodd" d="M23.2736 21.5611C23.2736 21.7171 23.1408 21.8434 22.9768 21.8434H14.1415C13.9775 21.8434 13.8447 21.7171 13.8447 21.5611C13.8447 21.4055 13.9775 21.2786 14.1415 21.2786H22.977C23.1408 21.2786 23.2736 21.4055 23.2736 21.5611ZM23.2736 19.6054C23.2736 19.7614 23.1408 19.8877 22.9768 19.8877H14.1415C13.9775 19.8877 13.8447 19.7614 13.8447 19.6054C13.8447 19.4492 13.9775 19.3229 14.1415 19.3229H22.977C23.1408 19.3229 23.2736 19.4492 23.2736 19.6054ZM23.2736 17.6497C23.2736 17.8057 23.1408 17.932 22.9768 17.932H14.1415C13.9775 17.932 13.8447 17.8057 13.8447 17.6497C13.8447 17.4937 13.9775 17.3674 14.1415 17.3674H22.977C23.1408 17.3674 23.2736 17.4937 23.2736 17.6497ZM23.2736 23.517C23.2736 23.6726 23.1408 23.7993 22.9768 23.7993H14.1415C13.9775 23.7993 13.8447 23.6726 13.8447 23.517C13.8447 23.361 13.9775 23.2347 14.1415 23.2347H22.977C23.1408 23.2347 23.2736 23.361 23.2736 23.517ZM23.2736 25.4726C23.2736 25.6288 23.1408 25.7551 22.9768 25.7551H14.1415C13.9775 25.7551 13.8447 25.6288 13.8447 25.4726C13.8447 25.3167 13.9775 25.1903 14.1415 25.1903H22.977C23.1408 25.1903 23.2736 25.3167 23.2736 25.4726ZM22.6802 15.4117H18.6316V14.0205H22.6802V15.4117ZM22.9768 13.4557H18.3347C18.1711 13.4557 18.0377 13.582 18.0377 13.738V15.694C18.0377 15.8497 18.1711 15.9764 18.3347 15.9764H22.9768C23.1408 15.9764 23.2736 15.8497 23.2736 15.694V13.738C23.2736 13.582 23.1408 13.4557 22.9768 13.4557ZM26.406 28.4797V14.3094C26.406 14.0581 26.1914 13.8538 25.9269 13.8538H25.1183V26.6908C25.1183 27.253 24.6369 27.7106 24.0454 27.7106H14.475V28.4797C14.475 28.7311 14.6898 28.9354 14.954 28.9354H25.9269C26.1914 28.9354 26.406 28.7311 26.406 28.4797ZM12.5936 26.6908C12.5936 26.9415 12.8086 27.1458 13.0729 27.1458H24.0456C24.3098 27.1458 24.5247 26.9415 24.5247 26.6908V12.5203C24.5247 12.2691 24.31 12.0646 24.0456 12.0646H16.6407C16.6324 12.0646 16.6244 12.0654 16.6163 12.0657V14.9419C16.6163 15.4648 16.169 15.8906 15.6192 15.8906H12.5948C12.5942 15.8982 12.5934 15.9061 12.5934 15.9138L12.5936 26.6908ZM16.0224 12.4638V14.9419C16.0224 15.1536 15.8416 15.3258 15.6192 15.3258H13.0138L16.0224 12.4638ZM25.9269 13.289H25.1183V12.5203C25.1183 11.9577 24.6369 11.5 24.0454 11.5H16.6407C16.3501 11.5 16.0878 11.6034 15.8821 11.7989L12.3143 15.1925C12.1086 15.3881 12 15.6376 12 15.9138V26.6906C12 27.2528 12.4814 27.7105 13.0729 27.7105H13.8815V28.4796C13.8815 29.0422 14.3629 29.5 14.9542 29.5H25.9271C26.5186 29.5 27 29.0422 27 28.4796V14.3094C26.9998 13.7468 26.5186 13.289 25.9269 13.289Z" fill="#454545"/>
</svg>
