<svg width="18" height="18" viewBox="0 0 18 18" fill="none" xmlns="http://www.w3.org/2000/svg">
<path d="M9.00909 0.703125C9.29582 0.703125 9.5708 0.817026 9.77354 1.01977C9.97629 1.22251 10.0902 1.49749 10.0902 1.78422V8.27077H16.5767C16.8635 8.27077 17.1384 8.38468 17.3412 8.58742C17.5439 8.79016 17.6578 9.06514 17.6578 9.35187C17.6578 9.63859 17.5439 9.91357 17.3412 10.1163C17.1384 10.3191 16.8635 10.433 16.5767 10.433H10.0902V16.9195C10.0902 17.2062 9.97629 17.4812 9.77354 17.684C9.5708 17.8867 9.29582 18.0006 9.00909 18.0006C8.72237 18.0006 8.44739 17.8867 8.24465 17.684C8.0419 17.4812 7.928 17.2062 7.928 16.9195V10.433H1.44144C1.15472 10.433 0.879741 10.3191 0.676997 10.1163C0.474252 9.91357 0.360352 9.63859 0.360352 9.35187C0.360352 9.06514 0.474252 8.79016 0.676997 8.58742C0.879741 8.38468 1.15472 8.27077 1.44144 8.27077H7.928V1.78422C7.928 1.49749 8.0419 1.22251 8.24465 1.01977C8.44739 0.817026 8.72237 0.703125 9.00909 0.703125Z" fill="#454545"/>
</svg>
