<svg width="193" height="110" viewBox="0 0 193 110" fill="none" xmlns="http://www.w3.org/2000/svg">
<path d="M1.77881 4.94383C1.77881 2.21343 3.99798 0 6.73547 0H95.9557V50.6742H1.77881V4.94383Z" fill="#D6CBFF"/>
<path d="M95.9824 0H186.442C189.179 0 191.398 2.21342 191.398 4.94382V50.6742H95.9824V0Z" fill="#BDDFFF"/>
<path d="M95.9824 50.6741H191.398V105.056C191.398 107.787 189.179 110 186.442 110H95.9824V50.6741Z" fill="#D4FFDE"/>
<path d="M1.77881 50.6741H95.9557V110H6.73547C3.99798 110 1.77881 107.787 1.77881 105.056V50.6741Z" fill="#BAEEFF"/>
<path d="M174.333 66.7415H135.61V71.3764H174.333V66.7415Z" fill="#898989"/>
<path d="M161.941 74.4663H135.61V79.1012H161.941V74.4663Z" fill="#898989"/>
<path d="M129.412 66.7415H117.02V79.101H129.412V66.7415Z" fill="#969696"/>
<path d="M174.333 85.2809H135.61V89.9153H174.333V85.2809Z" fill="#898989"/>
<path d="M161.941 93.0059H135.61V97.6401H161.941V93.0059Z" fill="#898989"/>
<path d="M129.412 85.2809H117.02V97.6401H129.412V85.2809Z" fill="#969696"/>
<path d="M40.1699 21.7473H35.3345V42.9191H40.1699V21.7473Z" fill="#BEBABA"/>
<path d="M49.1335 12.7923H44.2981V42.9132H49.1335V12.7923Z" fill="#9D9C9C"/>
<path d="M58.1005 19.2445H53.2651V42.9192H58.1005V19.2445Z" fill="#767676"/>
<path d="M33.0756 9.88751L33.2044 20.1758L33.2994 22.3503C33.3604 29.2024 33.374 36.0613 33.3875 42.9134L33.0756 42.6022H48.5787L50.766 42.6429L55.4827 42.7443L64.1131 42.9337L55.4827 43.1164L50.766 43.2178L48.5787 43.2584H33.0756H32.7568V42.9405C32.7568 36.0906 32.7862 29.2362 32.845 22.3774L32.9331 20.2029L33.0756 9.88751Z" fill="#828181"/>
<path d="M47.4416 65.8752V95.1686C43.547 95.1686 39.8118 93.626 37.0579 90.8786C34.3039 88.1319 32.7568 84.4065 32.7568 80.522C32.7568 76.6374 34.3039 72.9119 37.0579 70.1651C39.8118 67.4183 43.547 65.8752 47.4416 65.8752Z" fill="#8A8A8A"/>
<path d="M51.1407 66.3469L47.4336 80.522V65.8752C48.6843 65.8762 49.9299 66.0347 51.1407 66.3469Z" fill="#424242"/>
<path d="M64.6562 79.6808C64.6576 81.5174 64.3109 83.3377 63.6345 85.0459L49.9714 79.6808L53.6785 65.5057C56.8223 66.3252 59.605 68.161 61.5913 70.7259C63.5776 73.2907 64.6554 76.4399 64.6562 79.6808Z" fill="#525252"/>
<path d="M61.0967 85.8886C60.012 88.6205 58.1296 90.9647 55.6934 92.6165C53.2571 94.2682 50.3796 95.1527 47.4336 95.1536V80.5236L61.0967 85.8886Z" fill="#C6C6C6"/>
<path d="M153.383 14.5223C154.667 14.5223 155.898 15.0309 156.806 15.9364C157.714 16.8418 158.223 18.0698 158.223 19.3502V37.5033C158.223 38.7838 157.714 40.0118 156.806 40.9172C155.898 41.8226 154.667 42.3313 153.383 42.3313H135.183C133.899 42.3313 132.667 41.8226 131.76 40.9172C130.852 40.0118 130.343 38.7838 130.343 37.5033V19.3502C130.343 18.0698 130.852 16.8418 131.76 15.9364C132.667 15.0309 133.899 14.5223 135.183 14.5223H153.383ZM132.279 24.9506V31.9029H138.861V24.9506H132.279ZM132.279 33.8341V37.5033C132.279 38.2716 132.585 39.0084 133.129 39.5516C133.674 40.0949 134.412 40.4001 135.183 40.4001H138.861V33.8341H132.279ZM140.797 40.4001H147.768V33.8341H140.797V40.4001ZM149.704 40.4001H153.383C154.154 40.4001 154.892 40.0949 155.437 39.5516C155.981 39.0084 156.287 38.2716 156.287 37.5033V33.8341H149.704V40.4001ZM156.287 31.9029V24.9506H149.704V31.9029H156.287ZM156.287 23.0195V19.3502C156.287 18.582 155.981 17.8452 155.437 17.3019C154.892 16.7586 154.154 16.4535 153.383 16.4535H149.704V23.0195H156.287ZM147.768 16.4535H140.797V23.0195H147.768V16.4535ZM138.861 16.4535H135.183C134.412 16.4535 133.674 16.7586 133.129 17.3019C132.585 17.8452 132.279 18.582 132.279 19.3502V23.0195H138.861V16.4535ZM147.768 31.9029V24.9506H140.797V31.9029H147.768Z" fill="#9F9F9F"/>
<path d="M0.566406 4.94383C0.566406 2.21343 2.78558 0 5.52307 0H94.7427V50.6742H0.566406V4.94383Z" fill="#B4B4B4"/>
<path d="M94.7417 0H186.441C189.177 0 191.397 2.21342 191.397 4.94382V50.6742H94.7417V0Z" fill="#F7F7F7"/>
<path d="M94.7417 50.6741H191.397V105.056C191.397 107.787 189.177 110 186.441 110H94.7417V50.6741Z" fill="#D0D0D0"/>
<path d="M0.566406 50.6741H94.7427V110H5.52307C2.78558 110 0.566406 107.787 0.566406 105.056V50.6741Z" fill="#E5E5E5"/>
<path d="M173.121 66.7415H134.396V71.3764H173.121V66.7415Z" fill="#898989"/>
<path d="M160.729 74.4663H134.396V79.1012H160.729V74.4663Z" fill="#898989"/>
<path d="M128.2 66.7415H115.808V79.101H128.2V66.7415Z" fill="#969696"/>
<path d="M173.121 85.2809H134.396V89.9153H173.121V85.2809Z" fill="#898989"/>
<path d="M160.729 93.0059H134.396V97.6401H160.729V93.0059Z" fill="#898989"/>
<path d="M128.2 85.2809H115.808V97.6401H128.2V85.2809Z" fill="#969696"/>
<path d="M38.9575 21.7473H34.1221V42.9191H38.9575V21.7473Z" fill="#DDDDDD"/>
<path d="M47.921 12.7923H43.0857V42.9132H47.921V12.7923Z" fill="#CECECE"/>
<path d="M56.8879 19.2445H52.0525V42.9192H56.8879V19.2445Z" fill="#D9D9D9"/>
<path d="M31.8629 9.88751L31.9918 20.1758L32.0867 22.3503C32.1477 29.2024 32.1613 36.0613 32.1749 42.9134L31.8629 42.6022H47.366L49.5534 42.6429L54.2701 42.7443L62.9005 42.9337L54.2701 43.1164L49.5534 43.2178L47.366 43.2584H31.8629H31.5442V42.9405C31.5442 36.0906 31.5735 29.2362 31.6323 22.3774L31.7206 20.2029L31.8629 9.88751Z" fill="#DBDBDB"/>
<path d="M46.229 65.8752V95.1686C42.3343 95.1686 38.5992 93.626 35.8452 90.8786C33.0913 88.1319 31.5442 84.4065 31.5442 80.522C31.5442 76.6374 33.0913 72.9119 35.8452 70.1651C38.5992 67.4183 42.3343 65.8752 46.229 65.8752Z" fill="#8A8A8A"/>
<path d="M49.9282 66.3469L46.2212 80.522V65.8752C47.4718 65.8762 48.7174 66.0347 49.9282 66.3469Z" fill="#424242"/>
<path d="M63.4438 79.6808C63.4451 81.5174 63.0984 83.3377 62.422 85.0459L48.759 79.6808L52.4661 65.5057C55.6098 66.3252 58.3925 68.161 60.3788 70.7259C62.3651 73.2907 63.443 76.4399 63.4438 79.6808Z" fill="#525252"/>
<path d="M59.8842 85.8886C58.7995 88.6205 56.9171 90.9647 54.4809 92.6165C52.0447 94.2682 49.1671 95.1527 46.2212 95.1536V80.5236L59.8842 85.8886Z" fill="#C6C6C6"/>
<path d="M152.17 14.5223C153.455 14.5223 154.686 15.0309 155.594 15.9364C156.501 16.8418 157.011 18.0698 157.011 19.3502V37.5033C157.011 38.7838 156.501 40.0118 155.594 40.9172C154.686 41.8226 153.455 42.3313 152.17 42.3313H133.97C132.686 42.3313 131.455 41.8226 130.548 40.9172C129.64 40.0118 129.13 38.7838 129.13 37.5033V19.3502C129.13 18.0698 129.64 16.8418 130.548 15.9364C131.455 15.0309 132.686 14.5223 133.97 14.5223H152.17ZM131.066 24.9506V31.9029H137.649V24.9506H131.066ZM131.066 33.8341V37.5033C131.066 38.2716 131.373 39.0084 131.917 39.5516C132.461 40.0949 133.2 40.4001 133.97 40.4001H137.649V33.8341H131.066ZM139.585 40.4001H146.556V33.8341H139.585V40.4001ZM148.492 40.4001H152.17C152.941 40.4001 153.68 40.0949 154.224 39.5516C154.769 39.0084 155.075 38.2716 155.075 37.5033V33.8341H148.492V40.4001ZM155.075 31.9029V24.9506H148.492V31.9029H155.075ZM155.075 23.0195V19.3502C155.075 18.582 154.769 17.8452 154.224 17.3019C153.68 16.7586 152.941 16.4535 152.17 16.4535H148.492V23.0195H155.075ZM146.556 16.4535H139.585V23.0195H146.556V16.4535ZM137.649 16.4535H133.97C133.2 16.4535 132.461 16.7586 131.917 17.3019C131.373 17.8452 131.066 18.582 131.066 19.3502V23.0195H137.649V16.4535ZM146.556 31.9029V24.9506H139.585V31.9029H146.556Z" fill="#9F9F9F"/>
</svg>
