<svg xmlns="http://www.w3.org/2000/svg" width="8" height="6" viewBox="0 0 8 6" fill="none">
<path d="M4.68049 5.56493C4.59049 5.47493 4.54729 5.36618 4.55089 5.23868C4.55449 5.11118 4.60144 5.00243 4.69174 4.91243L5.96299 3.64118H0.945485C0.817985 3.64118 0.711035 3.59798 0.624635 3.51158C0.538235 3.42518 0.495185 3.31838 0.495485 3.19118C0.495485 3.06368 0.538685 2.95673 0.625085 2.87033C0.711485 2.78393 0.818285 2.74088 0.945485 2.74118H5.96299L4.68049 1.45868C4.59049 1.36868 4.54549 1.26173 4.54549 1.13783C4.54549 1.01393 4.59049 0.907134 4.68049 0.817434C4.77049 0.727434 4.87744 0.682434 5.00134 0.682434C5.12524 0.682434 5.23204 0.727434 5.32174 0.817434L7.38049 2.87618C7.42549 2.92118 7.45744 2.96993 7.47634 3.02243C7.49524 3.07493 7.50454 3.13118 7.50424 3.19118C7.50424 3.25118 7.49478 3.30743 7.47588 3.35993C7.45698 3.41243 7.42519 3.46118 7.38049 3.50618L5.31049 5.57618C5.22799 5.65868 5.12494 5.69993 5.00134 5.69993C4.87774 5.69993 4.77079 5.65493 4.68049 5.56493Z" fill="#2970B1"/>
</svg>