<svg xmlns="http://www.w3.org/2000/svg" width="8" height="6" viewBox="0 0 8 6" fill="none">
<path d="M3.31951 5.56493C3.40951 5.47493 3.45271 5.36618 3.44911 5.23868C3.44551 5.11118 3.39856 5.00243 3.30826 4.91243L2.03701 3.64118H7.05452C7.18202 3.64118 7.28896 3.59798 7.37536 3.51158C7.46176 3.42518 7.50482 3.31838 7.50452 3.19118C7.50452 3.06368 7.46131 2.95673 7.37491 2.87033C7.28851 2.78393 7.18172 2.74088 7.05452 2.74118H2.03701L3.31951 1.45868C3.40951 1.36868 3.45451 1.26173 3.45451 1.13783C3.45451 1.01393 3.40951 0.907134 3.31951 0.817434C3.22951 0.727434 3.12256 0.682434 2.99866 0.682434C2.87476 0.682434 2.76796 0.727434 2.67826 0.817434L0.619515 2.87618C0.574515 2.92118 0.542564 2.96993 0.523664 3.02243C0.504765 3.07493 0.495464 3.13118 0.495764 3.19118C0.495764 3.25118 0.505215 3.30743 0.524115 3.35993C0.543015 3.41243 0.574815 3.46118 0.619515 3.50618L2.68951 5.57618C2.77201 5.65868 2.87506 5.69993 2.99866 5.69993C3.12226 5.69993 3.22921 5.65493 3.31951 5.56493Z" fill="#2970B1"/>
</svg>