<svg width="8" height="6" viewBox="0 0 8 6" fill="none" xmlns="http://www.w3.org/2000/svg">
<path d="M3.31939 5.565C3.40939 5.475 3.45259 5.36624 3.44899 5.23874C3.44539 5.11124 3.39844 5.0025 3.30814 4.9125L2.03689 3.64125H7.05439C7.18189 3.64125 7.28884 3.59805 7.37524 3.51165C7.46164 3.42525 7.50469 3.31845 7.50439 3.19125C7.50439 3.06375 7.46119 2.95679 7.37479 2.87039C7.28839 2.78399 7.18159 2.74095 7.05439 2.74125H2.03689L3.31939 1.45874C3.40939 1.36874 3.45439 1.26179 3.45439 1.13789C3.45439 1.01399 3.40939 0.907195 3.31939 0.817495C3.22939 0.727495 3.12244 0.682495 2.99854 0.682495C2.87464 0.682495 2.76784 0.727495 2.67814 0.817495L0.619393 2.87625C0.574393 2.92125 0.542442 2.97 0.523542 3.0225C0.504642 3.075 0.495342 3.13125 0.495642 3.19125C0.495642 3.25125 0.505093 3.3075 0.523993 3.36C0.542893 3.4125 0.574693 3.46125 0.619393 3.50625L2.68939 5.57624C2.77189 5.65874 2.87494 5.7 2.99854 5.7C3.12214 5.7 3.22909 5.655 3.31939 5.565Z" fill="#B6CEE4"/>
</svg>
