<svg width="8" height="6" viewBox="0 0 8 6" fill="none" xmlns="http://www.w3.org/2000/svg">
<path d="M4.68061 5.565C4.59061 5.475 4.54741 5.36624 4.55101 5.23874C4.55461 5.11124 4.60156 5.0025 4.69186 4.9125L5.96311 3.64125H0.945607C0.818107 3.64125 0.711157 3.59805 0.624757 3.51165C0.538357 3.42525 0.495307 3.31845 0.495607 3.19125C0.495607 3.06375 0.538807 2.95679 0.625207 2.87039C0.711607 2.78399 0.818407 2.74095 0.945607 2.74125H5.96311L4.68061 1.45874C4.59061 1.36874 4.54561 1.26179 4.54561 1.13789C4.54561 1.01399 4.59061 0.907195 4.68061 0.817495C4.77061 0.727495 4.87756 0.682495 5.00146 0.682495C5.12536 0.682495 5.23216 0.727495 5.32186 0.817495L7.38061 2.87625C7.42561 2.92125 7.45756 2.97 7.47646 3.0225C7.49536 3.075 7.50466 3.13125 7.50436 3.19125C7.50436 3.25125 7.49491 3.3075 7.47601 3.36C7.45711 3.4125 7.42531 3.46125 7.38061 3.50625L5.31061 5.57624C5.22811 5.65874 5.12506 5.7 5.00146 5.7C4.87786 5.7 4.77091 5.65499 4.68061 5.565Z" fill="#2970B1"/>
</svg>
