<svg width="18" height="18" viewBox="0 0 18 18" fill="none" xmlns="http://www.w3.org/2000/svg">
<path d="M11.925 10.35H8.325C8.14598 10.35 7.97429 10.2789 7.8477 10.1523C7.72112 10.0257 7.65 9.85402 7.65 9.675V4.275C7.65 4.09598 7.72112 3.92429 7.8477 3.7977C7.97429 3.67112 8.14598 3.6 8.325 3.6C8.50402 3.6 8.67571 3.67112 8.8023 3.7977C8.92888 3.92429 9 4.09598 9 4.275V9H11.925C12.104 9 12.2757 9.07112 12.4023 9.1977C12.5289 9.32429 12.6 9.49598 12.6 9.675C12.6 9.85402 12.5289 10.0257 12.4023 10.1523C12.2757 10.2789 12.104 10.35 11.925 10.35ZM9 0C4.0302 0 0 4.0302 0 9C0 13.9698 4.0302 18 9 18C13.9698 18 18 13.9698 18 9C18 4.0302 13.9698 0 9 0Z" fill="#ACACAC"/>
</svg>
