<svg width="164" height="48" viewBox="0 0 164 48" fill="none" xmlns="http://www.w3.org/2000/svg">
<path d="M19.2516 23.0623L18.3538 21.2063C18.3538 21.2063 15.0367 13.3815 8.49432 11.916C8.28504 11.9683 8.25864 13.1463 8.25864 13.1463C8.25864 13.1463 9.2532 13.3819 9.72408 13.6695C12.5239 15.4488 16.0414 17.544 17.4281 23.1706C18.1107 23.0623 19.2516 23.0623 19.2516 23.0623Z" fill="#454545"/>
<path d="M7.58845 13.4621C8.441 13.4621 9.13213 12.806 9.13213 11.9967C9.13213 11.1874 8.441 10.5312 7.58845 10.5312C6.7359 10.5312 6.04477 11.1874 6.04477 11.9967C6.04477 12.806 6.7359 13.4621 7.58845 13.4621Z" fill="#FF7624"/>
<path d="M33.5945 22.899L34.4213 21.0246C34.4213 21.0246 37.7384 13.1998 44.2808 11.7344C44.49 11.7867 44.5164 12.9646 44.5164 12.9646C44.5164 12.9646 43.5219 13.2003 43.051 13.4878C40.2512 15.2672 36.7337 17.3624 35.347 22.9889C34.1168 22.4917 33.5945 22.899 33.5945 22.899Z" fill="#454545"/>
<path d="M45.4322 13.4621C44.5797 13.4621 43.8886 12.806 43.8886 11.9967C43.8886 11.1874 44.5797 10.5312 45.4322 10.5312C46.2848 10.5312 46.9759 11.1874 46.9759 11.9967C46.9759 12.806 46.2848 13.4621 45.4322 13.4621Z" fill="#FF7624"/>
<path d="M8.99379 28.3686C8.50753 28.2207 8.52633 27.6078 9.02653 27.5079C13.7085 26.5731 27.739 24.3862 44.2387 27.6467C44.7517 27.7481 44.7807 28.4063 44.2802 28.5524L31.68 32.3999C31.3682 32.4219 31.7324 32.3999 31.68 32.3999H21.84C21.7855 32.3999 21.4118 32.1757 21.36 32.1599L8.99379 28.3686Z" fill="#454545"/>
<path d="M17.9476 21.8399C17.9476 21.8399 26.2184 18.5394 34.5725 21.8399H17.9476Z" fill="#454545"/>
<path d="M26.7213 31.2117C23.835 31.1731 21.4891 31.5987 21.4815 32.1623C21.474 32.7258 23.8078 33.2139 26.6941 33.2525C29.5804 33.291 31.9264 32.8654 31.9339 32.3019C31.9414 31.7383 29.6077 31.2502 26.7213 31.2117Z" fill="#FF7624"/>
<path d="M8.91067 27.6125C8.8903 27.6273 8.8602 27.6092 8.8602 27.5841C8.8602 27.5761 8.86015 27.5715 8.86635 27.5665C9.06448 27.4069 13.678 23.9151 17.8114 22.6796C17.9774 22.6299 18.1181 22.8023 18.0406 22.9574C18.0145 23.0095 17.9677 23.0476 17.9115 23.0626C13.9162 24.127 9.43523 27.233 8.91067 27.6125Z" fill="#454545"/>
<path d="M44.3993 27.8387C44.3369 27.7803 39.0713 23.6811 34.1755 22.2191C33.9814 22.1611 33.8169 22.3627 33.9075 22.5439C33.938 22.6048 33.9928 22.6494 34.0586 22.6669C38.9959 23.9806 44.3352 27.7792 44.3993 27.8387Z" fill="#454545"/>
<path fill-rule="evenodd" clip-rule="evenodd" d="M26.2862 18.5393C22.1924 18.5393 19.2754 20.4277 18.5785 21.8916C18.5183 22.018 18.5695 22.1323 18.69 22.219C18.8139 22.3083 19.0142 22.3692 19.2433 22.3692H33.4434C33.6725 22.3692 33.8725 22.3082 33.9956 22.2192C34.1151 22.1328 34.1652 22.0192 34.1035 21.8935C33.3853 20.43 30.3827 18.5393 26.2862 18.5393ZM18.1556 21.8078C18.9059 20.2316 21.9861 18.2539 26.2862 18.2539C30.5846 18.2539 33.7516 20.2309 34.5253 21.8074C34.6378 22.0365 34.5409 22.2537 34.3257 22.4093C34.1139 22.5623 33.7913 22.6546 33.4434 22.6546H19.2433C18.8954 22.6546 18.5728 22.5624 18.3605 22.4095C18.1448 22.2541 18.0464 22.0373 18.1556 21.8078Z" fill="#454545"/>
<path d="M17.4363 22.9511C17.2789 23.3387 31.611 23.511 35.2878 22.9325C35.6242 21.9605 35.0118 21.7882 34.8903 21.7114C27.2385 20.9268 20.9227 21.0991 17.8337 21.7303C17.5936 21.7114 17.036 22.1328 17.4363 22.9511Z" fill="#454545"/>
<path d="M17.4363 22.9511C17.2789 23.3387 31.611 23.511 35.2878 22.9325C35.6242 21.9605 35.0118 21.7882 34.8903 21.7114C27.2385 20.9268 20.9227 21.0991 17.8337 21.7303C17.5936 21.7114 17.036 22.1328 17.4363 22.9511Z" fill="#454545"/>
<path d="M49.2331 27.8213C49.0761 27.9783 48.8668 28.0565 48.6316 28.0565C48.3964 28.0565 48.1872 27.9783 48.0302 27.8213C47.8732 27.6643 47.7945 27.4546 47.7945 27.2189V21.3576C47.7945 21.1219 47.8732 20.9127 48.0302 20.7557C48.1872 20.5987 48.3964 20.5205 48.6316 20.5205C48.8668 20.5205 49.0761 20.5992 49.2331 20.7557C49.39 20.9127 49.4688 21.1219 49.4688 21.3576V27.2453C49.4688 27.4805 49.39 27.6643 49.2331 27.8213Z" fill="#FF7624"/>
<path d="M61.7416 26.4077C62.1338 26.4077 62.4482 26.3289 62.7357 26.1979C62.9709 26.0409 63.1807 25.884 63.3376 25.6747C63.4946 25.4654 63.5733 25.2302 63.6256 24.9945C63.6775 24.7593 63.7039 24.5237 63.7039 24.3139C63.7039 24.1046 63.652 23.8694 63.6256 23.6337C63.5733 23.3981 63.4687 23.1629 63.3376 22.9536C63.1807 22.7438 62.9709 22.5609 62.7357 22.4304C62.5 22.2734 62.1338 22.2211 61.7416 22.2211H52.0072C51.7716 22.2211 51.5628 22.1424 51.4058 21.9854C51.2488 21.8285 51.1701 21.6192 51.1701 21.3835C51.1701 21.1478 51.2488 20.9385 51.4058 20.7816C51.5628 20.6246 51.772 20.5459 52.0072 20.5459H62.082C62.6052 20.5459 63.0237 20.6769 63.4164 20.9121C63.809 21.1478 64.1229 21.4353 64.4104 21.828C64.698 22.1942 64.8813 22.5869 65.0388 23.0577C65.1957 23.5027 65.248 23.9213 65.248 24.3921C65.248 24.8376 65.1693 25.2557 65.0388 25.7011C64.8818 26.1456 64.6725 26.5382 64.4373 26.8785C64.1488 27.2448 63.8349 27.5587 63.4951 27.7944C63.1548 28.0301 62.7103 28.1606 62.2389 28.187H52.0072C51.7716 28.187 51.5628 28.1083 51.4058 27.9513C51.2488 27.7944 51.1701 27.5851 51.1701 27.3499V24.4709C51.1701 24.2352 51.2488 24.0264 51.4058 23.8694C51.5628 23.7125 51.772 23.6337 52.0072 23.6337C52.2424 23.6337 52.4517 23.7125 52.6087 23.8694C52.7656 24.0264 52.8444 24.2357 52.8444 24.4709V26.5905H61.7416V26.4077Z" fill="#FF7624"/>
<path d="M84.115 27.742C83.958 27.9513 83.7224 28.0559 83.4867 28.0559C83.251 28.0559 83.0422 27.9777 82.8852 27.8207C82.7283 27.6638 82.6496 27.454 82.6496 27.2183C82.6496 27.009 82.7019 26.8257 82.8065 26.6951L87.0459 21.095C87.2551 20.8074 87.5167 20.6241 87.8307 20.4671C88.1446 20.3102 88.5108 20.2314 88.8512 20.2314C89.191 20.2314 89.5313 20.3102 89.8452 20.4671C90.1592 20.6241 90.3948 20.8334 90.6041 21.095L94.7912 26.7215C94.8699 26.8002 94.9217 26.8785 94.9481 27.0095C94.9999 27.0882 95.0268 27.2188 95.0268 27.3234C95.0268 27.5591 94.9481 27.7684 94.7912 27.9249C94.6342 28.0818 94.4249 28.1606 94.1897 28.1606C93.9012 28.1606 93.666 28.03 93.5091 27.8466L89.4795 22.4822C89.4008 22.4034 89.2697 22.2729 89.1655 22.1682C89.0345 22.0372 88.9299 22.0113 88.7988 22.0113C88.6683 22.0113 88.5636 22.0636 88.4326 22.1682C88.302 22.2988 88.2233 22.3775 88.1451 22.4822L84.115 27.742Z" fill="#FF7624"/>
<path d="M107.929 20.5464C108.243 20.5464 108.557 20.6251 108.845 20.7557C109.132 20.8867 109.368 21.0437 109.603 21.2789C109.813 21.4882 109.996 21.7239 110.127 21.9855C110.258 22.2471 110.336 22.5874 110.336 22.9013C110.336 23.2152 110.258 23.5291 110.127 23.8176C109.996 24.1051 109.839 24.3408 109.603 24.5242C109.394 24.7335 109.133 24.8904 108.845 25.0474C108.557 25.1779 108.243 25.2567 107.929 25.2567H98.4036V27.3763C98.4036 27.612 98.3249 27.8218 98.1679 27.9787C98.011 28.1357 97.8017 28.2139 97.5665 28.2139C97.3313 28.2139 97.121 28.1352 96.9641 27.9787C96.8071 27.8218 96.7284 27.612 96.7284 27.3763V21.3576C96.7284 21.1219 96.8071 20.9127 96.9641 20.7557C97.121 20.5987 97.3308 20.5205 97.5665 20.5205C97.566 20.5464 107.929 20.5464 107.929 20.5464ZM98.3767 22.1947V23.4509H107.954C108.111 23.4509 108.268 23.3722 108.425 23.2416C108.556 23.1111 108.635 22.9536 108.635 22.7707C108.635 22.6138 108.556 22.4568 108.425 22.3258C108.294 22.1952 108.138 22.1165 107.954 22.1165H98.3767V22.1947Z" fill="#454545"/>
<path d="M126.037 24.2881C126.037 24.7325 125.958 25.1516 125.827 25.6225C125.67 26.0669 125.46 26.4596 125.199 26.8522C124.911 27.2185 124.571 27.5324 124.204 27.7681C123.812 28.0033 123.367 28.1348 122.87 28.1348H114.994C114.523 28.082 114.078 27.9778 113.738 27.7426C113.371 27.5069 113.057 27.193 112.796 26.8263C112.507 26.4601 112.325 26.0674 112.193 25.6489C112.036 25.2044 111.984 24.7853 111.984 24.3404C111.984 23.8954 112.063 23.4769 112.193 23.006C112.35 22.561 112.56 22.1689 112.821 21.7762C113.11 21.4095 113.424 21.0956 113.817 20.8604C114.209 20.6247 114.654 20.4941 115.151 20.4941H123.027C123.498 20.5465 123.943 20.6511 124.283 20.8868C124.65 21.122 124.964 21.4364 125.225 21.8026C125.514 22.1693 125.696 22.5615 125.827 22.9801C125.985 23.4245 126.037 23.8426 126.037 24.2881ZM123.472 26.1721C123.708 26.0151 123.917 25.8581 124.074 25.6484C124.231 25.4391 124.309 25.2039 124.362 24.9682C124.414 24.7325 124.44 24.4973 124.44 24.2881C124.44 24.0783 124.389 23.8426 124.362 23.6074C124.336 23.3722 124.205 23.1365 124.074 22.9273C123.917 22.718 123.708 22.5346 123.472 22.4041C123.237 22.2471 122.87 22.1948 122.478 22.1948H115.517C115.125 22.1948 114.758 22.2735 114.523 22.4041C114.287 22.561 114.078 22.718 113.921 22.9273C113.764 23.1365 113.685 23.3722 113.633 23.6074C113.581 23.8431 113.554 24.0783 113.554 24.2881C113.554 24.4973 113.607 24.7325 113.633 24.9682C113.685 25.2039 113.79 25.4391 113.921 25.6484C114.078 25.8581 114.287 26.041 114.523 26.1721C114.759 26.329 115.125 26.3813 115.517 26.3813H122.478C122.897 26.4077 123.211 26.329 123.472 26.1721Z" fill="#454545"/>
<path d="M129.412 23.45H133.389C133.991 23.45 134.567 23.3712 135.169 23.2143C135.771 23.0573 136.32 22.848 136.869 22.5864C137.419 22.3508 137.943 22.0368 138.44 21.7229C138.963 21.409 139.434 21.0428 139.905 20.7288C140.115 20.5719 140.298 20.4932 140.507 20.4932C140.743 20.4932 140.952 20.5719 141.109 20.7288C141.266 20.8858 141.344 21.0951 141.344 21.3303C141.344 21.4872 141.292 21.6442 141.187 21.7752C141.109 21.9058 140.978 22.0109 140.873 22.0892C140.56 22.3244 140.272 22.5336 140.01 22.717C139.722 22.9263 139.46 23.1096 139.172 23.2666C138.885 23.4236 138.623 23.6328 138.309 23.7898C138.021 23.9468 137.707 24.1037 137.367 24.2607C137.681 24.4176 137.995 24.5746 138.309 24.7316C138.597 24.8885 138.91 25.0455 139.172 25.2548C139.46 25.4117 139.723 25.6215 140.01 25.8044C140.298 26.0141 140.56 26.2498 140.873 26.4322C141.004 26.5109 141.109 26.642 141.187 26.7461C141.266 26.8772 141.344 27.0346 141.344 27.1916C141.344 27.4272 141.266 27.636 141.109 27.793C140.952 27.95 140.743 28.0287 140.507 28.0287C140.298 28.0287 140.115 27.95 139.905 27.793C139.435 27.4268 138.963 27.1128 138.44 26.7989C137.916 26.485 137.419 26.197 136.869 25.9354C136.32 25.6997 135.771 25.4645 135.169 25.333C134.567 25.176 133.991 25.0973 133.389 25.0973H129.412V27.217C129.412 27.4527 129.333 27.6624 129.176 27.8194C129.02 27.9764 128.81 28.0546 128.626 28.0546C128.391 28.0546 128.182 27.9764 128.025 27.8194C127.868 27.6624 127.789 27.4527 127.789 27.217V21.3567C127.789 21.121 127.868 20.9117 128.025 20.7548C128.182 20.5978 128.391 20.5196 128.575 20.5196C128.81 20.5196 129.02 20.5983 129.176 20.7548C129.333 20.9117 129.412 21.121 129.412 21.3567V23.45Z" fill="#454545"/>
<path d="M88.9824 26.7478C89.5028 26.7478 89.9247 26.3259 89.9247 25.8055C89.9247 25.2851 89.5028 24.8633 88.9824 24.8633C88.462 24.8633 88.0402 25.2851 88.0402 25.8055C88.0402 26.3259 88.462 26.7478 88.9824 26.7478Z" fill="#FF7624"/>
<path d="M66.7141 24.2886C66.7141 23.8432 66.7928 23.4251 66.9234 22.9537C67.0803 22.5088 67.2896 22.1161 67.5517 21.7235C67.8392 21.3572 68.1531 21.0433 68.5458 20.8076C68.9384 20.572 69.3834 20.4414 69.8802 20.4414H79.9813C80.2165 20.4414 80.4258 20.5201 80.5827 20.6771C80.7397 20.834 80.8184 21.0433 80.8184 21.2785C80.8184 21.5137 80.7397 21.7235 80.5827 21.8804C80.4258 22.0374 80.2165 22.1161 79.9813 22.1161H70.2469C69.8542 22.1161 69.4875 22.1948 69.2518 22.3254C69.0166 22.4824 68.8074 22.6393 68.6504 22.8486C68.4934 23.0579 68.4147 23.2936 68.3629 23.5288C68.3101 23.7644 68.2842 23.9996 68.2842 24.2094C68.2842 24.4187 68.3365 24.6539 68.3629 24.8896C68.4147 25.1252 68.5198 25.3604 68.6504 25.5697C68.8074 25.7795 69.0166 25.9624 69.2518 26.0934C69.4875 26.2504 69.8542 26.3027 70.2469 26.3027H79.9813C80.2165 26.3027 80.4258 26.3814 80.5827 26.5384C80.7397 26.6953 80.8184 26.9046 80.8184 27.1398C80.8184 27.375 80.7397 27.5852 80.5827 27.7422C80.4258 27.8992 80.2165 27.9779 79.9813 27.9779H69.7496C69.2787 27.9779 68.8338 27.8468 68.4934 27.6112C68.1272 27.3755 67.8133 27.088 67.5517 26.6953C67.2642 26.3291 67.0808 25.91 66.9502 25.4656C66.7928 25.1521 66.7141 24.7072 66.7141 24.2886Z" fill="#FF7624"/>
<path d="M69.4357 24.2878C69.4357 24.0521 69.5144 23.8424 69.6449 23.6854C69.776 23.5284 69.9334 23.4502 70.1158 23.4502H79.9289C80.1387 23.4502 80.2957 23.5284 80.3998 23.6854C80.5309 23.8424 80.6096 24.0521 80.6096 24.2878C80.6096 24.5235 80.5309 24.7323 80.3998 24.8892C80.2693 25.0462 80.1118 25.1249 79.9289 25.1249H70.1158C69.9065 25.1249 69.7496 25.0462 69.6449 24.8892C69.5139 24.6804 69.4357 24.4707 69.4357 24.2878Z" fill="#FF7624"/>
<path d="M142.313 24.1314C142.313 23.6859 142.392 23.2679 142.522 22.7965C142.679 22.3515 142.89 21.9589 143.151 21.5663C143.439 21.2 143.753 20.8861 144.145 20.6504C144.538 20.4147 144.982 20.2842 145.48 20.2842H155.554C155.79 20.2842 155.999 20.3629 156.156 20.5199C156.313 20.6768 156.392 20.8861 156.392 21.1213C156.392 21.357 156.313 21.5663 156.156 21.7232C155.999 21.8802 155.79 21.9589 155.554 21.9589H145.82C145.427 21.9589 145.061 22.0376 144.825 22.1687C144.59 22.3256 144.381 22.4826 144.224 22.6919C144.067 22.9011 143.988 23.1368 143.936 23.372C143.884 23.6072 143.857 23.8429 143.857 24.0527C143.857 24.2619 143.91 24.4971 143.936 24.7328C143.988 24.9685 144.092 25.2037 144.224 25.413C144.381 25.6227 144.59 25.8056 144.825 25.9367C145.061 26.0936 145.427 26.1459 145.82 26.1459H155.554C155.79 26.1459 155.999 26.2247 156.156 26.3816C156.313 26.5386 156.392 26.7479 156.392 26.9831C156.392 27.2183 156.313 27.4285 156.156 27.5855C155.999 27.7424 155.79 27.8211 155.554 27.8211H145.323C144.852 27.8211 144.407 27.6901 144.067 27.4544C143.7 27.2187 143.386 26.9312 143.125 26.5386C142.836 26.1723 142.654 25.7533 142.522 25.3088C142.392 24.9949 142.313 24.5495 142.313 24.1314Z" fill="#454545"/>
<path d="M145.035 24.0783C145.035 23.8427 145.113 23.6338 145.244 23.4769C145.375 23.3199 145.532 23.2412 145.715 23.2412H155.528C155.737 23.2412 155.894 23.3199 155.999 23.4769C156.103 23.6338 156.208 23.8431 156.208 24.0783C156.208 24.3135 156.13 24.5238 155.999 24.6807C155.868 24.8377 155.71 24.9159 155.528 24.9159H145.715C145.505 24.9159 145.348 24.8377 145.244 24.6807C145.113 24.5238 145.035 24.314 145.035 24.0783Z" fill="#454545"/>
<path d="M53.0096 32.8652L51.8461 36.8799H51.2586L50.3254 33.6485L49.3578 36.8799L48.776 36.8856L47.6528 32.8652H48.2115L49.087 36.2693L50.0547 32.8652H50.6422L51.5638 36.2578L52.4451 32.8652H53.0096ZM55.3707 33.6658C55.6088 33.6658 55.8239 33.7176 56.0159 33.8213C56.2079 33.9212 56.3576 34.0728 56.4651 34.2764C56.5765 34.4799 56.6322 34.7276 56.6322 35.0194V36.8799H56.1138V35.0943C56.1138 34.7794 56.0351 34.5394 55.8776 34.3743C55.7202 34.2053 55.5051 34.1208 55.2325 34.1208C54.956 34.1208 54.7352 34.2072 54.5701 34.38C54.4088 34.5528 54.3282 34.8044 54.3282 35.1346V36.8799H53.804V32.6175H54.3282V34.1727C54.4319 34.0114 54.5739 33.8866 54.7544 33.7983C54.9387 33.71 55.1442 33.6658 55.3707 33.6658ZM60.5892 35.1807C60.5892 35.2805 60.5834 35.3861 60.5719 35.4975H58.049C58.0682 35.8085 58.1738 36.0524 58.3658 36.229C58.5617 36.4018 58.7978 36.4882 59.0743 36.4882C59.3009 36.4882 59.489 36.4364 59.6388 36.3327C59.7924 36.2252 59.8999 36.0831 59.9614 35.9064H60.5258C60.4414 36.2098 60.2724 36.4575 60.019 36.6495C59.7655 36.8376 59.4506 36.9317 59.0743 36.9317C58.7748 36.9317 58.506 36.8645 58.2679 36.7301C58.0337 36.5957 57.8494 36.4056 57.715 36.1599C57.5806 35.9103 57.5134 35.6223 57.5134 35.2959C57.5134 34.9695 57.5786 34.6834 57.7092 34.4376C57.8398 34.1919 58.0222 34.0037 58.2564 33.8732C58.4945 33.7388 58.7671 33.6716 59.0743 33.6716C59.3738 33.6716 59.6388 33.7368 59.8692 33.8674C60.0996 33.998 60.2762 34.1784 60.3991 34.4088C60.5258 34.6354 60.5892 34.8927 60.5892 35.1807ZM60.0478 35.0712C60.0478 34.8716 60.0036 34.7007 59.9153 34.5586C59.827 34.4127 59.706 34.3032 59.5524 34.2303C59.4026 34.1535 59.2356 34.1151 59.0513 34.1151C58.7863 34.1151 58.5598 34.1996 58.3716 34.3685C58.1873 34.5375 58.0817 34.7717 58.0548 35.0712H60.0478ZM62.026 34.236C62.1182 34.0556 62.2488 33.9154 62.4177 33.8156C62.5905 33.7157 62.7998 33.6658 63.0456 33.6658V34.2072H62.9073C62.3198 34.2072 62.026 34.526 62.026 35.1634V36.8799H61.5019V33.7234H62.026V34.236ZM66.7514 35.1807C66.7514 35.2805 66.7457 35.3861 66.7341 35.4975H64.2113C64.2305 35.8085 64.3361 36.0524 64.5281 36.229C64.7239 36.4018 64.9601 36.4882 65.2365 36.4882C65.4631 36.4882 65.6513 36.4364 65.801 36.3327C65.9546 36.2252 66.0621 36.0831 66.1236 35.9064H66.6881C66.6036 36.2098 66.4346 36.4575 66.1812 36.6495C65.9277 36.8376 65.6129 36.9317 65.2365 36.9317C64.937 36.9317 64.6682 36.8645 64.4301 36.7301C64.1959 36.5957 64.0116 36.4056 63.8772 36.1599C63.7428 35.9103 63.6756 35.6223 63.6756 35.2959C63.6756 34.9695 63.7409 34.6834 63.8714 34.4376C64.002 34.1919 64.1844 34.0037 64.4186 33.8732C64.6567 33.7388 64.9293 33.6716 65.2365 33.6716C65.5361 33.6716 65.801 33.7368 66.0314 33.8674C66.2618 33.998 66.4385 34.1784 66.5613 34.4088C66.6881 34.6354 66.7514 34.8927 66.7514 35.1807ZM66.21 35.0712C66.21 34.8716 66.1658 34.7007 66.0775 34.5586C65.9892 34.4127 65.8682 34.3032 65.7146 34.2303C65.5649 34.1535 65.3978 34.1151 65.2135 34.1151C64.9485 34.1151 64.722 34.1996 64.5338 34.3685C64.3495 34.5375 64.2439 34.7717 64.217 35.0712H66.21ZM70.0599 34.1554V36.0159C70.0599 36.1695 70.0925 36.2789 70.1578 36.3442C70.2231 36.4056 70.3364 36.4364 70.4976 36.4364H70.8836V36.8799H70.4112C70.1194 36.8799 69.9005 36.8127 69.7546 36.6783C69.6087 36.5439 69.5357 36.3231 69.5357 36.0159V34.1554H69.1268V33.7234H69.5357V32.9285H70.0599V33.7234H70.8836V34.1554H70.0599ZM73.3062 33.6658C73.5442 33.6658 73.7593 33.7176 73.9513 33.8213C74.1433 33.9212 74.293 34.0728 74.4006 34.2764C74.5119 34.4799 74.5676 34.7276 74.5676 35.0194V36.8799H74.0492V35.0943C74.0492 34.7794 73.9705 34.5394 73.813 34.3743C73.6556 34.2053 73.4406 34.1208 73.1679 34.1208C72.8914 34.1208 72.6706 34.2072 72.5055 34.38C72.3442 34.5528 72.2636 34.8044 72.2636 35.1346V36.8799H71.7394V32.6175H72.2636V34.1727C72.3673 34.0114 72.5094 33.8866 72.6898 33.7983C72.8742 33.71 73.0796 33.6658 73.3062 33.6658ZM78.5246 35.1807C78.5246 35.2805 78.5189 35.3861 78.5073 35.4975H75.9845C76.0037 35.8085 76.1093 36.0524 76.3013 36.229C76.4971 36.4018 76.7333 36.4882 77.0097 36.4882C77.2363 36.4882 77.4245 36.4364 77.5742 36.3327C77.7278 36.2252 77.8353 36.0831 77.8968 35.9064H78.4613C78.3768 36.2098 78.2078 36.4575 77.9544 36.6495C77.7009 36.8376 77.3861 36.9317 77.0097 36.9317C76.7102 36.9317 76.4414 36.8645 76.2033 36.7301C75.9691 36.5957 75.7848 36.4056 75.6504 36.1599C75.516 35.9103 75.4488 35.6223 75.4488 35.2959C75.4488 34.9695 75.5141 34.6834 75.6446 34.4376C75.7752 34.1919 75.9576 34.0037 76.1918 33.8732C76.4299 33.7388 76.7025 33.6716 77.0097 33.6716C77.3093 33.6716 77.5742 33.7368 77.8046 33.8674C78.035 33.998 78.2117 34.1784 78.3345 34.4088C78.4613 34.6354 78.5246 34.8927 78.5246 35.1807ZM77.9832 35.0712C77.9832 34.8716 77.939 34.7007 77.8507 34.5586C77.7624 34.4127 77.6414 34.3032 77.4878 34.2303C77.3381 34.1535 77.171 34.1151 76.9867 34.1151C76.7217 34.1151 76.4952 34.1996 76.307 34.3685C76.1227 34.5375 76.0171 34.7717 75.9902 35.0712H77.9832ZM85.3985 33.7234L84.4136 36.8799H83.8721L83.1118 34.3743L82.3515 36.8799H81.81L80.8193 33.7234H81.355L82.0808 36.373L82.8641 33.7234H83.3998L84.1659 36.3788L84.8801 33.7234H85.3985ZM87.5162 36.9317C87.2205 36.9317 86.9517 36.8645 86.7098 36.7301C86.4717 36.5957 86.2835 36.4056 86.1453 36.1599C86.0109 35.9103 85.9437 35.6223 85.9437 35.2959C85.9437 34.9733 86.0128 34.6892 86.151 34.4434C86.2931 34.1938 86.4851 34.0037 86.727 33.8732C86.969 33.7388 87.2397 33.6716 87.5392 33.6716C87.8387 33.6716 88.1094 33.7388 88.3514 33.8732C88.5933 34.0037 88.7834 34.1919 88.9216 34.4376C89.0637 34.6834 89.1347 34.9695 89.1347 35.2959C89.1347 35.6223 89.0618 35.9103 88.9158 36.1599C88.7738 36.4056 88.5798 36.5957 88.3341 36.7301C88.0883 36.8645 87.8157 36.9317 87.5162 36.9317ZM87.5162 36.4709C87.7043 36.4709 87.881 36.4268 88.0461 36.3384C88.2112 36.2501 88.3437 36.1176 88.4435 35.941C88.5472 35.7644 88.599 35.5493 88.599 35.2959C88.599 35.0424 88.5491 34.8274 88.4493 34.6508C88.3494 34.4741 88.2189 34.3436 88.0576 34.2591C87.8963 34.1708 87.7216 34.1266 87.5334 34.1266C87.3414 34.1266 87.1648 34.1708 87.0035 34.2591C86.8461 34.3436 86.7194 34.4741 86.6234 34.6508C86.5274 34.8274 86.4794 35.0424 86.4794 35.2959C86.4794 35.5532 86.5254 35.7701 86.6176 35.9468C86.7136 36.1234 86.8403 36.2559 86.9978 36.3442C87.1552 36.4287 87.328 36.4709 87.5162 36.4709ZM90.5689 34.236C90.661 34.0556 90.7916 33.9154 90.9605 33.8156C91.1333 33.7157 91.3426 33.6658 91.5884 33.6658V34.2072H91.4501C90.8626 34.2072 90.5689 34.526 90.5689 35.1634V36.8799H90.0447V33.7234H90.5689V34.236ZM92.9384 32.6175V36.8799H92.4142V32.6175H92.9384ZM93.8567 35.2901C93.8567 34.9676 93.922 34.6853 94.0525 34.4434C94.1831 34.1976 94.3617 34.0076 94.5882 33.8732C94.8186 33.7388 95.0759 33.6716 95.3601 33.6716C95.6058 33.6716 95.8343 33.7292 96.0455 33.8444C96.2567 33.9557 96.418 34.1036 96.5293 34.2879V32.6175H97.0593V36.8799H96.5293V36.2866C96.4257 36.4748 96.2721 36.6303 96.0685 36.7532C95.865 36.8722 95.6269 36.9317 95.3543 36.9317C95.074 36.9317 94.8186 36.8626 94.5882 36.7244C94.3617 36.5861 94.1831 36.3922 94.0525 36.1426C93.922 35.893 93.8567 35.6088 93.8567 35.2901ZM96.5293 35.2959C96.5293 35.0578 96.4813 34.8504 96.3853 34.6738C96.2893 34.4972 96.1588 34.3628 95.9937 34.2706C95.8324 34.1746 95.6538 34.1266 95.458 34.1266C95.2621 34.1266 95.0836 34.1727 94.9223 34.2648C94.761 34.357 94.6324 34.4914 94.5364 34.668C94.4404 34.8447 94.3924 35.052 94.3924 35.2901C94.3924 35.532 94.4404 35.7432 94.5364 35.9237C94.6324 36.1004 94.761 36.2367 94.9223 36.3327C95.0836 36.4248 95.2621 36.4709 95.458 36.4709C95.6538 36.4709 95.8324 36.4248 95.9937 36.3327C96.1588 36.2367 96.2893 36.1004 96.3853 35.9237C96.4813 35.7432 96.5293 35.534 96.5293 35.2959ZM99.7264 35.2959C99.7264 34.9695 99.7917 34.6853 99.9223 34.4434C100.053 34.1976 100.233 34.0076 100.464 33.8732C100.698 33.7388 100.965 33.6716 101.264 33.6716C101.652 33.6716 101.971 33.7656 102.221 33.9538C102.474 34.142 102.641 34.4031 102.722 34.7372H102.157C102.103 34.5452 101.998 34.3935 101.84 34.2821C101.687 34.1708 101.495 34.1151 101.264 34.1151C100.965 34.1151 100.723 34.2188 100.539 34.4261C100.354 34.6296 100.262 34.9196 100.262 35.2959C100.262 35.676 100.354 35.9698 100.539 36.1772C100.723 36.3845 100.965 36.4882 101.264 36.4882C101.495 36.4882 101.687 36.4344 101.84 36.3269C101.994 36.2194 102.1 36.0658 102.157 35.8661H102.722C102.637 36.1887 102.468 36.4479 102.215 36.6437C101.961 36.8357 101.645 36.9317 101.264 36.9317C100.965 36.9317 100.698 36.8645 100.464 36.7301C100.233 36.5957 100.053 36.4056 99.9223 36.1599C99.7917 35.9141 99.7264 35.6261 99.7264 35.2959ZM105.018 36.9317C104.723 36.9317 104.454 36.8645 104.212 36.7301C103.974 36.5957 103.786 36.4056 103.648 36.1599C103.513 35.9103 103.446 35.6223 103.446 35.2959C103.446 34.9733 103.515 34.6892 103.653 34.4434C103.795 34.1938 103.987 34.0037 104.229 33.8732C104.471 33.7388 104.742 33.6716 105.042 33.6716C105.341 33.6716 105.612 33.7388 105.854 33.8732C106.096 34.0037 106.286 34.1919 106.424 34.4376C106.566 34.6834 106.637 34.9695 106.637 35.2959C106.637 35.6223 106.564 35.9103 106.418 36.1599C106.276 36.4056 106.082 36.5957 105.836 36.7301C105.591 36.8645 105.318 36.9317 105.018 36.9317ZM105.018 36.4709C105.207 36.4709 105.383 36.4268 105.548 36.3384C105.714 36.2501 105.846 36.1176 105.946 35.941C106.05 35.7644 106.101 35.5493 106.101 35.2959C106.101 35.0424 106.051 34.8274 105.952 34.6508C105.852 34.4741 105.721 34.3436 105.56 34.2591C105.399 34.1708 105.224 34.1266 105.036 34.1266C104.844 34.1266 104.667 34.1708 104.506 34.2591C104.348 34.3436 104.222 34.4741 104.126 34.6508C104.03 34.8274 103.982 35.0424 103.982 35.2959C103.982 35.5532 104.028 35.7701 104.12 35.9468C104.216 36.1234 104.343 36.2559 104.5 36.3442C104.658 36.4287 104.83 36.4709 105.018 36.4709ZM111.343 33.6658C111.589 33.6658 111.807 33.7176 111.999 33.8213C112.191 33.9212 112.343 34.0728 112.455 34.2764C112.566 34.4799 112.622 34.7276 112.622 35.0194V36.8799H112.103V35.0943C112.103 34.7794 112.024 34.5394 111.867 34.3743C111.713 34.2053 111.504 34.1208 111.239 34.1208C110.967 34.1208 110.75 34.2092 110.588 34.3858C110.427 34.5586 110.346 34.8101 110.346 35.1404V36.8799H109.828V35.0943C109.828 34.7794 109.749 34.5394 109.592 34.3743C109.438 34.2053 109.229 34.1208 108.964 34.1208C108.691 34.1208 108.474 34.2092 108.313 34.3858C108.152 34.5586 108.071 34.8101 108.071 35.1404V36.8799H107.547V33.7234H108.071V34.1784C108.175 34.0133 108.313 33.8866 108.486 33.7983C108.663 33.71 108.856 33.6658 109.068 33.6658C109.333 33.6658 109.567 33.7253 109.77 33.8444C109.974 33.9634 110.126 34.1381 110.225 34.3685C110.314 34.1458 110.46 33.973 110.663 33.8501C110.867 33.7272 111.093 33.6658 111.343 33.6658ZM116.582 35.1807C116.582 35.2805 116.576 35.3861 116.565 35.4975H114.042C114.061 35.8085 114.167 36.0524 114.359 36.229C114.555 36.4018 114.791 36.4882 115.067 36.4882C115.294 36.4882 115.482 36.4364 115.632 36.3327C115.785 36.2252 115.893 36.0831 115.954 35.9064H116.519C116.434 36.2098 116.265 36.4575 116.012 36.6495C115.758 36.8376 115.444 36.9317 115.067 36.9317C114.768 36.9317 114.499 36.8645 114.261 36.7301C114.027 36.5957 113.842 36.4056 113.708 36.1599C113.574 35.9103 113.506 35.6223 113.506 35.2959C113.506 34.9695 113.572 34.6834 113.702 34.4376C113.833 34.1919 114.015 34.0037 114.249 33.8732C114.487 33.7388 114.76 33.6716 115.067 33.6716C115.367 33.6716 115.632 33.7368 115.862 33.8674C116.093 33.998 116.269 34.1784 116.392 34.4088C116.519 34.6354 116.582 34.8927 116.582 35.1807ZM116.041 35.0712C116.041 34.8716 115.997 34.7007 115.908 34.5586C115.82 34.4127 115.699 34.3032 115.545 34.2303C115.396 34.1535 115.229 34.1151 115.044 34.1151C114.779 34.1151 114.553 34.1996 114.365 34.3685C114.18 34.5375 114.075 34.7717 114.048 35.0712H116.041ZM118.612 36.9317C118.37 36.9317 118.153 36.8914 117.961 36.8108C117.769 36.7263 117.618 36.6111 117.506 36.4652C117.395 36.3154 117.334 36.1445 117.322 35.9525H117.863C117.879 36.11 117.952 36.2386 118.082 36.3384C118.217 36.4383 118.391 36.4882 118.607 36.4882C118.806 36.4882 118.964 36.444 119.079 36.3557C119.194 36.2674 119.252 36.156 119.252 36.0216C119.252 35.8834 119.19 35.7816 119.067 35.7164C118.944 35.6472 118.754 35.58 118.497 35.5148C118.263 35.4533 118.071 35.3919 117.921 35.3304C117.775 35.2652 117.648 35.1711 117.541 35.0482C117.437 34.9215 117.385 34.7564 117.385 34.5528C117.385 34.3916 117.433 34.2437 117.529 34.1093C117.625 33.9749 117.762 33.8693 117.938 33.7925C118.115 33.7119 118.317 33.6716 118.543 33.6716C118.893 33.6716 119.175 33.7599 119.39 33.9365C119.605 34.1132 119.72 34.3551 119.735 34.6623H119.211C119.2 34.4972 119.133 34.3647 119.01 34.2648C118.891 34.165 118.729 34.1151 118.526 34.1151C118.338 34.1151 118.188 34.1554 118.077 34.236C117.965 34.3167 117.91 34.4223 117.91 34.5528C117.91 34.6565 117.942 34.7429 118.007 34.812C118.077 34.8773 118.161 34.9311 118.261 34.9733C118.365 35.0117 118.507 35.0559 118.687 35.1058C118.914 35.1672 119.098 35.2287 119.24 35.2901C119.382 35.3477 119.503 35.436 119.603 35.5551C119.707 35.6741 119.76 35.8296 119.764 36.0216C119.764 36.1944 119.716 36.35 119.62 36.4882C119.524 36.6264 119.388 36.7359 119.211 36.8165C119.039 36.8933 118.839 36.9317 118.612 36.9317ZM123.121 34.1554V36.0159C123.121 36.1695 123.153 36.2789 123.219 36.3442C123.284 36.4056 123.397 36.4364 123.559 36.4364H123.944V36.8799H123.472C123.18 36.8799 122.961 36.8127 122.816 36.6783C122.67 36.5439 122.597 36.3231 122.597 36.0159V34.1554H122.188V33.7234H122.597V32.9285H123.121V33.7234H123.944V34.1554H123.121ZM126.177 36.9317C125.881 36.9317 125.613 36.8645 125.371 36.7301C125.133 36.5957 124.944 36.4056 124.806 36.1599C124.672 35.9103 124.605 35.6223 124.605 35.2959C124.605 34.9733 124.674 34.6892 124.812 34.4434C124.954 34.1938 125.146 34.0037 125.388 33.8732C125.63 33.7388 125.901 33.6716 126.2 33.6716C126.5 33.6716 126.77 33.7388 127.012 33.8732C127.254 34.0037 127.444 34.1919 127.582 34.4376C127.725 34.6834 127.796 34.9695 127.796 35.2959C127.796 35.6223 127.723 35.9103 127.577 36.1599C127.435 36.4056 127.241 36.5957 126.995 36.7301C126.749 36.8645 126.477 36.9317 126.177 36.9317ZM126.177 36.4709C126.365 36.4709 126.542 36.4268 126.707 36.3384C126.872 36.2501 127.005 36.1176 127.104 35.941C127.208 35.7644 127.26 35.5493 127.26 35.2959C127.26 35.0424 127.21 34.8274 127.11 34.6508C127.01 34.4741 126.88 34.3436 126.718 34.2591C126.557 34.1708 126.382 34.1266 126.194 34.1266C126.002 34.1266 125.826 34.1708 125.664 34.2591C125.507 34.3436 125.38 34.4741 125.284 34.6508C125.188 34.8274 125.14 35.0424 125.14 35.2959C125.14 35.5532 125.186 35.7701 125.278 35.9468C125.374 36.1234 125.501 36.2559 125.659 36.3442C125.816 36.4287 125.989 36.4709 126.177 36.4709ZM130.733 33.2108C130.633 33.2108 130.548 33.1762 130.479 33.1071C130.41 33.038 130.376 32.9535 130.376 32.8536C130.376 32.7538 130.41 32.6693 130.479 32.6002C130.548 32.5311 130.633 32.4965 130.733 32.4965C130.829 32.4965 130.909 32.5311 130.975 32.6002C131.044 32.6693 131.078 32.7538 131.078 32.8536C131.078 32.9535 131.044 33.038 130.975 33.1071C130.909 33.1762 130.829 33.2108 130.733 33.2108ZM130.986 33.7234V36.8799H130.462V33.7234H130.986ZM133.638 33.6658C134.022 33.6658 134.333 33.7829 134.571 34.0172C134.809 34.2476 134.928 34.5816 134.928 35.0194V36.8799H134.41V35.0943C134.41 34.7794 134.331 34.5394 134.174 34.3743C134.016 34.2053 133.801 34.1208 133.529 34.1208C133.252 34.1208 133.031 34.2072 132.866 34.38C132.705 34.5528 132.624 34.8044 132.624 35.1346V36.8799H132.1V33.7234H132.624V34.1727C132.728 34.0114 132.868 33.8866 133.045 33.7983C133.225 33.71 133.423 33.6658 133.638 33.6658ZM137.543 33.6658C137.927 33.6658 138.238 33.7829 138.476 34.0172C138.715 34.2476 138.834 34.5816 138.834 35.0194V36.8799H138.315V35.0943C138.315 34.7794 138.236 34.5394 138.079 34.3743C137.922 34.2053 137.707 34.1208 137.434 34.1208C137.157 34.1208 136.937 34.2072 136.772 34.38C136.61 34.5528 136.53 34.8044 136.53 35.1346V36.8799H136.005V33.7234H136.53V34.1727C136.633 34.0114 136.773 33.8866 136.95 33.7983C137.131 33.71 137.328 33.6658 137.543 33.6658ZM141.287 36.9317C140.992 36.9317 140.723 36.8645 140.481 36.7301C140.243 36.5957 140.055 36.4056 139.916 36.1599C139.782 35.9103 139.715 35.6223 139.715 35.2959C139.715 34.9733 139.784 34.6892 139.922 34.4434C140.064 34.1938 140.256 34.0037 140.498 33.8732C140.74 33.7388 141.011 33.6716 141.31 33.6716C141.61 33.6716 141.881 33.7388 142.122 33.8732C142.364 34.0037 142.554 34.1919 142.693 34.4376C142.835 34.6834 142.906 34.9695 142.906 35.2959C142.906 35.6223 142.833 35.9103 142.687 36.1599C142.545 36.4056 142.351 36.5957 142.105 36.7301C141.859 36.8645 141.587 36.9317 141.287 36.9317ZM141.287 36.4709C141.475 36.4709 141.652 36.4268 141.817 36.3384C141.982 36.2501 142.115 36.1176 142.215 35.941C142.318 35.7644 142.37 35.5493 142.37 35.2959C142.37 35.0424 142.32 34.8274 142.22 34.6508C142.121 34.4741 141.99 34.3436 141.829 34.2591C141.667 34.1708 141.493 34.1266 141.305 34.1266C141.113 34.1266 140.936 34.1708 140.775 34.2591C140.617 34.3436 140.49 34.4741 140.394 34.6508C140.298 34.8274 140.25 35.0424 140.25 35.2959C140.25 35.5532 140.297 35.7701 140.389 35.9468C140.485 36.1234 140.611 36.2559 140.769 36.3442C140.926 36.4287 141.099 36.4709 141.287 36.4709ZM144.991 36.396L145.97 33.7234H146.529L145.29 36.8799H144.68L143.441 33.7234H144.006L144.991 36.396ZM147.07 35.2901C147.07 34.9676 147.135 34.6853 147.265 34.4434C147.396 34.1976 147.574 34.0076 147.801 33.8732C148.031 33.7388 148.287 33.6716 148.567 33.6716C148.844 33.6716 149.084 33.7311 149.287 33.8501C149.491 33.9692 149.642 34.1189 149.742 34.2994V33.7234H150.272V36.8799H149.742V36.2924C149.638 36.4767 149.483 36.6303 149.276 36.7532C149.072 36.8722 148.834 36.9317 148.561 36.9317C148.281 36.9317 148.028 36.8626 147.801 36.7244C147.574 36.5861 147.396 36.3922 147.265 36.1426C147.135 35.893 147.07 35.6088 147.07 35.2901ZM149.742 35.2959C149.742 35.0578 149.694 34.8504 149.598 34.6738C149.502 34.4972 149.372 34.3628 149.206 34.2706C149.045 34.1746 148.867 34.1266 148.671 34.1266C148.475 34.1266 148.296 34.1727 148.135 34.2648C147.974 34.357 147.845 34.4914 147.749 34.668C147.653 34.8447 147.605 35.052 147.605 35.2901C147.605 35.532 147.653 35.7432 147.749 35.9237C147.845 36.1004 147.974 36.2367 148.135 36.3327C148.296 36.4248 148.475 36.4709 148.671 36.4709C148.867 36.4709 149.045 36.4248 149.206 36.3327C149.372 36.2367 149.502 36.1004 149.598 35.9237C149.694 35.7432 149.742 35.534 149.742 35.2959ZM152.018 34.1554V36.0159C152.018 36.1695 152.051 36.2789 152.116 36.3442C152.181 36.4056 152.294 36.4364 152.456 36.4364H152.842V36.8799H152.369C152.078 36.8799 151.859 36.8127 151.713 36.6783C151.567 36.5439 151.494 36.3231 151.494 36.0159V34.1554H151.085V33.7234H151.494V32.9285H152.018V33.7234H152.842V34.1554H152.018ZM156.578 35.1807C156.578 35.2805 156.572 35.3861 156.56 35.4975H154.037C154.057 35.8085 154.162 36.0524 154.354 36.229C154.55 36.4018 154.786 36.4882 155.063 36.4882C155.289 36.4882 155.477 36.4364 155.627 36.3327C155.781 36.2252 155.888 36.0831 155.95 35.9064H156.514C156.43 36.2098 156.261 36.4575 156.007 36.6495C155.754 36.8376 155.439 36.9317 155.063 36.9317C154.763 36.9317 154.494 36.8645 154.256 36.7301C154.022 36.5957 153.838 36.4056 153.703 36.1599C153.569 35.9103 153.502 35.6223 153.502 35.2959C153.502 34.9695 153.567 34.6834 153.698 34.4376C153.828 34.1919 154.011 34.0037 154.245 33.8732C154.483 33.7388 154.755 33.6716 155.063 33.6716C155.362 33.6716 155.627 33.7368 155.858 33.8674C156.088 33.998 156.265 34.1784 156.387 34.4088C156.514 34.6354 156.578 34.8927 156.578 35.1807ZM156.036 35.0712C156.036 34.8716 155.992 34.7007 155.904 34.5586C155.815 34.4127 155.694 34.3032 155.541 34.2303C155.391 34.1535 155.224 34.1151 155.04 34.1151C154.775 34.1151 154.548 34.1996 154.36 34.3685C154.176 34.5375 154.07 34.7717 154.043 35.0712H156.036Z" fill="#454545"/>
</svg>
