<svg width="22" height="20" viewBox="0 0 22 20" fill="none" xmlns="http://www.w3.org/2000/svg">
<path d="M0.215031 1.82791C0.215031 0.996604 0.888938 0.322697 1.72024 0.322697H12.5514C13.3827 0.322697 14.0566 0.996604 14.0566 1.82791V12.1494C14.0566 12.9807 13.3827 13.6546 12.5514 13.6546H1.72025C0.888939 13.6546 0.215031 12.9807 0.215031 12.1494V1.82791Z" fill="white" stroke="#454545" stroke-width="0.430061"/>
<rect x="2.54852" y="2.65619" width="3.56791" height="3.56792" fill="#454545"/>
<rect x="8.15523" y="6.22412" width="3.56791" height="3.56792" fill="#454545"/>
<path d="M0 10.8114H14.2717V12.1494C14.2717 13.0994 13.5015 13.8696 12.5514 13.8696H1.72025C0.770182 13.8696 0 13.0994 0 12.1494V10.8114Z" fill="#454545"/>
<path d="M12.3127 8.74243C11.3054 8.74243 10.4888 9.559 10.4888 10.5663V17.4444C10.4888 18.4517 11.3054 19.2683 12.3127 19.2683H19.552C20.5593 19.2683 21.3759 18.4517 21.3759 17.4444V10.5663C21.3759 9.559 20.5593 8.74243 19.552 8.74243H12.3127Z" fill="#454545" stroke="white" stroke-width="0.75184"/>
<path d="M17.7213 14.5608H16.1793V16.1246H15.5639V14.5608H14.0291V14.0034H15.5639V12.4323H16.1793V14.0034H17.7213V14.5608Z" fill="white"/>
</svg>
