<svg width="24" height="25" viewBox="0 0 24 25" fill="none" xmlns="http://www.w3.org/2000/svg">
<path d="M10.875 19.5222L4.275 12.9222C4.175 12.8222 4.104 12.7139 4.062 12.5972C4.02 12.4806 3.99933 12.3556 4 12.2222C4 12.0889 4.021 11.9639 4.063 11.8472C4.105 11.7306 4.17567 11.6222 4.275 11.5222L10.875 4.92223C11.0583 4.7389 11.2877 4.64323 11.563 4.63523C11.8383 4.62723 12.0757 4.7229 12.275 4.92223C12.475 5.10556 12.5793 5.3349 12.588 5.61023C12.5967 5.88556 12.5007 6.1229 12.3 6.32223L7.4 11.2222H18.575C18.8583 11.2222 19.096 11.3182 19.288 11.5102C19.48 11.7022 19.5757 11.9396 19.575 12.2222C19.575 12.5056 19.4793 12.7432 19.288 12.9352C19.0967 13.1272 18.859 13.2229 18.575 13.2222H7.4L12.3 18.1222C12.4833 18.3056 12.5793 18.5389 12.588 18.8222C12.5967 19.1056 12.5007 19.3389 12.3 19.5222C12.1167 19.7222 11.8833 19.8222 11.6 19.8222C11.3167 19.8222 11.075 19.7222 10.875 19.5222Z" fill="#ACACAC"/>
</svg>
