<svg width="18" height="18" viewBox="0 0 18 18" fill="none" xmlns="http://www.w3.org/2000/svg">
<circle cx="9" cy="9" r="9" fill="#BDDFFF"/>
<path d="M9.30389 12.8028L12.4607 9.64604C12.5085 9.59821 12.5425 9.54639 12.5626 9.49059C12.5827 9.43479 12.5925 9.375 12.5922 9.31123C12.5922 9.24745 12.5822 9.18767 12.5621 9.13186C12.542 9.07606 12.5082 9.02425 12.4607 8.97642L9.30389 5.81962C9.2162 5.73193 9.10651 5.68618 8.97482 5.68235C8.84313 5.67852 8.72961 5.72428 8.63427 5.81962C8.53861 5.90731 8.48871 6.017 8.48456 6.14869C8.48041 6.28039 8.52633 6.3939 8.62231 6.48925L10.966 8.83292H5.62097C5.48545 8.83292 5.37177 8.87884 5.27994 8.97068C5.1881 9.06251 5.14235 9.17603 5.14266 9.31123C5.14266 9.44675 5.18842 9.56042 5.27994 9.65226C5.37145 9.74409 5.48513 9.78985 5.62097 9.78953H10.966L8.62231 12.1332C8.53462 12.2209 8.48871 12.3325 8.48456 12.468C8.48041 12.6035 8.52633 12.7151 8.62231 12.8028C8.71 12.8985 8.8216 12.9463 8.95712 12.9463C9.09264 12.9463 9.20823 12.8985 9.30389 12.8028Z" fill="#2970B1"/>
</svg>
