<svg width="217" height="124" viewBox="0 0 217 124" fill="none" xmlns="http://www.w3.org/2000/svg">
<path d="M2 5.57304C2 2.49514 4.49513 0 7.57303 0H107.888V57.1236H2V5.57304Z" fill="#D6CBFF"/>
<path d="M107.918 0H209.626C212.704 0 215.199 2.49513 215.199 5.57303V57.1236H107.918V0Z" fill="#BDDFFF"/>
<path d="M107.918 57.1235H215.199V118.427C215.199 121.505 212.704 124 209.626 124H107.918V57.1235Z" fill="#D4FFDE"/>
<path d="M2 57.1235H107.888V124H7.57303C4.49513 124 2 121.505 2 118.427V57.1235Z" fill="#BAEEFF"/>
<path d="M196.012 75.2358H152.473V80.4606H196.012V75.2358Z" fill="#898989"/>
<path d="M182.079 83.9438H152.473V89.1686H182.079V83.9438Z" fill="#898989"/>
<path d="M145.505 75.2358H131.572V89.1684H145.505V75.2358Z" fill="#969696"/>
<path d="M196.012 96.1348H152.473V101.359H196.012V96.1348Z" fill="#898989"/>
<path d="M182.079 104.843H152.473V110.067H182.079V104.843Z" fill="#898989"/>
<path d="M145.505 96.1348H131.572V110.067H145.505V96.1348Z" fill="#969696"/>
<path d="M45.1652 24.5151H39.7285V48.3816H45.1652V24.5151Z" fill="#BEBABA"/>
<path d="M55.2433 14.4204H49.8066V48.3749H55.2433V14.4204Z" fill="#9D9C9C"/>
<path d="M65.3254 21.6938H59.8887V48.3816H65.3254V21.6938Z" fill="#767676"/>
<path d="M37.1885 11.1459L37.3333 22.7436L37.4401 25.1949C37.5087 32.9191 37.524 40.6509 37.5392 48.3751L37.1885 48.0243H54.6194L57.0787 48.0701L62.382 48.1845L72.0856 48.398L62.382 48.6039L57.0787 48.7182L54.6194 48.764H37.1885H36.8301V48.4056C36.8301 40.6839 36.8631 32.9572 36.9292 25.2254L37.0283 22.7741L37.1885 11.1459Z" fill="#828181"/>
<path d="M53.341 74.2593V107.281C48.962 107.281 44.7624 105.542 41.666 102.445C38.5696 99.3487 36.8301 95.1491 36.8301 90.7702C36.8301 86.3912 38.5696 82.1916 41.666 79.0952C44.7624 75.9988 48.962 74.2593 53.341 74.2593Z" fill="#8A8A8A"/>
<path d="M57.5001 74.791L53.332 90.7702V74.2593C54.7382 74.2604 56.1387 74.4391 57.5001 74.791Z" fill="#424242"/>
<path d="M72.6964 89.822C72.6979 91.8923 72.3081 93.9443 71.5476 95.8699L56.1855 89.822L60.3536 73.8428C63.8883 74.7666 67.017 76.836 69.2503 79.7273C71.4836 82.6186 72.6955 86.1686 72.6964 89.822Z" fill="#525252"/>
<path d="M68.6941 96.8199C67.4746 99.8995 65.3581 102.542 62.6189 104.404C59.8797 106.266 56.6443 107.263 53.332 107.264V90.772L68.6941 96.8199Z" fill="#C6C6C6"/>
<path d="M172.457 16.3706C173.9 16.3706 175.284 16.944 176.305 17.9647C177.326 18.9853 177.899 20.3696 177.899 21.813V42.2765C177.899 43.7199 177.326 45.1042 176.305 46.1249C175.284 47.1455 173.9 47.7189 172.457 47.7189H151.993C150.55 47.7189 149.165 47.1455 148.145 46.1249C147.124 45.1042 146.551 43.7199 146.551 42.2765V21.813C146.551 20.3696 147.124 18.9853 148.145 17.9647C149.165 16.944 150.55 16.3706 151.993 16.3706H172.457ZM148.728 28.1262V35.9633H156.129V28.1262H148.728ZM148.728 38.1403V42.2765C148.728 43.1426 149.072 43.9731 149.684 44.5855C150.297 45.1979 151.127 45.542 151.993 45.542H156.129V38.1403H148.728ZM158.306 45.542H166.143V38.1403H158.306V45.542ZM168.32 45.542H172.457C173.323 45.542 174.153 45.1979 174.766 44.5855C175.378 43.9731 175.722 43.1426 175.722 42.2765V38.1403H168.32V45.542ZM175.722 35.9633V28.1262H168.32V35.9633H175.722ZM175.722 25.9493V21.813C175.722 20.947 175.378 20.1164 174.766 19.504C174.153 18.8916 173.323 18.5476 172.457 18.5476H168.32V25.9493H175.722ZM166.143 18.5476H158.306V25.9493H166.143V18.5476ZM156.129 18.5476H151.993C151.127 18.5476 150.297 18.8916 149.684 19.504C149.072 20.1164 148.728 20.947 148.728 21.813V25.9493H156.129V18.5476ZM166.143 35.9633V28.1262H158.306V35.9633H166.143Z" fill="#9F9F9F"/>
<path d="M0.636719 5.57304C0.636719 2.49514 3.13185 0 6.20975 0H106.524V57.1236H0.636719V5.57304Z" fill="#B4B4B4"/>
<path d="M106.523 0H209.625C212.702 0 215.198 2.49513 215.198 5.57303V57.1236H106.523V0Z" fill="#F7F7F7"/>
<path d="M106.523 57.1235H215.198V118.427C215.198 121.505 212.702 124 209.625 124H106.523V57.1235Z" fill="#D0D0D0"/>
<path d="M0.636719 57.1235H106.524V124H6.20975C3.13185 124 0.636719 121.505 0.636719 118.427V57.1235Z" fill="#E5E5E5"/>
<path d="M194.649 75.2358H151.109V80.4606H194.649V75.2358Z" fill="#898989"/>
<path d="M180.716 83.9438H151.109V89.1686H180.716V83.9438Z" fill="#898989"/>
<path d="M144.142 75.2358H130.209V89.1684H144.142V75.2358Z" fill="#969696"/>
<path d="M194.649 96.1348H151.109V101.359H194.649V96.1348Z" fill="#898989"/>
<path d="M180.716 104.843H151.109V110.067H180.716V104.843Z" fill="#898989"/>
<path d="M144.142 96.1348H130.209V110.067H144.142V96.1348Z" fill="#969696"/>
<path d="M43.8019 24.5151H38.3652V48.3816H43.8019V24.5151Z" fill="#DDDDDD"/>
<path d="M53.88 14.4204H48.4434V48.3749H53.88V14.4204Z" fill="#CECECE"/>
<path d="M63.9621 21.6938H58.5254V48.3816H63.9621V21.6938Z" fill="#D9D9D9"/>
<path d="M35.8252 11.1459L35.9701 22.7436L36.0768 25.1949C36.1454 32.9191 36.1607 40.6509 36.1759 48.3751L35.8252 48.0243H53.2561L55.7155 48.0701L61.0187 48.1845L70.7224 48.398L61.0187 48.6039L55.7155 48.7182L53.2561 48.764H35.8252H35.4668V48.4056C35.4668 40.6839 35.4998 32.9572 35.5659 25.2254L35.6651 22.7741L35.8252 11.1459Z" fill="#DBDBDB"/>
<path d="M51.9777 74.2593V107.281C47.5987 107.281 43.3991 105.542 40.3027 102.445C37.2063 99.3487 35.4668 95.1491 35.4668 90.7702C35.4668 86.3912 37.2063 82.1916 40.3027 79.0952C43.3991 75.9988 47.5987 74.2593 51.9777 74.2593Z" fill="#8A8A8A"/>
<path d="M56.1368 74.791L51.9688 90.7702V74.2593C53.3749 74.2604 54.7754 74.4391 56.1368 74.791Z" fill="#424242"/>
<path d="M71.3332 89.822C71.3346 91.8923 70.9448 93.9443 70.1843 95.8699L54.8223 89.822L58.9904 73.8428C62.525 74.7666 65.6537 76.836 67.887 79.7273C70.1203 82.6186 71.3322 86.1686 71.3332 89.822Z" fill="#525252"/>
<path d="M67.3308 96.8199C66.1113 99.8995 63.9948 102.542 61.2556 104.404C58.5165 106.266 55.281 107.263 51.9688 107.264V90.772L67.3308 96.8199Z" fill="#C6C6C6"/>
<path d="M171.093 16.3706C172.537 16.3706 173.921 16.944 174.942 17.9647C175.962 18.9853 176.536 20.3696 176.536 21.813V42.2765C176.536 43.7199 175.962 45.1042 174.942 46.1249C173.921 47.1455 172.537 47.7189 171.093 47.7189H150.63C149.186 47.7189 147.802 47.1455 146.782 46.1249C145.761 45.1042 145.188 43.7199 145.188 42.2765V21.813C145.188 20.3696 145.761 18.9853 146.782 17.9647C147.802 16.944 149.186 16.3706 150.63 16.3706H171.093ZM147.364 28.1262V35.9633H154.766V28.1262H147.364ZM147.364 38.1403V42.2765C147.364 43.1426 147.709 43.9731 148.321 44.5855C148.933 45.1979 149.764 45.542 150.63 45.542H154.766V38.1403H147.364ZM156.943 45.542H164.78V38.1403H156.943V45.542ZM166.957 45.542H171.093C171.959 45.542 172.79 45.1979 173.402 44.5855C174.015 43.9731 174.359 43.1426 174.359 42.2765V38.1403H166.957V45.542ZM174.359 35.9633V28.1262H166.957V35.9633H174.359ZM174.359 25.9493V21.813C174.359 20.947 174.015 20.1164 173.402 19.504C172.79 18.8916 171.959 18.5476 171.093 18.5476H166.957V25.9493H174.359ZM164.78 18.5476H156.943V25.9493H164.78V18.5476ZM154.766 18.5476H150.63C149.764 18.5476 148.933 18.8916 148.321 19.504C147.709 20.1164 147.364 20.947 147.364 21.813V25.9493H154.766V18.5476ZM164.78 35.9633V28.1262H156.943V35.9633H164.78Z" fill="#9F9F9F"/>
</svg>
