<svg width="155" height="89" viewBox="0 0 155 89" fill="none" xmlns="http://www.w3.org/2000/svg">
<path d="M1 4C1 1.79086 2.79086 0 5 0H77V41H1V4Z" fill="#D6CBFF"/>
<path d="M77.0215 0H150.021C152.231 0 154.021 1.79086 154.021 4V41H77.0215V0Z" fill="#BDDFFF"/>
<path d="M77.0215 41H154.021V85C154.021 87.2091 152.231 89 150.021 89H77.0215V41Z" fill="#D4FFDE"/>
<path d="M1 41H77V89H5C2.79086 89 1 87.2091 1 85V41Z" fill="#BAEEFF"/>
<path d="M140.25 54H109V57.75H140.25V54Z" fill="#898989"/>
<path d="M130.25 60.25H109V64H130.25V60.25Z" fill="#898989"/>
<path d="M104 54H94V64H104V54Z" fill="#969696"/>
<path d="M140.25 69H109V72.75H140.25V69Z" fill="#898989"/>
<path d="M130.25 75.25H109V79H130.25V75.25Z" fill="#898989"/>
<path d="M104 69H94V79H104V69Z" fill="#969696"/>
<path d="M31.9822 17.5957H28.0801V34.7257H31.9822V17.5957Z" fill="#BEBABA"/>
<path d="M39.2166 10.3501H35.3145V34.7206H39.2166V10.3501Z" fill="#9D9C9C"/>
<path d="M46.4529 15.5708H42.5508V34.7257H46.4529V15.5708Z" fill="#767676"/>
<path d="M26.2572 7.99992L26.3612 16.3241L26.4378 18.0835C26.4871 23.6275 26.498 29.1769 26.509 34.7209L26.2572 34.4691H38.7681L40.5333 34.502L44.3397 34.5841L51.3044 34.7373L44.3397 34.8851L40.5333 34.9672L38.7681 35H26.2572H26V34.7428C26 29.2006 26.0237 23.6548 26.0711 18.1054L26.1423 16.346L26.2572 7.99992Z" fill="#828181"/>
<path d="M37.8505 53.2988V76.9999C34.7076 76.9999 31.6934 75.7514 29.4709 73.529C27.2485 71.3066 26 68.2924 26 65.1494C26 62.0064 27.2485 58.9922 29.4709 56.7698C31.6934 54.5474 34.7076 53.2988 37.8505 53.2988Z" fill="#8A8A8A"/>
<path d="M40.8354 53.6804L37.8438 65.1494V53.2988C38.853 53.2997 39.8582 53.4279 40.8354 53.6804Z" fill="#424242"/>
<path d="M51.7431 64.4689C51.7442 65.9549 51.4644 67.4277 50.9186 68.8098L39.8926 64.4689L42.8842 53C45.4211 53.6631 47.6667 55.1484 49.2697 57.2236C50.8726 59.2988 51.7425 61.8468 51.7431 64.4689Z" fill="#525252"/>
<path d="M48.8697 69.4918C47.9945 71.7021 46.4753 73.5985 44.5093 74.9351C42.5433 76.2717 40.2211 76.9868 37.8438 76.9878V65.1509L48.8697 69.4918Z" fill="#C6C6C6"/>
<path d="M123.344 11.75C124.38 11.75 125.373 12.1616 126.106 12.8941C126.838 13.6267 127.25 14.6202 127.25 15.6562V30.3438C127.25 31.3798 126.838 32.3733 126.106 33.1059C125.373 33.8385 124.38 34.25 123.344 34.25H108.656C107.62 34.25 106.627 33.8385 105.894 33.1059C105.162 32.3733 104.75 31.3798 104.75 30.3438V15.6562C104.75 14.6202 105.162 13.6267 105.894 12.8941C106.627 12.1616 107.62 11.75 108.656 11.75H123.344ZM106.312 20.1875V25.8125H111.625V20.1875H106.312ZM106.312 27.375V30.3438C106.312 30.9654 106.559 31.5615 106.999 32.001C107.439 32.4406 108.035 32.6875 108.656 32.6875H111.625V27.375H106.312ZM113.188 32.6875H118.812V27.375H113.188V32.6875ZM120.375 32.6875H123.344C123.965 32.6875 124.561 32.4406 125.001 32.001C125.441 31.5615 125.688 30.9654 125.688 30.3438V27.375H120.375V32.6875ZM125.688 25.8125V20.1875H120.375V25.8125H125.688ZM125.688 18.625V15.6562C125.688 15.0346 125.441 14.4385 125.001 13.999C124.561 13.5594 123.965 13.3125 123.344 13.3125H120.375V18.625H125.688ZM118.812 13.3125H113.188V18.625H118.812V13.3125ZM111.625 13.3125H108.656C108.035 13.3125 107.439 13.5594 106.999 13.999C106.559 14.4385 106.312 15.0346 106.312 15.6562V18.625H111.625V13.3125ZM118.812 25.8125V20.1875H113.188V25.8125H118.812Z" fill="#9F9F9F"/>
<path d="M0.0214844 4C0.0214844 1.79086 1.81235 0 4.02148 0H76.0215V41H0.0214844V4Z" fill="#B4B4B4"/>
<path d="M76.0215 0H150.021C152.231 0 154.021 1.79086 154.021 4V41H76.0215V0Z" fill="#F7F7F7"/>
<path d="M76.0215 41H154.021V85C154.021 87.2091 152.231 89 150.021 89H76.0215V41Z" fill="#D0D0D0"/>
<path d="M0.0214844 41H76.0215V89H4.02148C1.81234 89 0.0214844 87.2091 0.0214844 85V41Z" fill="#E5E5E5"/>
<path d="M139.271 54H108.021V57.75H139.271V54Z" fill="#898989"/>
<path d="M129.271 60.25H108.021V64H129.271V60.25Z" fill="#898989"/>
<path d="M103.021 54H93.0215V64H103.021V54Z" fill="#969696"/>
<path d="M139.271 69H108.021V72.75H139.271V69Z" fill="#898989"/>
<path d="M129.271 75.25H108.021V79H129.271V75.25Z" fill="#898989"/>
<path d="M103.021 69H93.0215V79H103.021V69Z" fill="#969696"/>
<path d="M31.0037 17.5957H27.1016V34.7257H31.0037V17.5957Z" fill="#DDDDDD"/>
<path d="M38.2381 10.3501H34.3359V34.7206H38.2381V10.3501Z" fill="#CECECE"/>
<path d="M45.4744 15.5708H41.5723V34.7257H45.4744V15.5708Z" fill="#D9D9D9"/>
<path d="M25.2787 7.99992L25.3827 16.3241L25.4593 18.0835C25.5086 23.6275 25.5195 29.1769 25.5305 34.7209L25.2787 34.4691H37.7896L39.5548 34.502L43.3611 34.5841L50.3259 34.7373L43.3611 34.8851L39.5548 34.9672L37.7896 35H25.2787H25.0215V34.7428C25.0215 29.2006 25.0452 23.6548 25.0926 18.1054L25.1638 16.346L25.2787 7.99992Z" fill="#DBDBDB"/>
<path d="M36.872 53.2988V76.9999C33.7291 76.9999 30.7148 75.7514 28.4924 73.529C26.27 71.3066 25.0215 68.2924 25.0215 65.1494C25.0215 62.0064 26.27 58.9922 28.4924 56.7698C30.7148 54.5474 33.7291 53.2988 36.872 53.2988Z" fill="#8A8A8A"/>
<path d="M39.8568 53.6804L36.8652 65.1494V53.2988C37.8745 53.2997 38.8797 53.4279 39.8568 53.6804Z" fill="#424242"/>
<path d="M50.7646 64.4689C50.7656 65.9549 50.4859 67.4277 49.94 68.8098L38.9141 64.4689L41.9057 53C44.4426 53.6631 46.6882 55.1484 48.2912 57.2236C49.8941 59.2988 50.764 61.8468 50.7646 64.4689Z" fill="#525252"/>
<path d="M47.8912 69.4918C47.0159 71.7021 45.4968 73.5985 43.5308 74.9351C41.5648 76.2717 39.2426 76.9868 36.8652 76.9878V65.1509L47.8912 69.4918Z" fill="#C6C6C6"/>
<path d="M122.365 11.75C123.401 11.75 124.395 12.1616 125.127 12.8941C125.86 13.6267 126.271 14.6202 126.271 15.6562V30.3438C126.271 31.3798 125.86 32.3733 125.127 33.1059C124.395 33.8385 123.401 34.25 122.365 34.25H107.678C106.642 34.25 105.648 33.8385 104.916 33.1059C104.183 32.3733 103.771 31.3798 103.771 30.3438V15.6562C103.771 14.6202 104.183 13.6267 104.916 12.8941C105.648 12.1616 106.642 11.75 107.678 11.75H122.365ZM105.334 20.1875V25.8125H110.646V20.1875H105.334ZM105.334 27.375V30.3438C105.334 30.9654 105.581 31.5615 106.02 32.001C106.46 32.4406 107.056 32.6875 107.678 32.6875H110.646V27.375H105.334ZM112.209 32.6875H117.834V27.375H112.209V32.6875ZM119.396 32.6875H122.365C122.987 32.6875 123.583 32.4406 124.023 32.001C124.462 31.5615 124.709 30.9654 124.709 30.3438V27.375H119.396V32.6875ZM124.709 25.8125V20.1875H119.396V25.8125H124.709ZM124.709 18.625V15.6562C124.709 15.0346 124.462 14.4385 124.023 13.999C123.583 13.5594 122.987 13.3125 122.365 13.3125H119.396V18.625H124.709ZM117.834 13.3125H112.209V18.625H117.834V13.3125ZM110.646 13.3125H107.678C107.056 13.3125 106.46 13.5594 106.02 13.999C105.581 14.4385 105.334 15.0346 105.334 15.6562V18.625H110.646V13.3125ZM117.834 25.8125V20.1875H112.209V25.8125H117.834Z" fill="#9F9F9F"/>
</svg>
