<svg width="120" height="52" viewBox="0 0 120 52" fill="none" xmlns="http://www.w3.org/2000/svg">
<path d="M0.427734 48.4546H70.315V50.4633C70.315 50.8946 69.9655 51.2441 69.5342 51.2441H1.20855C0.777319 51.2441 0.427734 50.8946 0.427734 50.4633V48.4546Z" fill="#454545"/>
<path d="M71.4653 48.4546H93.0508V50.4633C93.0508 50.8946 92.7012 51.2441 92.27 51.2441H72.2462C71.8149 51.2441 71.4653 50.8946 71.4653 50.4633V48.4546Z" fill="#454545"/>
<path d="M94.2009 48.4546H119.237V50.4633C119.237 50.8946 118.887 51.2441 118.456 51.2441H94.9817C94.5505 51.2441 94.2009 50.8946 94.2009 50.4633V48.4546Z" fill="#454545"/>
<path d="M0.427734 1.29156C0.427734 0.860327 0.777319 0.510742 1.20855 0.510742H15.836C16.2672 0.510742 16.6168 0.860326 16.6168 1.29156V3.30029H0.427734V1.29156Z" fill="#717171"/>
<path d="M17.7671 1.29205C17.7671 0.860815 18.1167 0.51123 18.5479 0.51123H36.8909C37.3221 0.51123 37.6717 0.860815 37.6717 1.29205V3.30078H17.7671V1.29205Z" fill="#1F7793"/>
<path d="M38.821 1.29205C38.821 0.860815 39.1706 0.51123 39.6019 0.51123H69.5337C69.965 0.51123 70.3146 0.860815 70.3146 1.29205V3.30078H38.821V1.29205Z" fill="#CA7160"/>
<path d="M71.4653 1.29205C71.4653 0.860815 71.8149 0.51123 72.2462 0.51123H92.27C92.7012 0.51123 93.0508 0.860815 93.0508 1.29205V3.30078H71.4653V1.29205Z" fill="#8E7B35"/>
<path d="M94.2891 1.29205C94.2891 0.860815 94.6386 0.51123 95.0699 0.51123H118.455C118.887 0.51123 119.236 0.860815 119.236 1.29205V3.30078H94.2891V1.29205Z" fill="#85952D"/>
<rect x="0.427734" y="4.08545" width="16.1891" height="43.4124" fill="#D9D9D9"/>
<rect x="17.7671" y="4.08545" width="19.9046" height="43.4124" fill="#B7F0F2"/>
<rect x="38.821" y="4.08545" width="31.4935" height="43.4124" fill="#FBC7BD"/>
<rect x="71.4653" y="4.08545" width="21.5854" height="43.4124" fill="#FDEEB7"/>
<rect x="94.2891" y="4.08545" width="24.9471" height="43.4124" fill="#EBF5B3"/>
<path d="M4.5786 1.00269V1.77368H4.47794V1.00269H4.5786ZM4.96476 1.78364C4.9183 1.78364 4.87663 1.77589 4.83976 1.76041C4.80289 1.74418 4.77376 1.72206 4.75237 1.69404C4.73099 1.66528 4.71919 1.63246 4.71698 1.59559H4.82096C4.82391 1.62582 4.83792 1.65053 4.86299 1.6697C4.8888 1.68888 4.92235 1.69846 4.96365 1.69846C5.002 1.69846 5.03223 1.68998 5.05436 1.67302C5.07648 1.65606 5.08754 1.63467 5.08754 1.60886C5.08754 1.58232 5.07574 1.56277 5.05214 1.55024C5.02855 1.53696 4.99204 1.52406 4.94263 1.51152C4.89765 1.49972 4.86078 1.48792 4.83202 1.47612C4.804 1.46359 4.77966 1.44552 4.75901 1.42192C4.7391 1.39759 4.72915 1.36588 4.72915 1.32679C4.72915 1.29582 4.73836 1.26743 4.7568 1.24162C4.77524 1.21581 4.80141 1.19553 4.83534 1.18078C4.86926 1.16529 4.90797 1.15755 4.95148 1.15755C5.01859 1.15755 5.07279 1.17451 5.11409 1.20843C5.15539 1.24236 5.17751 1.28882 5.18046 1.34781H5.0798C5.07759 1.3161 5.06468 1.29066 5.04108 1.27149C5.01822 1.25231 4.98725 1.24273 4.94816 1.24273C4.91203 1.24273 4.88327 1.25047 4.86188 1.26595C4.8405 1.28144 4.82981 1.30172 4.82981 1.32679C4.82981 1.3467 4.83607 1.3633 4.84861 1.37657C4.86188 1.38911 4.87811 1.39943 4.89728 1.40754C4.91719 1.41492 4.94448 1.4234 4.97914 1.43298C5.02265 1.44478 5.05804 1.45658 5.08533 1.46838C5.11261 1.47944 5.13584 1.4964 5.15502 1.51926C5.17493 1.54213 5.18525 1.57199 5.18599 1.60886C5.18599 1.64205 5.17677 1.67191 5.15833 1.69846C5.1399 1.72501 5.11372 1.74603 5.0798 1.76151C5.04661 1.77626 5.00827 1.78364 4.96476 1.78364ZM5.59246 1.78364C5.53568 1.78364 5.48406 1.77073 5.4376 1.74492C5.39188 1.71911 5.35574 1.68261 5.32919 1.63541C5.30338 1.58748 5.29048 1.53217 5.29048 1.46949C5.29048 1.40754 5.30375 1.35297 5.3303 1.30578C5.35758 1.25784 5.39446 1.22134 5.44092 1.19627C5.48737 1.17046 5.53936 1.15755 5.59688 1.15755C5.6544 1.15755 5.70639 1.17046 5.75285 1.19627C5.79931 1.22134 5.83581 1.25747 5.86236 1.30467C5.88965 1.35187 5.90329 1.40681 5.90329 1.46949C5.90329 1.53217 5.88928 1.58748 5.86126 1.63541C5.83397 1.68261 5.79673 1.71911 5.74953 1.74492C5.70234 1.77073 5.64998 1.78364 5.59246 1.78364ZM5.59246 1.69514C5.62859 1.69514 5.66252 1.68666 5.69423 1.6697C5.72594 1.65274 5.75138 1.6273 5.77055 1.59338C5.79046 1.55946 5.80042 1.51816 5.80042 1.46949C5.80042 1.42082 5.79083 1.37952 5.77166 1.3456C5.75248 1.31168 5.72741 1.2866 5.69644 1.27038C5.66547 1.25342 5.63191 1.24494 5.59578 1.24494C5.55891 1.24494 5.52498 1.25342 5.49401 1.27038C5.46378 1.2866 5.43944 1.31168 5.421 1.3456C5.40257 1.37952 5.39335 1.42082 5.39335 1.46949C5.39335 1.5189 5.4022 1.56056 5.4199 1.59448C5.43833 1.62841 5.46267 1.65385 5.4929 1.67081C5.52314 1.68703 5.55632 1.69514 5.59246 1.69514ZM6.1363 0.955124V1.77368H6.03564V0.955124H6.1363ZM6.27025 1.46838C6.27025 1.40644 6.28279 1.35223 6.30786 1.30578C6.33293 1.25858 6.36722 1.22208 6.41073 1.19627C6.45498 1.17046 6.50402 1.15755 6.55785 1.15755C6.61095 1.15755 6.65704 1.16898 6.69612 1.19184C6.73521 1.2147 6.76433 1.24346 6.78351 1.27812V1.16751H6.88527V1.77368H6.78351V1.66085C6.7636 1.69625 6.73373 1.72575 6.69391 1.74935C6.65482 1.77221 6.6091 1.78364 6.55675 1.78364C6.50291 1.78364 6.45424 1.77036 6.41073 1.74382C6.36722 1.71727 6.33293 1.68003 6.30786 1.63209C6.28279 1.58416 6.27025 1.52959 6.27025 1.46838ZM6.78351 1.46949C6.78351 1.42377 6.77429 1.38394 6.75585 1.35002C6.73742 1.3161 6.71234 1.29029 6.68063 1.27259C6.64966 1.25416 6.61537 1.24494 6.57776 1.24494C6.54015 1.24494 6.50586 1.25379 6.47489 1.27149C6.44392 1.28918 6.41921 1.31499 6.40078 1.34892C6.38234 1.38284 6.37312 1.42266 6.37312 1.46838C6.37312 1.51484 6.38234 1.5554 6.40078 1.59006C6.41921 1.62398 6.44392 1.65016 6.47489 1.6686C6.50586 1.6863 6.54015 1.69514 6.57776 1.69514C6.61537 1.69514 6.64966 1.6863 6.68063 1.6686C6.71234 1.65016 6.73742 1.62398 6.75585 1.59006C6.77429 1.5554 6.78351 1.51521 6.78351 1.46949ZM7.17816 1.25047V1.60776C7.17816 1.63726 7.18443 1.65827 7.19697 1.67081C7.20951 1.68261 7.23126 1.68851 7.26223 1.68851H7.33635V1.77368H7.24564C7.1896 1.77368 7.14756 1.76078 7.11954 1.73497C7.09152 1.70916 7.0775 1.66675 7.0775 1.60776V1.25047H6.99897V1.16751H7.0775V1.01486H7.17816V1.16751H7.33635V1.25047H7.17816ZM8.01139 1.44736C8.01139 1.46654 8.01028 1.48682 8.00807 1.5082H7.52357C7.52726 1.56794 7.54754 1.61476 7.58441 1.64869C7.62202 1.68187 7.66737 1.69846 7.72047 1.69846C7.76398 1.69846 7.80011 1.68851 7.82887 1.6686C7.85837 1.64795 7.87902 1.62066 7.89082 1.58674H7.99922C7.983 1.645 7.95055 1.69256 7.90188 1.72944C7.85321 1.76557 7.79274 1.78364 7.72047 1.78364C7.66295 1.78364 7.61133 1.77073 7.56561 1.74492C7.52062 1.71911 7.48522 1.68261 7.45941 1.63541C7.4336 1.58748 7.4207 1.53217 7.4207 1.46949C7.4207 1.40681 7.43323 1.35187 7.45831 1.30467C7.48338 1.25747 7.51841 1.22134 7.56339 1.19627C7.60911 1.17046 7.66147 1.15755 7.72047 1.15755C7.77799 1.15755 7.82887 1.17009 7.87312 1.19516C7.91736 1.22023 7.95129 1.25489 7.97488 1.29914C7.99922 1.34265 8.01139 1.39206 8.01139 1.44736ZM7.90741 1.42635C7.90741 1.388 7.89893 1.35518 7.88197 1.3279C7.86501 1.29988 7.84178 1.27886 7.81228 1.26485C7.78352 1.2501 7.75144 1.24273 7.71604 1.24273C7.66516 1.24273 7.62165 1.25895 7.58552 1.2914C7.55012 1.32384 7.52984 1.36883 7.52468 1.42635H7.90741ZM8.10665 1.46838C8.10665 1.40644 8.11918 1.35223 8.14426 1.30578C8.16933 1.25858 8.20362 1.22208 8.24713 1.19627C8.29138 1.17046 8.34078 1.15755 8.39536 1.15755C8.44255 1.15755 8.48643 1.16861 8.52699 1.19074C8.56755 1.21212 8.59852 1.24051 8.61991 1.27591V0.955124H8.72167V1.77368H8.61991V1.65975C8.59999 1.69588 8.5705 1.72575 8.53141 1.74935C8.49233 1.77221 8.44661 1.78364 8.39425 1.78364C8.34042 1.78364 8.29138 1.77036 8.24713 1.74382C8.20362 1.71727 8.16933 1.68003 8.14426 1.63209C8.11918 1.58416 8.10665 1.52959 8.10665 1.46838ZM8.61991 1.46949C8.61991 1.42377 8.61069 1.38394 8.59225 1.35002C8.57382 1.3161 8.54874 1.29029 8.51703 1.27259C8.48606 1.25416 8.45177 1.24494 8.41416 1.24494C8.37655 1.24494 8.34226 1.25379 8.31129 1.27149C8.28031 1.28918 8.25561 1.31499 8.23717 1.34892C8.21874 1.38284 8.20952 1.42266 8.20952 1.46838C8.20952 1.51484 8.21874 1.5554 8.23717 1.59006C8.25561 1.62398 8.28031 1.65016 8.31129 1.6686C8.34226 1.6863 8.37655 1.69514 8.41416 1.69514C8.45177 1.69514 8.48606 1.6863 8.51703 1.6686C8.54874 1.65016 8.57382 1.62398 8.59225 1.59006C8.61069 1.5554 8.61991 1.51521 8.61991 1.46949ZM9.28734 1.08454V1.34228H9.56831V1.42524H9.28734V1.69072H9.60149V1.77368H9.18668V1.00158H9.60149V1.08454H9.28734ZM9.97946 1.68076L10.1675 1.16751H10.2748L10.037 1.77368H9.91973L9.6819 1.16751H9.79031L9.97946 1.68076ZM10.9269 1.44736C10.9269 1.46654 10.9258 1.48682 10.9236 1.5082H10.4391C10.4428 1.56794 10.4631 1.61476 10.5 1.64869C10.5376 1.68187 10.5829 1.69846 10.636 1.69846C10.6795 1.69846 10.7157 1.68851 10.7444 1.6686C10.7739 1.64795 10.7946 1.62066 10.8064 1.58674H10.9148C10.8985 1.645 10.8661 1.69256 10.8174 1.72944C10.7688 1.76557 10.7083 1.78364 10.636 1.78364C10.5785 1.78364 10.5269 1.77073 10.4812 1.74492C10.4362 1.71911 10.4008 1.68261 10.375 1.63541C10.3492 1.58748 10.3363 1.53217 10.3363 1.46949C10.3363 1.40681 10.3488 1.35187 10.3739 1.30467C10.3989 1.25747 10.434 1.22134 10.4789 1.19627C10.5247 1.17046 10.577 1.15755 10.636 1.15755C10.6935 1.15755 10.7444 1.17009 10.7887 1.19516C10.8329 1.22023 10.8668 1.25489 10.8904 1.29914C10.9148 1.34265 10.9269 1.39206 10.9269 1.44736ZM10.823 1.42635C10.823 1.388 10.8145 1.35518 10.7975 1.3279C10.7806 1.29988 10.7573 1.27886 10.7278 1.26485C10.6991 1.2501 10.667 1.24273 10.6316 1.24273C10.5807 1.24273 10.5372 1.25895 10.5011 1.2914C10.4657 1.32384 10.4454 1.36883 10.4402 1.42635H10.823ZM11.3552 1.15644C11.4289 1.15644 11.4886 1.17894 11.5344 1.22392C11.5801 1.26817 11.6029 1.33232 11.6029 1.41639V1.77368H11.5034V1.43077C11.5034 1.3703 11.4883 1.32421 11.458 1.2925C11.4278 1.26005 11.3865 1.24383 11.3341 1.24383C11.281 1.24383 11.2386 1.26042 11.2069 1.29361C11.176 1.32679 11.1605 1.3751 11.1605 1.43852V1.77368H11.0598V1.16751H11.1605V1.25379C11.1804 1.22281 11.2073 1.19885 11.2412 1.18189C11.2759 1.16493 11.3139 1.15644 11.3552 1.15644ZM11.8901 1.25047V1.60776C11.8901 1.63726 11.8964 1.65827 11.9089 1.67081C11.9215 1.68261 11.9432 1.68851 11.9742 1.68851H12.0483V1.77368H11.9576C11.9016 1.77368 11.8595 1.76078 11.8315 1.73497C11.8035 1.70916 11.7895 1.66675 11.7895 1.60776V1.25047H11.7109V1.16751H11.7895V1.01486H11.8901V1.16751H12.0483V1.25047H11.8901ZM12.3849 1.78364C12.3384 1.78364 12.2968 1.77589 12.2599 1.76041C12.223 1.74418 12.1939 1.72206 12.1725 1.69404C12.1511 1.66528 12.1393 1.63246 12.1371 1.59559H12.2411C12.244 1.62582 12.258 1.65053 12.2831 1.6697C12.3089 1.68888 12.3425 1.69846 12.3838 1.69846C12.4221 1.69846 12.4524 1.68998 12.4745 1.67302C12.4966 1.65606 12.5077 1.63467 12.5077 1.60886C12.5077 1.58232 12.4959 1.56277 12.4723 1.55024C12.4487 1.53696 12.4122 1.52406 12.3628 1.51152C12.3178 1.49972 12.2809 1.48792 12.2521 1.47612C12.2241 1.46359 12.1998 1.44552 12.1791 1.42192C12.1592 1.39759 12.1493 1.36588 12.1493 1.32679C12.1493 1.29582 12.1585 1.26743 12.1769 1.24162C12.1954 1.21581 12.2215 1.19553 12.2555 1.18078C12.2894 1.16529 12.3281 1.15755 12.3716 1.15755C12.4387 1.15755 12.4929 1.17451 12.5342 1.20843C12.5755 1.24236 12.5976 1.28882 12.6006 1.34781H12.4999C12.4977 1.3161 12.4848 1.29066 12.4612 1.27149C12.4383 1.25231 12.4074 1.24273 12.3683 1.24273C12.3322 1.24273 12.3034 1.25047 12.282 1.26595C12.2606 1.28144 12.2499 1.30172 12.2499 1.32679C12.2499 1.3467 12.2562 1.3633 12.2687 1.37657C12.282 1.38911 12.2982 1.39943 12.3174 1.40754C12.3373 1.41492 12.3646 1.4234 12.3993 1.43298C12.4428 1.44478 12.4782 1.45658 12.5055 1.46838C12.5327 1.47944 12.556 1.4964 12.5751 1.51926C12.5951 1.54213 12.6054 1.57199 12.6061 1.60886C12.6061 1.64205 12.5969 1.67191 12.5785 1.69846C12.56 1.72501 12.5338 1.74603 12.4999 1.76151C12.4667 1.77626 12.4284 1.78364 12.3849 1.78364Z" fill="white"/>
<path d="M22.1049 1.49847H22.3748V1.58032H22.0042V0.809329H22.1049V1.49847ZM22.5337 0.875699C22.5145 0.875699 22.4983 0.869062 22.485 0.855788C22.4717 0.842514 22.4651 0.82629 22.4651 0.807117C22.4651 0.787943 22.4717 0.77172 22.485 0.758446C22.4983 0.745172 22.5145 0.738535 22.5337 0.738535C22.5521 0.738535 22.5676 0.745172 22.5801 0.758446C22.5934 0.77172 22.6 0.787943 22.6 0.807117C22.6 0.82629 22.5934 0.842514 22.5801 0.855788C22.5676 0.869062 22.5521 0.875699 22.5337 0.875699ZM22.5823 0.974147V1.58032H22.4817V0.974147H22.5823ZM23.4829 0.963085C23.5301 0.963085 23.5721 0.973041 23.609 0.992952C23.6458 1.01213 23.675 1.04125 23.6964 1.08034C23.7177 1.11942 23.7284 1.16699 23.7284 1.22303V1.58032H23.6289V1.23741C23.6289 1.17694 23.6138 1.13085 23.5835 1.09914C23.554 1.0667 23.5138 1.05047 23.463 1.05047C23.4106 1.05047 23.3689 1.06743 23.338 1.10136C23.307 1.13454 23.2915 1.18284 23.2915 1.24626V1.58032H23.1919V1.23741C23.1919 1.17694 23.1768 1.13085 23.1466 1.09914C23.1171 1.0667 23.0769 1.05047 23.026 1.05047C22.9737 1.05047 22.932 1.06743 22.901 1.10136C22.8701 1.13454 22.8546 1.18284 22.8546 1.24626V1.58032H22.7539V0.974147H22.8546V1.06153C22.8745 1.02982 22.901 1.00549 22.9342 0.988527C22.9681 0.971566 23.0054 0.963085 23.0459 0.963085C23.0968 0.963085 23.1418 0.974516 23.1809 0.997376C23.22 1.02024 23.2491 1.05379 23.2683 1.09804C23.2852 1.05527 23.3133 1.02208 23.3523 0.998482C23.3914 0.974884 23.4349 0.963085 23.4829 0.963085ZM23.9455 0.875699C23.9264 0.875699 23.9101 0.869062 23.8969 0.855788C23.8836 0.842514 23.877 0.82629 23.877 0.807117C23.877 0.787943 23.8836 0.77172 23.8969 0.758446C23.9101 0.745172 23.9264 0.738535 23.9455 0.738535C23.964 0.738535 23.9795 0.745172 23.992 0.758446C24.0053 0.77172 24.0119 0.787943 24.0119 0.807117C24.0119 0.82629 24.0053 0.842514 23.992 0.855788C23.9795 0.869062 23.964 0.875699 23.9455 0.875699ZM23.9942 0.974147V1.58032H23.8936V0.974147H23.9942ZM24.2886 1.05711V1.4144C24.2886 1.4439 24.2948 1.46491 24.3074 1.47745C24.3199 1.48925 24.3417 1.49515 24.3726 1.49515H24.4467V1.58032H24.356C24.3 1.58032 24.258 1.56742 24.2299 1.54161C24.2019 1.5158 24.1879 1.47339 24.1879 1.4144V1.05711H24.1094V0.974147H24.1879V0.821497H24.2886V0.974147H24.4467V1.05711H24.2886ZM25.1218 1.25401C25.1218 1.27318 25.1207 1.29346 25.1185 1.31484H24.634C24.6376 1.37458 24.6579 1.4214 24.6948 1.45533C24.7324 1.48851 24.7778 1.5051 24.8309 1.5051C24.8744 1.5051 24.9105 1.49515 24.9393 1.47524C24.9688 1.45459 24.9894 1.4273 25.0012 1.39338H25.1096C25.0934 1.45164 25.0609 1.4992 25.0123 1.53608C24.9636 1.57221 24.9031 1.59028 24.8309 1.59028C24.7733 1.59028 24.7217 1.57737 24.676 1.55156C24.631 1.52575 24.5956 1.48925 24.5698 1.44205C24.544 1.39412 24.5311 1.33881 24.5311 1.27613C24.5311 1.21345 24.5436 1.15851 24.5687 1.11131C24.5938 1.06411 24.6288 1.02798 24.6738 1.00291C24.7195 0.977097 24.7719 0.964191 24.8309 0.964191C24.8884 0.964191 24.9393 0.976728 24.9835 1.0018C25.0278 1.02687 25.0617 1.06153 25.0853 1.10578C25.1096 1.14929 25.1218 1.1987 25.1218 1.25401ZM25.0178 1.23299C25.0178 1.19464 25.0093 1.16183 24.9924 1.13454C24.9754 1.10652 24.9522 1.0855 24.9227 1.07149C24.8939 1.05674 24.8618 1.04937 24.8264 1.04937C24.7756 1.04937 24.732 1.06559 24.6959 1.09804C24.6605 1.13048 24.6402 1.17547 24.6351 1.23299H25.0178ZM25.217 1.27502C25.217 1.21308 25.2296 1.15888 25.2546 1.11242C25.2797 1.06522 25.314 1.02872 25.3575 1.00291C25.4018 0.977097 25.4512 0.964191 25.5057 0.964191C25.5529 0.964191 25.5968 0.975253 25.6374 0.997376C25.6779 1.01876 25.7089 1.04715 25.7303 1.08255V0.761764H25.8321V1.58032H25.7303V1.46639C25.7104 1.50252 25.6809 1.53239 25.6418 1.55599C25.6027 1.57885 25.557 1.59028 25.5046 1.59028C25.4508 1.59028 25.4018 1.577 25.3575 1.55046C25.314 1.52391 25.2797 1.48667 25.2546 1.43873C25.2296 1.3908 25.217 1.33623 25.217 1.27502ZM25.7303 1.27613C25.7303 1.23041 25.7211 1.19059 25.7026 1.15666C25.6842 1.12274 25.6591 1.09693 25.6274 1.07923C25.5965 1.0608 25.5622 1.05158 25.5246 1.05158C25.4869 1.05158 25.4527 1.06043 25.4217 1.07813C25.3907 1.09582 25.366 1.12163 25.3476 1.15556C25.3291 1.18948 25.3199 1.2293 25.3199 1.27502C25.3199 1.32148 25.3291 1.36204 25.3476 1.3967C25.366 1.43062 25.3907 1.4568 25.4217 1.47524C25.4527 1.49294 25.4869 1.50178 25.5246 1.50178C25.5622 1.50178 25.5965 1.49294 25.6274 1.47524C25.6591 1.4568 25.6842 1.43062 25.7026 1.3967C25.7211 1.36204 25.7303 1.32185 25.7303 1.27613ZM26.7528 1.40887H26.4165L26.3546 1.58032H26.2484L26.5272 0.813754H26.6433L26.9209 1.58032H26.8148L26.7528 1.40887ZM26.7241 1.32701L26.5847 0.937644L26.4453 1.32701H26.7241ZM27.0048 1.27613C27.0048 1.21345 27.0174 1.15888 27.0424 1.11242C27.0675 1.06522 27.1022 1.02872 27.1464 1.00291C27.1914 0.977097 27.2426 0.964191 27.3002 0.964191C27.3747 0.964191 27.4359 0.982259 27.4838 1.01839C27.5325 1.05453 27.5645 1.10467 27.58 1.16883H27.4716C27.4613 1.13196 27.441 1.10283 27.4108 1.08144C27.3813 1.06006 27.3444 1.04937 27.3002 1.04937C27.2426 1.04937 27.1962 1.06928 27.1608 1.1091C27.1254 1.14818 27.1077 1.20386 27.1077 1.27613C27.1077 1.34913 27.1254 1.40555 27.1608 1.44537C27.1962 1.48519 27.2426 1.5051 27.3002 1.5051C27.3444 1.5051 27.3813 1.49478 27.4108 1.47413C27.4403 1.45348 27.4606 1.42399 27.4716 1.38564H27.58C27.5638 1.44758 27.5314 1.49736 27.4827 1.53497C27.434 1.57184 27.3732 1.59028 27.3002 1.59028C27.2426 1.59028 27.1914 1.57737 27.1464 1.55156C27.1022 1.52575 27.0675 1.48925 27.0424 1.44205C27.0174 1.39486 27.0048 1.33955 27.0048 1.27613ZM27.8371 1.05711V1.4144C27.8371 1.4439 27.8434 1.46491 27.8559 1.47745C27.8685 1.48925 27.8902 1.49515 27.9212 1.49515H27.9953V1.58032H27.9046C27.8486 1.58032 27.8065 1.56742 27.7785 1.54161C27.7505 1.5158 27.7365 1.47339 27.7365 1.4144V1.05711H27.6579V0.974147H27.7365V0.821497H27.8371V0.974147H27.9953V1.05711H27.8371ZM28.1693 0.875699C28.1501 0.875699 28.1339 0.869062 28.1206 0.855788C28.1073 0.842514 28.1007 0.82629 28.1007 0.807117C28.1007 0.787943 28.1073 0.77172 28.1206 0.758446C28.1339 0.745172 28.1501 0.738535 28.1693 0.738535C28.1877 0.738535 28.2032 0.745172 28.2157 0.758446C28.229 0.77172 28.2356 0.787943 28.2356 0.807117C28.2356 0.82629 28.229 0.842514 28.2157 0.855788C28.2032 0.869062 28.1877 0.875699 28.1693 0.875699ZM28.2179 0.974147V1.58032H28.1173V0.974147H28.2179ZM28.6539 1.59028C28.5971 1.59028 28.5455 1.57737 28.499 1.55156C28.4533 1.52575 28.4171 1.48925 28.3906 1.44205C28.3648 1.39412 28.3519 1.33881 28.3519 1.27613C28.3519 1.21418 28.3652 1.15961 28.3917 1.11242C28.419 1.06448 28.4559 1.02798 28.5023 1.00291C28.5488 0.977097 28.6008 0.964191 28.6583 0.964191C28.7158 0.964191 28.7678 0.977097 28.8143 1.00291C28.8607 1.02798 28.8972 1.06411 28.9238 1.11131C28.951 1.15851 28.9647 1.21345 28.9647 1.27613C28.9647 1.33881 28.9507 1.39412 28.9227 1.44205C28.8954 1.48925 28.8581 1.52575 28.8109 1.55156C28.7637 1.57737 28.7114 1.59028 28.6539 1.59028ZM28.6539 1.50178C28.69 1.50178 28.7239 1.4933 28.7556 1.47634C28.7873 1.45938 28.8128 1.43394 28.8319 1.40002C28.8519 1.3661 28.8618 1.3248 28.8618 1.27613C28.8618 1.22746 28.8522 1.18616 28.8331 1.15224C28.8139 1.11832 28.7888 1.09324 28.7578 1.07702C28.7269 1.06006 28.6933 1.05158 28.6572 1.05158C28.6203 1.05158 28.5864 1.06006 28.5554 1.07702C28.5252 1.09324 28.5008 1.11832 28.4824 1.15224C28.464 1.18616 28.4547 1.22746 28.4547 1.27613C28.4547 1.32554 28.4636 1.3672 28.4813 1.40112C28.4997 1.43505 28.5241 1.46049 28.5543 1.47745C28.5845 1.49367 28.6177 1.50178 28.6539 1.50178ZM29.3924 0.963085C29.4661 0.963085 29.5259 0.985577 29.5716 1.03056C29.6173 1.07481 29.6402 1.13896 29.6402 1.22303V1.58032H29.5406V1.23741C29.5406 1.17694 29.5255 1.13085 29.4953 1.09914C29.465 1.0667 29.4237 1.05047 29.3714 1.05047C29.3183 1.05047 29.2759 1.06706 29.2442 1.10025C29.2132 1.13343 29.1977 1.18174 29.1977 1.24516V1.58032H29.097V0.974147H29.1977V1.06043C29.2176 1.02945 29.2445 1.00549 29.2785 0.988527C29.3131 0.971566 29.3511 0.963085 29.3924 0.963085ZM30.1847 1.49294H30.5608V1.58032H30.0652V1.50068L30.4391 0.896716H30.0696V0.809329H30.5586V0.888973L30.1847 1.49294ZM30.9623 1.59028C30.9055 1.59028 30.8539 1.57737 30.8075 1.55156C30.7617 1.52575 30.7256 1.48925 30.6991 1.44205C30.6732 1.39412 30.6603 1.33881 30.6603 1.27613C30.6603 1.21418 30.6736 1.15961 30.7002 1.11242C30.7274 1.06448 30.7643 1.02798 30.8108 1.00291C30.8572 0.977097 30.9092 0.964191 30.9667 0.964191C31.0243 0.964191 31.0763 0.977097 31.1227 1.00291C31.1692 1.02798 31.2057 1.06411 31.2322 1.11131C31.2595 1.15851 31.2731 1.21345 31.2731 1.27613C31.2731 1.33881 31.2591 1.39412 31.2311 1.44205C31.2038 1.48925 31.1666 1.52575 31.1194 1.55156C31.0722 1.57737 31.0198 1.59028 30.9623 1.59028ZM30.9623 1.50178C30.9985 1.50178 31.0324 1.4933 31.0641 1.47634C31.0958 1.45938 31.1212 1.43394 31.1404 1.40002C31.1603 1.3661 31.1703 1.3248 31.1703 1.27613C31.1703 1.22746 31.1607 1.18616 31.1415 1.15224C31.1223 1.11832 31.0973 1.09324 31.0663 1.07702C31.0353 1.06006 31.0018 1.05158 30.9656 1.05158C30.9288 1.05158 30.8948 1.06006 30.8639 1.07702C30.8336 1.09324 30.8093 1.11832 30.7909 1.15224C30.7724 1.18616 30.7632 1.22746 30.7632 1.27613C30.7632 1.32554 30.7721 1.3672 30.7898 1.40112C30.8082 1.43505 30.8325 1.46049 30.8628 1.47745C30.893 1.49367 30.9262 1.50178 30.9623 1.50178ZM31.7008 0.963085C31.7746 0.963085 31.8343 0.985577 31.88 1.03056C31.9258 1.07481 31.9486 1.13896 31.9486 1.22303V1.58032H31.8491V1.23741C31.8491 1.17694 31.834 1.13085 31.8037 1.09914C31.7735 1.0667 31.7322 1.05047 31.6798 1.05047C31.6267 1.05047 31.5843 1.06706 31.5526 1.10025C31.5216 1.13343 31.5062 1.18174 31.5062 1.24516V1.58032H31.4055V0.974147H31.5062V1.06043C31.5261 1.02945 31.553 1.00549 31.5869 0.988527C31.6216 0.971566 31.6595 0.963085 31.7008 0.963085ZM32.6661 1.25401C32.6661 1.27318 32.665 1.29346 32.6628 1.31484H32.1783C32.182 1.37458 32.2023 1.4214 32.2392 1.45533C32.2768 1.48851 32.3221 1.5051 32.3752 1.5051C32.4187 1.5051 32.4549 1.49515 32.4836 1.47524C32.5131 1.45459 32.5338 1.4273 32.5456 1.39338H32.654C32.6377 1.45164 32.6053 1.4992 32.5566 1.53608C32.508 1.57221 32.4475 1.59028 32.3752 1.59028C32.3177 1.59028 32.2661 1.57737 32.2203 1.55156C32.1754 1.52575 32.14 1.48925 32.1142 1.44205C32.0883 1.39412 32.0754 1.33881 32.0754 1.27613C32.0754 1.21345 32.088 1.15851 32.1131 1.11131C32.1381 1.06411 32.1732 1.02798 32.2181 1.00291C32.2639 0.977097 32.3162 0.964191 32.3752 0.964191C32.4327 0.964191 32.4836 0.976728 32.5279 1.0018C32.5721 1.02687 32.606 1.06153 32.6296 1.10578C32.654 1.14929 32.6661 1.1987 32.6661 1.25401ZM32.5622 1.23299C32.5622 1.19464 32.5537 1.16183 32.5367 1.13454C32.5198 1.10652 32.4965 1.0855 32.467 1.07149C32.4383 1.05674 32.4062 1.04937 32.3708 1.04937C32.3199 1.04937 32.2764 1.06559 32.2403 1.09804C32.2049 1.13048 32.1846 1.17547 32.1794 1.23299H32.5622Z" fill="white"/>
<path d="M50.7007 1.00269V1.77368H50.6001V1.42414H50.2074V1.77368H50.1067V1.00269H50.2074V1.34117H50.6001V1.00269H50.7007ZM50.9246 1.06906C50.9054 1.06906 50.8892 1.06242 50.8759 1.04915C50.8627 1.03587 50.856 1.01965 50.856 1.00048C50.856 0.981303 50.8627 0.965079 50.8759 0.951805C50.8892 0.938531 50.9054 0.931894 50.9246 0.931894C50.943 0.931894 50.9585 0.938531 50.9711 0.951805C50.9843 0.965079 50.991 0.981303 50.991 1.00048C50.991 1.01965 50.9843 1.03587 50.9711 1.04915C50.9585 1.06242 50.943 1.06906 50.9246 1.06906ZM50.9733 1.16751V1.77368H50.8726V1.16751H50.9733ZM51.3948 1.15755C51.4472 1.15755 51.4929 1.16898 51.532 1.19184C51.5718 1.2147 51.6013 1.24346 51.6205 1.27812V1.16751H51.7223V1.78696C51.7223 1.84226 51.7105 1.8913 51.6869 1.93407C51.6633 1.97758 51.6293 2.01151 51.5851 2.03584C51.5416 2.06018 51.4907 2.07234 51.4324 2.07234C51.3528 2.07234 51.2864 2.05354 51.2333 2.01593C51.1802 1.97832 51.1489 1.92707 51.1393 1.86217H51.2389C51.2499 1.89905 51.2728 1.92854 51.3074 1.95067C51.3421 1.97353 51.3838 1.98496 51.4324 1.98496C51.4877 1.98496 51.5327 1.96763 51.5674 1.93297C51.6028 1.89831 51.6205 1.84964 51.6205 1.78696V1.65975C51.6006 1.69514 51.5711 1.72464 51.532 1.74824C51.4929 1.77184 51.4472 1.78364 51.3948 1.78364C51.341 1.78364 51.292 1.77036 51.2477 1.74382C51.2042 1.71727 51.1699 1.68003 51.1448 1.63209C51.1198 1.58416 51.1072 1.52959 51.1072 1.46838C51.1072 1.40644 51.1198 1.35223 51.1448 1.30578C51.1699 1.25858 51.2042 1.22208 51.2477 1.19627C51.292 1.17046 51.341 1.15755 51.3948 1.15755ZM51.6205 1.46949C51.6205 1.42377 51.6113 1.38394 51.5928 1.35002C51.5744 1.3161 51.5493 1.29029 51.5176 1.27259C51.4866 1.25416 51.4523 1.24494 51.4147 1.24494C51.3771 1.24494 51.3428 1.25379 51.3119 1.27149C51.2809 1.28918 51.2562 1.31499 51.2378 1.34892C51.2193 1.38284 51.2101 1.42266 51.2101 1.46838C51.2101 1.51484 51.2193 1.5554 51.2378 1.59006C51.2562 1.62398 51.2809 1.65016 51.3119 1.6686C51.3428 1.6863 51.3771 1.69514 51.4147 1.69514C51.4523 1.69514 51.4866 1.6863 51.5176 1.6686C51.5493 1.65016 51.5744 1.62398 51.5928 1.59006C51.6113 1.5554 51.6205 1.51521 51.6205 1.46949ZM52.1932 1.15644C52.239 1.15644 52.2803 1.1664 52.3171 1.18631C52.354 1.20548 52.3828 1.23461 52.4034 1.2737C52.4248 1.31278 52.4355 1.36035 52.4355 1.41639V1.77368H52.3359V1.43077C52.3359 1.3703 52.3208 1.32421 52.2906 1.2925C52.2603 1.26005 52.219 1.24383 52.1667 1.24383C52.1136 1.24383 52.0712 1.26042 52.0395 1.29361C52.0085 1.32679 51.993 1.3751 51.993 1.43852V1.77368H51.8924V0.955124H51.993V1.25379C52.0129 1.22281 52.0402 1.19885 52.0749 1.18189C52.1103 1.16493 52.1497 1.15644 52.1932 1.15644ZM53.3506 1.60223H53.0143L52.9523 1.77368H52.8461L53.1249 1.00711H53.241L53.5187 1.77368H53.4125L53.3506 1.60223ZM53.3218 1.52037L53.1824 1.131L53.043 1.52037H53.3218ZM53.6026 1.46949C53.6026 1.40681 53.6151 1.35223 53.6402 1.30578C53.6652 1.25858 53.6999 1.22208 53.7442 1.19627C53.7891 1.17046 53.8404 1.15755 53.8979 1.15755C53.9724 1.15755 54.0336 1.17562 54.0815 1.21175C54.1302 1.24789 54.1623 1.29803 54.1778 1.36219H54.0694C54.059 1.32532 54.0388 1.29619 54.0085 1.2748C53.979 1.25342 53.9422 1.24273 53.8979 1.24273C53.8404 1.24273 53.7939 1.26264 53.7585 1.30246C53.7231 1.34154 53.7054 1.39722 53.7054 1.46949C53.7054 1.54249 53.7231 1.59891 53.7585 1.63873C53.7939 1.67855 53.8404 1.69846 53.8979 1.69846C53.9422 1.69846 53.979 1.68814 54.0085 1.66749C54.038 1.64684 54.0583 1.61734 54.0694 1.579H54.1778C54.1615 1.64094 54.1291 1.69072 54.0804 1.72833C54.0318 1.7652 53.9709 1.78364 53.8979 1.78364C53.8404 1.78364 53.7891 1.77073 53.7442 1.74492C53.6999 1.71911 53.6652 1.68261 53.6402 1.63541C53.6151 1.58822 53.6026 1.53291 53.6026 1.46949ZM54.4349 1.25047V1.60776C54.4349 1.63726 54.4411 1.65827 54.4537 1.67081C54.4662 1.68261 54.488 1.68851 54.5189 1.68851H54.593V1.77368H54.5023C54.4463 1.77368 54.4043 1.76078 54.3762 1.73497C54.3482 1.70916 54.3342 1.66675 54.3342 1.60776V1.25047H54.2557V1.16751H54.3342V1.01486H54.4349V1.16751H54.593V1.25047H54.4349ZM54.767 1.06906C54.7478 1.06906 54.7316 1.06242 54.7183 1.04915C54.7051 1.03587 54.6984 1.01965 54.6984 1.00048C54.6984 0.981303 54.7051 0.965079 54.7183 0.951805C54.7316 0.938531 54.7478 0.931894 54.767 0.931894C54.7854 0.931894 54.8009 0.938531 54.8135 0.951805C54.8267 0.965079 54.8334 0.981303 54.8334 1.00048C54.8334 1.01965 54.8267 1.03587 54.8135 1.04915C54.8009 1.06242 54.7854 1.06906 54.767 1.06906ZM54.8157 1.16751V1.77368H54.715V1.16751H54.8157ZM55.2516 1.78364C55.1948 1.78364 55.1432 1.77073 55.0967 1.74492C55.051 1.71911 55.0149 1.68261 54.9883 1.63541C54.9625 1.58748 54.9496 1.53217 54.9496 1.46949C54.9496 1.40754 54.9629 1.35297 54.9894 1.30578C55.0167 1.25784 55.0536 1.22134 55.1001 1.19627C55.1465 1.17046 55.1985 1.15755 55.256 1.15755C55.3135 1.15755 55.3655 1.17046 55.412 1.19627C55.4585 1.22134 55.495 1.25747 55.5215 1.30467C55.5488 1.35187 55.5624 1.40681 55.5624 1.46949C55.5624 1.53217 55.5484 1.58748 55.5204 1.63541C55.4931 1.68261 55.4559 1.71911 55.4087 1.74492C55.3615 1.77073 55.3091 1.78364 55.2516 1.78364ZM55.2516 1.69514C55.2877 1.69514 55.3217 1.68666 55.3534 1.6697C55.3851 1.65274 55.4105 1.6273 55.4297 1.59338C55.4496 1.55946 55.4596 1.51816 55.4596 1.46949C55.4596 1.42082 55.45 1.37952 55.4308 1.3456C55.4116 1.31168 55.3866 1.2866 55.3556 1.27038C55.3246 1.25342 55.2911 1.24494 55.2549 1.24494C55.218 1.24494 55.1841 1.25342 55.1532 1.27038C55.1229 1.2866 55.0986 1.31168 55.0801 1.3456C55.0617 1.37952 55.0525 1.42082 55.0525 1.46949C55.0525 1.5189 55.0613 1.56056 55.079 1.59448C55.0975 1.62841 55.1218 1.65385 55.152 1.67081C55.1823 1.68703 55.2155 1.69514 55.2516 1.69514ZM55.9901 1.15644C56.0639 1.15644 56.1236 1.17894 56.1693 1.22392C56.215 1.26817 56.2379 1.33232 56.2379 1.41639V1.77368H56.1384V1.43077C56.1384 1.3703 56.1232 1.32421 56.093 1.2925C56.0628 1.26005 56.0215 1.24383 55.9691 1.24383C55.916 1.24383 55.8736 1.26042 55.8419 1.29361C55.8109 1.32679 55.7954 1.3751 55.7954 1.43852V1.77368H55.6948V1.16751H55.7954V1.25379C55.8154 1.22281 55.8423 1.19885 55.8762 1.18189C55.9109 1.16493 55.9488 1.15644 55.9901 1.15644ZM56.7824 1.6863H57.1585V1.77368H56.6629V1.69404L57.0368 1.09008H56.6674V1.00269H57.1563V1.08233L56.7824 1.6863ZM57.5601 1.78364C57.5033 1.78364 57.4517 1.77073 57.4052 1.74492C57.3595 1.71911 57.3233 1.68261 57.2968 1.63541C57.271 1.58748 57.2581 1.53217 57.2581 1.46949C57.2581 1.40754 57.2714 1.35297 57.2979 1.30578C57.3252 1.25784 57.3621 1.22134 57.4085 1.19627C57.455 1.17046 57.507 1.15755 57.5645 1.15755C57.622 1.15755 57.674 1.17046 57.7205 1.19627C57.7669 1.22134 57.8034 1.25747 57.83 1.30467C57.8572 1.35187 57.8709 1.40681 57.8709 1.46949C57.8709 1.53217 57.8569 1.58748 57.8289 1.63541C57.8016 1.68261 57.7643 1.71911 57.7171 1.74492C57.6699 1.77073 57.6176 1.78364 57.5601 1.78364ZM57.5601 1.69514C57.5962 1.69514 57.6301 1.68666 57.6618 1.6697C57.6935 1.65274 57.719 1.6273 57.7382 1.59338C57.7581 1.55946 57.768 1.51816 57.768 1.46949C57.768 1.42082 57.7584 1.37952 57.7393 1.3456C57.7201 1.31168 57.695 1.2866 57.664 1.27038C57.6331 1.25342 57.5995 1.24494 57.5634 1.24494C57.5265 1.24494 57.4926 1.25342 57.4616 1.27038C57.4314 1.2866 57.407 1.31168 57.3886 1.3456C57.3702 1.37952 57.361 1.42082 57.361 1.46949C57.361 1.5189 57.3698 1.56056 57.3875 1.59448C57.4059 1.62841 57.4303 1.65385 57.4605 1.67081C57.4907 1.68703 57.5239 1.69514 57.5601 1.69514ZM58.2986 1.15644C58.3723 1.15644 58.4321 1.17894 58.4778 1.22392C58.5235 1.26817 58.5464 1.33232 58.5464 1.41639V1.77368H58.4468V1.43077C58.4468 1.3703 58.4317 1.32421 58.4015 1.2925C58.3712 1.26005 58.3299 1.24383 58.2776 1.24383C58.2245 1.24383 58.1821 1.26042 58.1504 1.29361C58.1194 1.32679 58.1039 1.3751 58.1039 1.43852V1.77368H58.0032V1.16751H58.1039V1.25379C58.1238 1.22281 58.1507 1.19885 58.1847 1.18189C58.2193 1.16493 58.2573 1.15644 58.2986 1.15644ZM59.2639 1.44736C59.2639 1.46654 59.2628 1.48682 59.2606 1.5082H58.7761C58.7797 1.56794 58.8 1.61476 58.8369 1.64869C58.8745 1.68187 58.9199 1.69846 58.973 1.69846C59.0165 1.69846 59.0526 1.68851 59.0814 1.6686C59.1109 1.64795 59.1315 1.62066 59.1433 1.58674H59.2517C59.2355 1.645 59.203 1.69256 59.1544 1.72944C59.1057 1.76557 59.0452 1.78364 58.973 1.78364C58.9154 1.78364 58.8638 1.77073 58.8181 1.74492C58.7731 1.71911 58.7377 1.68261 58.7119 1.63541C58.6861 1.58748 58.6732 1.53217 58.6732 1.46949C58.6732 1.40681 58.6857 1.35187 58.7108 1.30467C58.7359 1.25747 58.7709 1.22134 58.8159 1.19627C58.8616 1.17046 58.914 1.15755 58.973 1.15755C59.0305 1.15755 59.0814 1.17009 59.1256 1.19516C59.1699 1.22023 59.2038 1.25489 59.2274 1.29914C59.2517 1.34265 59.2639 1.39206 59.2639 1.44736ZM59.1599 1.42635C59.1599 1.388 59.1514 1.35518 59.1345 1.3279C59.1175 1.29988 59.0943 1.27886 59.0648 1.26485C59.036 1.2501 59.0039 1.24273 58.9685 1.24273C58.9176 1.24273 58.8741 1.25895 58.838 1.2914C58.8026 1.32384 58.7823 1.36883 58.7772 1.42635H59.1599Z" fill="white"/>
<path d="M77.8483 1.69183H78.1182V1.77368H77.7476V1.00269H77.8483V1.69183ZM78.7782 1.44736C78.7782 1.46654 78.7771 1.48682 78.7749 1.5082H78.2904C78.2941 1.56794 78.3143 1.61476 78.3512 1.64869C78.3888 1.68187 78.4342 1.69846 78.4873 1.69846C78.5308 1.69846 78.5669 1.68851 78.5957 1.6686C78.6252 1.64795 78.6458 1.62066 78.6576 1.58674H78.766C78.7498 1.645 78.7173 1.69256 78.6687 1.72944C78.62 1.76557 78.5595 1.78364 78.4873 1.78364C78.4297 1.78364 78.3781 1.77073 78.3324 1.74492C78.2874 1.71911 78.252 1.68261 78.2262 1.63541C78.2004 1.58748 78.1875 1.53217 78.1875 1.46949C78.1875 1.40681 78.2 1.35187 78.2251 1.30467C78.2502 1.25747 78.2852 1.22134 78.3302 1.19627C78.3759 1.17046 78.4283 1.15755 78.4873 1.15755C78.5448 1.15755 78.5957 1.17009 78.6399 1.19516C78.6842 1.22023 78.7181 1.25489 78.7417 1.29914C78.766 1.34265 78.7782 1.39206 78.7782 1.44736ZM78.6742 1.42635C78.6742 1.388 78.6657 1.35518 78.6488 1.3279C78.6318 1.29988 78.6086 1.27886 78.5791 1.26485C78.5503 1.2501 78.5182 1.24273 78.4828 1.24273C78.432 1.24273 78.3884 1.25895 78.3523 1.2914C78.3169 1.32384 78.2966 1.36883 78.2915 1.42635H78.6742ZM79.0338 1.25047V1.60776C79.0338 1.63726 79.0401 1.65827 79.0526 1.67081C79.0652 1.68261 79.0869 1.68851 79.1179 1.68851H79.192V1.77368H79.1013C79.0453 1.77368 79.0032 1.76078 78.9752 1.73497C78.9472 1.70916 78.9332 1.66675 78.9332 1.60776V1.25047H78.8546V1.16751H78.9332V1.01486H79.0338V1.16751H79.192V1.25047H79.0338ZM79.3649 0.893179L79.3516 1.1133H79.2819L79.2675 0.893179H79.3649ZM79.7047 1.78364C79.6582 1.78364 79.6165 1.77589 79.5797 1.76041C79.5428 1.74418 79.5137 1.72206 79.4923 1.69404C79.4709 1.66528 79.4591 1.63246 79.4569 1.59559H79.5609C79.5638 1.62582 79.5778 1.65053 79.6029 1.6697C79.6287 1.68888 79.6623 1.69846 79.7035 1.69846C79.7419 1.69846 79.7721 1.68998 79.7943 1.67302C79.8164 1.65606 79.8274 1.63467 79.8274 1.60886C79.8274 1.58232 79.8156 1.56277 79.792 1.55024C79.7684 1.53696 79.7319 1.52406 79.6825 1.51152C79.6375 1.49972 79.6007 1.48792 79.5719 1.47612C79.5439 1.46359 79.5196 1.44552 79.4989 1.42192C79.479 1.39759 79.469 1.36588 79.469 1.32679C79.469 1.29582 79.4783 1.26743 79.4967 1.24162C79.5151 1.21581 79.5413 1.19553 79.5752 1.18078C79.6092 1.16529 79.6479 1.15755 79.6914 1.15755C79.7585 1.15755 79.8127 1.17451 79.854 1.20843C79.8953 1.24236 79.9174 1.28882 79.9204 1.34781H79.8197C79.8175 1.3161 79.8046 1.29066 79.781 1.27149C79.7581 1.25231 79.7271 1.24273 79.6881 1.24273C79.6519 1.24273 79.6232 1.25047 79.6018 1.26595C79.5804 1.28144 79.5697 1.30172 79.5697 1.32679C79.5697 1.3467 79.576 1.3633 79.5885 1.37657C79.6018 1.38911 79.618 1.39943 79.6372 1.40754C79.6571 1.41492 79.6844 1.4234 79.719 1.43298C79.7625 1.44478 79.7979 1.45658 79.8252 1.46838C79.8525 1.47944 79.8757 1.4964 79.8949 1.51926C79.9148 1.54213 79.9251 1.57199 79.9259 1.60886C79.9259 1.64205 79.9167 1.67191 79.8982 1.69846C79.8798 1.72501 79.8536 1.74603 79.8197 1.76151C79.7865 1.77626 79.7482 1.78364 79.7047 1.78364ZM80.3253 1.38763C80.3253 1.31241 80.3422 1.24494 80.3762 1.1852C80.4101 1.12473 80.4562 1.07754 80.5144 1.04362C80.5734 1.00969 80.6387 0.992733 80.7102 0.992733C80.7943 0.992733 80.8677 1.01301 80.9303 1.05357C80.993 1.09413 81.0388 1.15165 81.0675 1.22613H80.9469C80.9256 1.17967 80.8946 1.14391 80.854 1.11884C80.8142 1.09376 80.7663 1.08123 80.7102 1.08123C80.6564 1.08123 80.6081 1.09376 80.5653 1.11884C80.5225 1.14391 80.489 1.17967 80.4647 1.22613C80.4403 1.27185 80.4282 1.32569 80.4282 1.38763C80.4282 1.44884 80.4403 1.50267 80.4647 1.54913C80.489 1.59485 80.5225 1.63025 80.5653 1.65532C80.6081 1.6804 80.6564 1.69293 80.7102 1.69293C80.7663 1.69293 80.8142 1.68076 80.854 1.65643C80.8946 1.63136 80.9256 1.59559 80.9469 1.54913H81.0675C81.0388 1.62288 80.993 1.68003 80.9303 1.72059C80.8677 1.76041 80.7943 1.78032 80.7102 1.78032C80.6387 1.78032 80.5734 1.76373 80.5144 1.73054C80.4562 1.69662 80.4101 1.64979 80.3762 1.59006C80.3422 1.53033 80.3253 1.46285 80.3253 1.38763ZM81.1797 1.46838C81.1797 1.40644 81.1923 1.35223 81.2174 1.30578C81.2424 1.25858 81.2767 1.22208 81.3202 1.19627C81.3645 1.17046 81.4135 1.15755 81.4673 1.15755C81.5204 1.15755 81.5665 1.16898 81.6056 1.19184C81.6447 1.2147 81.6738 1.24346 81.693 1.27812V1.16751H81.7948V1.77368H81.693V1.66085C81.6731 1.69625 81.6432 1.72575 81.6034 1.74935C81.5643 1.77221 81.5186 1.78364 81.4662 1.78364C81.4124 1.78364 81.3637 1.77036 81.3202 1.74382C81.2767 1.71727 81.2424 1.68003 81.2174 1.63209C81.1923 1.58416 81.1797 1.52959 81.1797 1.46838ZM81.693 1.46949C81.693 1.42377 81.6838 1.38394 81.6653 1.35002C81.6469 1.3161 81.6218 1.29029 81.5901 1.27259C81.5592 1.25416 81.5249 1.24494 81.4873 1.24494C81.4496 1.24494 81.4154 1.25379 81.3844 1.27149C81.3534 1.28918 81.3287 1.31499 81.3103 1.34892C81.2918 1.38284 81.2826 1.42266 81.2826 1.46838C81.2826 1.51484 81.2918 1.5554 81.3103 1.59006C81.3287 1.62398 81.3534 1.65016 81.3844 1.6686C81.4154 1.6863 81.4496 1.69514 81.4873 1.69514C81.5249 1.69514 81.5592 1.6863 81.5901 1.6686C81.6218 1.65016 81.6469 1.62398 81.6653 1.59006C81.6838 1.5554 81.693 1.51521 81.693 1.46949ZM82.0655 0.955124V1.77368H81.9649V0.955124H82.0655ZM82.9661 1.15644C83.0133 1.15644 83.0553 1.1664 83.0922 1.18631C83.129 1.20548 83.1582 1.23461 83.1795 1.2737C83.2009 1.31278 83.2116 1.36035 83.2116 1.41639V1.77368H83.1121V1.43077C83.1121 1.3703 83.0969 1.32421 83.0667 1.2925C83.0372 1.26005 82.997 1.24383 82.9461 1.24383C82.8938 1.24383 82.8521 1.26079 82.8211 1.29471C82.7902 1.3279 82.7747 1.3762 82.7747 1.43962V1.77368H82.6751V1.43077C82.6751 1.3703 82.66 1.32421 82.6298 1.2925C82.6003 1.26005 82.5601 1.24383 82.5092 1.24383C82.4569 1.24383 82.4152 1.26079 82.3842 1.29471C82.3532 1.3279 82.3378 1.3762 82.3378 1.43962V1.77368H82.2371V1.16751H82.3378V1.25489C82.3577 1.22318 82.3842 1.19885 82.4174 1.18189C82.4513 1.16493 82.4886 1.15644 82.5291 1.15644C82.58 1.15644 82.625 1.16787 82.6641 1.19074C82.7032 1.2136 82.7323 1.24715 82.7515 1.2914C82.7684 1.24862 82.7964 1.21544 82.8355 1.19184C82.8746 1.16824 82.9181 1.15644 82.9661 1.15644ZM83.634 1.46838C83.634 1.40644 83.6466 1.35223 83.6716 1.30578C83.6967 1.25858 83.731 1.22208 83.7745 1.19627C83.8188 1.17046 83.8682 1.15755 83.9227 1.15755C83.9699 1.15755 84.0138 1.16861 84.0544 1.19074C84.0949 1.21212 84.1259 1.24051 84.1473 1.27591V0.955124H84.2491V1.77368H84.1473V1.65975C84.1274 1.69588 84.0979 1.72575 84.0588 1.74935C84.0197 1.77221 83.974 1.78364 83.9216 1.78364C83.8678 1.78364 83.8188 1.77036 83.7745 1.74382C83.731 1.71727 83.6967 1.68003 83.6716 1.63209C83.6466 1.58416 83.634 1.52959 83.634 1.46838ZM84.1473 1.46949C84.1473 1.42377 84.1381 1.38394 84.1196 1.35002C84.1012 1.3161 84.0761 1.29029 84.0444 1.27259C84.0134 1.25416 83.9792 1.24494 83.9415 1.24494C83.9039 1.24494 83.8696 1.25379 83.8387 1.27149C83.8077 1.28918 83.783 1.31499 83.7646 1.34892C83.7461 1.38284 83.7369 1.42266 83.7369 1.46838C83.7369 1.51484 83.7461 1.5554 83.7646 1.59006C83.783 1.62398 83.8077 1.65016 83.8387 1.6686C83.8696 1.6863 83.9039 1.69514 83.9415 1.69514C83.9792 1.69514 84.0134 1.6863 84.0444 1.6686C84.0761 1.65016 84.1012 1.62398 84.1196 1.59006C84.1381 1.5554 84.1473 1.51521 84.1473 1.46949ZM84.6835 1.78364C84.6268 1.78364 84.5751 1.77073 84.5287 1.74492C84.483 1.71911 84.4468 1.68261 84.4203 1.63541C84.3945 1.58748 84.3816 1.53217 84.3816 1.46949C84.3816 1.40754 84.3948 1.35297 84.4214 1.30578C84.4487 1.25784 84.4855 1.22134 84.532 1.19627C84.5785 1.17046 84.6304 1.15755 84.688 1.15755C84.7455 1.15755 84.7975 1.17046 84.8439 1.19627C84.8904 1.22134 84.9269 1.25747 84.9534 1.30467C84.9807 1.35187 84.9944 1.40681 84.9944 1.46949C84.9944 1.53217 84.9804 1.58748 84.9523 1.63541C84.9251 1.68261 84.8878 1.71911 84.8406 1.74492C84.7934 1.77073 84.7411 1.78364 84.6835 1.78364ZM84.6835 1.69514C84.7197 1.69514 84.7536 1.68666 84.7853 1.6697C84.817 1.65274 84.8425 1.6273 84.8616 1.59338C84.8815 1.55946 84.8915 1.51816 84.8915 1.46949C84.8915 1.42082 84.8819 1.37952 84.8627 1.3456C84.8436 1.31168 84.8185 1.2866 84.7875 1.27038C84.7565 1.25342 84.723 1.24494 84.6869 1.24494C84.65 1.24494 84.6161 1.25342 84.5851 1.27038C84.5549 1.2866 84.5305 1.31168 84.5121 1.3456C84.4936 1.37952 84.4844 1.42082 84.4844 1.46949C84.4844 1.5189 84.4933 1.56056 84.511 1.59448C84.5294 1.62841 84.5537 1.65385 84.584 1.67081C84.6142 1.68703 84.6474 1.69514 84.6835 1.69514ZM85.9342 1.16751L85.7451 1.77368H85.6411L85.4951 1.2925L85.3491 1.77368H85.2451L85.0548 1.16751H85.1577L85.2971 1.67634L85.4475 1.16751H85.5504L85.6975 1.67745L85.8347 1.16751H85.9342ZM86.3295 1.15644C86.4032 1.15644 86.4629 1.17894 86.5087 1.22392C86.5544 1.26817 86.5772 1.33232 86.5772 1.41639V1.77368H86.4777V1.43077C86.4777 1.3703 86.4626 1.32421 86.4323 1.2925C86.4021 1.26005 86.3608 1.24383 86.3084 1.24383C86.2553 1.24383 86.2129 1.26042 86.1812 1.29361C86.1503 1.32679 86.1348 1.3751 86.1348 1.43852V1.77368H86.0341V1.16751H86.1348V1.25379C86.1547 1.22281 86.1816 1.19885 86.2155 1.18189C86.2502 1.16493 86.2882 1.15644 86.3295 1.15644Z" fill="white"/>
<path d="M103.875 1.58032H103.775L103.37 0.966404V1.58032H103.269V0.808223H103.37L103.775 1.42104V0.808223H103.875V1.58032ZM104.6 1.25401C104.6 1.27318 104.599 1.29346 104.597 1.31484H104.112C104.116 1.37458 104.136 1.4214 104.173 1.45533C104.21 1.48851 104.256 1.5051 104.309 1.5051C104.352 1.5051 104.389 1.49515 104.417 1.47524C104.447 1.45459 104.467 1.4273 104.479 1.39338H104.588C104.571 1.45164 104.539 1.4992 104.49 1.53608C104.442 1.57221 104.381 1.59028 104.309 1.59028C104.251 1.59028 104.2 1.57737 104.154 1.55156C104.109 1.52575 104.074 1.48925 104.048 1.44205C104.022 1.39412 104.009 1.33881 104.009 1.27613C104.009 1.21345 104.022 1.15851 104.047 1.11131C104.072 1.06411 104.107 1.02798 104.152 1.00291C104.198 0.977097 104.25 0.964191 104.309 0.964191C104.366 0.964191 104.417 0.976728 104.462 1.0018C104.506 1.02687 104.54 1.06153 104.563 1.10578C104.588 1.14929 104.6 1.1987 104.6 1.25401ZM104.496 1.23299C104.496 1.19464 104.487 1.16183 104.47 1.13454C104.453 1.10652 104.43 1.0855 104.401 1.07149C104.372 1.05674 104.34 1.04937 104.305 1.04937C104.254 1.04937 104.21 1.06559 104.174 1.09804C104.139 1.13048 104.118 1.17547 104.113 1.23299H104.496ZM105.54 0.974147L105.351 1.58032H105.247L105.101 1.09914L104.955 1.58032H104.851L104.661 0.974147H104.764L104.903 1.48298L105.054 0.974147H105.156L105.304 1.48409L105.441 0.974147H105.54ZM106.541 1.58032H106.441L106.036 0.966404V1.58032H105.935V0.808223H106.036L106.441 1.42104V0.808223H106.541V1.58032ZM106.977 1.59028C106.92 1.59028 106.869 1.57737 106.822 1.55156C106.777 1.52575 106.74 1.48925 106.714 1.44205C106.688 1.39412 106.675 1.33881 106.675 1.27613C106.675 1.21418 106.688 1.15961 106.715 1.11242C106.742 1.06448 106.779 1.02798 106.826 1.00291C106.872 0.977097 106.924 0.964191 106.982 0.964191C107.039 0.964191 107.091 0.977097 107.138 1.00291C107.184 1.02798 107.221 1.06411 107.247 1.11131C107.274 1.15851 107.288 1.21345 107.288 1.27613C107.288 1.33881 107.274 1.39412 107.246 1.44205C107.219 1.48925 107.181 1.52575 107.134 1.55156C107.087 1.57737 107.035 1.59028 106.977 1.59028ZM106.977 1.50178C107.013 1.50178 107.047 1.4933 107.079 1.47634C107.111 1.45938 107.136 1.43394 107.155 1.40002C107.175 1.3661 107.185 1.3248 107.185 1.27613C107.185 1.22746 107.176 1.18616 107.156 1.15224C107.137 1.11832 107.112 1.09324 107.081 1.07702C107.05 1.06006 107.017 1.05158 106.98 1.05158C106.944 1.05158 106.91 1.06006 106.879 1.07702C106.848 1.09324 106.824 1.11832 106.806 1.15224C106.787 1.18616 106.778 1.22746 106.778 1.27613C106.778 1.32554 106.787 1.3672 106.805 1.40112C106.823 1.43505 106.847 1.46049 106.878 1.47745C106.908 1.49367 106.941 1.50178 106.977 1.50178ZM107.521 1.0726C107.539 1.03794 107.564 1.01102 107.596 0.991845C107.629 0.972672 107.67 0.963085 107.717 0.963085V1.06706H107.69C107.577 1.06706 107.521 1.12827 107.521 1.25069V1.58032H107.42V0.974147H107.521V1.0726ZM108.562 0.963085C108.609 0.963085 108.651 0.973041 108.688 0.992952C108.725 1.01213 108.754 1.04125 108.775 1.08034C108.797 1.11942 108.808 1.16699 108.808 1.22303V1.58032H108.708V1.23741C108.708 1.17694 108.693 1.13085 108.663 1.09914C108.633 1.0667 108.593 1.05047 108.542 1.05047C108.49 1.05047 108.448 1.06743 108.417 1.10136C108.386 1.13454 108.371 1.18284 108.371 1.24626V1.58032H108.271V1.23741C108.271 1.17694 108.256 1.13085 108.226 1.09914C108.196 1.0667 108.156 1.05047 108.105 1.05047C108.053 1.05047 108.011 1.06743 107.98 1.10136C107.949 1.13454 107.934 1.18284 107.934 1.24626V1.58032H107.833V0.974147H107.934V1.06153C107.954 1.02982 107.98 1.00549 108.013 0.988527C108.047 0.971566 108.084 0.963085 108.125 0.963085C108.176 0.963085 108.221 0.974516 108.26 0.997376C108.299 1.02024 108.328 1.05379 108.347 1.09804C108.364 1.05527 108.392 1.02208 108.431 0.998482C108.471 0.974884 108.514 0.963085 108.562 0.963085ZM108.935 1.27502C108.935 1.21308 108.948 1.15888 108.973 1.11242C108.998 1.06522 109.032 1.02872 109.076 1.00291C109.12 0.977097 109.169 0.964191 109.223 0.964191C109.276 0.964191 109.322 0.975622 109.361 0.998482C109.4 1.02134 109.429 1.0501 109.448 1.08476V0.974147H109.55V1.58032H109.448V1.46749C109.428 1.50289 109.399 1.53239 109.359 1.55599C109.32 1.57885 109.274 1.59028 109.222 1.59028C109.168 1.59028 109.119 1.577 109.076 1.55046C109.032 1.52391 108.998 1.48667 108.973 1.43873C108.948 1.3908 108.935 1.33623 108.935 1.27502ZM109.448 1.27613C109.448 1.23041 109.439 1.19059 109.421 1.15666C109.402 1.12274 109.377 1.09693 109.345 1.07923C109.314 1.0608 109.28 1.05158 109.243 1.05158C109.205 1.05158 109.171 1.06043 109.14 1.07813C109.109 1.09582 109.084 1.12163 109.066 1.15556C109.047 1.18948 109.038 1.2293 109.038 1.27502C109.038 1.32148 109.047 1.36204 109.066 1.3967C109.084 1.43062 109.109 1.4568 109.14 1.47524C109.171 1.49294 109.205 1.50178 109.243 1.50178C109.28 1.50178 109.314 1.49294 109.345 1.47524C109.377 1.4568 109.402 1.43062 109.421 1.3967C109.439 1.36204 109.448 1.32185 109.448 1.27613ZM109.821 0.761764V1.58032H109.72V0.761764H109.821Z" fill="white"/>
<path d="M31.931 49.0308V49.2886H32.2119V49.3715H31.931V49.637H32.2451V49.72H31.8303V48.9479H32.2451V49.0308H31.931ZM33.1264 49.1027C33.1736 49.1027 33.2156 49.1127 33.2525 49.1326C33.2893 49.1518 33.3185 49.1809 33.3399 49.22C33.3612 49.2591 33.3719 49.3066 33.3719 49.3627V49.72H33.2724V49.3771C33.2724 49.3166 33.2573 49.2705 33.227 49.2388C33.1975 49.2063 33.1573 49.1901 33.1065 49.1901C33.0541 49.1901 33.0124 49.2071 32.9815 49.241C32.9505 49.2742 32.935 49.3225 32.935 49.3859V49.72H32.8355V49.3771C32.8355 49.3166 32.8203 49.2705 32.7901 49.2388C32.7606 49.2063 32.7204 49.1901 32.6695 49.1901C32.6172 49.1901 32.5755 49.2071 32.5445 49.241C32.5136 49.2742 32.4981 49.3225 32.4981 49.3859V49.72H32.3974V49.1138H32.4981V49.2012C32.518 49.1695 32.5445 49.1451 32.5777 49.1282C32.6116 49.1112 32.6489 49.1027 32.6894 49.1027C32.7403 49.1027 32.7853 49.1142 32.8244 49.137C32.8635 49.1599 32.8926 49.1934 32.9118 49.2377C32.9287 49.1949 32.9568 49.1617 32.9958 49.1381C33.0349 49.1145 33.0784 49.1027 33.1264 49.1027ZM34.0901 49.3937C34.0901 49.4128 34.089 49.4331 34.0868 49.4545H33.6023C33.606 49.5142 33.6263 49.5611 33.6632 49.595C33.7008 49.6282 33.7461 49.6448 33.7992 49.6448C33.8427 49.6448 33.8789 49.6348 33.9076 49.6149C33.9371 49.5942 33.9578 49.567 33.9696 49.533H34.078C34.0617 49.5913 34.0293 49.6389 33.9806 49.6757C33.932 49.7119 33.8715 49.7299 33.7992 49.7299C33.7417 49.7299 33.6901 49.717 33.6444 49.6912C33.5994 49.6654 33.564 49.6289 33.5382 49.5817C33.5124 49.5338 33.4995 49.4785 33.4995 49.4158C33.4995 49.3531 33.512 49.2982 33.5371 49.251C33.5621 49.2038 33.5972 49.1676 33.6421 49.1426C33.6879 49.1167 33.7402 49.1038 33.7992 49.1038C33.8567 49.1038 33.9076 49.1164 33.9519 49.1414C33.9961 49.1665 34.03 49.2012 34.0536 49.2454C34.078 49.2889 34.0901 49.3383 34.0901 49.3937ZM33.9862 49.3726C33.9862 49.3343 33.9777 49.3015 33.9607 49.2742C33.9438 49.2462 33.9205 49.2251 33.891 49.2111C33.8623 49.1964 33.8302 49.189 33.7948 49.189C33.7439 49.189 33.7004 49.2052 33.6643 49.2377C33.6289 49.2701 33.6086 49.3151 33.6034 49.3726H33.9862ZM34.3237 49.2122C34.3414 49.1776 34.3664 49.1507 34.3989 49.1315C34.4321 49.1123 34.4723 49.1027 34.5195 49.1027V49.2067H34.4929C34.3801 49.2067 34.3237 49.2679 34.3237 49.3903V49.72H34.223V49.1138H34.3237V49.2122ZM34.8857 49.1038C34.938 49.1038 34.9837 49.1153 35.0228 49.1381C35.0626 49.161 35.0921 49.1898 35.1113 49.2244V49.1138H35.2131V49.7332C35.2131 49.7886 35.2013 49.8376 35.1777 49.8804C35.1541 49.9239 35.1202 49.9578 35.0759 49.9821C35.0324 50.0065 34.9815 50.0186 34.9233 50.0186C34.8436 50.0186 34.7772 49.9998 34.7242 49.9622C34.6711 49.9246 34.6397 49.8734 34.6301 49.8085H34.7297C34.7407 49.8453 34.7636 49.8748 34.7983 49.897C34.8329 49.9198 34.8746 49.9312 34.9233 49.9312C34.9786 49.9312 35.0236 49.9139 35.0582 49.8793C35.0936 49.8446 35.1113 49.7959 35.1113 49.7332V49.606C35.0914 49.6414 35.0619 49.6709 35.0228 49.6945C34.9837 49.7181 34.938 49.7299 34.8857 49.7299C34.8318 49.7299 34.7828 49.7167 34.7385 49.6901C34.695 49.6636 34.6607 49.6263 34.6357 49.5784C34.6106 49.5304 34.598 49.4759 34.598 49.4147C34.598 49.3527 34.6106 49.2985 34.6357 49.2521C34.6607 49.2049 34.695 49.1684 34.7385 49.1426C34.7828 49.1167 34.8318 49.1038 34.8857 49.1038ZM35.1113 49.4158C35.1113 49.3701 35.1021 49.3302 35.0837 49.2963C35.0652 49.2624 35.0401 49.2366 35.0084 49.2189C34.9775 49.2004 34.9432 49.1912 34.9056 49.1912C34.868 49.1912 34.8337 49.2001 34.8027 49.2178C34.7717 49.2355 34.747 49.2613 34.7286 49.2952C34.7101 49.3291 34.7009 49.3689 34.7009 49.4147C34.7009 49.4611 34.7101 49.5017 34.7286 49.5363C34.747 49.5703 34.7717 49.5964 34.8027 49.6149C34.8337 49.6326 34.868 49.6414 34.9056 49.6414C34.9432 49.6414 34.9775 49.6326 35.0084 49.6149C35.0401 49.5964 35.0652 49.5703 35.0837 49.5363C35.1021 49.5017 35.1113 49.4615 35.1113 49.4158ZM35.4352 49.0153C35.416 49.0153 35.3998 49.0087 35.3865 48.9954C35.3732 48.9822 35.3666 48.9659 35.3666 48.9468C35.3666 48.9276 35.3732 48.9114 35.3865 48.8981C35.3998 48.8848 35.416 48.8782 35.4352 48.8782C35.4536 48.8782 35.4691 48.8848 35.4816 48.8981C35.4949 48.9114 35.5015 48.9276 35.5015 48.9468C35.5015 48.9659 35.4949 48.9822 35.4816 48.9954C35.4691 49.0087 35.4536 49.0153 35.4352 49.0153ZM35.4838 49.1138V49.72H35.3832V49.1138H35.4838ZM35.9507 49.1027C36.0245 49.1027 36.0842 49.1252 36.1299 49.1702C36.1757 49.2145 36.1985 49.2786 36.1985 49.3627V49.72H36.099V49.3771C36.099 49.3166 36.0839 49.2705 36.0536 49.2388C36.0234 49.2063 35.9821 49.1901 35.9297 49.1901C35.8766 49.1901 35.8342 49.2067 35.8025 49.2399C35.7715 49.2731 35.7561 49.3214 35.7561 49.3848V49.72H35.6554V49.1138H35.7561V49.2001C35.776 49.1691 35.8029 49.1451 35.8368 49.1282C35.8715 49.1112 35.9094 49.1027 35.9507 49.1027ZM36.6129 49.1038C36.6653 49.1038 36.711 49.1153 36.7501 49.1381C36.7899 49.161 36.8194 49.1898 36.8386 49.2244V49.1138H36.9404V49.7332C36.9404 49.7886 36.9286 49.8376 36.905 49.8804C36.8814 49.9239 36.8475 49.9578 36.8032 49.9821C36.7597 50.0065 36.7088 50.0186 36.6506 50.0186C36.5709 50.0186 36.5045 49.9998 36.4514 49.9622C36.3983 49.9246 36.367 49.8734 36.3574 49.8085H36.457C36.468 49.8453 36.4909 49.8748 36.5256 49.897C36.5602 49.9198 36.6019 49.9312 36.6506 49.9312C36.7059 49.9312 36.7508 49.9139 36.7855 49.8793C36.8209 49.8446 36.8386 49.7959 36.8386 49.7332V49.606C36.8187 49.6414 36.7892 49.6709 36.7501 49.6945C36.711 49.7181 36.6653 49.7299 36.6129 49.7299C36.5591 49.7299 36.5101 49.7167 36.4658 49.6901C36.4223 49.6636 36.388 49.6263 36.363 49.5784C36.3379 49.5304 36.3253 49.4759 36.3253 49.4147C36.3253 49.3527 36.3379 49.2985 36.363 49.2521C36.388 49.2049 36.4223 49.1684 36.4658 49.1426C36.5101 49.1167 36.5591 49.1038 36.6129 49.1038ZM36.8386 49.4158C36.8386 49.3701 36.8294 49.3302 36.8109 49.2963C36.7925 49.2624 36.7674 49.2366 36.7357 49.2189C36.7048 49.2004 36.6705 49.1912 36.6329 49.1912C36.5952 49.1912 36.561 49.2001 36.53 49.2178C36.499 49.2355 36.4743 49.2613 36.4559 49.2952C36.4374 49.3291 36.4282 49.3689 36.4282 49.4147C36.4282 49.4611 36.4374 49.5017 36.4559 49.5363C36.4743 49.5703 36.499 49.5964 36.53 49.6149C36.561 49.6326 36.5952 49.6414 36.6329 49.6414C36.6705 49.6414 36.7048 49.6326 36.7357 49.6149C36.7674 49.5964 36.7925 49.5703 36.8109 49.5363C36.8294 49.5017 36.8386 49.4615 36.8386 49.4158ZM37.8799 48.949V49.0308H37.6698V49.72H37.5691V49.0308H37.3578V48.949H37.8799ZM38.1045 49.2122C38.1222 49.1776 38.1473 49.1507 38.1797 49.1315C38.2129 49.1123 38.2531 49.1027 38.3003 49.1027V49.2067H38.2737C38.1609 49.2067 38.1045 49.2679 38.1045 49.3903V49.72H38.0038V49.1138H38.1045V49.2122ZM38.9696 49.3937C38.9696 49.4128 38.9685 49.4331 38.9662 49.4545H38.4817C38.4854 49.5142 38.5057 49.5611 38.5426 49.595C38.5802 49.6282 38.6255 49.6448 38.6786 49.6448C38.7221 49.6448 38.7583 49.6348 38.787 49.6149C38.8165 49.5942 38.8372 49.567 38.849 49.533H38.9574C38.9412 49.5913 38.9087 49.6389 38.86 49.6757C38.8114 49.7119 38.7509 49.7299 38.6786 49.7299C38.6211 49.7299 38.5695 49.717 38.5238 49.6912C38.4788 49.6654 38.4434 49.6289 38.4176 49.5817C38.3918 49.5338 38.3789 49.4785 38.3789 49.4158C38.3789 49.3531 38.3914 49.2982 38.4165 49.251C38.4415 49.2038 38.4766 49.1676 38.5216 49.1426C38.5673 49.1167 38.6196 49.1038 38.6786 49.1038C38.7362 49.1038 38.787 49.1164 38.8313 49.1414C38.8755 49.1665 38.9095 49.2012 38.9331 49.2454C38.9574 49.2889 38.9696 49.3383 38.9696 49.3937ZM38.8656 49.3726C38.8656 49.3343 38.8571 49.3015 38.8401 49.2742C38.8232 49.2462 38.7999 49.2251 38.7704 49.2111C38.7417 49.1964 38.7096 49.189 38.6742 49.189C38.6233 49.189 38.5798 49.2052 38.5437 49.2377C38.5083 49.2701 38.488 49.3151 38.4828 49.3726H38.8656ZM39.3978 49.1027C39.4715 49.1027 39.5312 49.1252 39.577 49.1702C39.6227 49.2145 39.6456 49.2786 39.6456 49.3627V49.72H39.546V49.3771C39.546 49.3166 39.5309 49.2705 39.5006 49.2388C39.4704 49.2063 39.4291 49.1901 39.3768 49.1901C39.3237 49.1901 39.2813 49.2067 39.2495 49.2399C39.2186 49.2731 39.2031 49.3214 39.2031 49.3848V49.72H39.1024V49.1138H39.2031V49.2001C39.223 49.1691 39.2499 49.1451 39.2838 49.1282C39.3185 49.1112 39.3565 49.1027 39.3978 49.1027ZM39.7724 49.4147C39.7724 49.3527 39.7849 49.2985 39.81 49.2521C39.8351 49.2049 39.8693 49.1684 39.9129 49.1426C39.9571 49.1167 40.0065 49.1038 40.0611 49.1038C40.1083 49.1038 40.1522 49.1149 40.1927 49.137C40.2333 49.1584 40.2642 49.1868 40.2856 49.2222V48.9014H40.3874V49.72H40.2856V49.606C40.2657 49.6422 40.2362 49.672 40.1971 49.6956C40.1581 49.7185 40.1123 49.7299 40.06 49.7299C40.0061 49.7299 39.9571 49.7167 39.9129 49.6901C39.8693 49.6636 39.8351 49.6263 39.81 49.5784C39.7849 49.5304 39.7724 49.4759 39.7724 49.4147ZM40.2856 49.4158C40.2856 49.3701 40.2764 49.3302 40.258 49.2963C40.2395 49.2624 40.2145 49.2366 40.1828 49.2189C40.1518 49.2004 40.1175 49.1912 40.0799 49.1912C40.0423 49.1912 40.008 49.2001 39.977 49.2178C39.946 49.2355 39.9213 49.2613 39.9029 49.2952C39.8845 49.3291 39.8752 49.3689 39.8752 49.4147C39.8752 49.4611 39.8845 49.5017 39.9029 49.5363C39.9213 49.5703 39.946 49.5964 39.977 49.6149C40.008 49.6326 40.0423 49.6414 40.0799 49.6414C40.1175 49.6414 40.1518 49.6326 40.1828 49.6149C40.2145 49.5964 40.2395 49.5703 40.258 49.5363C40.2764 49.5017 40.2856 49.4615 40.2856 49.4158ZM40.7721 49.7299C40.7256 49.7299 40.684 49.7222 40.6471 49.7067C40.6102 49.6905 40.5811 49.6683 40.5597 49.6403C40.5383 49.6116 40.5265 49.5788 40.5243 49.5419H40.6283C40.6312 49.5721 40.6453 49.5968 40.6703 49.616C40.6961 49.6352 40.7297 49.6448 40.771 49.6448C40.8093 49.6448 40.8396 49.6363 40.8617 49.6193C40.8838 49.6023 40.8949 49.581 40.8949 49.5552C40.8949 49.5286 40.8831 49.5091 40.8595 49.4965C40.8359 49.4833 40.7994 49.4703 40.75 49.4578C40.705 49.446 40.6681 49.4342 40.6394 49.4224C40.6113 49.4099 40.587 49.3918 40.5663 49.3682C40.5464 49.3439 40.5365 49.3122 40.5365 49.2731C40.5365 49.2421 40.5457 49.2137 40.5641 49.1879C40.5826 49.1621 40.6088 49.1418 40.6427 49.1271C40.6766 49.1116 40.7153 49.1038 40.7588 49.1038C40.8259 49.1038 40.8801 49.1208 40.9214 49.1547C40.9627 49.1886 40.9848 49.2351 40.9878 49.2941H40.8871C40.8849 49.2624 40.872 49.2369 40.8484 49.2178C40.8256 49.1986 40.7946 49.189 40.7555 49.189C40.7194 49.189 40.6906 49.1968 40.6692 49.2122C40.6478 49.2277 40.6371 49.248 40.6371 49.2731C40.6371 49.293 40.6434 49.3096 40.6559 49.3229C40.6692 49.3354 40.6854 49.3457 40.7046 49.3538C40.7245 49.3612 40.7518 49.3697 40.7865 49.3793C40.83 49.3911 40.8654 49.4029 40.8927 49.4147C40.92 49.4257 40.9432 49.4427 40.9624 49.4656C40.9823 49.4884 40.9926 49.5183 40.9933 49.5552C40.9933 49.5883 40.9841 49.6182 40.9657 49.6448C40.9472 49.6713 40.9211 49.6923 40.8871 49.7078C40.854 49.7226 40.8156 49.7299 40.7721 49.7299Z" fill="white"/>
<path d="M79.9012 48.9545V49.72H79.8005V49.1492L79.5461 49.72H79.4753L79.2198 49.1481V49.72H79.1191V48.9545H79.2275L79.5107 49.5872L79.7939 48.9545H79.9012ZM80.0343 49.4147C80.0343 49.3527 80.0468 49.2985 80.0719 49.2521C80.097 49.2049 80.1313 49.1684 80.1748 49.1426C80.219 49.1167 80.268 49.1038 80.3219 49.1038C80.375 49.1038 80.4211 49.1153 80.4602 49.1381C80.4992 49.161 80.5284 49.1898 80.5475 49.2244V49.1138H80.6493V49.72H80.5475V49.6071C80.5276 49.6425 80.4978 49.672 80.4579 49.6956C80.4189 49.7185 80.3731 49.7299 80.3208 49.7299C80.2669 49.7299 80.2183 49.7167 80.1748 49.6901C80.1313 49.6636 80.097 49.6263 80.0719 49.5784C80.0468 49.5304 80.0343 49.4759 80.0343 49.4147ZM80.5475 49.4158C80.5475 49.3701 80.5383 49.3302 80.5199 49.2963C80.5014 49.2624 80.4764 49.2366 80.4447 49.2189C80.4137 49.2004 80.3794 49.1912 80.3418 49.1912C80.3042 49.1912 80.2699 49.2001 80.2389 49.2178C80.2079 49.2355 80.1832 49.2613 80.1648 49.2952C80.1464 49.3291 80.1372 49.3689 80.1372 49.4147C80.1372 49.4611 80.1464 49.5017 80.1648 49.5363C80.1832 49.5703 80.2079 49.5964 80.2389 49.6149C80.2699 49.6326 80.3042 49.6414 80.3418 49.6414C80.3794 49.6414 80.4137 49.6326 80.4447 49.6149C80.4764 49.5964 80.5014 49.5703 80.5199 49.5363C80.5383 49.5017 80.5475 49.4615 80.5475 49.4158ZM80.7818 49.4158C80.7818 49.3531 80.7943 49.2985 80.8194 49.2521C80.8445 49.2049 80.8791 49.1684 80.9234 49.1426C80.9684 49.1167 81.0196 49.1038 81.0771 49.1038C81.1516 49.1038 81.2128 49.1219 81.2608 49.158C81.3094 49.1942 81.3415 49.2443 81.357 49.3085H81.2486C81.2383 49.2716 81.218 49.2425 81.1878 49.2211C81.1583 49.1997 81.1214 49.189 81.0771 49.189C81.0196 49.189 80.9732 49.2089 80.9378 49.2487C80.9024 49.2878 80.8847 49.3435 80.8847 49.4158C80.8847 49.4888 80.9024 49.5452 80.9378 49.585C80.9732 49.6248 81.0196 49.6448 81.0771 49.6448C81.1214 49.6448 81.1583 49.6344 81.1878 49.6138C81.2173 49.5931 81.2375 49.5636 81.2486 49.5253H81.357C81.3408 49.5872 81.3083 49.637 81.2597 49.6746C81.211 49.7115 81.1502 49.7299 81.0771 49.7299C81.0196 49.7299 80.9684 49.717 80.9234 49.6912C80.8791 49.6654 80.8445 49.6289 80.8194 49.5817C80.7943 49.5345 80.7818 49.4792 80.7818 49.4158ZM81.592 49.2122C81.6097 49.1776 81.6347 49.1507 81.6672 49.1315C81.7004 49.1123 81.7406 49.1027 81.7878 49.1027V49.2067H81.7612C81.6484 49.2067 81.592 49.2679 81.592 49.3903V49.72H81.4913V49.1138H81.592V49.2122ZM82.1683 49.7299C82.1116 49.7299 82.0599 49.717 82.0135 49.6912C81.9678 49.6654 81.9316 49.6289 81.9051 49.5817C81.8793 49.5338 81.8664 49.4785 81.8664 49.4158C81.8664 49.3538 81.8796 49.2993 81.9062 49.2521C81.9335 49.2041 81.9703 49.1676 82.0168 49.1426C82.0633 49.1167 82.1152 49.1038 82.1728 49.1038C82.2303 49.1038 82.2823 49.1167 82.3287 49.1426C82.3752 49.1676 82.4117 49.2038 82.4382 49.251C82.4655 49.2982 82.4792 49.3531 82.4792 49.4158C82.4792 49.4785 82.4652 49.5338 82.4371 49.5817C82.4098 49.6289 82.3726 49.6654 82.3254 49.6912C82.2782 49.717 82.2259 49.7299 82.1683 49.7299ZM82.1683 49.6414C82.2045 49.6414 82.2384 49.633 82.2701 49.616C82.3018 49.599 82.3273 49.5736 82.3464 49.5397C82.3663 49.5057 82.3763 49.4644 82.3763 49.4158C82.3763 49.3671 82.3667 49.3258 82.3475 49.2919C82.3284 49.258 82.3033 49.2329 82.2723 49.2167C82.2413 49.1997 82.2078 49.1912 82.1717 49.1912C82.1348 49.1912 82.1009 49.1997 82.0699 49.2167C82.0397 49.2329 82.0153 49.258 81.9969 49.2919C81.9784 49.3258 81.9692 49.3671 81.9692 49.4158C81.9692 49.4652 81.9781 49.5069 81.9958 49.5408C82.0142 49.5747 82.0385 49.6001 82.0688 49.6171C82.099 49.6333 82.1322 49.6414 82.1683 49.6414ZM82.7343 49.1968V49.554C82.7343 49.5835 82.7406 49.6046 82.7531 49.6171C82.7656 49.6289 82.7874 49.6348 82.8184 49.6348H82.8925V49.72H82.8018C82.7457 49.72 82.7037 49.7071 82.6757 49.6813C82.6477 49.6554 82.6336 49.613 82.6336 49.554V49.1968H82.5551V49.1138H82.6336V48.9611H82.7343V49.1138H82.8925V49.1968H82.7343ZM83.1151 49.2122C83.1328 49.1776 83.1579 49.1507 83.1903 49.1315C83.2235 49.1123 83.2637 49.1027 83.3109 49.1027V49.2067H83.2843C83.1715 49.2067 83.1151 49.2679 83.1151 49.3903V49.72H83.0144V49.1138H83.1151V49.2122ZM83.9802 49.3937C83.9802 49.4128 83.9791 49.4331 83.9769 49.4545H83.4924C83.496 49.5142 83.5163 49.5611 83.5532 49.595C83.5908 49.6282 83.6362 49.6448 83.6893 49.6448C83.7328 49.6448 83.7689 49.6348 83.7977 49.6149C83.8272 49.5942 83.8478 49.567 83.8596 49.533H83.968C83.9518 49.5913 83.9193 49.6389 83.8707 49.6757C83.822 49.7119 83.7615 49.7299 83.6893 49.7299C83.6317 49.7299 83.5801 49.717 83.5344 49.6912C83.4894 49.6654 83.454 49.6289 83.4282 49.5817C83.4024 49.5338 83.3895 49.4785 83.3895 49.4158C83.3895 49.3531 83.402 49.2982 83.4271 49.251C83.4522 49.2038 83.4872 49.1676 83.5322 49.1426C83.5779 49.1167 83.6303 49.1038 83.6893 49.1038C83.7468 49.1038 83.7977 49.1164 83.8419 49.1414C83.8862 49.1665 83.9201 49.2012 83.9437 49.2454C83.968 49.2889 83.9802 49.3383 83.9802 49.3937ZM83.8762 49.3726C83.8762 49.3343 83.8677 49.3015 83.8508 49.2742C83.8338 49.2462 83.8106 49.2251 83.7811 49.2111C83.7523 49.1964 83.7202 49.189 83.6848 49.189C83.6339 49.189 83.5904 49.2052 83.5543 49.2377C83.5189 49.2701 83.4986 49.3151 83.4935 49.3726H83.8762ZM84.4084 49.1027C84.4821 49.1027 84.5419 49.1252 84.5876 49.1702C84.6333 49.2145 84.6562 49.2786 84.6562 49.3627V49.72H84.5566V49.3771C84.5566 49.3166 84.5415 49.2705 84.5113 49.2388C84.481 49.2063 84.4397 49.1901 84.3874 49.1901C84.3343 49.1901 84.2919 49.2067 84.2602 49.2399C84.2292 49.2731 84.2137 49.3214 84.2137 49.3848V49.72H84.113V49.1138H84.2137V49.2001C84.2336 49.1691 84.2605 49.1451 84.2945 49.1282C84.3291 49.1112 84.3671 49.1027 84.4084 49.1027ZM84.783 49.4147C84.783 49.3527 84.7955 49.2985 84.8206 49.2521C84.8457 49.2049 84.88 49.1684 84.9235 49.1426C84.9677 49.1167 85.0171 49.1038 85.0717 49.1038C85.1189 49.1038 85.1628 49.1149 85.2033 49.137C85.2439 49.1584 85.2749 49.1868 85.2962 49.2222V48.9014H85.398V49.72H85.2962V49.606C85.2763 49.6422 85.2468 49.672 85.2078 49.6956C85.1687 49.7185 85.1229 49.7299 85.0706 49.7299C85.0168 49.7299 84.9677 49.7167 84.9235 49.6901C84.88 49.6636 84.8457 49.6263 84.8206 49.5784C84.7955 49.5304 84.783 49.4759 84.783 49.4147ZM85.2962 49.4158C85.2962 49.3701 85.287 49.3302 85.2686 49.2963C85.2502 49.2624 85.2251 49.2366 85.1934 49.2189C85.1624 49.2004 85.1281 49.1912 85.0905 49.1912C85.0529 49.1912 85.0186 49.2001 84.9876 49.2178C84.9567 49.2355 84.9319 49.2613 84.9135 49.2952C84.8951 49.3291 84.8859 49.3689 84.8859 49.4147C84.8859 49.4611 84.8951 49.5017 84.9135 49.5363C84.9319 49.5703 84.9567 49.5964 84.9876 49.6149C85.0186 49.6326 85.0529 49.6414 85.0905 49.6414C85.1281 49.6414 85.1624 49.6326 85.1934 49.6149C85.2251 49.5964 85.2502 49.5703 85.2686 49.5363C85.287 49.5017 85.2962 49.4615 85.2962 49.4158Z" fill="white"/>
<path d="M105.116 49.0397V49.8052H105.015V49.2344L104.761 49.8052H104.69L104.435 49.2333V49.8052H104.334V49.0397H104.442L104.725 49.6724L105.009 49.0397H105.116ZM105.84 49.4789C105.84 49.498 105.839 49.5183 105.836 49.5397H105.352C105.356 49.5994 105.376 49.6463 105.413 49.6802C105.45 49.7134 105.496 49.73 105.549 49.73C105.592 49.73 105.628 49.72 105.657 49.7001C105.687 49.6794 105.707 49.6522 105.719 49.6182H105.828C105.811 49.6765 105.779 49.7241 105.73 49.7609C105.682 49.7971 105.621 49.8151 105.549 49.8151C105.491 49.8151 105.44 49.8022 105.394 49.7764C105.349 49.7506 105.314 49.7141 105.288 49.6669C105.262 49.619 105.249 49.5637 105.249 49.501C105.249 49.4383 105.262 49.3834 105.287 49.3362C105.312 49.289 105.347 49.2528 105.392 49.2278C105.437 49.202 105.49 49.189 105.549 49.189C105.606 49.189 105.657 49.2016 105.701 49.2267C105.746 49.2517 105.78 49.2864 105.803 49.3306C105.828 49.3741 105.84 49.4236 105.84 49.4789ZM105.736 49.4578C105.736 49.4195 105.727 49.3867 105.71 49.3594C105.693 49.3314 105.67 49.3104 105.641 49.2963C105.612 49.2816 105.58 49.2742 105.544 49.2742C105.493 49.2742 105.45 49.2904 105.414 49.3229C105.378 49.3553 105.358 49.4003 105.353 49.4578H105.736ZM106.223 49.189C106.275 49.189 106.321 49.2005 106.36 49.2233C106.4 49.2462 106.429 49.275 106.448 49.3096V49.199H106.55V49.8184C106.55 49.8738 106.538 49.9228 106.515 49.9656C106.491 50.0091 106.457 50.043 106.413 50.0673C106.369 50.0917 106.318 50.1038 106.26 50.1038C106.181 50.1038 106.114 50.085 106.061 50.0474C106.008 50.0098 105.977 49.9586 105.967 49.8937H106.067C106.078 49.9305 106.101 49.96 106.135 49.9822C106.17 50.005 106.211 50.0165 106.26 50.0165C106.315 50.0165 106.36 49.9991 106.395 49.9645C106.431 49.9298 106.448 49.8811 106.448 49.8184V49.6912C106.428 49.7266 106.399 49.7561 106.36 49.7797C106.321 49.8033 106.275 49.8151 106.223 49.8151C106.169 49.8151 106.12 49.8019 106.075 49.7753C106.032 49.7488 105.998 49.7115 105.973 49.6636C105.947 49.6157 105.935 49.5611 105.935 49.4999C105.935 49.4379 105.947 49.3837 105.973 49.3373C105.998 49.2901 106.032 49.2536 106.075 49.2278C106.12 49.202 106.169 49.189 106.223 49.189ZM106.448 49.501C106.448 49.4553 106.439 49.4154 106.421 49.3815C106.402 49.3476 106.377 49.3218 106.345 49.3041C106.314 49.2856 106.28 49.2764 106.242 49.2764C106.205 49.2764 106.171 49.2853 106.14 49.303C106.109 49.3207 106.084 49.3465 106.065 49.3804C106.047 49.4143 106.038 49.4542 106.038 49.4999C106.038 49.5463 106.047 49.5869 106.065 49.6216C106.084 49.6555 106.109 49.6817 106.14 49.7001C106.171 49.7178 106.205 49.7266 106.242 49.7266C106.28 49.7266 106.314 49.7178 106.345 49.7001C106.377 49.6817 106.402 49.6555 106.421 49.6216C106.439 49.5869 106.448 49.5467 106.448 49.501ZM106.682 49.4999C106.682 49.4379 106.695 49.3837 106.72 49.3373C106.745 49.2901 106.779 49.2536 106.823 49.2278C106.867 49.202 106.916 49.189 106.97 49.189C107.023 49.189 107.069 49.2005 107.108 49.2233C107.147 49.2462 107.177 49.275 107.196 49.3096V49.199H107.297V49.8052H107.196V49.6923C107.176 49.7277 107.146 49.7572 107.106 49.7808C107.067 49.8037 107.021 49.8151 106.969 49.8151C106.915 49.8151 106.866 49.8019 106.823 49.7753C106.779 49.7488 106.745 49.7115 106.72 49.6636C106.695 49.6157 106.682 49.5611 106.682 49.4999ZM107.196 49.501C107.196 49.4553 107.187 49.4154 107.168 49.3815C107.15 49.3476 107.125 49.3218 107.093 49.3041C107.062 49.2856 107.028 49.2764 106.99 49.2764C106.952 49.2764 106.918 49.2853 106.887 49.303C106.856 49.3207 106.831 49.3465 106.813 49.3804C106.795 49.4143 106.785 49.4542 106.785 49.4999C106.785 49.5463 106.795 49.5869 106.813 49.6216C106.831 49.6555 106.856 49.6817 106.887 49.7001C106.918 49.7178 106.952 49.7266 106.99 49.7266C107.028 49.7266 107.062 49.7178 107.093 49.7001C107.125 49.6817 107.15 49.6555 107.168 49.6216C107.187 49.5869 107.196 49.5467 107.196 49.501ZM107.59 49.282V49.6393C107.59 49.6687 107.597 49.6898 107.609 49.7023C107.622 49.7141 107.643 49.72 107.674 49.72H107.749V49.8052H107.658C107.602 49.8052 107.56 49.7923 107.532 49.7665C107.504 49.7406 107.49 49.6982 107.49 49.6393V49.282H107.411V49.199H107.49V49.0464H107.59V49.199H107.749V49.282H107.59ZM107.971 49.2974C107.989 49.2628 108.014 49.2359 108.046 49.2167C108.08 49.1975 108.12 49.1879 108.167 49.1879V49.2919H108.14C108.028 49.2919 107.971 49.3531 107.971 49.4755V49.8052H107.871V49.199H107.971V49.2974ZM108.836 49.4789C108.836 49.498 108.835 49.5183 108.833 49.5397H108.348C108.352 49.5994 108.372 49.6463 108.409 49.6802C108.447 49.7134 108.492 49.73 108.545 49.73C108.589 49.73 108.625 49.72 108.654 49.7001C108.683 49.6794 108.704 49.6522 108.716 49.6182H108.824C108.808 49.6765 108.775 49.7241 108.727 49.7609C108.678 49.7971 108.618 49.8151 108.545 49.8151C108.488 49.8151 108.436 49.8022 108.39 49.7764C108.345 49.7506 108.31 49.7141 108.284 49.6669C108.258 49.619 108.246 49.5637 108.246 49.501C108.246 49.4383 108.258 49.3834 108.283 49.3362C108.308 49.289 108.343 49.2528 108.388 49.2278C108.434 49.202 108.486 49.189 108.545 49.189C108.603 49.189 108.654 49.2016 108.698 49.2267C108.742 49.2517 108.776 49.2864 108.8 49.3306C108.824 49.3741 108.836 49.4236 108.836 49.4789ZM108.732 49.4578C108.732 49.4195 108.724 49.3867 108.707 49.3594C108.69 49.3314 108.667 49.3104 108.637 49.2963C108.608 49.2816 108.576 49.2742 108.541 49.2742C108.49 49.2742 108.447 49.2904 108.41 49.3229C108.375 49.3553 108.355 49.4003 108.35 49.4578H108.732ZM109.264 49.1879C109.338 49.1879 109.398 49.2104 109.444 49.2554C109.489 49.2997 109.512 49.3638 109.512 49.4479V49.8052H109.413V49.4623C109.413 49.4018 109.398 49.3557 109.367 49.324C109.337 49.2915 109.296 49.2753 109.243 49.2753C109.19 49.2753 109.148 49.2919 109.116 49.3251C109.085 49.3583 109.07 49.4066 109.07 49.47V49.8052H108.969V49.199H109.07V49.2853C109.09 49.2543 109.117 49.2303 109.151 49.2134C109.185 49.1964 109.223 49.1879 109.264 49.1879ZM109.639 49.4999C109.639 49.4379 109.652 49.3837 109.677 49.3373C109.702 49.2901 109.736 49.2536 109.78 49.2278C109.824 49.202 109.873 49.189 109.928 49.189C109.975 49.189 110.019 49.2001 110.059 49.2222C110.1 49.2436 110.131 49.272 110.152 49.3074V48.9866H110.254V49.8052H110.152V49.6912C110.132 49.7274 110.103 49.7572 110.064 49.7808C110.025 49.8037 109.979 49.8151 109.927 49.8151C109.873 49.8151 109.824 49.8019 109.78 49.7753C109.736 49.7488 109.702 49.7115 109.677 49.6636C109.652 49.6157 109.639 49.5611 109.639 49.4999ZM110.152 49.501C110.152 49.4553 110.143 49.4154 110.125 49.3815C110.106 49.3476 110.081 49.3218 110.049 49.3041C110.018 49.2856 109.984 49.2764 109.947 49.2764C109.909 49.2764 109.875 49.2853 109.844 49.303C109.813 49.3207 109.788 49.3465 109.77 49.3804C109.751 49.4143 109.742 49.4542 109.742 49.4999C109.742 49.5463 109.751 49.5869 109.77 49.6216C109.788 49.6555 109.813 49.6817 109.844 49.7001C109.875 49.7178 109.909 49.7266 109.947 49.7266C109.984 49.7266 110.018 49.7178 110.049 49.7001C110.081 49.6817 110.106 49.6555 110.125 49.6216C110.143 49.5869 110.152 49.5467 110.152 49.501Z" fill="white"/>
</svg>
