<svg width="20" height="20" viewBox="0 0 20 20" fill="none" xmlns="http://www.w3.org/2000/svg">
<path d="M4.76 15.24C5 15.48 5.28 15.6 5.6 15.6H16.8C17.12 15.6 17.4 15.48 17.64 15.24C17.88 15 18 14.72 18 14.4V3.2C18 2.88 17.88 2.6 17.64 2.36C17.4 2.12 17.12 2 16.8 2H5.6C5.28 2 5 2.12 4.76 2.36C4.52 2.6 4.4 2.88 4.4 3.2V14.4C4.4 14.72 4.52 15 4.76 15.24Z" fill="#454545"/>
<path d="M2.36 17.64C2.6 17.88 2.88 18 3.2 18H15.6V16.8H3.2V4.4H2V16.8C2 17.12 2.12 17.4 2.36 17.64Z" fill="#454545"/>
<path d="M8 8.88235L10.4231 11L15 7" stroke="white" stroke-linecap="round"/>
</svg>
