<svg width="22" height="20" viewBox="0 0 22 20" fill="none" xmlns="http://www.w3.org/2000/svg">
<g clip-path="url(#clip0_624_234)">
<path fill-rule="evenodd" clip-rule="evenodd" d="M15.2585 17.9781C14.8501 17.7832 14.4368 17.5963 14.0344 17.3914C13.5512 17.1455 13.3843 16.7739 13.5136 16.2843C13.6517 15.7615 13.5066 15.5669 12.9269 15.4974C12.5292 15.4498 12.1954 15.2076 12.1627 14.8177C12.1153 14.2532 12.1117 13.6793 12.1678 13.1159C12.21 12.6921 12.5366 12.4751 13.0106 12.4167C13.5128 12.3547 13.6542 12.1535 13.5236 11.6865C13.3754 11.1566 13.5449 10.7976 14.0747 10.5291C14.3417 10.3938 14.6108 10.2621 14.8805 10.1316C15.379 9.89032 15.7654 9.92883 16.1993 10.26C16.6751 10.6232 16.6925 10.6232 17.1621 10.2582C17.5598 9.94897 17.951 9.90284 18.4093 10.1218C18.7031 10.2621 18.9934 10.4091 19.2802 10.5611C19.7637 10.8174 19.9217 11.1735 19.7829 11.6714C19.6452 12.1657 19.776 12.3493 20.316 12.4198C20.7683 12.4788 21.0994 12.7113 21.1425 13.1404C21.198 13.6916 21.1983 14.2548 21.1413 14.8059C21.0963 15.2429 20.8 15.4385 20.314 15.5024C19.82 15.5675 19.6467 15.803 19.7693 16.2425C19.927 16.8075 19.7735 17.1381 19.2113 17.4194C18.8295 17.6103 18.4423 17.7922 18.0575 17.978C17.9242 17.978 17.7909 17.978 17.6576 17.978C17.4238 17.8273 17.1763 17.6913 16.9598 17.522C16.722 17.3363 16.5273 17.3588 16.2892 17.5231C16.0415 17.694 15.7632 17.8279 15.4984 17.978C15.4185 17.9781 15.3385 17.9781 15.2585 17.9781ZM17.8921 17.0268C18.1063 16.92 18.3214 16.7998 18.5485 16.7032C18.7521 16.6166 18.8018 16.5109 18.7476 16.3024C18.5677 15.6089 18.9842 14.8848 19.7451 14.6959C20.1722 14.5899 20.259 14.3967 20.2276 14.0605C20.2174 13.9515 20.2107 13.8407 20.2209 13.7322C20.2449 13.4749 20.1467 13.3498 19.848 13.2838C19.0798 13.114 18.5651 12.3704 18.723 11.6987C18.7664 11.5139 18.8548 11.33 18.5803 11.2557C18.2662 11.1706 18.0434 10.7559 17.6048 11.1031C16.9718 11.6041 16.3944 11.5824 15.7331 11.1159C15.639 11.0495 15.5507 10.9762 15.4476 10.8967C15.1324 11.0544 14.8208 11.2101 14.5095 11.3658C14.5271 11.472 14.5366 11.5559 14.5554 11.6379C14.7126 12.3264 14.3354 13.0544 13.5945 13.2293C13.0683 13.3535 13.056 13.6356 13.0653 13.9909C13.0704 14.1834 13.1049 14.3751 13.1271 14.5759C13.6466 14.6561 14.0734 14.8485 14.3573 15.2566C14.6468 15.6725 14.6473 16.1194 14.4996 16.5691C14.8167 16.7315 15.0942 16.8736 15.3695 17.0145C16.3965 16.2567 16.8182 16.2112 17.8921 17.0268Z" fill="#454545"/>
<path fill-rule="evenodd" clip-rule="evenodd" d="M2.78296 16.5869C2.91579 16.0212 2.99632 15.4399 3.19049 14.8923C4.02364 12.543 5.63867 10.8576 8.24238 10.0508C8.72677 9.90073 9.14766 10.2215 9.00915 10.6474C8.95893 10.8019 8.76492 10.9733 8.59402 11.0307C6.10106 11.8677 4.6874 13.5439 4.09985 15.857C3.99533 16.2684 3.98285 16.7009 3.94727 17.125C3.92344 17.4093 3.87345 17.668 3.52294 17.753C3.16178 17.8406 2.94898 17.6515 2.78296 17.3923C2.78296 17.1239 2.78296 16.8554 2.78296 16.5869Z" fill="#454545"/>
<path fill-rule="evenodd" clip-rule="evenodd" d="M16.5586 6.0743C16.5416 8.27548 14.5762 10.0665 12.1797 10.0647C9.75898 10.063 7.7928 8.22803 7.81215 5.98892C7.83119 3.79704 9.83 1.99513 12.2124 2.02215C14.6466 2.04975 16.5758 3.84829 16.5586 6.0743ZM12.1901 8.98499C13.9787 8.98331 15.4167 7.67433 15.4187 6.04589C15.4208 4.41737 13.9873 3.10422 12.1999 3.09719C10.3998 3.09008 8.93999 4.41671 8.94543 6.05475C8.95079 7.67506 10.4031 8.98668 12.1901 8.98499Z" fill="#454545"/>
<path fill-rule="evenodd" clip-rule="evenodd" d="M14.9321 13.9499C14.9365 13.083 15.6816 12.4095 16.6355 12.4103C17.5846 12.411 18.332 13.0926 18.3355 13.9606C18.3391 14.8406 17.5664 15.5383 16.6056 15.5226C15.6496 15.507 14.9278 14.8286 14.9321 13.9499ZM16.6434 13.3203C16.2778 13.3133 15.9227 13.63 15.9209 13.9645C15.9192 14.2913 16.2348 14.591 16.5984 14.6077C16.9686 14.6246 17.3214 14.3266 17.3349 13.9852C17.3486 13.6407 17.0227 13.3274 16.6434 13.3203Z" fill="#454545"/>
</g>
<defs>
<clipPath id="clip0_624_234">
<rect width="21" height="19" fill="white" transform="translate(0.759766 0.5)"/>
</clipPath>
</defs>
</svg>
