<svg width="26" height="22" viewBox="0 0 26 22" fill="none" xmlns="http://www.w3.org/2000/svg">
<g clip-path="url(#clip0_624_262)">
<path fill-rule="evenodd" clip-rule="evenodd" d="M13.9265 3C14.1221 3.0183 14.318 3.03504 14.5133 3.05543C16.0137 3.21302 17.4016 3.69799 18.6615 4.52568C20.6423 5.82683 21.9724 7.61887 22.636 9.89623C22.9575 10.9986 23.0614 12.1253 22.966 13.2708C22.8592 14.5526 22.495 15.7578 21.9049 16.8974C21.7921 17.1153 21.5463 17.1951 21.3366 17.0857C21.1252 16.9753 21.0556 16.7386 21.1719 16.5135C21.6372 15.6121 21.9232 14.6556 22.047 13.6501C22.5025 9.95149 20.5733 6.41639 17.2144 4.79971C16.2352 4.32834 15.2018 4.04733 14.1162 3.98684C11.2883 3.82943 8.91557 4.80407 7.02974 6.91338C5.88966 8.18838 5.20109 9.69384 4.99103 11.3933C4.63506 14.2721 5.49534 16.7487 7.56665 18.7787C8.8305 20.0173 10.36 20.7738 12.1104 21.051C14.4774 21.4258 16.6356 20.896 18.5816 19.5007C18.7172 19.4035 18.8489 19.3313 19.0185 19.3806C19.182 19.4281 19.2855 19.536 19.3176 19.7028C19.35 19.87 19.2951 20.0047 19.1553 20.1084C17.9143 21.0278 16.5363 21.6277 15.011 21.878C13.8182 22.0738 12.6295 22.0399 11.4495 21.7762C9.50042 21.3404 7.84714 20.3853 6.49718 18.9164C5.28668 17.5992 4.50693 16.0575 4.17572 14.2975C4.0971 13.8799 4.06833 13.4529 4.01639 13.0304C4.0122 12.9957 4.00558 12.9614 4 12.927C4 12.6427 4 12.3584 4 12.0739C4.01203 11.9461 4.02545 11.8183 4.03591 11.6902C4.11192 10.7572 4.32023 9.85439 4.67254 8.98766C5.52969 6.87834 6.95687 5.26864 8.94625 4.16343C10.0455 3.55278 11.2264 3.18914 12.4773 3.05648C12.6759 3.03539 12.8748 3.01883 13.0737 3C13.3578 3 13.642 3 13.9265 3Z" fill="#454545"/>
<path fill-rule="evenodd" clip-rule="evenodd" d="M13.5368 13.037C13.4664 13.0186 13.3951 13.0085 13.3307 12.9816C11.4977 12.216 9.66541 11.4488 7.83327 10.6814C7.62704 10.595 7.50694 10.4274 7.5153 10.2284C7.52419 10.0132 7.63541 9.86768 7.83414 9.7847C9.66384 9.01959 11.4934 8.25414 13.3224 7.48764C13.4651 7.42785 13.603 7.42837 13.7446 7.48764C15.5711 8.25205 17.3979 9.01611 19.2246 9.7793C19.4258 9.86332 19.5462 10.007 19.5476 10.2284C19.549 10.4543 19.4268 10.5998 19.2222 10.6856C17.3989 11.4495 15.576 12.2146 13.7526 12.9774C13.6853 13.0055 13.611 13.017 13.5368 13.037ZM9.2364 10.2289C9.25331 10.2432 9.2554 10.2461 9.25819 10.2472C10.6655 10.8364 12.0726 11.4258 13.4808 12.0126C13.5139 12.0263 13.5636 12.023 13.5976 12.0087C14.9819 11.4314 16.3653 10.8521 17.7488 10.2726C17.7728 10.2625 17.7953 10.2487 17.8302 10.2306C17.795 10.2142 17.7753 10.2043 17.7547 10.1958C16.3709 9.617 14.9875 9.0379 13.6027 8.46193C13.5619 8.44503 13.5014 8.44694 13.4599 8.4642C12.3041 8.94429 11.1498 9.42734 9.99505 9.91021C9.74612 10.0146 9.49736 10.1194 9.2364 10.2289Z" fill="#454545"/>
<path fill-rule="evenodd" clip-rule="evenodd" d="M19.5545 12.3693C19.543 12.5959 19.4345 12.7425 19.2369 12.8252C18.636 13.0767 18.0349 13.3281 17.4338 13.5795C16.2167 14.0883 14.9992 14.5959 13.7832 15.1072C13.6113 15.1796 13.4532 15.1782 13.2797 15.1053C11.469 14.344 9.65641 13.5875 7.84432 12.8295C7.59033 12.7234 7.46969 12.5044 7.52949 12.2586C7.58231 12.0411 7.79428 11.8822 8.02038 11.9026C8.09883 11.9098 8.17762 11.9382 8.25119 11.9689C9.9803 12.6909 11.7091 13.4142 13.437 14.1397C13.5091 14.1701 13.5673 14.168 13.6379 14.1383C15.3777 13.4084 17.1185 12.6805 18.8591 11.9521C19.1596 11.8263 19.4586 11.9596 19.5372 12.2551C19.548 12.2952 19.5499 12.3378 19.5545 12.3693Z" fill="#454545"/>
<path fill-rule="evenodd" clip-rule="evenodd" d="M19.5547 14.4453C19.5437 14.6756 19.4348 14.8231 19.2324 14.9073C18.7173 15.1215 18.203 15.3377 17.6884 15.553C16.3883 16.0967 15.0879 16.639 13.789 17.1859C13.6173 17.2582 13.4585 17.2617 13.2854 17.189C11.4693 16.4256 9.65124 15.6659 7.8341 14.9048C7.47778 14.7556 7.40125 14.3264 7.69028 14.0894C7.8409 13.9659 8.00999 13.9475 8.19006 14.0229C8.67468 14.2262 9.15982 14.4288 9.64462 14.6315C10.9118 15.1618 12.1793 15.6914 13.4456 16.2236C13.5108 16.251 13.5634 16.2497 13.6274 16.2229C15.3668 15.4928 17.1079 14.7673 18.8459 14.0339C19.1965 13.8861 19.4803 14.0928 19.5364 14.3311C19.5458 14.3719 19.5497 14.4138 19.5547 14.4453Z" fill="#454545"/>
</g>
<defs>
<clipPath id="clip0_624_262">
<rect width="26" height="22" fill="white"/>
</clipPath>
</defs>
</svg>
