<svg width="9" height="6" viewBox="0 0 9 6" fill="none" xmlns="http://www.w3.org/2000/svg">
<path d="M1.3475 0.75C1.20597 0.75003 1.06733 0.790107 0.947614 0.865598C0.827896 0.94109 0.731983 1.04892 0.670958 1.17661C0.609932 1.30431 0.586285 1.44667 0.602748 1.58724C0.619212 1.72781 0.675115 1.86086 0.763997 1.971L3.6245 5.51325C3.72995 5.64384 3.86329 5.74917 4.01473 5.82153C4.16618 5.8939 4.3319 5.93145 4.49975 5.93145C4.66759 5.93145 4.83331 5.8939 4.98476 5.82153C5.13621 5.74917 5.26954 5.64384 5.375 5.51325L8.23625 1.971C8.32513 1.86086 8.38103 1.72781 8.3975 1.58724C8.41396 1.44667 8.39031 1.30431 8.32929 1.17661C8.26826 1.04892 8.17235 0.94109 8.05263 0.865598C7.93291 0.790107 7.79428 0.75003 7.65275 0.75H1.3475Z" fill="black"/>
</svg>
