<svg width="26" height="22" viewBox="0 0 26 22" fill="none" xmlns="http://www.w3.org/2000/svg">
<path fill-rule="evenodd" clip-rule="evenodd" d="M13.513 9.37627C12.695 9.37627 11.8769 9.36887 11.059 9.37987C10.7479 9.38402 10.6058 9.27348 10.6131 8.95015C10.6259 8.37978 10.6076 7.80886 10.6188 7.23848C10.632 6.56983 10.9223 6.04453 11.4795 5.66783C11.6875 5.52735 11.8571 5.5205 12.0678 5.70281C12.9949 6.50545 14.0618 6.50599 14.9872 5.70551C15.1956 5.52519 15.3662 5.52266 15.576 5.66422C16.1469 6.0494 16.4336 6.5884 16.4423 7.27202C16.4493 7.8296 16.4338 8.38753 16.4463 8.94474C16.4535 9.26374 16.3211 9.40386 16.0057 9.37609C15.9929 9.37501 15.9797 9.37609 15.9667 9.37609C15.149 9.37627 14.3311 9.37627 13.513 9.37627ZM15.9317 8.85115C15.9317 8.24056 15.9747 7.66838 15.9138 7.10738C15.8827 6.8212 15.685 6.54242 15.5193 6.28851C15.4761 6.22233 15.2329 6.20484 15.1448 6.26201C14.0272 6.98692 13.046 6.98584 11.9111 6.25876C11.8235 6.20268 11.6074 6.22342 11.5342 6.2941C11.3905 6.43296 11.2293 6.6241 11.2096 6.80804C11.1376 7.48048 11.1208 8.15905 11.0823 8.85133C12.7481 8.85115 14.3155 8.85115 15.9317 8.85115Z" fill="#454545"/>
<path fill-rule="evenodd" clip-rule="evenodd" d="M7.84443 16.6416C7.02615 16.6416 6.20769 16.6329 5.38959 16.6461C5.07362 16.6512 4.94127 16.5392 4.95012 16.216C4.96565 15.6457 4.94308 15.0742 4.95987 14.504C4.98009 13.8213 5.28433 13.2908 5.86644 12.9198C6.06 12.7963 6.22611 12.7938 6.38698 12.9638C7.11823 13.7363 8.55202 13.7913 9.38493 12.9629C9.47376 12.8744 9.73972 12.856 9.85762 12.922C10.4576 13.2588 10.7647 13.8005 10.7875 14.4843C10.8068 15.0675 10.7828 15.652 10.7969 16.2353C10.8043 16.543 10.671 16.6477 10.3771 16.6447C9.53316 16.6355 8.68889 16.6414 7.84443 16.6416ZM7.87314 16.1526C8.54932 16.1526 9.22586 16.1365 9.90132 16.1596C10.2196 16.1704 10.3105 16.0518 10.2969 15.7564C10.279 15.3676 10.3233 14.9738 10.2798 14.5889C10.2473 14.3022 10.1483 14.0121 10.0236 13.7497C9.88272 13.4534 9.6897 13.3575 9.3555 13.6029C8.51122 14.2229 7.33472 14.222 6.45433 13.6568C6.00944 13.3712 5.88143 13.3923 5.64382 13.8766C5.53873 14.091 5.48348 14.3442 5.46633 14.5842C5.43744 14.9848 5.47157 15.3894 5.45225 15.7912C5.4378 16.0918 5.566 16.1646 5.84477 16.1578C6.52059 16.1414 7.19695 16.1526 7.87314 16.1526Z" fill="#454545"/>
<path fill-rule="evenodd" clip-rule="evenodd" d="M19.1966 16.6415C18.3653 16.6412 17.534 16.6338 16.7029 16.6451C16.392 16.6495 16.2517 16.5456 16.2615 16.2172C16.2788 15.634 16.2517 15.0492 16.2727 14.4662C16.2965 13.7977 16.6107 13.2831 17.1762 12.9203C17.3665 12.7982 17.519 12.8117 17.7005 12.9614C18.6903 13.777 19.6741 13.7822 20.6542 12.9747C20.8463 12.8164 21.0023 12.7955 21.2092 12.9298C21.7617 13.2885 22.0676 13.7956 22.097 14.4451C22.1239 15.0406 22.0956 15.6385 22.1084 16.2349C22.1151 16.5387 21.9883 16.6493 21.6904 16.6455C20.8591 16.635 20.0278 16.6419 19.1966 16.6415ZM16.7997 16.1505C18.346 16.1505 19.8626 16.1545 21.3789 16.1382C21.4537 16.1375 21.5848 15.9617 21.59 15.8621C21.6131 15.4227 21.6371 14.9769 21.5864 14.5421C21.5519 14.2464 21.4201 13.9521 21.2843 13.6809C21.1529 13.4183 20.9709 13.3852 20.6948 13.5833C19.7998 14.226 18.615 14.23 17.7332 13.6367C17.3291 13.365 17.2709 13.3696 17.0144 13.7756C16.9196 13.9256 16.8163 14.1021 16.8094 14.2702C16.7847 14.8748 16.7997 15.4809 16.7997 16.1505Z" fill="#454545"/>
<path fill-rule="evenodd" clip-rule="evenodd" d="M13.5451 19.7421C11.7251 19.7195 10.0844 19.1937 8.62514 18.119C8.56249 18.0728 8.46968 18.0337 8.4491 17.972C8.41299 17.8627 8.38428 17.7219 8.42653 17.6272C8.44928 17.5764 8.63453 17.5623 8.73059 17.589C8.83693 17.6184 8.92613 17.7118 9.02092 17.7798C11.7343 19.7183 15.3203 19.7192 18.0333 17.7884C18.2146 17.6593 18.4429 17.3542 18.6505 17.6568C18.8511 17.9487 18.4958 18.0685 18.3114 18.2014C16.8861 19.228 15.2851 19.7172 13.5451 19.7421Z" fill="#454545"/>
<path fill-rule="evenodd" clip-rule="evenodd" d="M15.2394 4.13113C15.2498 5.0802 14.5007 5.84822 13.5523 5.86066C12.6034 5.8731 11.8382 5.12871 11.8204 4.17586C11.8027 3.23779 12.5644 2.45625 13.5075 2.44507C14.4536 2.43389 15.2287 3.18856 15.2394 4.13113ZM14.7262 4.16431C14.7336 3.50287 14.2205 2.97036 13.56 2.95359C12.8853 2.93646 12.3366 3.46915 12.3346 4.1434C12.3328 4.81025 12.8418 5.33879 13.4999 5.35394C14.1755 5.36927 14.7188 4.84253 14.7262 4.16431Z" fill="#454545"/>
<path fill-rule="evenodd" clip-rule="evenodd" d="M7.84467 13.1306C6.89856 13.1182 6.14528 12.342 6.16442 11.3993C6.18356 10.454 6.95543 9.71052 7.90588 9.72206C8.83718 9.73324 9.61339 10.533 9.59335 11.4608C9.57313 12.4021 8.7971 13.1432 7.84467 13.1306ZM7.85623 10.2277C7.20984 10.2365 6.66835 10.7793 6.66727 11.4191C6.66618 12.0795 7.21706 12.6369 7.8732 12.6387C8.52879 12.6407 9.08581 12.0795 9.08057 11.4224C9.07516 10.7602 8.52013 10.2187 7.85623 10.2277Z" fill="#454545"/>
<path fill-rule="evenodd" clip-rule="evenodd" d="M19.1885 13.1308C18.2411 13.1339 17.4586 12.3635 17.4656 11.4345C17.4727 10.4928 18.2442 9.72278 19.1804 9.72314C20.1263 9.72332 20.8956 10.4861 20.8973 11.4254C20.8991 12.3705 20.1402 13.1277 19.1885 13.1308ZM20.3917 11.4099C20.3836 10.7521 19.8184 10.2118 19.1547 10.2277C18.5074 10.243 17.9773 10.7856 17.9784 11.4318C17.9795 12.0905 18.5423 12.6484 19.1953 12.6387C19.8549 12.6289 20.3998 12.0692 20.3917 11.4099Z" fill="#454545"/>
<path fill-rule="evenodd" clip-rule="evenodd" d="M21.5203 9.22235C21.4134 9.26563 21.306 9.34317 21.1998 9.34191C21.1038 9.34083 20.9642 9.27735 20.9221 9.19927C20.8122 8.99586 20.7511 8.76666 20.6598 8.55225C19.8567 6.66602 18.5159 5.30401 16.6486 4.45683C16.5778 4.42473 16.4839 4.40958 16.4418 4.35512C16.371 4.2637 16.3331 4.14666 16.2815 4.04045C16.4014 3.99555 16.5475 3.88302 16.6365 3.91765C16.9857 4.05289 17.3291 4.21338 17.6528 4.40201C19.4037 5.42194 20.6087 6.90045 21.3078 8.7957C21.3435 8.89253 21.3643 8.99496 21.3921 9.09486C21.4349 9.13706 21.4777 9.17979 21.5203 9.22235Z" fill="#454545"/>
<path fill-rule="evenodd" clip-rule="evenodd" d="M10.789 4.21247C10.6998 4.2718 10.5783 4.37963 10.4364 4.44257C8.82603 5.15739 7.59555 6.28732 6.74802 7.82552C6.53641 8.20962 6.40244 8.63609 6.20166 9.02722C6.13377 9.15958 5.95737 9.34262 5.85319 9.32909C5.60185 9.29645 5.65999 9.07916 5.72355 8.89847C6.53876 6.58396 8.07348 4.93378 10.3194 3.94486C10.5924 3.82458 10.7995 3.91727 10.789 4.21247Z" fill="#454545"/>
</svg>
