<svg width="22" height="21" viewBox="0 0 22 21" fill="none" xmlns="http://www.w3.org/2000/svg">
<path d="M16.8004 6.06725C17.5703 6.06712 18.3114 6.35972 18.8736 6.88573C19.4357 7.41175 19.7767 8.13182 19.8275 8.89995L19.8336 9.0989V10.0173C19.4593 9.70835 19.0525 9.4411 18.6203 9.22022V9.0989C18.6203 8.64654 18.4518 8.21041 18.1476 7.87555C17.8434 7.54068 17.4254 7.3311 16.9751 7.28768L16.8004 7.27919H9.52076C9.06835 7.27921 8.63217 7.44772 8.29728 7.75185C7.96238 8.05599 7.75278 8.47394 7.70934 8.92421L7.70085 9.0989V16.3778C7.70087 16.8301 7.8694 17.2663 8.17357 17.6011C8.47773 17.936 8.89573 18.1456 9.34605 18.189L9.52076 18.1975H9.64209C9.86412 18.6318 10.1323 19.0382 10.4392 19.4106H9.52198C8.75189 19.4108 8.01059 19.118 7.44844 18.5917C6.88628 18.0654 6.54537 17.3451 6.49486 16.5767L6.48879 16.379V9.10012C6.48867 8.33011 6.78147 7.58889 7.3078 7.0268C7.83413 6.46471 8.55457 6.12383 9.323 6.07332L9.52076 6.06725H16.8004ZM13.3559 2.05538L13.4142 2.24706L14.1118 4.85168H12.8548L12.2421 2.56005C12.125 2.1232 11.8493 1.74563 11.4689 1.50094C11.0885 1.25625 10.6306 1.16198 10.1844 1.23651L10.0134 1.2729L2.98243 3.16056C2.54624 3.27792 2.16928 3.55328 1.92486 3.9331C1.68044 4.31293 1.58602 4.77006 1.65996 5.21563L1.69635 5.38789L3.58178 12.4181C3.6826 12.7944 3.90156 13.1285 4.20646 13.3711C4.51136 13.6138 4.88609 13.7521 5.27552 13.7659V14.979C4.6559 14.9656 4.05522 14.7629 3.5542 14.3982C3.05318 14.0334 2.67583 13.524 2.47285 12.9385L2.40976 12.7323L0.525544 5.7021C0.325932 4.95839 0.41671 4.16661 0.779463 3.48737C1.14222 2.80812 1.74978 2.29228 2.47892 2.04447L2.67061 1.98745L9.70154 0.103433C10.4124 -0.0870975 11.1682 -0.0127259 11.8283 0.31269C12.4883 0.638105 13.0076 1.19237 13.2892 1.8722L13.3584 2.0566L13.3559 2.05538ZM21.0469 15.1658C21.0469 16.6137 20.4717 18.0023 19.4478 19.026C18.4239 20.0498 17.0352 20.625 15.5871 20.625C14.1391 20.625 12.7504 20.0498 11.7265 19.026C10.7026 18.0023 10.1274 16.6137 10.1274 15.1658C10.1274 13.718 10.7026 12.3294 11.7265 11.3056C12.7504 10.2818 14.1391 9.70669 15.5871 9.70669C17.0352 9.70669 18.4239 10.2818 19.4478 11.3056C20.4717 12.3294 21.0469 13.718 21.0469 15.1658ZM16.1938 12.7396C16.1938 12.5787 16.1299 12.4244 16.0161 12.3106C15.9023 12.1969 15.748 12.133 15.5871 12.133C15.4262 12.133 15.2719 12.1969 15.1582 12.3106C15.0444 12.4244 14.9805 12.5787 14.9805 12.7396V14.5593H13.1606C12.9997 14.5593 12.8454 14.6232 12.7316 14.7369C12.6179 14.8507 12.554 15.005 12.554 15.1658C12.554 15.3267 12.6179 15.481 12.7316 15.5948C12.8454 15.7085 12.9997 15.7724 13.1606 15.7724H14.9817V17.5921C14.9817 17.753 15.0456 17.9073 15.1594 18.021C15.2732 18.1348 15.4275 18.1987 15.5884 18.1987C15.7492 18.1987 15.9035 18.1348 16.0173 18.021C16.1311 17.9073 16.195 17.753 16.195 17.5921V15.7724H18.0149C18.1758 15.7724 18.3301 15.7085 18.4439 15.5948C18.5576 15.481 18.6215 15.3267 18.6215 15.1658C18.6215 15.005 18.5576 14.8507 18.4439 14.7369C18.3301 14.6232 18.1758 14.5593 18.0149 14.5593H16.195V12.7396H16.1938Z" fill="#2970B1"/>
</svg>
