<svg width="18" height="16" viewBox="0 0 18 16" fill="none" xmlns="http://www.w3.org/2000/svg">
<path fill-rule="evenodd" clip-rule="evenodd" d="M0.760171 7.73263C0.760171 7.68674 0.760171 7.64566 0.760171 7.60451C0.760171 5.76899 0.759706 3.93355 0.760356 2.09802C0.760728 1.15993 1.59726 0.425901 2.66611 0.425656C4.75493 0.425166 6.84366 0.425575 8.93248 0.425575C8.97922 0.425575 9.02587 0.425575 9.0794 0.425575C9.0794 2.86635 9.0794 5.29463 9.0794 7.73271C6.30849 7.73263 3.54511 7.73263 0.760171 7.73263ZM8.33171 1.08619C8.28552 1.08619 8.25179 1.08619 8.21796 1.08619C6.35496 1.08619 4.49204 1.08513 2.62903 1.08676C2.01153 1.08725 1.5126 1.53335 1.51223 2.08096C1.5114 3.70653 1.51195 5.33211 1.51195 6.95777C1.51195 6.9977 1.51195 7.03763 1.51195 7.07422C3.79834 7.07422 6.06326 7.07422 8.33161 7.07422C8.33171 5.07889 8.33171 3.09132 8.33171 1.08619Z" fill="#454545"/>
<path fill-rule="evenodd" clip-rule="evenodd" d="M9.67993 7.7356C9.67993 5.29605 9.67993 2.87039 9.67993 0.430838C9.72491 0.429123 9.77063 0.425694 9.81635 0.425612C11.8964 0.425367 13.9766 0.424714 16.0567 0.425693C17.0325 0.426102 17.7732 0.955168 17.9691 1.79274C17.9924 1.89261 17.9984 1.99713 17.9985 2.09945C18.0003 3.93873 17.9998 5.77809 17.9995 7.61736C17.9995 7.65468 17.996 7.692 17.9938 7.73552C15.2228 7.73561 12.4593 7.7356 9.67993 7.7356ZM17.243 7.07883C17.245 7.04241 17.2477 7.01644 17.2477 6.99039C17.2478 5.34579 17.25 3.7011 17.2466 2.0565C17.2455 1.5258 16.7359 1.08705 16.1285 1.08664C14.27 1.08517 12.4114 1.08615 10.5529 1.08615C10.5118 1.08615 10.4708 1.08615 10.4336 1.08615C10.4336 3.09536 10.4336 5.08554 10.4336 7.07883C12.7042 7.07883 14.9659 7.07883 17.243 7.07883Z" fill="#454545"/>
<path fill-rule="evenodd" clip-rule="evenodd" d="M0.765541 8.26233C3.53868 8.26233 6.29899 8.26233 9.07297 8.26233C9.07297 10.6975 9.07297 13.1284 9.07297 15.5745C9.02911 15.5745 8.98292 15.5745 8.93683 15.5745C6.85238 15.5745 4.76792 15.5749 2.68347 15.5744C1.8093 15.5741 1.09599 15.1205 0.841742 14.3895C0.787007 14.2319 0.763961 14.06 0.763497 13.8946C0.758107 12.0515 0.760058 10.2083 0.760337 8.36522C0.760337 8.33509 0.763218 8.30495 0.765541 8.26233ZM8.33057 8.92752C6.0532 8.92752 3.78512 8.92752 1.51584 8.92752C1.51426 8.95977 1.51212 8.98248 1.51212 9.00526C1.51193 10.65 1.51147 12.2947 1.51333 13.9395C1.51342 14.0186 1.52197 14.1008 1.54715 14.1764C1.70011 14.6339 2.14988 14.9175 2.69035 14.916C4.34055 14.9111 5.99075 14.9152 7.64096 14.9158C7.86937 14.9159 8.09788 14.9158 8.33048 14.9158C8.33057 12.9108 8.33057 10.9233 8.33057 8.92752Z" fill="#454545"/>
<path fill-rule="evenodd" clip-rule="evenodd" d="M9.67847 15.5694C9.67847 13.1321 9.67847 10.7065 9.67847 8.26929C12.4503 8.26929 15.2168 8.26929 17.9996 8.26929C17.9996 8.30914 17.9996 8.3498 17.9996 8.39047C17.9996 10.2221 18.0002 12.0538 17.9995 13.8854C17.9992 14.6489 17.4896 15.2702 16.6617 15.4992C16.487 15.5475 16.2961 15.571 16.1126 15.5715C14.0064 15.5764 11.9003 15.5746 9.79416 15.5745C9.75996 15.5744 9.72586 15.5715 9.67847 15.5694ZM10.4286 14.9098C10.4688 14.9115 10.4984 14.9138 10.528 14.9138C12.3997 14.914 14.2712 14.9158 16.1429 14.9129C16.7467 14.912 17.2466 14.4646 17.2474 13.9313C17.2497 12.3553 17.2494 10.7794 17.25 9.20338C17.25 9.10988 17.25 9.01638 17.25 8.92566C14.9622 8.92566 12.6973 8.92566 10.4287 8.92566C10.4286 10.9207 10.4286 12.9082 10.4286 14.9098Z" fill="#454545"/>
</svg>
