<svg width="12" height="7" viewBox="0 0 12 7" fill="none" xmlns="http://www.w3.org/2000/svg">
<path d="M5.9998 6.97655C6.13313 6.97655 6.26246 6.95155 6.3878 6.90155C6.51313 6.85155 6.61713 6.78488 6.6998 6.70155L11.2998 2.10155C11.4831 1.91821 11.5748 1.68488 11.5748 1.40155C11.5748 1.11821 11.4831 0.884879 11.2998 0.701549C11.1165 0.518209 10.8831 0.426549 10.5998 0.426549C10.3165 0.426549 10.0831 0.518209 9.8998 0.701549L5.9998 4.60155L2.0998 0.701548C1.9165 0.518208 1.6831 0.426548 1.3998 0.426548C1.1165 0.426548 0.883104 0.518208 0.699804 0.701548C0.516504 0.884878 0.424804 1.11821 0.424804 1.40155C0.424804 1.68488 0.516504 1.91821 0.699804 2.10155L5.2998 6.70155C5.3998 6.80155 5.50813 6.87255 5.6248 6.91455C5.74146 6.95655 5.86646 6.97721 5.9998 6.97655Z" fill="black"/>
</svg>
