<svg width="14" height="14" viewBox="0 0 14 14" fill="none" xmlns="http://www.w3.org/2000/svg">
<g clip-path="url(#clip0_155_449)">
<path d="M12.377 0.891C11.803 0.317 11.04 0 10.231 0C9.418 0 8.655 0.317 8.081 0.891L1.012 7.96C0.932997 8.038 0.880997 8.136 0.859997 8.243L0.00899716 12.612C-0.0260028 12.794 0.0389972 12.971 0.160997 13.108C0.342997 13.313 0.620997 13.268 0.656997 13.258L5.025 12.408C5.133 12.387 5.233 12.336 5.31 12.256L12.378 5.188C13.564 4.005 13.564 2.075 12.377 0.891ZM4.648 11.356L1.252 12.018L1.913 8.622L7.521 3.014L10.256 5.749L4.648 11.356ZM11.598 4.409L11.04 4.967L8.305 2.231L8.863 1.673C10.098 0.59 11.186 1.261 11.598 1.673C12.351 2.427 12.351 3.653 11.598 4.409Z" fill="#9999EA"/>
</g>
<defs>
<clipPath id="clip0_155_449">
<rect width="13.267" height="13.27" fill="white"/>
</clipPath>
</defs>
</svg>
