<svg width="22" height="21" viewBox="0 0 22 21" fill="none" xmlns="http://www.w3.org/2000/svg">
<path fill-rule="evenodd" clip-rule="evenodd" d="M19.7731 3.68432C19.5531 3.98002 19.3435 4.28462 19.1114 4.57014C17.2362 6.87887 15.3559 9.18356 13.4815 11.4931C13.4237 11.5644 13.3872 11.676 13.3866 11.7691C13.3774 13.4417 13.3698 15.1145 13.3759 16.7868C13.3771 17.1415 13.2422 17.3568 12.9265 17.5112C11.8334 18.0456 10.7503 18.6009 9.66061 19.1427C9.54726 19.1989 9.41673 19.2417 9.29227 19.2472C9.06682 19.2572 8.86275 19.0852 8.81057 18.8631C8.78732 18.7642 8.78166 18.6592 8.78145 18.5568C8.77998 16.3057 8.77936 14.0545 8.78271 11.8035C8.78271 11.6698 8.75002 11.5665 8.66496 11.4624C6.62922 8.96847 4.596 6.47244 2.56467 3.97471C2.49427 3.88817 2.44776 3.78168 2.39014 3.68453C2.39014 3.60435 2.39014 3.52417 2.39014 3.44399C2.50936 3.14023 2.7281 3.02781 3.05118 3.02823C8.40473 3.03396 13.7583 3.03396 19.1118 3.02823C19.4349 3.02781 19.6536 3.14044 19.7729 3.44399C19.7731 3.52396 19.7731 3.60414 19.7731 3.68432ZM4.05208 4.10559C4.09838 4.16753 4.12437 4.20487 4.15286 4.24008C5.97341 6.47584 7.79292 8.71265 9.61766 10.945C9.77899 11.1421 9.85086 11.35 9.85044 11.6026C9.84646 13.6133 9.84835 15.624 9.84835 17.6347C9.84835 17.6994 9.84835 17.7639 9.84835 17.8491C9.93572 17.8069 9.99124 17.7808 10.0461 17.7533C10.7445 17.4037 11.442 17.0516 12.1424 16.7064C12.2623 16.6475 12.3126 16.5811 12.3121 16.4375C12.3082 14.8164 12.3138 13.1952 12.313 11.5742C12.313 11.3468 12.3748 11.1544 12.5202 10.9762C14.3475 8.73853 16.1714 6.4979 17.9955 4.25768C18.0317 4.21314 18.0638 4.16478 18.1071 4.10559C13.4117 4.10559 8.74604 4.10559 4.05208 4.10559Z" fill="#626262"/>
</svg>
