<svg width="120" height="52" viewBox="0 0 120 52" fill="none" xmlns="http://www.w3.org/2000/svg">
<path d="M0.427734 48.4546H70.315V50.4633C70.315 50.8946 69.9655 51.2441 69.5342 51.2441H1.20855C0.777319 51.2441 0.427734 50.8946 0.427734 50.4633V48.4546Z" fill="#454545"/>
<path d="M71.4653 48.4546H93.0508V50.4633C93.0508 50.8946 92.7012 51.2441 92.27 51.2441H72.2462C71.8149 51.2441 71.4653 50.8946 71.4653 50.4633V48.4546Z" fill="#454545"/>
<path d="M94.2007 48.4546H119.236V50.4633C119.236 50.8946 118.887 51.2441 118.455 51.2441H94.9815C94.5503 51.2441 94.2007 50.8946 94.2007 50.4633V48.4546Z" fill="#454545"/>
<path d="M0.427734 1.29156C0.427734 0.860327 0.777319 0.510742 1.20855 0.510742H15.836C16.2672 0.510742 16.6168 0.860326 16.6168 1.29156V3.30029H0.427734V1.29156Z" fill="#717171"/>
<path d="M17.7671 1.29193C17.7671 0.860693 18.1167 0.511108 18.5479 0.511108H36.8909C37.3221 0.511108 37.6717 0.860693 37.6717 1.29193V3.30066H17.7671V1.29193Z" fill="#1F7793"/>
<path d="M38.8208 1.29193C38.8208 0.860693 39.1704 0.511108 39.6016 0.511108H69.5335C69.9647 0.511108 70.3143 0.860693 70.3143 1.29193V3.30066H38.8208V1.29193Z" fill="#CA7160"/>
<path d="M71.4653 1.29193C71.4653 0.860693 71.8149 0.511108 72.2462 0.511108H92.27C92.7012 0.511108 93.0508 0.860693 93.0508 1.29193V3.30066H71.4653V1.29193Z" fill="#8E7B35"/>
<path d="M94.2891 1.29193C94.2891 0.860693 94.6386 0.511108 95.0699 0.511108H118.455C118.887 0.511108 119.236 0.860693 119.236 1.29193V3.30066H94.2891V1.29193Z" fill="#85952D"/>
<rect x="0.427734" y="4.08557" width="16.1891" height="43.4124" fill="#D9D9D9"/>
<rect x="17.7671" y="4.08557" width="19.9046" height="43.4124" fill="#B7F0F2"/>
<rect x="38.8208" y="4.08557" width="31.4935" height="43.4124" fill="#FBC7BD"/>
<rect x="71.4653" y="4.08557" width="21.5854" height="43.4124" fill="#FDEEB7"/>
<rect x="94.2891" y="4.08557" width="24.9471" height="43.4124" fill="#EBF5B3"/>
<path d="M4.5786 1.00269V1.77368H4.47794V1.00269H4.5786ZM4.96476 1.78364C4.9183 1.78364 4.87663 1.77589 4.83976 1.76041C4.80289 1.74418 4.77376 1.72206 4.75237 1.69404C4.73099 1.66528 4.71919 1.63246 4.71698 1.59559H4.82096C4.82391 1.62582 4.83792 1.65053 4.86299 1.6697C4.8888 1.68888 4.92235 1.69846 4.96365 1.69846C5.002 1.69846 5.03223 1.68998 5.05436 1.67302C5.07648 1.65606 5.08754 1.63467 5.08754 1.60886C5.08754 1.58232 5.07574 1.56277 5.05214 1.55024C5.02855 1.53696 4.99204 1.52406 4.94263 1.51152C4.89765 1.49972 4.86078 1.48792 4.83202 1.47612C4.804 1.46359 4.77966 1.44552 4.75901 1.42192C4.7391 1.39759 4.72915 1.36588 4.72915 1.32679C4.72915 1.29582 4.73836 1.26743 4.7568 1.24162C4.77524 1.21581 4.80141 1.19553 4.83534 1.18078C4.86926 1.16529 4.90797 1.15755 4.95148 1.15755C5.01859 1.15755 5.07279 1.17451 5.11409 1.20843C5.15539 1.24236 5.17751 1.28882 5.18046 1.34781H5.0798C5.07759 1.3161 5.06468 1.29066 5.04108 1.27149C5.01822 1.25231 4.98725 1.24273 4.94816 1.24273C4.91203 1.24273 4.88327 1.25047 4.86188 1.26595C4.8405 1.28144 4.82981 1.30172 4.82981 1.32679C4.82981 1.3467 4.83607 1.3633 4.84861 1.37657C4.86188 1.38911 4.87811 1.39943 4.89728 1.40754C4.91719 1.41492 4.94448 1.4234 4.97914 1.43298C5.02265 1.44478 5.05804 1.45658 5.08533 1.46838C5.11261 1.47944 5.13584 1.4964 5.15502 1.51926C5.17493 1.54213 5.18525 1.57199 5.18599 1.60886C5.18599 1.64205 5.17677 1.67191 5.15833 1.69846C5.1399 1.72501 5.11372 1.74603 5.0798 1.76151C5.04661 1.77626 5.00827 1.78364 4.96476 1.78364ZM5.59246 1.78364C5.53568 1.78364 5.48406 1.77073 5.4376 1.74492C5.39188 1.71911 5.35574 1.68261 5.32919 1.63541C5.30338 1.58748 5.29048 1.53217 5.29048 1.46949C5.29048 1.40754 5.30375 1.35297 5.3303 1.30578C5.35758 1.25784 5.39446 1.22134 5.44092 1.19627C5.48737 1.17046 5.53936 1.15755 5.59688 1.15755C5.6544 1.15755 5.70639 1.17046 5.75285 1.19627C5.79931 1.22134 5.83581 1.25747 5.86236 1.30467C5.88965 1.35187 5.90329 1.40681 5.90329 1.46949C5.90329 1.53217 5.88928 1.58748 5.86126 1.63541C5.83397 1.68261 5.79673 1.71911 5.74953 1.74492C5.70234 1.77073 5.64998 1.78364 5.59246 1.78364ZM5.59246 1.69514C5.62859 1.69514 5.66252 1.68666 5.69423 1.6697C5.72594 1.65274 5.75138 1.6273 5.77055 1.59338C5.79046 1.55946 5.80042 1.51816 5.80042 1.46949C5.80042 1.42082 5.79083 1.37952 5.77166 1.3456C5.75248 1.31168 5.72741 1.2866 5.69644 1.27038C5.66547 1.25342 5.63191 1.24494 5.59578 1.24494C5.55891 1.24494 5.52498 1.25342 5.49401 1.27038C5.46378 1.2866 5.43944 1.31168 5.421 1.3456C5.40257 1.37952 5.39335 1.42082 5.39335 1.46949C5.39335 1.5189 5.4022 1.56056 5.4199 1.59448C5.43833 1.62841 5.46267 1.65385 5.4929 1.67081C5.52314 1.68703 5.55632 1.69514 5.59246 1.69514ZM6.1363 0.955124V1.77368H6.03564V0.955124H6.1363ZM6.27025 1.46838C6.27025 1.40644 6.28279 1.35223 6.30786 1.30578C6.33293 1.25858 6.36722 1.22208 6.41073 1.19627C6.45498 1.17046 6.50402 1.15755 6.55785 1.15755C6.61095 1.15755 6.65704 1.16898 6.69612 1.19184C6.73521 1.2147 6.76433 1.24346 6.78351 1.27812V1.16751H6.88527V1.77368H6.78351V1.66085C6.7636 1.69625 6.73373 1.72575 6.69391 1.74935C6.65482 1.77221 6.6091 1.78364 6.55675 1.78364C6.50291 1.78364 6.45424 1.77036 6.41073 1.74382C6.36722 1.71727 6.33293 1.68003 6.30786 1.63209C6.28279 1.58416 6.27025 1.52959 6.27025 1.46838ZM6.78351 1.46949C6.78351 1.42377 6.77429 1.38394 6.75585 1.35002C6.73742 1.3161 6.71234 1.29029 6.68063 1.27259C6.64966 1.25416 6.61537 1.24494 6.57776 1.24494C6.54015 1.24494 6.50586 1.25379 6.47489 1.27149C6.44392 1.28918 6.41921 1.31499 6.40078 1.34892C6.38234 1.38284 6.37312 1.42266 6.37312 1.46838C6.37312 1.51484 6.38234 1.5554 6.40078 1.59006C6.41921 1.62398 6.44392 1.65016 6.47489 1.6686C6.50586 1.6863 6.54015 1.69514 6.57776 1.69514C6.61537 1.69514 6.64966 1.6863 6.68063 1.6686C6.71234 1.65016 6.73742 1.62398 6.75585 1.59006C6.77429 1.5554 6.78351 1.51521 6.78351 1.46949ZM7.17816 1.25047V1.60776C7.17816 1.63726 7.18443 1.65827 7.19697 1.67081C7.20951 1.68261 7.23126 1.68851 7.26223 1.68851H7.33635V1.77368H7.24564C7.1896 1.77368 7.14756 1.76078 7.11954 1.73497C7.09152 1.70916 7.0775 1.66675 7.0775 1.60776V1.25047H6.99897V1.16751H7.0775V1.01486H7.17816V1.16751H7.33635V1.25047H7.17816ZM8.01139 1.44736C8.01139 1.46654 8.01028 1.48682 8.00807 1.5082H7.52357C7.52726 1.56794 7.54754 1.61476 7.58441 1.64869C7.62202 1.68187 7.66737 1.69846 7.72047 1.69846C7.76398 1.69846 7.80011 1.68851 7.82887 1.6686C7.85837 1.64795 7.87902 1.62066 7.89082 1.58674H7.99922C7.983 1.645 7.95055 1.69256 7.90188 1.72944C7.85321 1.76557 7.79274 1.78364 7.72047 1.78364C7.66295 1.78364 7.61133 1.77073 7.56561 1.74492C7.52062 1.71911 7.48522 1.68261 7.45941 1.63541C7.4336 1.58748 7.4207 1.53217 7.4207 1.46949C7.4207 1.40681 7.43323 1.35187 7.45831 1.30467C7.48338 1.25747 7.51841 1.22134 7.56339 1.19627C7.60911 1.17046 7.66147 1.15755 7.72047 1.15755C7.77799 1.15755 7.82887 1.17009 7.87312 1.19516C7.91736 1.22023 7.95129 1.25489 7.97488 1.29914C7.99922 1.34265 8.01139 1.39206 8.01139 1.44736ZM7.90741 1.42635C7.90741 1.388 7.89893 1.35518 7.88197 1.3279C7.86501 1.29988 7.84178 1.27886 7.81228 1.26485C7.78352 1.2501 7.75144 1.24273 7.71604 1.24273C7.66516 1.24273 7.62165 1.25895 7.58552 1.2914C7.55012 1.32384 7.52984 1.36883 7.52468 1.42635H7.90741ZM8.10665 1.46838C8.10665 1.40644 8.11918 1.35223 8.14426 1.30578C8.16933 1.25858 8.20362 1.22208 8.24713 1.19627C8.29138 1.17046 8.34078 1.15755 8.39536 1.15755C8.44255 1.15755 8.48643 1.16861 8.52699 1.19074C8.56755 1.21212 8.59852 1.24051 8.61991 1.27591V0.955124H8.72167V1.77368H8.61991V1.65975C8.59999 1.69588 8.5705 1.72575 8.53141 1.74935C8.49233 1.77221 8.44661 1.78364 8.39425 1.78364C8.34042 1.78364 8.29138 1.77036 8.24713 1.74382C8.20362 1.71727 8.16933 1.68003 8.14426 1.63209C8.11918 1.58416 8.10665 1.52959 8.10665 1.46838ZM8.61991 1.46949C8.61991 1.42377 8.61069 1.38394 8.59225 1.35002C8.57382 1.3161 8.54874 1.29029 8.51703 1.27259C8.48606 1.25416 8.45177 1.24494 8.41416 1.24494C8.37655 1.24494 8.34226 1.25379 8.31129 1.27149C8.28031 1.28918 8.25561 1.31499 8.23717 1.34892C8.21874 1.38284 8.20952 1.42266 8.20952 1.46838C8.20952 1.51484 8.21874 1.5554 8.23717 1.59006C8.25561 1.62398 8.28031 1.65016 8.31129 1.6686C8.34226 1.6863 8.37655 1.69514 8.41416 1.69514C8.45177 1.69514 8.48606 1.6863 8.51703 1.6686C8.54874 1.65016 8.57382 1.62398 8.59225 1.59006C8.61069 1.5554 8.61991 1.51521 8.61991 1.46949ZM9.28734 1.08454V1.34228H9.56831V1.42524H9.28734V1.69072H9.60149V1.77368H9.18668V1.00158H9.60149V1.08454H9.28734ZM9.97946 1.68076L10.1675 1.16751H10.2748L10.037 1.77368H9.91973L9.6819 1.16751H9.79031L9.97946 1.68076ZM10.9269 1.44736C10.9269 1.46654 10.9258 1.48682 10.9236 1.5082H10.4391C10.4428 1.56794 10.4631 1.61476 10.5 1.64869C10.5376 1.68187 10.5829 1.69846 10.636 1.69846C10.6795 1.69846 10.7157 1.68851 10.7444 1.6686C10.7739 1.64795 10.7946 1.62066 10.8064 1.58674H10.9148C10.8985 1.645 10.8661 1.69256 10.8174 1.72944C10.7688 1.76557 10.7083 1.78364 10.636 1.78364C10.5785 1.78364 10.5269 1.77073 10.4812 1.74492C10.4362 1.71911 10.4008 1.68261 10.375 1.63541C10.3492 1.58748 10.3363 1.53217 10.3363 1.46949C10.3363 1.40681 10.3488 1.35187 10.3739 1.30467C10.3989 1.25747 10.434 1.22134 10.4789 1.19627C10.5247 1.17046 10.577 1.15755 10.636 1.15755C10.6935 1.15755 10.7444 1.17009 10.7887 1.19516C10.8329 1.22023 10.8668 1.25489 10.8904 1.29914C10.9148 1.34265 10.9269 1.39206 10.9269 1.44736ZM10.823 1.42635C10.823 1.388 10.8145 1.35518 10.7975 1.3279C10.7806 1.29988 10.7573 1.27886 10.7278 1.26485C10.6991 1.2501 10.667 1.24273 10.6316 1.24273C10.5807 1.24273 10.5372 1.25895 10.5011 1.2914C10.4657 1.32384 10.4454 1.36883 10.4402 1.42635H10.823ZM11.3552 1.15644C11.4289 1.15644 11.4886 1.17894 11.5344 1.22392C11.5801 1.26817 11.6029 1.33232 11.6029 1.41639V1.77368H11.5034V1.43077C11.5034 1.3703 11.4883 1.32421 11.458 1.2925C11.4278 1.26005 11.3865 1.24383 11.3341 1.24383C11.281 1.24383 11.2386 1.26042 11.2069 1.29361C11.176 1.32679 11.1605 1.3751 11.1605 1.43852V1.77368H11.0598V1.16751H11.1605V1.25379C11.1804 1.22281 11.2073 1.19885 11.2412 1.18189C11.2759 1.16493 11.3139 1.15644 11.3552 1.15644ZM11.8901 1.25047V1.60776C11.8901 1.63726 11.8964 1.65827 11.9089 1.67081C11.9215 1.68261 11.9432 1.68851 11.9742 1.68851H12.0483V1.77368H11.9576C11.9016 1.77368 11.8595 1.76078 11.8315 1.73497C11.8035 1.70916 11.7895 1.66675 11.7895 1.60776V1.25047H11.7109V1.16751H11.7895V1.01486H11.8901V1.16751H12.0483V1.25047H11.8901ZM12.3849 1.78364C12.3384 1.78364 12.2968 1.77589 12.2599 1.76041C12.223 1.74418 12.1939 1.72206 12.1725 1.69404C12.1511 1.66528 12.1393 1.63246 12.1371 1.59559H12.2411C12.244 1.62582 12.258 1.65053 12.2831 1.6697C12.3089 1.68888 12.3425 1.69846 12.3838 1.69846C12.4221 1.69846 12.4524 1.68998 12.4745 1.67302C12.4966 1.65606 12.5077 1.63467 12.5077 1.60886C12.5077 1.58232 12.4959 1.56277 12.4723 1.55024C12.4487 1.53696 12.4122 1.52406 12.3628 1.51152C12.3178 1.49972 12.2809 1.48792 12.2521 1.47612C12.2241 1.46359 12.1998 1.44552 12.1791 1.42192C12.1592 1.39759 12.1493 1.36588 12.1493 1.32679C12.1493 1.29582 12.1585 1.26743 12.1769 1.24162C12.1954 1.21581 12.2215 1.19553 12.2555 1.18078C12.2894 1.16529 12.3281 1.15755 12.3716 1.15755C12.4387 1.15755 12.4929 1.17451 12.5342 1.20843C12.5755 1.24236 12.5976 1.28882 12.6006 1.34781H12.4999C12.4977 1.3161 12.4848 1.29066 12.4612 1.27149C12.4383 1.25231 12.4074 1.24273 12.3683 1.24273C12.3322 1.24273 12.3034 1.25047 12.282 1.26595C12.2606 1.28144 12.2499 1.30172 12.2499 1.32679C12.2499 1.3467 12.2562 1.3633 12.2687 1.37657C12.282 1.38911 12.2982 1.39943 12.3174 1.40754C12.3373 1.41492 12.3646 1.4234 12.3993 1.43298C12.4428 1.44478 12.4782 1.45658 12.5055 1.46838C12.5327 1.47944 12.556 1.4964 12.5751 1.51926C12.5951 1.54213 12.6054 1.57199 12.6061 1.60886C12.6061 1.64205 12.5969 1.67191 12.5785 1.69846C12.56 1.72501 12.5338 1.74603 12.4999 1.76151C12.4667 1.77626 12.4284 1.78364 12.3849 1.78364Z" fill="white"/>
<path d="M22.1051 1.49847H22.375V1.58032H22.0045V0.809329H22.1051V1.49847ZM22.5339 0.875699C22.5147 0.875699 22.4985 0.869062 22.4852 0.855788C22.472 0.842514 22.4653 0.82629 22.4653 0.807117C22.4653 0.787943 22.472 0.77172 22.4852 0.758446C22.4985 0.745172 22.5147 0.738535 22.5339 0.738535C22.5524 0.738535 22.5678 0.745172 22.5804 0.758446C22.5937 0.77172 22.6003 0.787943 22.6003 0.807117C22.6003 0.82629 22.5937 0.842514 22.5804 0.855788C22.5678 0.869062 22.5524 0.875699 22.5339 0.875699ZM22.5826 0.974147V1.58032H22.4819V0.974147H22.5826ZM23.4831 0.963085C23.5303 0.963085 23.5723 0.973041 23.6092 0.992952C23.6461 1.01213 23.6752 1.04125 23.6966 1.08034C23.718 1.11942 23.7287 1.16699 23.7287 1.22303V1.58032H23.6291V1.23741C23.6291 1.17694 23.614 1.13085 23.5838 1.09914C23.5543 1.0667 23.5141 1.05047 23.4632 1.05047C23.4108 1.05047 23.3692 1.06743 23.3382 1.10136C23.3072 1.13454 23.2917 1.18284 23.2917 1.24626V1.58032H23.1922V1.23741C23.1922 1.17694 23.1771 1.13085 23.1468 1.09914C23.1173 1.0667 23.0771 1.05047 23.0263 1.05047C22.9739 1.05047 22.9322 1.06743 22.9013 1.10136C22.8703 1.13454 22.8548 1.18284 22.8548 1.24626V1.58032H22.7542V0.974147H22.8548V1.06153C22.8747 1.02982 22.9013 1.00549 22.9345 0.988527C22.9684 0.971566 23.0056 0.963085 23.0462 0.963085C23.0971 0.963085 23.142 0.974516 23.1811 0.997376C23.2202 1.02024 23.2493 1.05379 23.2685 1.09804C23.2855 1.05527 23.3135 1.02208 23.3526 0.998482C23.3917 0.974884 23.4352 0.963085 23.4831 0.963085ZM23.9458 0.875699C23.9266 0.875699 23.9104 0.869062 23.8971 0.855788C23.8838 0.842514 23.8772 0.82629 23.8772 0.807117C23.8772 0.787943 23.8838 0.77172 23.8971 0.758446C23.9104 0.745172 23.9266 0.738535 23.9458 0.738535C23.9642 0.738535 23.9797 0.745172 23.9922 0.758446C24.0055 0.77172 24.0122 0.787943 24.0122 0.807117C24.0122 0.82629 24.0055 0.842514 23.9922 0.855788C23.9797 0.869062 23.9642 0.875699 23.9458 0.875699ZM23.9945 0.974147V1.58032H23.8938V0.974147H23.9945ZM24.2888 1.05711V1.4144C24.2888 1.4439 24.2951 1.46491 24.3076 1.47745C24.3201 1.48925 24.3419 1.49515 24.3729 1.49515H24.447V1.58032H24.3563C24.3002 1.58032 24.2582 1.56742 24.2302 1.54161C24.2022 1.5158 24.1881 1.47339 24.1881 1.4144V1.05711H24.1096V0.974147H24.1881V0.821497H24.2888V0.974147H24.447V1.05711H24.2888ZM25.122 1.25401C25.122 1.27318 25.1209 1.29346 25.1187 1.31484H24.6342C24.6379 1.37458 24.6582 1.4214 24.695 1.45533C24.7327 1.48851 24.778 1.5051 24.8311 1.5051C24.8746 1.5051 24.9107 1.49515 24.9395 1.47524C24.969 1.45459 24.9897 1.4273 25.0015 1.39338H25.1099C25.0936 1.45164 25.0612 1.4992 25.0125 1.53608C24.9638 1.57221 24.9034 1.59028 24.8311 1.59028C24.7736 1.59028 24.722 1.57737 24.6762 1.55156C24.6313 1.52575 24.5959 1.48925 24.57 1.44205C24.5442 1.39412 24.5313 1.33881 24.5313 1.27613C24.5313 1.21345 24.5439 1.15851 24.5689 1.11131C24.594 1.06411 24.629 1.02798 24.674 1.00291C24.7197 0.977097 24.7721 0.964191 24.8311 0.964191C24.8886 0.964191 24.9395 0.976728 24.9838 1.0018C25.028 1.02687 25.0619 1.06153 25.0855 1.10578C25.1099 1.14929 25.122 1.1987 25.122 1.25401ZM25.018 1.23299C25.018 1.19464 25.0096 1.16183 24.9926 1.13454C24.9756 1.10652 24.9524 1.0855 24.9229 1.07149C24.8942 1.05674 24.8621 1.04937 24.8267 1.04937C24.7758 1.04937 24.7323 1.06559 24.6962 1.09804C24.6608 1.13048 24.6405 1.17547 24.6353 1.23299H25.018ZM25.2173 1.27502C25.2173 1.21308 25.2298 1.15888 25.2549 1.11242C25.28 1.06522 25.3143 1.02872 25.3578 1.00291C25.402 0.977097 25.4514 0.964191 25.506 0.964191C25.5532 0.964191 25.5971 0.975253 25.6376 0.997376C25.6782 1.01876 25.7092 1.04715 25.7305 1.08255V0.761764H25.8323V1.58032H25.7305V1.46639C25.7106 1.50252 25.6811 1.53239 25.642 1.55599C25.603 1.57885 25.5572 1.59028 25.5049 1.59028C25.4511 1.59028 25.402 1.577 25.3578 1.55046C25.3143 1.52391 25.28 1.48667 25.2549 1.43873C25.2298 1.3908 25.2173 1.33623 25.2173 1.27502ZM25.7305 1.27613C25.7305 1.23041 25.7213 1.19059 25.7029 1.15666C25.6845 1.12274 25.6594 1.09693 25.6277 1.07923C25.5967 1.0608 25.5624 1.05158 25.5248 1.05158C25.4872 1.05158 25.4529 1.06043 25.4219 1.07813C25.3909 1.09582 25.3662 1.12163 25.3478 1.15556C25.3294 1.18948 25.3202 1.2293 25.3202 1.27502C25.3202 1.32148 25.3294 1.36204 25.3478 1.3967C25.3662 1.43062 25.3909 1.4568 25.4219 1.47524C25.4529 1.49294 25.4872 1.50178 25.5248 1.50178C25.5624 1.50178 25.5967 1.49294 25.6277 1.47524C25.6594 1.4568 25.6845 1.43062 25.7029 1.3967C25.7213 1.36204 25.7305 1.32185 25.7305 1.27613ZM26.7531 1.40887H26.4168L26.3548 1.58032H26.2486L26.5274 0.813754H26.6435L26.9212 1.58032H26.815L26.7531 1.40887ZM26.7243 1.32701L26.5849 0.937644L26.4455 1.32701H26.7243ZM27.0051 1.27613C27.0051 1.21345 27.0176 1.15888 27.0427 1.11242C27.0678 1.06522 27.1024 1.02872 27.1467 1.00291C27.1916 0.977097 27.2429 0.964191 27.3004 0.964191C27.3749 0.964191 27.4361 0.982259 27.484 1.01839C27.5327 1.05453 27.5648 1.10467 27.5803 1.16883H27.4719C27.4615 1.13196 27.4413 1.10283 27.411 1.08144C27.3815 1.06006 27.3447 1.04937 27.3004 1.04937C27.2429 1.04937 27.1964 1.06928 27.161 1.1091C27.1256 1.14818 27.1079 1.20386 27.1079 1.27613C27.1079 1.34913 27.1256 1.40555 27.161 1.44537C27.1964 1.48519 27.2429 1.5051 27.3004 1.5051C27.3447 1.5051 27.3815 1.49478 27.411 1.47413C27.4405 1.45348 27.4608 1.42399 27.4719 1.38564H27.5803C27.564 1.44758 27.5316 1.49736 27.4829 1.53497C27.4343 1.57184 27.3734 1.59028 27.3004 1.59028C27.2429 1.59028 27.1916 1.57737 27.1467 1.55156C27.1024 1.52575 27.0678 1.48925 27.0427 1.44205C27.0176 1.39486 27.0051 1.33955 27.0051 1.27613ZM27.8374 1.05711V1.4144C27.8374 1.4439 27.8436 1.46491 27.8562 1.47745C27.8687 1.48925 27.8905 1.49515 27.9214 1.49515H27.9955V1.58032H27.9048C27.8488 1.58032 27.8068 1.56742 27.7787 1.54161C27.7507 1.5158 27.7367 1.47339 27.7367 1.4144V1.05711H27.6582V0.974147H27.7367V0.821497H27.8374V0.974147H27.9955V1.05711H27.8374ZM28.1695 0.875699C28.1503 0.875699 28.1341 0.869062 28.1208 0.855788C28.1076 0.842514 28.1009 0.82629 28.1009 0.807117C28.1009 0.787943 28.1076 0.77172 28.1208 0.758446C28.1341 0.745172 28.1503 0.738535 28.1695 0.738535C28.1879 0.738535 28.2034 0.745172 28.216 0.758446C28.2292 0.77172 28.2359 0.787943 28.2359 0.807117C28.2359 0.82629 28.2292 0.842514 28.216 0.855788C28.2034 0.869062 28.1879 0.875699 28.1695 0.875699ZM28.2182 0.974147V1.58032H28.1175V0.974147H28.2182ZM28.6541 1.59028C28.5973 1.59028 28.5457 1.57737 28.4992 1.55156C28.4535 1.52575 28.4174 1.48925 28.3908 1.44205C28.365 1.39412 28.3521 1.33881 28.3521 1.27613C28.3521 1.21418 28.3654 1.15961 28.3919 1.11242C28.4192 1.06448 28.4561 1.02798 28.5026 1.00291C28.549 0.977097 28.601 0.964191 28.6585 0.964191C28.716 0.964191 28.768 0.977097 28.8145 1.00291C28.861 1.02798 28.8975 1.06411 28.924 1.11131C28.9513 1.15851 28.9649 1.21345 28.9649 1.27613C28.9649 1.33881 28.9509 1.39412 28.9229 1.44205C28.8956 1.48925 28.8584 1.52575 28.8112 1.55156C28.764 1.57737 28.7116 1.59028 28.6541 1.59028ZM28.6541 1.50178C28.6902 1.50178 28.7242 1.4933 28.7559 1.47634C28.7876 1.45938 28.813 1.43394 28.8322 1.40002C28.8521 1.3661 28.8621 1.3248 28.8621 1.27613C28.8621 1.22746 28.8525 1.18616 28.8333 1.15224C28.8141 1.11832 28.7891 1.09324 28.7581 1.07702C28.7271 1.06006 28.6936 1.05158 28.6574 1.05158C28.6205 1.05158 28.5866 1.06006 28.5557 1.07702C28.5254 1.09324 28.5011 1.11832 28.4826 1.15224C28.4642 1.18616 28.455 1.22746 28.455 1.27613C28.455 1.32554 28.4638 1.3672 28.4815 1.40112C28.5 1.43505 28.5243 1.46049 28.5545 1.47745C28.5848 1.49367 28.618 1.50178 28.6541 1.50178ZM29.3926 0.963085C29.4664 0.963085 29.5261 0.985577 29.5718 1.03056C29.6175 1.07481 29.6404 1.13896 29.6404 1.22303V1.58032H29.5409V1.23741C29.5409 1.17694 29.5257 1.13085 29.4955 1.09914C29.4653 1.0667 29.424 1.05047 29.3716 1.05047C29.3185 1.05047 29.2761 1.06706 29.2444 1.10025C29.2134 1.13343 29.1979 1.18174 29.1979 1.24516V1.58032H29.0973V0.974147H29.1979V1.06043C29.2179 1.02945 29.2448 1.00549 29.2787 0.988527C29.3134 0.971566 29.3513 0.963085 29.3926 0.963085ZM30.1849 1.49294H30.561V1.58032H30.0654V1.50068L30.4393 0.896716H30.0699V0.809329H30.5588V0.888973L30.1849 1.49294ZM30.9626 1.59028C30.9058 1.59028 30.8542 1.57737 30.8077 1.55156C30.762 1.52575 30.7258 1.48925 30.6993 1.44205C30.6735 1.39412 30.6606 1.33881 30.6606 1.27613C30.6606 1.21418 30.6739 1.15961 30.7004 1.11242C30.7277 1.06448 30.7646 1.02798 30.811 1.00291C30.8575 0.977097 30.9095 0.964191 30.967 0.964191C31.0245 0.964191 31.0765 0.977097 31.123 1.00291C31.1694 1.02798 31.2059 1.06411 31.2325 1.11131C31.2598 1.15851 31.2734 1.21345 31.2734 1.27613C31.2734 1.33881 31.2594 1.39412 31.2314 1.44205C31.2041 1.48925 31.1668 1.52575 31.1196 1.55156C31.0724 1.57737 31.0201 1.59028 30.9626 1.59028ZM30.9626 1.50178C30.9987 1.50178 31.0326 1.4933 31.0643 1.47634C31.096 1.45938 31.1215 1.43394 31.1407 1.40002C31.1606 1.3661 31.1705 1.3248 31.1705 1.27613C31.1705 1.22746 31.1609 1.18616 31.1418 1.15224C31.1226 1.11832 31.0975 1.09324 31.0665 1.07702C31.0356 1.06006 31.002 1.05158 30.9659 1.05158C30.929 1.05158 30.8951 1.06006 30.8641 1.07702C30.8339 1.09324 30.8095 1.11832 30.7911 1.15224C30.7727 1.18616 30.7635 1.22746 30.7635 1.27613C30.7635 1.32554 30.7723 1.3672 30.79 1.40112C30.8084 1.43505 30.8328 1.46049 30.863 1.47745C30.8932 1.49367 30.9264 1.50178 30.9626 1.50178ZM31.7011 0.963085C31.7748 0.963085 31.8346 0.985577 31.8803 1.03056C31.926 1.07481 31.9489 1.13896 31.9489 1.22303V1.58032H31.8493V1.23741C31.8493 1.17694 31.8342 1.13085 31.804 1.09914C31.7737 1.0667 31.7324 1.05047 31.6801 1.05047C31.627 1.05047 31.5846 1.06706 31.5529 1.10025C31.5219 1.13343 31.5064 1.18174 31.5064 1.24516V1.58032H31.4057V0.974147H31.5064V1.06043C31.5263 1.02945 31.5532 1.00549 31.5872 0.988527C31.6218 0.971566 31.6598 0.963085 31.7011 0.963085ZM32.6664 1.25401C32.6664 1.27318 32.6653 1.29346 32.6631 1.31484H32.1786C32.1822 1.37458 32.2025 1.4214 32.2394 1.45533C32.277 1.48851 32.3224 1.5051 32.3755 1.5051C32.419 1.5051 32.4551 1.49515 32.4839 1.47524C32.5134 1.45459 32.534 1.4273 32.5458 1.39338H32.6542C32.638 1.45164 32.6055 1.4992 32.5569 1.53608C32.5082 1.57221 32.4477 1.59028 32.3755 1.59028C32.3179 1.59028 32.2663 1.57737 32.2206 1.55156C32.1756 1.52575 32.1402 1.48925 32.1144 1.44205C32.0886 1.39412 32.0757 1.33881 32.0757 1.27613C32.0757 1.21345 32.0882 1.15851 32.1133 1.11131C32.1384 1.06411 32.1734 1.02798 32.2184 1.00291C32.2641 0.977097 32.3165 0.964191 32.3755 0.964191C32.433 0.964191 32.4839 0.976728 32.5281 1.0018C32.5724 1.02687 32.6063 1.06153 32.6299 1.10578C32.6542 1.14929 32.6664 1.1987 32.6664 1.25401ZM32.5624 1.23299C32.5624 1.19464 32.5539 1.16183 32.537 1.13454C32.52 1.10652 32.4968 1.0855 32.4673 1.07149C32.4385 1.05674 32.4064 1.04937 32.371 1.04937C32.3201 1.04937 32.2766 1.06559 32.2405 1.09804C32.2051 1.13048 32.1848 1.17547 32.1797 1.23299H32.5624Z" fill="white"/>
<path d="M50.701 1.00269V1.77368H50.6003V1.42414H50.2076V1.77368H50.107V1.00269H50.2076V1.34117H50.6003V1.00269H50.701ZM50.9249 1.06906C50.9057 1.06906 50.8895 1.06242 50.8762 1.04915C50.8629 1.03587 50.8563 1.01965 50.8563 1.00048C50.8563 0.981303 50.8629 0.965079 50.8762 0.951805C50.8895 0.938531 50.9057 0.931894 50.9249 0.931894C50.9433 0.931894 50.9588 0.938531 50.9713 0.951805C50.9846 0.965079 50.9912 0.981303 50.9912 1.00048C50.9912 1.01965 50.9846 1.03587 50.9713 1.04915C50.9588 1.06242 50.9433 1.06906 50.9249 1.06906ZM50.9735 1.16751V1.77368H50.8729V1.16751H50.9735ZM51.3951 1.15755C51.4474 1.15755 51.4932 1.16898 51.5322 1.19184C51.5721 1.2147 51.6016 1.24346 51.6207 1.27812V1.16751H51.7225V1.78696C51.7225 1.84226 51.7107 1.8913 51.6871 1.93407C51.6635 1.97758 51.6296 2.01151 51.5853 2.03584C51.5418 2.06018 51.4909 2.07234 51.4327 2.07234C51.353 2.07234 51.2867 2.05354 51.2336 2.01593C51.1805 1.97832 51.1491 1.92707 51.1395 1.86217H51.2391C51.2502 1.89905 51.273 1.92854 51.3077 1.95067C51.3423 1.97353 51.384 1.98496 51.4327 1.98496C51.488 1.98496 51.533 1.96763 51.5676 1.93297C51.603 1.89831 51.6207 1.84964 51.6207 1.78696V1.65975C51.6008 1.69514 51.5713 1.72464 51.5322 1.74824C51.4932 1.77184 51.4474 1.78364 51.3951 1.78364C51.3412 1.78364 51.2922 1.77036 51.248 1.74382C51.2044 1.71727 51.1702 1.68003 51.1451 1.63209C51.12 1.58416 51.1075 1.52959 51.1075 1.46838C51.1075 1.40644 51.12 1.35223 51.1451 1.30578C51.1702 1.25858 51.2044 1.22208 51.248 1.19627C51.2922 1.17046 51.3412 1.15755 51.3951 1.15755ZM51.6207 1.46949C51.6207 1.42377 51.6115 1.38394 51.5931 1.35002C51.5746 1.3161 51.5496 1.29029 51.5179 1.27259C51.4869 1.25416 51.4526 1.24494 51.415 1.24494C51.3774 1.24494 51.3431 1.25379 51.3121 1.27149C51.2811 1.28918 51.2564 1.31499 51.238 1.34892C51.2196 1.38284 51.2103 1.42266 51.2103 1.46838C51.2103 1.51484 51.2196 1.5554 51.238 1.59006C51.2564 1.62398 51.2811 1.65016 51.3121 1.6686C51.3431 1.6863 51.3774 1.69514 51.415 1.69514C51.4526 1.69514 51.4869 1.6863 51.5179 1.6686C51.5496 1.65016 51.5746 1.62398 51.5931 1.59006C51.6115 1.5554 51.6207 1.51521 51.6207 1.46949ZM52.1935 1.15644C52.2392 1.15644 52.2805 1.1664 52.3174 1.18631C52.3542 1.20548 52.383 1.23461 52.4036 1.2737C52.425 1.31278 52.4357 1.36035 52.4357 1.41639V1.77368H52.3362V1.43077C52.3362 1.3703 52.3211 1.32421 52.2908 1.2925C52.2606 1.26005 52.2193 1.24383 52.1669 1.24383C52.1138 1.24383 52.0714 1.26042 52.0397 1.29361C52.0087 1.32679 51.9933 1.3751 51.9933 1.43852V1.77368H51.8926V0.955124H51.9933V1.25379C52.0132 1.22281 52.0405 1.19885 52.0751 1.18189C52.1105 1.16493 52.15 1.15644 52.1935 1.15644ZM53.3508 1.60223H53.0145L52.9526 1.77368H52.8464L53.1251 1.00711H53.2413L53.5189 1.77368H53.4127L53.3508 1.60223ZM53.322 1.52037L53.1827 1.131L53.0433 1.52037H53.322ZM53.6028 1.46949C53.6028 1.40681 53.6153 1.35223 53.6404 1.30578C53.6655 1.25858 53.7002 1.22208 53.7444 1.19627C53.7894 1.17046 53.8406 1.15755 53.8982 1.15755C53.9726 1.15755 54.0338 1.17562 54.0818 1.21175C54.1304 1.24789 54.1625 1.29803 54.178 1.36219H54.0696C54.0593 1.32532 54.039 1.29619 54.0088 1.2748C53.9793 1.25342 53.9424 1.24273 53.8982 1.24273C53.8406 1.24273 53.7942 1.26264 53.7588 1.30246C53.7234 1.34154 53.7057 1.39722 53.7057 1.46949C53.7057 1.54249 53.7234 1.59891 53.7588 1.63873C53.7942 1.67855 53.8406 1.69846 53.8982 1.69846C53.9424 1.69846 53.9793 1.68814 54.0088 1.66749C54.0383 1.64684 54.0585 1.61734 54.0696 1.579H54.178C54.1618 1.64094 54.1293 1.69072 54.0807 1.72833C54.032 1.7652 53.9712 1.78364 53.8982 1.78364C53.8406 1.78364 53.7894 1.77073 53.7444 1.74492C53.7002 1.71911 53.6655 1.68261 53.6404 1.63541C53.6153 1.58822 53.6028 1.53291 53.6028 1.46949ZM54.4351 1.25047V1.60776C54.4351 1.63726 54.4414 1.65827 54.4539 1.67081C54.4665 1.68261 54.4882 1.68851 54.5192 1.68851H54.5933V1.77368H54.5026C54.4465 1.77368 54.4045 1.76078 54.3765 1.73497C54.3485 1.70916 54.3344 1.66675 54.3344 1.60776V1.25047H54.2559V1.16751H54.3344V1.01486H54.4351V1.16751H54.5933V1.25047H54.4351ZM54.7672 1.06906C54.7481 1.06906 54.7318 1.06242 54.7186 1.04915C54.7053 1.03587 54.6987 1.01965 54.6987 1.00048C54.6987 0.981303 54.7053 0.965079 54.7186 0.951805C54.7318 0.938531 54.7481 0.931894 54.7672 0.931894C54.7857 0.931894 54.8012 0.938531 54.8137 0.951805C54.827 0.965079 54.8336 0.981303 54.8336 1.00048C54.8336 1.01965 54.827 1.03587 54.8137 1.04915C54.8012 1.06242 54.7857 1.06906 54.7672 1.06906ZM54.8159 1.16751V1.77368H54.7153V1.16751H54.8159ZM55.2518 1.78364C55.1951 1.78364 55.1434 1.77073 55.097 1.74492C55.0513 1.71911 55.0151 1.68261 54.9886 1.63541C54.9628 1.58748 54.9499 1.53217 54.9499 1.46949C54.9499 1.40754 54.9631 1.35297 54.9897 1.30578C55.017 1.25784 55.0538 1.22134 55.1003 1.19627C55.1468 1.17046 55.1987 1.15755 55.2563 1.15755C55.3138 1.15755 55.3658 1.17046 55.4122 1.19627C55.4587 1.22134 55.4952 1.25747 55.5217 1.30467C55.549 1.35187 55.5627 1.40681 55.5627 1.46949C55.5627 1.53217 55.5487 1.58748 55.5206 1.63541C55.4934 1.68261 55.4561 1.71911 55.4089 1.74492C55.3617 1.77073 55.3094 1.78364 55.2518 1.78364ZM55.2518 1.69514C55.288 1.69514 55.3219 1.68666 55.3536 1.6697C55.3853 1.65274 55.4108 1.6273 55.4299 1.59338C55.4498 1.55946 55.4598 1.51816 55.4598 1.46949C55.4598 1.42082 55.4502 1.37952 55.431 1.3456C55.4119 1.31168 55.3868 1.2866 55.3558 1.27038C55.3249 1.25342 55.2913 1.24494 55.2552 1.24494C55.2183 1.24494 55.1844 1.25342 55.1534 1.27038C55.1232 1.2866 55.0988 1.31168 55.0804 1.3456C55.062 1.37952 55.0527 1.42082 55.0527 1.46949C55.0527 1.5189 55.0616 1.56056 55.0793 1.59448C55.0977 1.62841 55.1221 1.65385 55.1523 1.67081C55.1825 1.68703 55.2157 1.69514 55.2518 1.69514ZM55.9904 1.15644C56.0641 1.15644 56.1238 1.17894 56.1696 1.22392C56.2153 1.26817 56.2381 1.33232 56.2381 1.41639V1.77368H56.1386V1.43077C56.1386 1.3703 56.1235 1.32421 56.0932 1.2925C56.063 1.26005 56.0217 1.24383 55.9694 1.24383C55.9163 1.24383 55.8739 1.26042 55.8421 1.29361C55.8112 1.32679 55.7957 1.3751 55.7957 1.43852V1.77368H55.695V1.16751H55.7957V1.25379C55.8156 1.22281 55.8425 1.19885 55.8764 1.18189C55.9111 1.16493 55.9491 1.15644 55.9904 1.15644ZM56.7827 1.6863H57.1588V1.77368H56.6632V1.69404L57.0371 1.09008H56.6676V1.00269H57.1565V1.08233L56.7827 1.6863ZM57.5603 1.78364C57.5035 1.78364 57.4519 1.77073 57.4054 1.74492C57.3597 1.71911 57.3236 1.68261 57.297 1.63541C57.2712 1.58748 57.2583 1.53217 57.2583 1.46949C57.2583 1.40754 57.2716 1.35297 57.2981 1.30578C57.3254 1.25784 57.3623 1.22134 57.4088 1.19627C57.4552 1.17046 57.5072 1.15755 57.5647 1.15755C57.6222 1.15755 57.6742 1.17046 57.7207 1.19627C57.7672 1.22134 57.8037 1.25747 57.8302 1.30467C57.8575 1.35187 57.8711 1.40681 57.8711 1.46949C57.8711 1.53217 57.8571 1.58748 57.8291 1.63541C57.8018 1.68261 57.7646 1.71911 57.7174 1.74492C57.6702 1.77073 57.6178 1.78364 57.5603 1.78364ZM57.5603 1.69514C57.5964 1.69514 57.6304 1.68666 57.6621 1.6697C57.6938 1.65274 57.7192 1.6273 57.7384 1.59338C57.7583 1.55946 57.7683 1.51816 57.7683 1.46949C57.7683 1.42082 57.7587 1.37952 57.7395 1.3456C57.7203 1.31168 57.6953 1.2866 57.6643 1.27038C57.6333 1.25342 57.5998 1.24494 57.5636 1.24494C57.5268 1.24494 57.4928 1.25342 57.4619 1.27038C57.4316 1.2866 57.4073 1.31168 57.3888 1.3456C57.3704 1.37952 57.3612 1.42082 57.3612 1.46949C57.3612 1.5189 57.37 1.56056 57.3877 1.59448C57.4062 1.62841 57.4305 1.65385 57.4608 1.67081C57.491 1.68703 57.5242 1.69514 57.5603 1.69514ZM58.2988 1.15644C58.3726 1.15644 58.4323 1.17894 58.478 1.22392C58.5237 1.26817 58.5466 1.33232 58.5466 1.41639V1.77368H58.4471V1.43077C58.4471 1.3703 58.4319 1.32421 58.4017 1.2925C58.3715 1.26005 58.3302 1.24383 58.2778 1.24383C58.2247 1.24383 58.1823 1.26042 58.1506 1.29361C58.1196 1.32679 58.1041 1.3751 58.1041 1.43852V1.77368H58.0035V1.16751H58.1041V1.25379C58.1241 1.22281 58.151 1.19885 58.1849 1.18189C58.2196 1.16493 58.2575 1.15644 58.2988 1.15644ZM59.2641 1.44736C59.2641 1.46654 59.263 1.48682 59.2608 1.5082H58.7763C58.78 1.56794 58.8003 1.61476 58.8371 1.64869C58.8747 1.68187 58.9201 1.69846 58.9732 1.69846C59.0167 1.69846 59.0528 1.68851 59.0816 1.6686C59.1111 1.64795 59.1317 1.62066 59.1435 1.58674H59.252C59.2357 1.645 59.2033 1.69256 59.1546 1.72944C59.1059 1.76557 59.0455 1.78364 58.9732 1.78364C58.9157 1.78364 58.8641 1.77073 58.8183 1.74492C58.7734 1.71911 58.738 1.68261 58.7121 1.63541C58.6863 1.58748 58.6734 1.53217 58.6734 1.46949C58.6734 1.40681 58.686 1.35187 58.711 1.30467C58.7361 1.25747 58.7711 1.22134 58.8161 1.19627C58.8618 1.17046 58.9142 1.15755 58.9732 1.15755C59.0307 1.15755 59.0816 1.17009 59.1258 1.19516C59.1701 1.22023 59.204 1.25489 59.2276 1.29914C59.252 1.34265 59.2641 1.39206 59.2641 1.44736ZM59.1601 1.42635C59.1601 1.388 59.1517 1.35518 59.1347 1.3279C59.1177 1.29988 59.0945 1.27886 59.065 1.26485C59.0362 1.2501 59.0042 1.24273 58.9688 1.24273C58.9179 1.24273 58.8744 1.25895 58.8382 1.2914C58.8028 1.32384 58.7826 1.36883 58.7774 1.42635H59.1601Z" fill="white"/>
<path d="M77.8483 1.69183H78.1182V1.77368H77.7476V1.00269H77.8483V1.69183ZM78.7782 1.44736C78.7782 1.46654 78.7771 1.48682 78.7749 1.5082H78.2904C78.2941 1.56794 78.3143 1.61476 78.3512 1.64869C78.3888 1.68187 78.4342 1.69846 78.4873 1.69846C78.5308 1.69846 78.5669 1.68851 78.5957 1.6686C78.6252 1.64795 78.6458 1.62066 78.6576 1.58674H78.766C78.7498 1.645 78.7173 1.69256 78.6687 1.72944C78.62 1.76557 78.5595 1.78364 78.4873 1.78364C78.4297 1.78364 78.3781 1.77073 78.3324 1.74492C78.2874 1.71911 78.252 1.68261 78.2262 1.63541C78.2004 1.58748 78.1875 1.53217 78.1875 1.46949C78.1875 1.40681 78.2 1.35187 78.2251 1.30467C78.2502 1.25747 78.2852 1.22134 78.3302 1.19627C78.3759 1.17046 78.4283 1.15755 78.4873 1.15755C78.5448 1.15755 78.5957 1.17009 78.6399 1.19516C78.6842 1.22023 78.7181 1.25489 78.7417 1.29914C78.766 1.34265 78.7782 1.39206 78.7782 1.44736ZM78.6742 1.42635C78.6742 1.388 78.6657 1.35518 78.6488 1.3279C78.6318 1.29988 78.6086 1.27886 78.5791 1.26485C78.5503 1.2501 78.5182 1.24273 78.4828 1.24273C78.432 1.24273 78.3884 1.25895 78.3523 1.2914C78.3169 1.32384 78.2966 1.36883 78.2915 1.42635H78.6742ZM79.0338 1.25047V1.60776C79.0338 1.63726 79.0401 1.65827 79.0526 1.67081C79.0652 1.68261 79.0869 1.68851 79.1179 1.68851H79.192V1.77368H79.1013C79.0453 1.77368 79.0032 1.76078 78.9752 1.73497C78.9472 1.70916 78.9332 1.66675 78.9332 1.60776V1.25047H78.8546V1.16751H78.9332V1.01486H79.0338V1.16751H79.192V1.25047H79.0338ZM79.3649 0.893179L79.3516 1.1133H79.2819L79.2675 0.893179H79.3649ZM79.7047 1.78364C79.6582 1.78364 79.6165 1.77589 79.5797 1.76041C79.5428 1.74418 79.5137 1.72206 79.4923 1.69404C79.4709 1.66528 79.4591 1.63246 79.4569 1.59559H79.5609C79.5638 1.62582 79.5778 1.65053 79.6029 1.6697C79.6287 1.68888 79.6623 1.69846 79.7035 1.69846C79.7419 1.69846 79.7721 1.68998 79.7943 1.67302C79.8164 1.65606 79.8274 1.63467 79.8274 1.60886C79.8274 1.58232 79.8156 1.56277 79.792 1.55024C79.7684 1.53696 79.7319 1.52406 79.6825 1.51152C79.6375 1.49972 79.6007 1.48792 79.5719 1.47612C79.5439 1.46359 79.5196 1.44552 79.4989 1.42192C79.479 1.39759 79.469 1.36588 79.469 1.32679C79.469 1.29582 79.4783 1.26743 79.4967 1.24162C79.5151 1.21581 79.5413 1.19553 79.5752 1.18078C79.6092 1.16529 79.6479 1.15755 79.6914 1.15755C79.7585 1.15755 79.8127 1.17451 79.854 1.20843C79.8953 1.24236 79.9174 1.28882 79.9204 1.34781H79.8197C79.8175 1.3161 79.8046 1.29066 79.781 1.27149C79.7581 1.25231 79.7271 1.24273 79.6881 1.24273C79.6519 1.24273 79.6232 1.25047 79.6018 1.26595C79.5804 1.28144 79.5697 1.30172 79.5697 1.32679C79.5697 1.3467 79.576 1.3633 79.5885 1.37657C79.6018 1.38911 79.618 1.39943 79.6372 1.40754C79.6571 1.41492 79.6844 1.4234 79.719 1.43298C79.7625 1.44478 79.7979 1.45658 79.8252 1.46838C79.8525 1.47944 79.8757 1.4964 79.8949 1.51926C79.9148 1.54213 79.9251 1.57199 79.9259 1.60886C79.9259 1.64205 79.9167 1.67191 79.8982 1.69846C79.8798 1.72501 79.8536 1.74603 79.8197 1.76151C79.7865 1.77626 79.7482 1.78364 79.7047 1.78364ZM80.3253 1.38763C80.3253 1.31241 80.3422 1.24494 80.3762 1.1852C80.4101 1.12473 80.4562 1.07754 80.5144 1.04362C80.5734 1.00969 80.6387 0.992733 80.7102 0.992733C80.7943 0.992733 80.8677 1.01301 80.9303 1.05357C80.993 1.09413 81.0388 1.15165 81.0675 1.22613H80.9469C80.9256 1.17967 80.8946 1.14391 80.854 1.11884C80.8142 1.09376 80.7663 1.08123 80.7102 1.08123C80.6564 1.08123 80.6081 1.09376 80.5653 1.11884C80.5225 1.14391 80.489 1.17967 80.4647 1.22613C80.4403 1.27185 80.4282 1.32569 80.4282 1.38763C80.4282 1.44884 80.4403 1.50267 80.4647 1.54913C80.489 1.59485 80.5225 1.63025 80.5653 1.65532C80.6081 1.6804 80.6564 1.69293 80.7102 1.69293C80.7663 1.69293 80.8142 1.68076 80.854 1.65643C80.8946 1.63136 80.9256 1.59559 80.9469 1.54913H81.0675C81.0388 1.62288 80.993 1.68003 80.9303 1.72059C80.8677 1.76041 80.7943 1.78032 80.7102 1.78032C80.6387 1.78032 80.5734 1.76373 80.5144 1.73054C80.4562 1.69662 80.4101 1.64979 80.3762 1.59006C80.3422 1.53033 80.3253 1.46285 80.3253 1.38763ZM81.1797 1.46838C81.1797 1.40644 81.1923 1.35223 81.2174 1.30578C81.2424 1.25858 81.2767 1.22208 81.3202 1.19627C81.3645 1.17046 81.4135 1.15755 81.4673 1.15755C81.5204 1.15755 81.5665 1.16898 81.6056 1.19184C81.6447 1.2147 81.6738 1.24346 81.693 1.27812V1.16751H81.7948V1.77368H81.693V1.66085C81.6731 1.69625 81.6432 1.72575 81.6034 1.74935C81.5643 1.77221 81.5186 1.78364 81.4662 1.78364C81.4124 1.78364 81.3637 1.77036 81.3202 1.74382C81.2767 1.71727 81.2424 1.68003 81.2174 1.63209C81.1923 1.58416 81.1797 1.52959 81.1797 1.46838ZM81.693 1.46949C81.693 1.42377 81.6838 1.38394 81.6653 1.35002C81.6469 1.3161 81.6218 1.29029 81.5901 1.27259C81.5592 1.25416 81.5249 1.24494 81.4873 1.24494C81.4496 1.24494 81.4154 1.25379 81.3844 1.27149C81.3534 1.28918 81.3287 1.31499 81.3103 1.34892C81.2918 1.38284 81.2826 1.42266 81.2826 1.46838C81.2826 1.51484 81.2918 1.5554 81.3103 1.59006C81.3287 1.62398 81.3534 1.65016 81.3844 1.6686C81.4154 1.6863 81.4496 1.69514 81.4873 1.69514C81.5249 1.69514 81.5592 1.6863 81.5901 1.6686C81.6218 1.65016 81.6469 1.62398 81.6653 1.59006C81.6838 1.5554 81.693 1.51521 81.693 1.46949ZM82.0655 0.955124V1.77368H81.9649V0.955124H82.0655ZM82.9661 1.15644C83.0133 1.15644 83.0553 1.1664 83.0922 1.18631C83.129 1.20548 83.1582 1.23461 83.1795 1.2737C83.2009 1.31278 83.2116 1.36035 83.2116 1.41639V1.77368H83.1121V1.43077C83.1121 1.3703 83.0969 1.32421 83.0667 1.2925C83.0372 1.26005 82.997 1.24383 82.9461 1.24383C82.8938 1.24383 82.8521 1.26079 82.8211 1.29471C82.7902 1.3279 82.7747 1.3762 82.7747 1.43962V1.77368H82.6751V1.43077C82.6751 1.3703 82.66 1.32421 82.6298 1.2925C82.6003 1.26005 82.5601 1.24383 82.5092 1.24383C82.4569 1.24383 82.4152 1.26079 82.3842 1.29471C82.3532 1.3279 82.3378 1.3762 82.3378 1.43962V1.77368H82.2371V1.16751H82.3378V1.25489C82.3577 1.22318 82.3842 1.19885 82.4174 1.18189C82.4513 1.16493 82.4886 1.15644 82.5291 1.15644C82.58 1.15644 82.625 1.16787 82.6641 1.19074C82.7032 1.2136 82.7323 1.24715 82.7515 1.2914C82.7684 1.24862 82.7964 1.21544 82.8355 1.19184C82.8746 1.16824 82.9181 1.15644 82.9661 1.15644ZM83.634 1.46838C83.634 1.40644 83.6466 1.35223 83.6716 1.30578C83.6967 1.25858 83.731 1.22208 83.7745 1.19627C83.8188 1.17046 83.8682 1.15755 83.9227 1.15755C83.9699 1.15755 84.0138 1.16861 84.0544 1.19074C84.0949 1.21212 84.1259 1.24051 84.1473 1.27591V0.955124H84.2491V1.77368H84.1473V1.65975C84.1274 1.69588 84.0979 1.72575 84.0588 1.74935C84.0197 1.77221 83.974 1.78364 83.9216 1.78364C83.8678 1.78364 83.8188 1.77036 83.7745 1.74382C83.731 1.71727 83.6967 1.68003 83.6716 1.63209C83.6466 1.58416 83.634 1.52959 83.634 1.46838ZM84.1473 1.46949C84.1473 1.42377 84.1381 1.38394 84.1196 1.35002C84.1012 1.3161 84.0761 1.29029 84.0444 1.27259C84.0134 1.25416 83.9792 1.24494 83.9415 1.24494C83.9039 1.24494 83.8696 1.25379 83.8387 1.27149C83.8077 1.28918 83.783 1.31499 83.7646 1.34892C83.7461 1.38284 83.7369 1.42266 83.7369 1.46838C83.7369 1.51484 83.7461 1.5554 83.7646 1.59006C83.783 1.62398 83.8077 1.65016 83.8387 1.6686C83.8696 1.6863 83.9039 1.69514 83.9415 1.69514C83.9792 1.69514 84.0134 1.6863 84.0444 1.6686C84.0761 1.65016 84.1012 1.62398 84.1196 1.59006C84.1381 1.5554 84.1473 1.51521 84.1473 1.46949ZM84.6835 1.78364C84.6268 1.78364 84.5751 1.77073 84.5287 1.74492C84.483 1.71911 84.4468 1.68261 84.4203 1.63541C84.3945 1.58748 84.3816 1.53217 84.3816 1.46949C84.3816 1.40754 84.3948 1.35297 84.4214 1.30578C84.4487 1.25784 84.4855 1.22134 84.532 1.19627C84.5785 1.17046 84.6304 1.15755 84.688 1.15755C84.7455 1.15755 84.7975 1.17046 84.8439 1.19627C84.8904 1.22134 84.9269 1.25747 84.9534 1.30467C84.9807 1.35187 84.9944 1.40681 84.9944 1.46949C84.9944 1.53217 84.9804 1.58748 84.9523 1.63541C84.9251 1.68261 84.8878 1.71911 84.8406 1.74492C84.7934 1.77073 84.7411 1.78364 84.6835 1.78364ZM84.6835 1.69514C84.7197 1.69514 84.7536 1.68666 84.7853 1.6697C84.817 1.65274 84.8425 1.6273 84.8616 1.59338C84.8815 1.55946 84.8915 1.51816 84.8915 1.46949C84.8915 1.42082 84.8819 1.37952 84.8627 1.3456C84.8436 1.31168 84.8185 1.2866 84.7875 1.27038C84.7565 1.25342 84.723 1.24494 84.6869 1.24494C84.65 1.24494 84.6161 1.25342 84.5851 1.27038C84.5549 1.2866 84.5305 1.31168 84.5121 1.3456C84.4936 1.37952 84.4844 1.42082 84.4844 1.46949C84.4844 1.5189 84.4933 1.56056 84.511 1.59448C84.5294 1.62841 84.5537 1.65385 84.584 1.67081C84.6142 1.68703 84.6474 1.69514 84.6835 1.69514ZM85.9342 1.16751L85.7451 1.77368H85.6411L85.4951 1.2925L85.3491 1.77368H85.2451L85.0548 1.16751H85.1577L85.2971 1.67634L85.4475 1.16751H85.5504L85.6975 1.67745L85.8347 1.16751H85.9342ZM86.3295 1.15644C86.4032 1.15644 86.4629 1.17894 86.5087 1.22392C86.5544 1.26817 86.5772 1.33232 86.5772 1.41639V1.77368H86.4777V1.43077C86.4777 1.3703 86.4626 1.32421 86.4323 1.2925C86.4021 1.26005 86.3608 1.24383 86.3084 1.24383C86.2553 1.24383 86.2129 1.26042 86.1812 1.29361C86.1503 1.32679 86.1348 1.3751 86.1348 1.43852V1.77368H86.0341V1.16751H86.1348V1.25379C86.1547 1.22281 86.1816 1.19885 86.2155 1.18189C86.2502 1.16493 86.2882 1.15644 86.3295 1.15644Z" fill="white"/>
<path d="M103.875 1.58032H103.775L103.37 0.966404V1.58032H103.269V0.808223H103.37L103.775 1.42104V0.808223H103.875V1.58032ZM104.6 1.25401C104.6 1.27318 104.599 1.29346 104.597 1.31484H104.112C104.116 1.37458 104.136 1.4214 104.173 1.45533C104.211 1.48851 104.256 1.5051 104.309 1.5051C104.353 1.5051 104.389 1.49515 104.418 1.47524C104.447 1.45459 104.468 1.4273 104.48 1.39338H104.588C104.572 1.45164 104.539 1.4992 104.491 1.53608C104.442 1.57221 104.381 1.59028 104.309 1.59028C104.252 1.59028 104.2 1.57737 104.154 1.55156C104.109 1.52575 104.074 1.48925 104.048 1.44205C104.022 1.39412 104.009 1.33881 104.009 1.27613C104.009 1.21345 104.022 1.15851 104.047 1.11131C104.072 1.06411 104.107 1.02798 104.152 1.00291C104.198 0.977097 104.25 0.964191 104.309 0.964191C104.367 0.964191 104.418 0.976728 104.462 1.0018C104.506 1.02687 104.54 1.06153 104.564 1.10578C104.588 1.14929 104.6 1.1987 104.6 1.25401ZM104.496 1.23299C104.496 1.19464 104.488 1.16183 104.471 1.13454C104.454 1.10652 104.43 1.0855 104.401 1.07149C104.372 1.05674 104.34 1.04937 104.305 1.04937C104.254 1.04937 104.21 1.06559 104.174 1.09804C104.139 1.13048 104.119 1.17547 104.113 1.23299H104.496ZM105.54 0.974147L105.351 1.58032H105.247L105.101 1.09914L104.955 1.58032H104.851L104.661 0.974147H104.764L104.903 1.48298L105.054 0.974147H105.157L105.304 1.48409L105.441 0.974147H105.54ZM106.541 1.58032H106.441L106.036 0.966404V1.58032H105.935V0.808223H106.036L106.441 1.42104V0.808223H106.541V1.58032ZM106.977 1.59028C106.921 1.59028 106.869 1.57737 106.823 1.55156C106.777 1.52575 106.741 1.48925 106.714 1.44205C106.688 1.39412 106.675 1.33881 106.675 1.27613C106.675 1.21418 106.689 1.15961 106.715 1.11242C106.743 1.06448 106.779 1.02798 106.826 1.00291C106.872 0.977097 106.924 0.964191 106.982 0.964191C107.039 0.964191 107.091 0.977097 107.138 1.00291C107.184 1.02798 107.221 1.06411 107.247 1.11131C107.275 1.15851 107.288 1.21345 107.288 1.27613C107.288 1.33881 107.274 1.39412 107.246 1.44205C107.219 1.48925 107.182 1.52575 107.134 1.55156C107.087 1.57737 107.035 1.59028 106.977 1.59028ZM106.977 1.50178C107.014 1.50178 107.047 1.4933 107.079 1.47634C107.111 1.45938 107.136 1.43394 107.156 1.40002C107.175 1.3661 107.185 1.3248 107.185 1.27613C107.185 1.22746 107.176 1.18616 107.157 1.15224C107.137 1.11832 107.112 1.09324 107.081 1.07702C107.05 1.06006 107.017 1.05158 106.981 1.05158C106.944 1.05158 106.91 1.06006 106.879 1.07702C106.849 1.09324 106.824 1.11832 106.806 1.15224C106.788 1.18616 106.778 1.22746 106.778 1.27613C106.778 1.32554 106.787 1.3672 106.805 1.40112C106.823 1.43505 106.848 1.46049 106.878 1.47745C106.908 1.49367 106.941 1.50178 106.977 1.50178ZM107.521 1.0726C107.539 1.03794 107.564 1.01102 107.596 0.991845C107.63 0.972672 107.67 0.963085 107.717 0.963085V1.06706H107.69C107.578 1.06706 107.521 1.12827 107.521 1.25069V1.58032H107.421V0.974147H107.521V1.0726ZM108.562 0.963085C108.609 0.963085 108.651 0.973041 108.688 0.992952C108.725 1.01213 108.754 1.04125 108.776 1.08034C108.797 1.11942 108.808 1.16699 108.808 1.22303V1.58032H108.708V1.23741C108.708 1.17694 108.693 1.13085 108.663 1.09914C108.633 1.0667 108.593 1.05047 108.542 1.05047C108.49 1.05047 108.448 1.06743 108.417 1.10136C108.386 1.13454 108.371 1.18284 108.371 1.24626V1.58032H108.271V1.23741C108.271 1.17694 108.256 1.13085 108.226 1.09914C108.196 1.0667 108.156 1.05047 108.105 1.05047C108.053 1.05047 108.011 1.06743 107.98 1.10136C107.949 1.13454 107.934 1.18284 107.934 1.24626V1.58032H107.833V0.974147H107.934V1.06153C107.954 1.02982 107.98 1.00549 108.014 0.988527C108.047 0.971566 108.085 0.963085 108.125 0.963085C108.176 0.963085 108.221 0.974516 108.26 0.997376C108.299 1.02024 108.328 1.05379 108.348 1.09804C108.365 1.05527 108.393 1.02208 108.432 0.998482C108.471 0.974884 108.514 0.963085 108.562 0.963085ZM108.935 1.27502C108.935 1.21308 108.948 1.15888 108.973 1.11242C108.998 1.06522 109.032 1.02872 109.076 1.00291C109.12 0.977097 109.169 0.964191 109.223 0.964191C109.276 0.964191 109.322 0.975622 109.361 0.998482C109.4 1.02134 109.429 1.0501 109.449 1.08476V0.974147H109.55V1.58032H109.449V1.46749C109.429 1.50289 109.399 1.53239 109.359 1.55599C109.32 1.57885 109.274 1.59028 109.222 1.59028C109.168 1.59028 109.119 1.577 109.076 1.55046C109.032 1.52391 108.998 1.48667 108.973 1.43873C108.948 1.3908 108.935 1.33623 108.935 1.27502ZM109.449 1.27613C109.449 1.23041 109.439 1.19059 109.421 1.15666C109.402 1.12274 109.377 1.09693 109.346 1.07923C109.315 1.0608 109.28 1.05158 109.243 1.05158C109.205 1.05158 109.171 1.06043 109.14 1.07813C109.109 1.09582 109.084 1.12163 109.066 1.15556C109.047 1.18948 109.038 1.2293 109.038 1.27502C109.038 1.32148 109.047 1.36204 109.066 1.3967C109.084 1.43062 109.109 1.4568 109.14 1.47524C109.171 1.49294 109.205 1.50178 109.243 1.50178C109.28 1.50178 109.315 1.49294 109.346 1.47524C109.377 1.4568 109.402 1.43062 109.421 1.3967C109.439 1.36204 109.449 1.32185 109.449 1.27613ZM109.821 0.761764V1.58032H109.72V0.761764H109.821Z" fill="white"/>
<path d="M31.931 49.0308V49.2886H32.2119V49.3715H31.931V49.637H32.2451V49.72H31.8303V48.9479H32.2451V49.0308H31.931ZM33.1264 49.1027C33.1736 49.1027 33.2156 49.1127 33.2525 49.1326C33.2893 49.1518 33.3185 49.1809 33.3399 49.22C33.3612 49.2591 33.3719 49.3066 33.3719 49.3627V49.72H33.2724V49.3771C33.2724 49.3166 33.2573 49.2705 33.227 49.2388C33.1975 49.2063 33.1573 49.1901 33.1065 49.1901C33.0541 49.1901 33.0124 49.2071 32.9815 49.241C32.9505 49.2742 32.935 49.3225 32.935 49.3859V49.72H32.8355V49.3771C32.8355 49.3166 32.8203 49.2705 32.7901 49.2388C32.7606 49.2063 32.7204 49.1901 32.6695 49.1901C32.6172 49.1901 32.5755 49.2071 32.5445 49.241C32.5136 49.2742 32.4981 49.3225 32.4981 49.3859V49.72H32.3974V49.1138H32.4981V49.2012C32.518 49.1695 32.5445 49.1451 32.5777 49.1282C32.6116 49.1112 32.6489 49.1027 32.6894 49.1027C32.7403 49.1027 32.7853 49.1142 32.8244 49.137C32.8635 49.1599 32.8926 49.1934 32.9118 49.2377C32.9287 49.1949 32.9568 49.1617 32.9958 49.1381C33.0349 49.1145 33.0784 49.1027 33.1264 49.1027ZM34.0901 49.3937C34.0901 49.4128 34.089 49.4331 34.0868 49.4545H33.6023C33.606 49.5142 33.6263 49.5611 33.6632 49.595C33.7008 49.6282 33.7461 49.6448 33.7992 49.6448C33.8427 49.6448 33.8789 49.6348 33.9076 49.6149C33.9371 49.5942 33.9578 49.567 33.9696 49.533H34.078C34.0617 49.5913 34.0293 49.6389 33.9806 49.6757C33.932 49.7119 33.8715 49.7299 33.7992 49.7299C33.7417 49.7299 33.6901 49.717 33.6444 49.6912C33.5994 49.6654 33.564 49.6289 33.5382 49.5817C33.5124 49.5338 33.4995 49.4785 33.4995 49.4158C33.4995 49.3531 33.512 49.2982 33.5371 49.251C33.5621 49.2038 33.5972 49.1676 33.6421 49.1426C33.6879 49.1167 33.7402 49.1038 33.7992 49.1038C33.8567 49.1038 33.9076 49.1164 33.9519 49.1414C33.9961 49.1665 34.03 49.2012 34.0536 49.2454C34.078 49.2889 34.0901 49.3383 34.0901 49.3937ZM33.9862 49.3726C33.9862 49.3343 33.9777 49.3015 33.9607 49.2742C33.9438 49.2462 33.9205 49.2251 33.891 49.2111C33.8623 49.1964 33.8302 49.189 33.7948 49.189C33.7439 49.189 33.7004 49.2052 33.6643 49.2377C33.6289 49.2701 33.6086 49.3151 33.6034 49.3726H33.9862ZM34.3237 49.2122C34.3414 49.1776 34.3664 49.1507 34.3989 49.1315C34.4321 49.1123 34.4723 49.1027 34.5195 49.1027V49.2067H34.4929C34.3801 49.2067 34.3237 49.2679 34.3237 49.3903V49.72H34.223V49.1138H34.3237V49.2122ZM34.8857 49.1038C34.938 49.1038 34.9837 49.1153 35.0228 49.1381C35.0626 49.161 35.0921 49.1898 35.1113 49.2244V49.1138H35.2131V49.7332C35.2131 49.7886 35.2013 49.8376 35.1777 49.8804C35.1541 49.9239 35.1202 49.9578 35.0759 49.9821C35.0324 50.0065 34.9815 50.0186 34.9233 50.0186C34.8436 50.0186 34.7772 49.9998 34.7242 49.9622C34.6711 49.9246 34.6397 49.8734 34.6301 49.8085H34.7297C34.7407 49.8453 34.7636 49.8748 34.7983 49.897C34.8329 49.9198 34.8746 49.9312 34.9233 49.9312C34.9786 49.9312 35.0236 49.9139 35.0582 49.8793C35.0936 49.8446 35.1113 49.7959 35.1113 49.7332V49.606C35.0914 49.6414 35.0619 49.6709 35.0228 49.6945C34.9837 49.7181 34.938 49.7299 34.8857 49.7299C34.8318 49.7299 34.7828 49.7167 34.7385 49.6901C34.695 49.6636 34.6607 49.6263 34.6357 49.5784C34.6106 49.5304 34.598 49.4759 34.598 49.4147C34.598 49.3527 34.6106 49.2985 34.6357 49.2521C34.6607 49.2049 34.695 49.1684 34.7385 49.1426C34.7828 49.1167 34.8318 49.1038 34.8857 49.1038ZM35.1113 49.4158C35.1113 49.3701 35.1021 49.3302 35.0837 49.2963C35.0652 49.2624 35.0401 49.2366 35.0084 49.2189C34.9775 49.2004 34.9432 49.1912 34.9056 49.1912C34.868 49.1912 34.8337 49.2001 34.8027 49.2178C34.7717 49.2355 34.747 49.2613 34.7286 49.2952C34.7101 49.3291 34.7009 49.3689 34.7009 49.4147C34.7009 49.4611 34.7101 49.5017 34.7286 49.5363C34.747 49.5703 34.7717 49.5964 34.8027 49.6149C34.8337 49.6326 34.868 49.6414 34.9056 49.6414C34.9432 49.6414 34.9775 49.6326 35.0084 49.6149C35.0401 49.5964 35.0652 49.5703 35.0837 49.5363C35.1021 49.5017 35.1113 49.4615 35.1113 49.4158ZM35.4352 49.0153C35.416 49.0153 35.3998 49.0087 35.3865 48.9954C35.3732 48.9822 35.3666 48.9659 35.3666 48.9468C35.3666 48.9276 35.3732 48.9114 35.3865 48.8981C35.3998 48.8848 35.416 48.8782 35.4352 48.8782C35.4536 48.8782 35.4691 48.8848 35.4816 48.8981C35.4949 48.9114 35.5015 48.9276 35.5015 48.9468C35.5015 48.9659 35.4949 48.9822 35.4816 48.9954C35.4691 49.0087 35.4536 49.0153 35.4352 49.0153ZM35.4838 49.1138V49.72H35.3832V49.1138H35.4838ZM35.9507 49.1027C36.0245 49.1027 36.0842 49.1252 36.1299 49.1702C36.1757 49.2145 36.1985 49.2786 36.1985 49.3627V49.72H36.099V49.3771C36.099 49.3166 36.0839 49.2705 36.0536 49.2388C36.0234 49.2063 35.9821 49.1901 35.9297 49.1901C35.8766 49.1901 35.8342 49.2067 35.8025 49.2399C35.7715 49.2731 35.7561 49.3214 35.7561 49.3848V49.72H35.6554V49.1138H35.7561V49.2001C35.776 49.1691 35.8029 49.1451 35.8368 49.1282C35.8715 49.1112 35.9094 49.1027 35.9507 49.1027ZM36.6129 49.1038C36.6653 49.1038 36.711 49.1153 36.7501 49.1381C36.7899 49.161 36.8194 49.1898 36.8386 49.2244V49.1138H36.9404V49.7332C36.9404 49.7886 36.9286 49.8376 36.905 49.8804C36.8814 49.9239 36.8475 49.9578 36.8032 49.9821C36.7597 50.0065 36.7088 50.0186 36.6506 50.0186C36.5709 50.0186 36.5045 49.9998 36.4514 49.9622C36.3983 49.9246 36.367 49.8734 36.3574 49.8085H36.457C36.468 49.8453 36.4909 49.8748 36.5256 49.897C36.5602 49.9198 36.6019 49.9312 36.6506 49.9312C36.7059 49.9312 36.7508 49.9139 36.7855 49.8793C36.8209 49.8446 36.8386 49.7959 36.8386 49.7332V49.606C36.8187 49.6414 36.7892 49.6709 36.7501 49.6945C36.711 49.7181 36.6653 49.7299 36.6129 49.7299C36.5591 49.7299 36.5101 49.7167 36.4658 49.6901C36.4223 49.6636 36.388 49.6263 36.363 49.5784C36.3379 49.5304 36.3253 49.4759 36.3253 49.4147C36.3253 49.3527 36.3379 49.2985 36.363 49.2521C36.388 49.2049 36.4223 49.1684 36.4658 49.1426C36.5101 49.1167 36.5591 49.1038 36.6129 49.1038ZM36.8386 49.4158C36.8386 49.3701 36.8294 49.3302 36.8109 49.2963C36.7925 49.2624 36.7674 49.2366 36.7357 49.2189C36.7048 49.2004 36.6705 49.1912 36.6329 49.1912C36.5952 49.1912 36.561 49.2001 36.53 49.2178C36.499 49.2355 36.4743 49.2613 36.4559 49.2952C36.4374 49.3291 36.4282 49.3689 36.4282 49.4147C36.4282 49.4611 36.4374 49.5017 36.4559 49.5363C36.4743 49.5703 36.499 49.5964 36.53 49.6149C36.561 49.6326 36.5952 49.6414 36.6329 49.6414C36.6705 49.6414 36.7048 49.6326 36.7357 49.6149C36.7674 49.5964 36.7925 49.5703 36.8109 49.5363C36.8294 49.5017 36.8386 49.4615 36.8386 49.4158ZM37.8799 48.949V49.0308H37.6698V49.72H37.5691V49.0308H37.3578V48.949H37.8799ZM38.1045 49.2122C38.1222 49.1776 38.1473 49.1507 38.1797 49.1315C38.2129 49.1123 38.2531 49.1027 38.3003 49.1027V49.2067H38.2737C38.1609 49.2067 38.1045 49.2679 38.1045 49.3903V49.72H38.0038V49.1138H38.1045V49.2122ZM38.9696 49.3937C38.9696 49.4128 38.9685 49.4331 38.9662 49.4545H38.4817C38.4854 49.5142 38.5057 49.5611 38.5426 49.595C38.5802 49.6282 38.6255 49.6448 38.6786 49.6448C38.7221 49.6448 38.7583 49.6348 38.787 49.6149C38.8165 49.5942 38.8372 49.567 38.849 49.533H38.9574C38.9412 49.5913 38.9087 49.6389 38.86 49.6757C38.8114 49.7119 38.7509 49.7299 38.6786 49.7299C38.6211 49.7299 38.5695 49.717 38.5238 49.6912C38.4788 49.6654 38.4434 49.6289 38.4176 49.5817C38.3918 49.5338 38.3789 49.4785 38.3789 49.4158C38.3789 49.3531 38.3914 49.2982 38.4165 49.251C38.4415 49.2038 38.4766 49.1676 38.5216 49.1426C38.5673 49.1167 38.6196 49.1038 38.6786 49.1038C38.7362 49.1038 38.787 49.1164 38.8313 49.1414C38.8755 49.1665 38.9095 49.2012 38.9331 49.2454C38.9574 49.2889 38.9696 49.3383 38.9696 49.3937ZM38.8656 49.3726C38.8656 49.3343 38.8571 49.3015 38.8401 49.2742C38.8232 49.2462 38.7999 49.2251 38.7704 49.2111C38.7417 49.1964 38.7096 49.189 38.6742 49.189C38.6233 49.189 38.5798 49.2052 38.5437 49.2377C38.5083 49.2701 38.488 49.3151 38.4828 49.3726H38.8656ZM39.3978 49.1027C39.4715 49.1027 39.5312 49.1252 39.577 49.1702C39.6227 49.2145 39.6456 49.2786 39.6456 49.3627V49.72H39.546V49.3771C39.546 49.3166 39.5309 49.2705 39.5006 49.2388C39.4704 49.2063 39.4291 49.1901 39.3768 49.1901C39.3237 49.1901 39.2813 49.2067 39.2495 49.2399C39.2186 49.2731 39.2031 49.3214 39.2031 49.3848V49.72H39.1024V49.1138H39.2031V49.2001C39.223 49.1691 39.2499 49.1451 39.2838 49.1282C39.3185 49.1112 39.3565 49.1027 39.3978 49.1027ZM39.7724 49.4147C39.7724 49.3527 39.7849 49.2985 39.81 49.2521C39.8351 49.2049 39.8693 49.1684 39.9129 49.1426C39.9571 49.1167 40.0065 49.1038 40.0611 49.1038C40.1083 49.1038 40.1522 49.1149 40.1927 49.137C40.2333 49.1584 40.2642 49.1868 40.2856 49.2222V48.9014H40.3874V49.72H40.2856V49.606C40.2657 49.6422 40.2362 49.672 40.1971 49.6956C40.1581 49.7185 40.1123 49.7299 40.06 49.7299C40.0061 49.7299 39.9571 49.7167 39.9129 49.6901C39.8693 49.6636 39.8351 49.6263 39.81 49.5784C39.7849 49.5304 39.7724 49.4759 39.7724 49.4147ZM40.2856 49.4158C40.2856 49.3701 40.2764 49.3302 40.258 49.2963C40.2395 49.2624 40.2145 49.2366 40.1828 49.2189C40.1518 49.2004 40.1175 49.1912 40.0799 49.1912C40.0423 49.1912 40.008 49.2001 39.977 49.2178C39.946 49.2355 39.9213 49.2613 39.9029 49.2952C39.8845 49.3291 39.8752 49.3689 39.8752 49.4147C39.8752 49.4611 39.8845 49.5017 39.9029 49.5363C39.9213 49.5703 39.946 49.5964 39.977 49.6149C40.008 49.6326 40.0423 49.6414 40.0799 49.6414C40.1175 49.6414 40.1518 49.6326 40.1828 49.6149C40.2145 49.5964 40.2395 49.5703 40.258 49.5363C40.2764 49.5017 40.2856 49.4615 40.2856 49.4158ZM40.7721 49.7299C40.7256 49.7299 40.684 49.7222 40.6471 49.7067C40.6102 49.6905 40.5811 49.6683 40.5597 49.6403C40.5383 49.6116 40.5265 49.5788 40.5243 49.5419H40.6283C40.6312 49.5721 40.6453 49.5968 40.6703 49.616C40.6961 49.6352 40.7297 49.6448 40.771 49.6448C40.8093 49.6448 40.8396 49.6363 40.8617 49.6193C40.8838 49.6023 40.8949 49.581 40.8949 49.5552C40.8949 49.5286 40.8831 49.5091 40.8595 49.4965C40.8359 49.4833 40.7994 49.4703 40.75 49.4578C40.705 49.446 40.6681 49.4342 40.6394 49.4224C40.6113 49.4099 40.587 49.3918 40.5663 49.3682C40.5464 49.3439 40.5365 49.3122 40.5365 49.2731C40.5365 49.2421 40.5457 49.2137 40.5641 49.1879C40.5826 49.1621 40.6088 49.1418 40.6427 49.1271C40.6766 49.1116 40.7153 49.1038 40.7588 49.1038C40.8259 49.1038 40.8801 49.1208 40.9214 49.1547C40.9627 49.1886 40.9848 49.2351 40.9878 49.2941H40.8871C40.8849 49.2624 40.872 49.2369 40.8484 49.2178C40.8256 49.1986 40.7946 49.189 40.7555 49.189C40.7194 49.189 40.6906 49.1968 40.6692 49.2122C40.6478 49.2277 40.6371 49.248 40.6371 49.2731C40.6371 49.293 40.6434 49.3096 40.6559 49.3229C40.6692 49.3354 40.6854 49.3457 40.7046 49.3538C40.7245 49.3612 40.7518 49.3697 40.7865 49.3793C40.83 49.3911 40.8654 49.4029 40.8927 49.4147C40.92 49.4257 40.9432 49.4427 40.9624 49.4656C40.9823 49.4884 40.9926 49.5183 40.9933 49.5552C40.9933 49.5883 40.9841 49.6182 40.9657 49.6448C40.9472 49.6713 40.9211 49.6923 40.8871 49.7078C40.854 49.7226 40.8156 49.7299 40.7721 49.7299Z" fill="white"/>
<path d="M79.9014 48.9545V49.72H79.8008V49.1492L79.5463 49.72H79.4755L79.22 49.1481V49.72H79.1194V48.9545H79.2278L79.5109 49.5872L79.7941 48.9545H79.9014ZM80.0345 49.4147C80.0345 49.3527 80.0471 49.2985 80.0721 49.2521C80.0972 49.2049 80.1315 49.1684 80.175 49.1426C80.2193 49.1167 80.2683 49.1038 80.3221 49.1038C80.3752 49.1038 80.4213 49.1153 80.4604 49.1381C80.4995 49.161 80.5286 49.1898 80.5478 49.2244V49.1138H80.6495V49.72H80.5478V49.6071C80.5279 49.6425 80.498 49.672 80.4582 49.6956C80.4191 49.7185 80.3734 49.7299 80.321 49.7299C80.2672 49.7299 80.2185 49.7167 80.175 49.6901C80.1315 49.6636 80.0972 49.6263 80.0721 49.5784C80.0471 49.5304 80.0345 49.4759 80.0345 49.4147ZM80.5478 49.4158C80.5478 49.3701 80.5386 49.3302 80.5201 49.2963C80.5017 49.2624 80.4766 49.2366 80.4449 49.2189C80.4139 49.2004 80.3796 49.1912 80.342 49.1912C80.3044 49.1912 80.2701 49.2001 80.2392 49.2178C80.2082 49.2355 80.1835 49.2613 80.1651 49.2952C80.1466 49.3291 80.1374 49.3689 80.1374 49.4147C80.1374 49.4611 80.1466 49.5017 80.1651 49.5363C80.1835 49.5703 80.2082 49.5964 80.2392 49.6149C80.2701 49.6326 80.3044 49.6414 80.342 49.6414C80.3796 49.6414 80.4139 49.6326 80.4449 49.6149C80.4766 49.5964 80.5017 49.5703 80.5201 49.5363C80.5386 49.5017 80.5478 49.4615 80.5478 49.4158ZM80.782 49.4158C80.782 49.3531 80.7946 49.2985 80.8197 49.2521C80.8447 49.2049 80.8794 49.1684 80.9236 49.1426C80.9686 49.1167 81.0199 49.1038 81.0774 49.1038C81.1519 49.1038 81.2131 49.1219 81.261 49.158C81.3097 49.1942 81.3418 49.2443 81.3572 49.3085H81.2488C81.2385 49.2716 81.2182 49.2425 81.188 49.2211C81.1585 49.1997 81.1216 49.189 81.0774 49.189C81.0199 49.189 80.9734 49.2089 80.938 49.2487C80.9026 49.2878 80.8849 49.3435 80.8849 49.4158C80.8849 49.4888 80.9026 49.5452 80.938 49.585C80.9734 49.6248 81.0199 49.6448 81.0774 49.6448C81.1216 49.6448 81.1585 49.6344 81.188 49.6138C81.2175 49.5931 81.2378 49.5636 81.2488 49.5253H81.3572C81.341 49.5872 81.3086 49.637 81.2599 49.6746C81.2112 49.7115 81.1504 49.7299 81.0774 49.7299C81.0199 49.7299 80.9686 49.717 80.9236 49.6912C80.8794 49.6654 80.8447 49.6289 80.8197 49.5817C80.7946 49.5345 80.782 49.4792 80.782 49.4158ZM81.5922 49.2122C81.6099 49.1776 81.635 49.1507 81.6674 49.1315C81.7006 49.1123 81.7408 49.1027 81.788 49.1027V49.2067H81.7615C81.6486 49.2067 81.5922 49.2679 81.5922 49.3903V49.72H81.4916V49.1138H81.5922V49.2122ZM82.1686 49.7299C82.1118 49.7299 82.0602 49.717 82.0137 49.6912C81.968 49.6654 81.9319 49.6289 81.9053 49.5817C81.8795 49.5338 81.8666 49.4785 81.8666 49.4158C81.8666 49.3538 81.8799 49.2993 81.9064 49.2521C81.9337 49.2041 81.9706 49.1676 82.017 49.1426C82.0635 49.1167 82.1155 49.1038 82.173 49.1038C82.2305 49.1038 82.2825 49.1167 82.329 49.1426C82.3754 49.1676 82.4119 49.2038 82.4385 49.251C82.4658 49.2982 82.4794 49.3531 82.4794 49.4158C82.4794 49.4785 82.4654 49.5338 82.4374 49.5817C82.4101 49.6289 82.3729 49.6654 82.3257 49.6912C82.2785 49.717 82.2261 49.7299 82.1686 49.7299ZM82.1686 49.6414C82.2047 49.6414 82.2386 49.633 82.2703 49.616C82.3021 49.599 82.3275 49.5736 82.3467 49.5397C82.3666 49.5057 82.3765 49.4644 82.3765 49.4158C82.3765 49.3671 82.367 49.3258 82.3478 49.2919C82.3286 49.258 82.3035 49.2329 82.2726 49.2167C82.2416 49.1997 82.208 49.1912 82.1719 49.1912C82.135 49.1912 82.1011 49.1997 82.0701 49.2167C82.0399 49.2329 82.0156 49.258 81.9971 49.2919C81.9787 49.3258 81.9695 49.3671 81.9695 49.4158C81.9695 49.4652 81.9783 49.5069 81.996 49.5408C82.0145 49.5747 82.0388 49.6001 82.069 49.6171C82.0993 49.6333 82.1324 49.6414 82.1686 49.6414ZM82.7345 49.1968V49.554C82.7345 49.5835 82.7408 49.6046 82.7534 49.6171C82.7659 49.6289 82.7876 49.6348 82.8186 49.6348H82.8927V49.72H82.802C82.746 49.72 82.7039 49.7071 82.6759 49.6813C82.6479 49.6554 82.6339 49.613 82.6339 49.554V49.1968H82.5553V49.1138H82.6339V48.9611H82.7345V49.1138H82.8927V49.1968H82.7345ZM83.1154 49.2122C83.133 49.1776 83.1581 49.1507 83.1906 49.1315C83.2238 49.1123 83.2639 49.1027 83.3111 49.1027V49.2067H83.2846C83.1718 49.2067 83.1154 49.2679 83.1154 49.3903V49.72H83.0147V49.1138H83.1154V49.2122ZM83.9804 49.3937C83.9804 49.4128 83.9793 49.4331 83.9771 49.4545H83.4926C83.4963 49.5142 83.5166 49.5611 83.5534 49.595C83.5911 49.6282 83.6364 49.6448 83.6895 49.6448C83.733 49.6448 83.7691 49.6348 83.7979 49.6149C83.8274 49.5942 83.848 49.567 83.8598 49.533H83.9683C83.952 49.5913 83.9196 49.6389 83.8709 49.6757C83.8222 49.7119 83.7618 49.7299 83.6895 49.7299C83.632 49.7299 83.5804 49.717 83.5346 49.6912C83.4897 49.6654 83.4543 49.6289 83.4284 49.5817C83.4026 49.5338 83.3897 49.4785 83.3897 49.4158C83.3897 49.3531 83.4023 49.2982 83.4273 49.251C83.4524 49.2038 83.4874 49.1676 83.5324 49.1426C83.5781 49.1167 83.6305 49.1038 83.6895 49.1038C83.747 49.1038 83.7979 49.1164 83.8421 49.1414C83.8864 49.1665 83.9203 49.2012 83.9439 49.2454C83.9683 49.2889 83.9804 49.3383 83.9804 49.3937ZM83.8764 49.3726C83.8764 49.3343 83.868 49.3015 83.851 49.2742C83.834 49.2462 83.8108 49.2251 83.7813 49.2111C83.7526 49.1964 83.7205 49.189 83.6851 49.189C83.6342 49.189 83.5907 49.2052 83.5545 49.2377C83.5192 49.2701 83.4989 49.3151 83.4937 49.3726H83.8764ZM84.4086 49.1027C84.4824 49.1027 84.5421 49.1252 84.5878 49.1702C84.6336 49.2145 84.6564 49.2786 84.6564 49.3627V49.72H84.5569V49.3771C84.5569 49.3166 84.5417 49.2705 84.5115 49.2388C84.4813 49.2063 84.44 49.1901 84.3876 49.1901C84.3345 49.1901 84.2921 49.2067 84.2604 49.2399C84.2294 49.2731 84.2139 49.3214 84.2139 49.3848V49.72H84.1133V49.1138H84.2139V49.2001C84.2339 49.1691 84.2608 49.1451 84.2947 49.1282C84.3294 49.1112 84.3673 49.1027 84.4086 49.1027ZM84.7832 49.4147C84.7832 49.3527 84.7958 49.2985 84.8208 49.2521C84.8459 49.2049 84.8802 49.1684 84.9237 49.1426C84.968 49.1167 85.0174 49.1038 85.0719 49.1038C85.1191 49.1038 85.163 49.1149 85.2036 49.137C85.2441 49.1584 85.2751 49.1868 85.2965 49.2222V48.9014H85.3983V49.72H85.2965V49.606C85.2766 49.6422 85.2471 49.672 85.208 49.6956C85.1689 49.7185 85.1232 49.7299 85.0708 49.7299C85.017 49.7299 84.968 49.7167 84.9237 49.6901C84.8802 49.6636 84.8459 49.6263 84.8208 49.5784C84.7958 49.5304 84.7832 49.4759 84.7832 49.4147ZM85.2965 49.4158C85.2965 49.3701 85.2873 49.3302 85.2688 49.2963C85.2504 49.2624 85.2253 49.2366 85.1936 49.2189C85.1626 49.2004 85.1284 49.1912 85.0907 49.1912C85.0531 49.1912 85.0188 49.2001 84.9879 49.2178C84.9569 49.2355 84.9322 49.2613 84.9138 49.2952C84.8953 49.3291 84.8861 49.3689 84.8861 49.4147C84.8861 49.4611 84.8953 49.5017 84.9138 49.5363C84.9322 49.5703 84.9569 49.5964 84.9879 49.6149C85.0188 49.6326 85.0531 49.6414 85.0907 49.6414C85.1284 49.6414 85.1626 49.6326 85.1936 49.6149C85.2253 49.5964 85.2504 49.5703 85.2688 49.5363C85.2873 49.5017 85.2965 49.4615 85.2965 49.4158Z" fill="white"/>
<path d="M105.116 49.0398V49.8053H105.015V49.2345L104.761 49.8053H104.69L104.435 49.2334V49.8053H104.334V49.0398H104.442L104.725 49.6726L105.009 49.0398H105.116ZM105.84 49.479C105.84 49.4982 105.839 49.5184 105.836 49.5398H105.352C105.356 49.5996 105.376 49.6464 105.413 49.6803C105.45 49.7135 105.496 49.7301 105.549 49.7301C105.592 49.7301 105.628 49.7201 105.657 49.7002C105.687 49.6796 105.707 49.6523 105.719 49.6184H105.828C105.811 49.6766 105.779 49.7242 105.73 49.7611C105.682 49.7972 105.621 49.8153 105.549 49.8153C105.491 49.8153 105.44 49.8023 105.394 49.7765C105.349 49.7507 105.314 49.7142 105.288 49.667C105.262 49.6191 105.249 49.5638 105.249 49.5011C105.249 49.4384 105.262 49.3835 105.287 49.3363C105.312 49.2891 105.347 49.253 105.392 49.2279C105.437 49.2021 105.49 49.1892 105.549 49.1892C105.606 49.1892 105.657 49.2017 105.701 49.2268C105.746 49.2518 105.78 49.2865 105.803 49.3308C105.828 49.3743 105.84 49.4237 105.84 49.479ZM105.736 49.458C105.736 49.4196 105.727 49.3868 105.71 49.3595C105.693 49.3315 105.67 49.3105 105.641 49.2965C105.612 49.2817 105.58 49.2743 105.544 49.2743C105.493 49.2743 105.45 49.2906 105.414 49.323C105.378 49.3555 105.358 49.4004 105.353 49.458H105.736ZM106.223 49.1892C106.275 49.1892 106.321 49.2006 106.36 49.2235C106.4 49.2463 106.429 49.2751 106.448 49.3097V49.1991H106.55V49.8186C106.55 49.8739 106.538 49.9229 106.515 49.9657C106.491 50.0092 106.457 50.0431 106.413 50.0675C106.369 50.0918 106.318 50.104 106.26 50.104C106.181 50.104 106.114 50.0852 106.061 50.0475C106.008 50.0099 105.977 49.9587 105.967 49.8938H106.067C106.078 49.9307 106.101 49.9602 106.135 49.9823C106.17 50.0051 106.211 50.0166 106.26 50.0166C106.315 50.0166 106.36 49.9992 106.395 49.9646C106.431 49.9299 106.448 49.8813 106.448 49.8186V49.6914C106.428 49.7268 106.399 49.7563 106.36 49.7799C106.321 49.8035 106.275 49.8153 106.223 49.8153C106.169 49.8153 106.12 49.802 106.075 49.7754C106.032 49.7489 105.998 49.7116 105.973 49.6637C105.947 49.6158 105.935 49.5612 105.935 49.5C105.935 49.4381 105.947 49.3839 105.973 49.3374C105.998 49.2902 106.032 49.2537 106.075 49.2279C106.12 49.2021 106.169 49.1892 106.223 49.1892ZM106.448 49.5011C106.448 49.4554 106.439 49.4156 106.421 49.3816C106.402 49.3477 106.377 49.3219 106.345 49.3042C106.314 49.2858 106.28 49.2766 106.242 49.2766C106.205 49.2766 106.171 49.2854 106.14 49.3031C106.109 49.3208 106.084 49.3466 106.065 49.3805C106.047 49.4145 106.038 49.4543 106.038 49.5C106.038 49.5465 106.047 49.587 106.065 49.6217C106.084 49.6556 106.109 49.6818 106.14 49.7002C106.171 49.7179 106.205 49.7268 106.242 49.7268C106.28 49.7268 106.314 49.7179 106.345 49.7002C106.377 49.6818 106.402 49.6556 106.421 49.6217C106.439 49.587 106.448 49.5468 106.448 49.5011ZM106.682 49.5C106.682 49.4381 106.695 49.3839 106.72 49.3374C106.745 49.2902 106.779 49.2537 106.823 49.2279C106.867 49.2021 106.916 49.1892 106.97 49.1892C107.023 49.1892 107.069 49.2006 107.108 49.2235C107.147 49.2463 107.177 49.2751 107.196 49.3097V49.1991H107.297V49.8053H107.196V49.6925C107.176 49.7279 107.146 49.7574 107.106 49.781C107.067 49.8038 107.021 49.8153 106.969 49.8153C106.915 49.8153 106.866 49.802 106.823 49.7754C106.779 49.7489 106.745 49.7116 106.72 49.6637C106.695 49.6158 106.682 49.5612 106.682 49.5ZM107.196 49.5011C107.196 49.4554 107.187 49.4156 107.168 49.3816C107.15 49.3477 107.125 49.3219 107.093 49.3042C107.062 49.2858 107.028 49.2766 106.99 49.2766C106.952 49.2766 106.918 49.2854 106.887 49.3031C106.856 49.3208 106.831 49.3466 106.813 49.3805C106.795 49.4145 106.785 49.4543 106.785 49.5C106.785 49.5465 106.795 49.587 106.813 49.6217C106.831 49.6556 106.856 49.6818 106.887 49.7002C106.918 49.7179 106.952 49.7268 106.99 49.7268C107.028 49.7268 107.062 49.7179 107.093 49.7002C107.125 49.6818 107.15 49.6556 107.168 49.6217C107.187 49.587 107.196 49.5468 107.196 49.5011ZM107.59 49.2821V49.6394C107.59 49.6689 107.597 49.6899 107.609 49.7024C107.622 49.7142 107.643 49.7201 107.674 49.7201H107.749V49.8053H107.658C107.602 49.8053 107.56 49.7924 107.532 49.7666C107.504 49.7408 107.49 49.6984 107.49 49.6394V49.2821H107.411V49.1991H107.49V49.0465H107.59V49.1991H107.749V49.2821H107.59ZM107.971 49.2976C107.989 49.2629 108.014 49.236 108.046 49.2168C108.08 49.1976 108.12 49.1881 108.167 49.1881V49.292H108.14C108.028 49.292 107.971 49.3532 107.971 49.4757V49.8053H107.871V49.1991H107.971V49.2976ZM108.836 49.479C108.836 49.4982 108.835 49.5184 108.833 49.5398H108.348C108.352 49.5996 108.372 49.6464 108.409 49.6803C108.447 49.7135 108.492 49.7301 108.545 49.7301C108.589 49.7301 108.625 49.7201 108.654 49.7002C108.683 49.6796 108.704 49.6523 108.716 49.6184H108.824C108.808 49.6766 108.775 49.7242 108.727 49.7611C108.678 49.7972 108.618 49.8153 108.545 49.8153C108.488 49.8153 108.436 49.8023 108.39 49.7765C108.345 49.7507 108.31 49.7142 108.284 49.667C108.258 49.6191 108.246 49.5638 108.246 49.5011C108.246 49.4384 108.258 49.3835 108.283 49.3363C108.308 49.2891 108.343 49.253 108.388 49.2279C108.434 49.2021 108.486 49.1892 108.545 49.1892C108.603 49.1892 108.654 49.2017 108.698 49.2268C108.742 49.2518 108.776 49.2865 108.8 49.3308C108.824 49.3743 108.836 49.4237 108.836 49.479ZM108.732 49.458C108.732 49.4196 108.724 49.3868 108.707 49.3595C108.69 49.3315 108.667 49.3105 108.637 49.2965C108.608 49.2817 108.576 49.2743 108.541 49.2743C108.49 49.2743 108.447 49.2906 108.41 49.323C108.375 49.3555 108.355 49.4004 108.35 49.458H108.732ZM109.264 49.1881C109.338 49.1881 109.398 49.2106 109.444 49.2555C109.489 49.2998 109.512 49.3639 109.512 49.448V49.8053H109.413V49.4624C109.413 49.4019 109.398 49.3558 109.367 49.3241C109.337 49.2917 109.296 49.2754 109.243 49.2754C109.19 49.2754 109.148 49.292 109.116 49.3252C109.085 49.3584 109.07 49.4067 109.07 49.4701V49.8053H108.969V49.1991H109.07V49.2854C109.09 49.2544 109.117 49.2305 109.151 49.2135C109.185 49.1965 109.223 49.1881 109.264 49.1881ZM109.639 49.5C109.639 49.4381 109.652 49.3839 109.677 49.3374C109.702 49.2902 109.736 49.2537 109.78 49.2279C109.824 49.2021 109.873 49.1892 109.928 49.1892C109.975 49.1892 110.019 49.2002 110.059 49.2224C110.1 49.2437 110.131 49.2721 110.152 49.3075V48.9867H110.254V49.8053H110.152V49.6914C110.132 49.7275 110.103 49.7574 110.064 49.781C110.025 49.8038 109.979 49.8153 109.927 49.8153C109.873 49.8153 109.824 49.802 109.78 49.7754C109.736 49.7489 109.702 49.7116 109.677 49.6637C109.652 49.6158 109.639 49.5612 109.639 49.5ZM110.152 49.5011C110.152 49.4554 110.143 49.4156 110.125 49.3816C110.106 49.3477 110.081 49.3219 110.049 49.3042C110.018 49.2858 109.984 49.2766 109.947 49.2766C109.909 49.2766 109.875 49.2854 109.844 49.3031C109.813 49.3208 109.788 49.3466 109.77 49.3805C109.751 49.4145 109.742 49.4543 109.742 49.5C109.742 49.5465 109.751 49.587 109.77 49.6217C109.788 49.6556 109.813 49.6818 109.844 49.7002C109.875 49.7179 109.909 49.7268 109.947 49.7268C109.984 49.7268 110.018 49.7179 110.049 49.7002C110.081 49.6818 110.106 49.6556 110.125 49.6217C110.143 49.587 110.152 49.5468 110.152 49.5011Z" fill="white"/>
</svg>
