<svg width="20" height="18" viewBox="0 0 20 18" fill="none" xmlns="http://www.w3.org/2000/svg">
<path fill-rule="evenodd" clip-rule="evenodd" d="M5.72807 1.02358C6.21379 1.37437 6.17805 1.733 5.62533 1.96594C4.64542 2.37902 3.98612 3.0729 3.6446 4.04044C3.54294 4.32846 3.37877 4.51159 3.04557 4.45034C2.73394 4.39304 2.62215 4.12341 2.74175 3.7654C3.14578 2.55549 3.96419 1.69915 5.1603 1.16571C5.25545 1.12326 5.34596 1.07109 5.43872 1.02344C5.53517 1.02358 5.63155 1.02358 5.72807 1.02358Z" fill="black"/>
<path fill-rule="evenodd" clip-rule="evenodd" d="M15.6407 1.02356C16.1765 1.3627 16.7464 1.6623 17.2396 2.05138C17.8071 2.49915 18.1234 3.13268 18.35 3.79854C18.4595 4.12062 18.3518 4.35064 18.0655 4.4429C17.804 4.52711 17.5597 4.40745 17.4558 4.10432C17.1005 3.06748 16.4009 2.34876 15.3537 1.92166C14.8898 1.73243 14.8986 1.34792 15.3513 1.02363C15.4478 1.02356 15.5442 1.02356 15.6407 1.02356Z" fill="black"/>
<path fill-rule="evenodd" clip-rule="evenodd" d="M10.515 13.9229C8.16386 13.9229 5.8126 13.9224 3.46148 13.9235C3.22539 13.9236 2.99074 13.9213 2.89892 13.6562C2.81571 13.4161 2.94472 13.2714 3.14724 13.1439C4.18475 12.4912 4.92321 11.6145 5.18014 10.4362C5.30227 9.87624 5.31921 9.2932 5.35849 8.71911C5.42036 7.81199 5.32912 6.87442 5.53837 6.00171C5.9623 4.23359 7.17613 3.06947 8.97149 2.48269C9.1756 2.41602 9.31611 2.33577 9.4117 2.13363C9.62775 1.67677 10.068 1.53651 10.5449 1.5329C11.0372 1.52916 11.4849 1.67955 11.7122 2.14147C11.8109 2.34194 11.9461 2.42601 12.1519 2.49066C14.2882 3.16214 15.7 5.0495 15.7232 7.2008C15.7338 8.19192 15.7506 9.18797 15.8608 10.1719C15.9971 11.3886 16.7098 12.3024 17.7303 13.0104C17.9613 13.1707 18.3183 13.2831 18.1726 13.6641C18.0394 14.0126 17.7004 13.92 17.424 13.9205C15.121 13.9247 12.818 13.9229 10.515 13.9229ZM16.661 13.1455C15.6549 12.2467 15.1317 11.1937 15.0129 9.98826C14.9201 9.04722 14.9363 8.0955 14.9235 7.14828C14.8974 5.22853 13.5064 3.54568 11.5557 3.11463C11.2859 3.05504 11.1183 2.95237 11.0819 2.68101C11.0442 2.40042 10.8417 2.29102 10.5762 2.28575C10.3147 2.28055 10.0961 2.36532 10.0487 2.65104C10 2.94461 9.8192 3.0565 9.52059 3.12246C7.56077 3.55546 6.16613 5.25732 6.16034 7.19358C6.15853 7.82934 6.17293 8.46544 6.15694 9.10084C6.12568 10.348 5.83756 11.5221 5.01777 12.5292C4.85201 12.7329 4.66359 12.9195 4.45695 13.1456C8.53128 13.1455 12.5503 13.1455 16.661 13.1455Z" fill="black"/>
<path fill-rule="evenodd" clip-rule="evenodd" d="M10.5638 14.8932C11.1891 14.8932 11.8143 14.8901 12.4397 14.8944C12.8004 14.8969 12.8593 14.9786 12.7668 15.317C12.4958 16.3082 11.5744 16.9884 10.5195 16.9762C9.45542 16.9639 8.5559 16.2676 8.29947 15.2791C8.22459 14.9902 8.3371 14.8926 8.61574 14.893C9.26513 14.8937 9.91444 14.8933 10.5638 14.8932Z" fill="black"/>
</svg>
