<svg width="22" height="20" viewBox="0 0 22 20" fill="none" xmlns="http://www.w3.org/2000/svg">
<mask id="path-1-inside-1_624_228" fill="white">
<path fill-rule="evenodd" clip-rule="evenodd" d="M4.10868 17.2661C3.8371 17.2661 3.57655 17.2661 3.26026 17.2661C3.25762 15.4733 3.82526 13.8757 4.92855 12.4468C6.0352 11.0136 7.49532 10.0601 9.31532 9.5095C7.78946 8.5133 6.95775 7.19979 7.00614 5.42999C7.0394 4.21297 7.52051 3.18356 8.41796 2.34783C10.2712 0.62204 13.1815 0.686783 15.0039 2.41296C16.5851 3.91061 17.2534 7.46038 14.0827 9.50117C14.625 9.72099 15.1692 9.94151 15.7104 10.1609C15.6895 10.2183 15.6884 10.232 15.6809 10.2406C15.142 10.8626 15.142 10.8626 14.3645 10.5723C9.78587 8.86276 4.74702 11.8214 4.22024 16.5272C4.19353 16.767 4.14859 17.0049 4.10868 17.2661ZM11.6675 9.1837C13.7278 9.18393 15.4114 7.57491 15.4175 5.60002C15.4236 3.60554 13.7358 1.9761 11.6636 1.97602C9.61433 1.97594 7.91797 3.59845 7.91086 5.56549C7.90366 7.55803 9.59138 9.18339 11.6675 9.1837Z"/>
</mask>
<path fill-rule="evenodd" clip-rule="evenodd" d="M4.10868 17.2661C3.8371 17.2661 3.57655 17.2661 3.26026 17.2661C3.25762 15.4733 3.82526 13.8757 4.92855 12.4468C6.0352 11.0136 7.49532 10.0601 9.31532 9.5095C7.78946 8.5133 6.95775 7.19979 7.00614 5.42999C7.0394 4.21297 7.52051 3.18356 8.41796 2.34783C10.2712 0.62204 13.1815 0.686783 15.0039 2.41296C16.5851 3.91061 17.2534 7.46038 14.0827 9.50117C14.625 9.72099 15.1692 9.94151 15.7104 10.1609C15.6895 10.2183 15.6884 10.232 15.6809 10.2406C15.142 10.8626 15.142 10.8626 14.3645 10.5723C9.78587 8.86276 4.74702 11.8214 4.22024 16.5272C4.19353 16.767 4.14859 17.0049 4.10868 17.2661ZM11.6675 9.1837C13.7278 9.18393 15.4114 7.57491 15.4175 5.60002C15.4236 3.60554 13.7358 1.9761 11.6636 1.97602C9.61433 1.97594 7.91797 3.59845 7.91086 5.56549C7.90366 7.55803 9.59138 9.18339 11.6675 9.1837Z" fill="#15436D"/>
<path d="M4.10868 17.2661V31.2661H16.1323L17.9481 19.3804L4.10868 17.2661ZM3.26026 17.2661L-10.7397 17.2867L-10.7191 31.2661H3.26026V17.2661ZM4.92855 12.4468L-6.15256 3.89061L-6.15266 3.89073L4.92855 12.4468ZM9.31532 9.5095L13.3694 22.9097L42.1243 14.2101L16.9688 -2.21328L9.31532 9.5095ZM7.00614 5.42999L21.0009 5.81258V5.81255L7.00614 5.42999ZM8.41796 2.34783L-1.1229 -7.89775L-1.12298 -7.89768L8.41796 2.34783ZM15.0039 2.41296L24.6315 -7.7512L24.6313 -7.75144L15.0039 2.41296ZM14.0827 9.50117L6.50555 -2.27114L-16.1899 12.3365L8.82338 22.4758L14.0827 9.50117ZM15.7104 10.1609L28.8681 14.9437L33.4797 2.25705L20.9695 -2.81379L15.7104 10.1609ZM15.6809 10.2406L5.12302 1.04655L5.11184 1.0594L5.10069 1.07226L15.6809 10.2406ZM14.3645 10.5723L9.46749 23.6879L9.46787 23.688L14.3645 10.5723ZM4.22024 16.5272L-9.69286 14.9697L-9.69375 14.9777L4.22024 16.5272ZM11.6675 9.1837L11.6654 23.1837H11.666L11.6675 9.1837ZM15.4175 5.60002L29.4174 5.6431L29.4174 5.64268L15.4175 5.60002ZM11.6636 1.97602L11.6631 15.976H11.6631L11.6636 1.97602ZM7.91086 5.56549L-6.08905 5.51483V5.51492L7.91086 5.56549ZM4.10868 3.26611C4.10815 3.26611 4.10762 3.26611 4.10709 3.26611C4.10656 3.26611 4.10603 3.26611 4.1055 3.26611C4.10497 3.26611 4.10444 3.26611 4.10391 3.26611C4.10338 3.26611 4.10285 3.26611 4.10232 3.26611C4.10179 3.26611 4.10126 3.26611 4.10073 3.26611C4.1002 3.26611 4.09967 3.26611 4.09914 3.26611C4.09861 3.26611 4.09808 3.26611 4.09755 3.26611C4.09702 3.26611 4.09649 3.26611 4.09596 3.26611C4.09543 3.26611 4.0949 3.26611 4.09437 3.26611C4.09384 3.26611 4.09331 3.26611 4.09278 3.26611C4.09225 3.26611 4.09172 3.26611 4.09119 3.26611C4.09066 3.26611 4.09013 3.26611 4.0896 3.26611C4.08907 3.26611 4.08855 3.26611 4.08802 3.26611C4.08749 3.26611 4.08696 3.26611 4.08643 3.26611C4.0859 3.26611 4.08537 3.26611 4.08484 3.26611C4.08431 3.26611 4.08378 3.26611 4.08325 3.26611C4.08272 3.26611 4.08219 3.26611 4.08166 3.26611C4.08114 3.26611 4.08061 3.26611 4.08008 3.26611C4.07955 3.26611 4.07902 3.26611 4.07849 3.26611C4.07796 3.26611 4.07743 3.26611 4.0769 3.26611C4.07637 3.26611 4.07584 3.26611 4.07532 3.26611C4.07479 3.26611 4.07426 3.26611 4.07373 3.26611C4.0732 3.26611 4.07267 3.26611 4.07214 3.26611C4.07161 3.26611 4.07109 3.26611 4.07056 3.26611C4.07003 3.26611 4.0695 3.26611 4.06897 3.26611C4.06844 3.26611 4.06791 3.26611 4.06739 3.26611C4.06686 3.26611 4.06633 3.26611 4.0658 3.26611C4.06527 3.26611 4.06474 3.26611 4.06421 3.26611C4.06369 3.26611 4.06316 3.26611 4.06263 3.26611C4.0621 3.26611 4.06157 3.26611 4.06104 3.26611C4.06051 3.26611 4.05999 3.26611 4.05946 3.26611C4.05893 3.26611 4.0584 3.26611 4.05787 3.26611C4.05735 3.26611 4.05682 3.26611 4.05629 3.26611C4.05576 3.26611 4.05523 3.26611 4.0547 3.26611C4.05418 3.26611 4.05365 3.26611 4.05312 3.26611C4.05259 3.26611 4.05206 3.26611 4.05154 3.26611C4.05101 3.26611 4.05048 3.26611 4.04995 3.26611C4.04942 3.26611 4.0489 3.26611 4.04837 3.26611C4.04784 3.26611 4.04731 3.26611 4.04678 3.26611C4.04626 3.26611 4.04573 3.26611 4.0452 3.26611C4.04467 3.26611 4.04414 3.26611 4.04362 3.26611C4.04309 3.26611 4.04256 3.26611 4.04203 3.26611C4.04151 3.26611 4.04098 3.26611 4.04045 3.26611C4.03992 3.26611 4.03939 3.26611 4.03887 3.26611C4.03834 3.26611 4.03781 3.26611 4.03728 3.26611C4.03676 3.26611 4.03623 3.26611 4.0357 3.26611C4.03517 3.26611 4.03465 3.26611 4.03412 3.26611C4.03359 3.26611 4.03306 3.26611 4.03254 3.26611C4.03201 3.26611 4.03148 3.26611 4.03095 3.26611C4.03043 3.26611 4.0299 3.26611 4.02937 3.26611C4.02884 3.26611 4.02832 3.26611 4.02779 3.26611C4.02726 3.26611 4.02673 3.26611 4.02621 3.26611C4.02568 3.26611 4.02515 3.26611 4.02462 3.26611C4.0241 3.26611 4.02357 3.26611 4.02304 3.26611C4.02251 3.26611 4.02199 3.26611 4.02146 3.26611C4.02093 3.26611 4.0204 3.26611 4.01988 3.26611C4.01935 3.26611 4.01882 3.26611 4.0183 3.26611C4.01777 3.26611 4.01724 3.26611 4.01671 3.26611C4.01619 3.26611 4.01566 3.26611 4.01513 3.26611C4.01461 3.26611 4.01408 3.26611 4.01355 3.26611C4.01302 3.26611 4.0125 3.26611 4.01197 3.26611C4.01144 3.26611 4.01092 3.26611 4.01039 3.26611C4.00986 3.26611 4.00933 3.26611 4.00881 3.26611C4.00828 3.26611 4.00775 3.26611 4.00723 3.26611C4.0067 3.26611 4.00617 3.26611 4.00564 3.26611C4.00512 3.26611 4.00459 3.26611 4.00406 3.26611C4.00354 3.26611 4.00301 3.26611 4.00248 3.26611C4.00195 3.26611 4.00143 3.26611 4.0009 3.26611C4.00037 3.26611 3.99985 3.26611 3.99932 3.26611C3.99879 3.26611 3.99827 3.26611 3.99774 3.26611C3.99721 3.26611 3.99668 3.26611 3.99616 3.26611C3.99563 3.26611 3.9951 3.26611 3.99458 3.26611C3.99405 3.26611 3.99352 3.26611 3.993 3.26611C3.99247 3.26611 3.99194 3.26611 3.99142 3.26611C3.99089 3.26611 3.99036 3.26611 3.98983 3.26611C3.98931 3.26611 3.98878 3.26611 3.98825 3.26611C3.98773 3.26611 3.9872 3.26611 3.98667 3.26611C3.98615 3.26611 3.98562 3.26611 3.98509 3.26611C3.98457 3.26611 3.98404 3.26611 3.98351 3.26611C3.98298 3.26611 3.98246 3.26611 3.98193 3.26611C3.9814 3.26611 3.98088 3.26611 3.98035 3.26611C3.97982 3.26611 3.9793 3.26611 3.97877 3.26611C3.97824 3.26611 3.97772 3.26611 3.97719 3.26611C3.97666 3.26611 3.97614 3.26611 3.97561 3.26611C3.97508 3.26611 3.97455 3.26611 3.97403 3.26611C3.9735 3.26611 3.97297 3.26611 3.97245 3.26611C3.97192 3.26611 3.97139 3.26611 3.97087 3.26611C3.97034 3.26611 3.96981 3.26611 3.96929 3.26611C3.96876 3.26611 3.96823 3.26611 3.96771 3.26611C3.96718 3.26611 3.96665 3.26611 3.96612 3.26611C3.9656 3.26611 3.96507 3.26611 3.96454 3.26611C3.96402 3.26611 3.96349 3.26611 3.96296 3.26611C3.96244 3.26611 3.96191 3.26611 3.96138 3.26611C3.96086 3.26611 3.96033 3.26611 3.9598 3.26611C3.95928 3.26611 3.95875 3.26611 3.95822 3.26611C3.95769 3.26611 3.95717 3.26611 3.95664 3.26611C3.95611 3.26611 3.95559 3.26611 3.95506 3.26611C3.95453 3.26611 3.95401 3.26611 3.95348 3.26611C3.95295 3.26611 3.95242 3.26611 3.9519 3.26611C3.95137 3.26611 3.95084 3.26611 3.95032 3.26611C3.94979 3.26611 3.94926 3.26611 3.94874 3.26611C3.94821 3.26611 3.94768 3.26611 3.94715 3.26611C3.94663 3.26611 3.9461 3.26611 3.94557 3.26611C3.94505 3.26611 3.94452 3.26611 3.94399 3.26611C3.94347 3.26611 3.94294 3.26611 3.94241 3.26611C3.94188 3.26611 3.94136 3.26611 3.94083 3.26611C3.9403 3.26611 3.93978 3.26611 3.93925 3.26611C3.93872 3.26611 3.93819 3.26611 3.93767 3.26611C3.93714 3.26611 3.93661 3.26611 3.93609 3.26611C3.93556 3.26611 3.93503 3.26611 3.9345 3.26611C3.93398 3.26611 3.93345 3.26611 3.93292 3.26611C3.9324 3.26611 3.93187 3.26611 3.93134 3.26611C3.93081 3.26611 3.93029 3.26611 3.92976 3.26611C3.92923 3.26611 3.9287 3.26611 3.92818 3.26611C3.92765 3.26611 3.92712 3.26611 3.9266 3.26611C3.92607 3.26611 3.92554 3.26611 3.92501 3.26611C3.92449 3.26611 3.92396 3.26611 3.92343 3.26611C3.9229 3.26611 3.92238 3.26611 3.92185 3.26611C3.92132 3.26611 3.92079 3.26611 3.92027 3.26611C3.91974 3.26611 3.91921 3.26611 3.91868 3.26611C3.91816 3.26611 3.91763 3.26611 3.9171 3.26611C3.91657 3.26611 3.91605 3.26611 3.91552 3.26611C3.91499 3.26611 3.91446 3.26611 3.91394 3.26611C3.91341 3.26611 3.91288 3.26611 3.91235 3.26611C3.91183 3.26611 3.9113 3.26611 3.91077 3.26611C3.91024 3.26611 3.90971 3.26611 3.90919 3.26611C3.90866 3.26611 3.90813 3.26611 3.9076 3.26611C3.90708 3.26611 3.90655 3.26611 3.90602 3.26611C3.90549 3.26611 3.90496 3.26611 3.90444 3.26611C3.90391 3.26611 3.90338 3.26611 3.90285 3.26611C3.90233 3.26611 3.9018 3.26611 3.90127 3.26611C3.90074 3.26611 3.90021 3.26611 3.89969 3.26611C3.89916 3.26611 3.89863 3.26611 3.8981 3.26611C3.89757 3.26611 3.89705 3.26611 3.89652 3.26611C3.89599 3.26611 3.89546 3.26611 3.89493 3.26611C3.89441 3.26611 3.89388 3.26611 3.89335 3.26611C3.89282 3.26611 3.89229 3.26611 3.89176 3.26611C3.89124 3.26611 3.89071 3.26611 3.89018 3.26611C3.88965 3.26611 3.88912 3.26611 3.88859 3.26611C3.88807 3.26611 3.88754 3.26611 3.88701 3.26611C3.88648 3.26611 3.88595 3.26611 3.88542 3.26611C3.8849 3.26611 3.88437 3.26611 3.88384 3.26611C3.88331 3.26611 3.88278 3.26611 3.88225 3.26611C3.88172 3.26611 3.8812 3.26611 3.88067 3.26611C3.88014 3.26611 3.87961 3.26611 3.87908 3.26611C3.87855 3.26611 3.87802 3.26611 3.87749 3.26611C3.87697 3.26611 3.87644 3.26611 3.87591 3.26611C3.87538 3.26611 3.87485 3.26611 3.87432 3.26611C3.87379 3.26611 3.87326 3.26611 3.87274 3.26611C3.87221 3.26611 3.87168 3.26611 3.87115 3.26611C3.87062 3.26611 3.87009 3.26611 3.86956 3.26611C3.86903 3.26611 3.8685 3.26611 3.86797 3.26611C3.86744 3.26611 3.86692 3.26611 3.86639 3.26611C3.86586 3.26611 3.86533 3.26611 3.8648 3.26611C3.86427 3.26611 3.86374 3.26611 3.86321 3.26611C3.86268 3.26611 3.86215 3.26611 3.86162 3.26611C3.86109 3.26611 3.86056 3.26611 3.86003 3.26611C3.8595 3.26611 3.85898 3.26611 3.85845 3.26611C3.85792 3.26611 3.85739 3.26611 3.85686 3.26611C3.85633 3.26611 3.8558 3.26611 3.85527 3.26611C3.85474 3.26611 3.85421 3.26611 3.85368 3.26611C3.85315 3.26611 3.85262 3.26611 3.85209 3.26611C3.85156 3.26611 3.85103 3.26611 3.8505 3.26611C3.84997 3.26611 3.84944 3.26611 3.84891 3.26611C3.84838 3.26611 3.84785 3.26611 3.84732 3.26611C3.84679 3.26611 3.84626 3.26611 3.84573 3.26611C3.8452 3.26611 3.84467 3.26611 3.84414 3.26611C3.84361 3.26611 3.84308 3.26611 3.84255 3.26611C3.84202 3.26611 3.84149 3.26611 3.84096 3.26611C3.84043 3.26611 3.8399 3.26611 3.83937 3.26611C3.83883 3.26611 3.8383 3.26611 3.83777 3.26611C3.83724 3.26611 3.83671 3.26611 3.83618 3.26611C3.83565 3.26611 3.83512 3.26611 3.83459 3.26611C3.83406 3.26611 3.83353 3.26611 3.833 3.26611C3.83247 3.26611 3.83194 3.26611 3.8314 3.26611C3.83087 3.26611 3.83034 3.26611 3.82981 3.26611C3.82928 3.26611 3.82875 3.26611 3.82822 3.26611C3.82769 3.26611 3.82716 3.26611 3.82662 3.26611C3.82609 3.26611 3.82556 3.26611 3.82503 3.26611C3.8245 3.26611 3.82397 3.26611 3.82344 3.26611C3.82291 3.26611 3.82237 3.26611 3.82184 3.26611C3.82131 3.26611 3.82078 3.26611 3.82025 3.26611C3.81972 3.26611 3.81918 3.26611 3.81865 3.26611C3.81812 3.26611 3.81759 3.26611 3.81706 3.26611C3.81653 3.26611 3.81599 3.26611 3.81546 3.26611C3.81493 3.26611 3.8144 3.26611 3.81387 3.26611C3.81333 3.26611 3.8128 3.26611 3.81227 3.26611C3.81174 3.26611 3.81121 3.26611 3.81067 3.26611C3.81014 3.26611 3.80961 3.26611 3.80908 3.26611C3.80854 3.26611 3.80801 3.26611 3.80748 3.26611C3.80695 3.26611 3.80642 3.26611 3.80588 3.26611C3.80535 3.26611 3.80482 3.26611 3.80429 3.26611C3.80375 3.26611 3.80322 3.26611 3.80269 3.26611C3.80215 3.26611 3.80162 3.26611 3.80109 3.26611C3.80056 3.26611 3.80002 3.26611 3.79949 3.26611C3.79896 3.26611 3.79842 3.26611 3.79789 3.26611C3.79736 3.26611 3.79683 3.26611 3.79629 3.26611C3.79576 3.26611 3.79523 3.26611 3.79469 3.26611C3.79416 3.26611 3.79363 3.26611 3.79309 3.26611C3.79256 3.26611 3.79203 3.26611 3.79149 3.26611C3.79096 3.26611 3.79042 3.26611 3.78989 3.26611C3.78936 3.26611 3.78882 3.26611 3.78829 3.26611C3.78776 3.26611 3.78722 3.26611 3.78669 3.26611C3.78616 3.26611 3.78562 3.26611 3.78509 3.26611C3.78455 3.26611 3.78402 3.26611 3.78349 3.26611C3.78295 3.26611 3.78242 3.26611 3.78188 3.26611C3.78135 3.26611 3.78081 3.26611 3.78028 3.26611C3.77975 3.26611 3.77921 3.26611 3.77868 3.26611C3.77814 3.26611 3.77761 3.26611 3.77707 3.26611C3.77654 3.26611 3.776 3.26611 3.77547 3.26611C3.77493 3.26611 3.7744 3.26611 3.77387 3.26611C3.77333 3.26611 3.7728 3.26611 3.77226 3.26611C3.77173 3.26611 3.77119 3.26611 3.77066 3.26611C3.77012 3.26611 3.76959 3.26611 3.76905 3.26611C3.76851 3.26611 3.76798 3.26611 3.76744 3.26611C3.76691 3.26611 3.76637 3.26611 3.76584 3.26611C3.7653 3.26611 3.76477 3.26611 3.76423 3.26611C3.7637 3.26611 3.76316 3.26611 3.76262 3.26611C3.76209 3.26611 3.76155 3.26611 3.76102 3.26611C3.76048 3.26611 3.75995 3.26611 3.75941 3.26611C3.75887 3.26611 3.75834 3.26611 3.7578 3.26611C3.75726 3.26611 3.75673 3.26611 3.75619 3.26611C3.75566 3.26611 3.75512 3.26611 3.75458 3.26611C3.75405 3.26611 3.75351 3.26611 3.75297 3.26611C3.75244 3.26611 3.7519 3.26611 3.75136 3.26611C3.75083 3.26611 3.75029 3.26611 3.74975 3.26611C3.74922 3.26611 3.74868 3.26611 3.74814 3.26611C3.74761 3.26611 3.74707 3.26611 3.74653 3.26611C3.746 3.26611 3.74546 3.26611 3.74492 3.26611C3.74438 3.26611 3.74385 3.26611 3.74331 3.26611C3.74277 3.26611 3.74223 3.26611 3.7417 3.26611C3.74116 3.26611 3.74062 3.26611 3.74008 3.26611C3.73955 3.26611 3.73901 3.26611 3.73847 3.26611C3.73793 3.26611 3.73739 3.26611 3.73686 3.26611C3.73632 3.26611 3.73578 3.26611 3.73524 3.26611C3.7347 3.26611 3.73417 3.26611 3.73363 3.26611C3.73309 3.26611 3.73255 3.26611 3.73201 3.26611C3.73147 3.26611 3.73094 3.26611 3.7304 3.26611C3.72986 3.26611 3.72932 3.26611 3.72878 3.26611C3.72824 3.26611 3.7277 3.26611 3.72716 3.26611C3.72663 3.26611 3.72609 3.26611 3.72555 3.26611C3.72501 3.26611 3.72447 3.26611 3.72393 3.26611C3.72339 3.26611 3.72285 3.26611 3.72231 3.26611C3.72177 3.26611 3.72123 3.26611 3.72069 3.26611C3.72015 3.26611 3.71962 3.26611 3.71908 3.26611C3.71854 3.26611 3.718 3.26611 3.71746 3.26611C3.71692 3.26611 3.71638 3.26611 3.71584 3.26611C3.7153 3.26611 3.71476 3.26611 3.71422 3.26611C3.71368 3.26611 3.71314 3.26611 3.7126 3.26611C3.71206 3.26611 3.71151 3.26611 3.71097 3.26611C3.71043 3.26611 3.70989 3.26611 3.70935 3.26611C3.70881 3.26611 3.70827 3.26611 3.70773 3.26611C3.70719 3.26611 3.70665 3.26611 3.70611 3.26611C3.70557 3.26611 3.70503 3.26611 3.70448 3.26611C3.70394 3.26611 3.7034 3.26611 3.70286 3.26611C3.70232 3.26611 3.70178 3.26611 3.70124 3.26611C3.7007 3.26611 3.70015 3.26611 3.69961 3.26611C3.69907 3.26611 3.69853 3.26611 3.69799 3.26611C3.69745 3.26611 3.6969 3.26611 3.69636 3.26611C3.69582 3.26611 3.69528 3.26611 3.69473 3.26611C3.69419 3.26611 3.69365 3.26611 3.69311 3.26611C3.69257 3.26611 3.69202 3.26611 3.69148 3.26611C3.69094 3.26611 3.6904 3.26611 3.68985 3.26611C3.68931 3.26611 3.68877 3.26611 3.68822 3.26611C3.68768 3.26611 3.68714 3.26611 3.6866 3.26611C3.68605 3.26611 3.68551 3.26611 3.68497 3.26611C3.68442 3.26611 3.68388 3.26611 3.68334 3.26611C3.68279 3.26611 3.68225 3.26611 3.68171 3.26611C3.68116 3.26611 3.68062 3.26611 3.68007 3.26611C3.67953 3.26611 3.67899 3.26611 3.67844 3.26611C3.6779 3.26611 3.67735 3.26611 3.67681 3.26611C3.67627 3.26611 3.67572 3.26611 3.67518 3.26611C3.67463 3.26611 3.67409 3.26611 3.67354 3.26611C3.673 3.26611 3.67246 3.26611 3.67191 3.26611C3.67137 3.26611 3.67082 3.26611 3.67028 3.26611C3.66973 3.26611 3.66919 3.26611 3.66864 3.26611C3.6681 3.26611 3.66755 3.26611 3.66701 3.26611C3.66646 3.26611 3.66592 3.26611 3.66537 3.26611C3.66482 3.26611 3.66428 3.26611 3.66373 3.26611C3.66319 3.26611 3.66264 3.26611 3.6621 3.26611C3.66155 3.26611 3.661 3.26611 3.66046 3.26611C3.65991 3.26611 3.65937 3.26611 3.65882 3.26611C3.65827 3.26611 3.65773 3.26611 3.65718 3.26611C3.65663 3.26611 3.65609 3.26611 3.65554 3.26611C3.65499 3.26611 3.65445 3.26611 3.6539 3.26611C3.65335 3.26611 3.65281 3.26611 3.65226 3.26611C3.65171 3.26611 3.65117 3.26611 3.65062 3.26611C3.65007 3.26611 3.64952 3.26611 3.64898 3.26611C3.64843 3.26611 3.64788 3.26611 3.64733 3.26611C3.64679 3.26611 3.64624 3.26611 3.64569 3.26611C3.64514 3.26611 3.64459 3.26611 3.64405 3.26611C3.6435 3.26611 3.64295 3.26611 3.6424 3.26611C3.64185 3.26611 3.6413 3.26611 3.64076 3.26611C3.64021 3.26611 3.63966 3.26611 3.63911 3.26611C3.63856 3.26611 3.63801 3.26611 3.63746 3.26611C3.63692 3.26611 3.63637 3.26611 3.63582 3.26611C3.63527 3.26611 3.63472 3.26611 3.63417 3.26611C3.63362 3.26611 3.63307 3.26611 3.63252 3.26611C3.63197 3.26611 3.63142 3.26611 3.63087 3.26611C3.63032 3.26611 3.62977 3.26611 3.62922 3.26611C3.62867 3.26611 3.62812 3.26611 3.62757 3.26611C3.62702 3.26611 3.62647 3.26611 3.62592 3.26611C3.62537 3.26611 3.62482 3.26611 3.62427 3.26611C3.62372 3.26611 3.62317 3.26611 3.62262 3.26611C3.62207 3.26611 3.62152 3.26611 3.62097 3.26611C3.62041 3.26611 3.61986 3.26611 3.61931 3.26611C3.61876 3.26611 3.61821 3.26611 3.61766 3.26611C3.61711 3.26611 3.61655 3.26611 3.616 3.26611C3.61545 3.26611 3.6149 3.26611 3.61435 3.26611C3.6138 3.26611 3.61324 3.26611 3.61269 3.26611C3.61214 3.26611 3.61159 3.26611 3.61103 3.26611C3.61048 3.26611 3.60993 3.26611 3.60938 3.26611C3.60882 3.26611 3.60827 3.26611 3.60772 3.26611C3.60717 3.26611 3.60661 3.26611 3.60606 3.26611C3.60551 3.26611 3.60495 3.26611 3.6044 3.26611C3.60385 3.26611 3.60329 3.26611 3.60274 3.26611C3.60219 3.26611 3.60163 3.26611 3.60108 3.26611C3.60053 3.26611 3.59997 3.26611 3.59942 3.26611C3.59886 3.26611 3.59831 3.26611 3.59776 3.26611C3.5972 3.26611 3.59665 3.26611 3.59609 3.26611C3.59554 3.26611 3.59498 3.26611 3.59443 3.26611C3.59387 3.26611 3.59332 3.26611 3.59276 3.26611C3.59221 3.26611 3.59165 3.26611 3.5911 3.26611C3.59054 3.26611 3.58999 3.26611 3.58943 3.26611C3.58888 3.26611 3.58832 3.26611 3.58777 3.26611C3.58721 3.26611 3.58666 3.26611 3.5861 3.26611C3.58554 3.26611 3.58499 3.26611 3.58443 3.26611C3.58388 3.26611 3.58332 3.26611 3.58276 3.26611C3.58221 3.26611 3.58165 3.26611 3.58109 3.26611C3.58054 3.26611 3.57998 3.26611 3.57942 3.26611C3.57887 3.26611 3.57831 3.26611 3.57775 3.26611C3.5772 3.26611 3.57664 3.26611 3.57608 3.26611C3.57552 3.26611 3.57497 3.26611 3.57441 3.26611C3.57385 3.26611 3.57329 3.26611 3.57274 3.26611C3.57218 3.26611 3.57162 3.26611 3.57106 3.26611C3.5705 3.26611 3.56995 3.26611 3.56939 3.26611C3.56883 3.26611 3.56827 3.26611 3.56771 3.26611C3.56715 3.26611 3.5666 3.26611 3.56604 3.26611C3.56548 3.26611 3.56492 3.26611 3.56436 3.26611C3.5638 3.26611 3.56324 3.26611 3.56268 3.26611C3.56212 3.26611 3.56156 3.26611 3.561 3.26611C3.56044 3.26611 3.55988 3.26611 3.55932 3.26611C3.55876 3.26611 3.5582 3.26611 3.55764 3.26611C3.55708 3.26611 3.55652 3.26611 3.55596 3.26611C3.5554 3.26611 3.55484 3.26611 3.55428 3.26611C3.55372 3.26611 3.55316 3.26611 3.5526 3.26611C3.55204 3.26611 3.55148 3.26611 3.55092 3.26611C3.55036 3.26611 3.5498 3.26611 3.54923 3.26611C3.54867 3.26611 3.54811 3.26611 3.54755 3.26611C3.54699 3.26611 3.54643 3.26611 3.54586 3.26611C3.5453 3.26611 3.54474 3.26611 3.54418 3.26611C3.54362 3.26611 3.54305 3.26611 3.54249 3.26611C3.54193 3.26611 3.54137 3.26611 3.5408 3.26611C3.54024 3.26611 3.53968 3.26611 3.53911 3.26611C3.53855 3.26611 3.53799 3.26611 3.53743 3.26611C3.53686 3.26611 3.5363 3.26611 3.53573 3.26611C3.53517 3.26611 3.53461 3.26611 3.53404 3.26611C3.53348 3.26611 3.53292 3.26611 3.53235 3.26611C3.53179 3.26611 3.53122 3.26611 3.53066 3.26611C3.5301 3.26611 3.52953 3.26611 3.52897 3.26611C3.5284 3.26611 3.52784 3.26611 3.52727 3.26611C3.52671 3.26611 3.52614 3.26611 3.52558 3.26611C3.52501 3.26611 3.52445 3.26611 3.52388 3.26611C3.52332 3.26611 3.52275 3.26611 3.52218 3.26611C3.52162 3.26611 3.52105 3.26611 3.52049 3.26611C3.51992 3.26611 3.51935 3.26611 3.51879 3.26611C3.51822 3.26611 3.51766 3.26611 3.51709 3.26611C3.51652 3.26611 3.51596 3.26611 3.51539 3.26611C3.51482 3.26611 3.51426 3.26611 3.51369 3.26611C3.51312 3.26611 3.51255 3.26611 3.51199 3.26611C3.51142 3.26611 3.51085 3.26611 3.51028 3.26611C3.50972 3.26611 3.50915 3.26611 3.50858 3.26611C3.50801 3.26611 3.50744 3.26611 3.50688 3.26611C3.50631 3.26611 3.50574 3.26611 3.50517 3.26611C3.5046 3.26611 3.50403 3.26611 3.50346 3.26611C3.5029 3.26611 3.50233 3.26611 3.50176 3.26611C3.50119 3.26611 3.50062 3.26611 3.50005 3.26611C3.49948 3.26611 3.49891 3.26611 3.49834 3.26611C3.49777 3.26611 3.4972 3.26611 3.49663 3.26611C3.49606 3.26611 3.49549 3.26611 3.49492 3.26611C3.49435 3.26611 3.49378 3.26611 3.49321 3.26611C3.49264 3.26611 3.49207 3.26611 3.4915 3.26611C3.49093 3.26611 3.49036 3.26611 3.48979 3.26611C3.48921 3.26611 3.48864 3.26611 3.48807 3.26611C3.4875 3.26611 3.48693 3.26611 3.48636 3.26611C3.48578 3.26611 3.48521 3.26611 3.48464 3.26611C3.48407 3.26611 3.4835 3.26611 3.48292 3.26611C3.48235 3.26611 3.48178 3.26611 3.48121 3.26611C3.48063 3.26611 3.48006 3.26611 3.47949 3.26611C3.47891 3.26611 3.47834 3.26611 3.47777 3.26611C3.4772 3.26611 3.47662 3.26611 3.47605 3.26611C3.47547 3.26611 3.4749 3.26611 3.47433 3.26611C3.47375 3.26611 3.47318 3.26611 3.4726 3.26611C3.47203 3.26611 3.47146 3.26611 3.47088 3.26611C3.47031 3.26611 3.46973 3.26611 3.46916 3.26611C3.46858 3.26611 3.46801 3.26611 3.46743 3.26611C3.46686 3.26611 3.46628 3.26611 3.46571 3.26611C3.46513 3.26611 3.46456 3.26611 3.46398 3.26611C3.4634 3.26611 3.46283 3.26611 3.46225 3.26611C3.46168 3.26611 3.4611 3.26611 3.46052 3.26611C3.45995 3.26611 3.45937 3.26611 3.45879 3.26611C3.45822 3.26611 3.45764 3.26611 3.45706 3.26611C3.45649 3.26611 3.45591 3.26611 3.45533 3.26611C3.45476 3.26611 3.45418 3.26611 3.4536 3.26611C3.45302 3.26611 3.45244 3.26611 3.45187 3.26611C3.45129 3.26611 3.45071 3.26611 3.45013 3.26611C3.44955 3.26611 3.44898 3.26611 3.4484 3.26611C3.44782 3.26611 3.44724 3.26611 3.44666 3.26611C3.44608 3.26611 3.4455 3.26611 3.44492 3.26611C3.44434 3.26611 3.44377 3.26611 3.44319 3.26611C3.44261 3.26611 3.44203 3.26611 3.44145 3.26611C3.44087 3.26611 3.44029 3.26611 3.43971 3.26611C3.43913 3.26611 3.43855 3.26611 3.43797 3.26611C3.43738 3.26611 3.4368 3.26611 3.43622 3.26611C3.43564 3.26611 3.43506 3.26611 3.43448 3.26611C3.4339 3.26611 3.43332 3.26611 3.43274 3.26611C3.43215 3.26611 3.43157 3.26611 3.43099 3.26611C3.43041 3.26611 3.42983 3.26611 3.42925 3.26611C3.42866 3.26611 3.42808 3.26611 3.4275 3.26611C3.42692 3.26611 3.42633 3.26611 3.42575 3.26611C3.42517 3.26611 3.42458 3.26611 3.424 3.26611C3.42342 3.26611 3.42283 3.26611 3.42225 3.26611C3.42167 3.26611 3.42108 3.26611 3.4205 3.26611C3.41992 3.26611 3.41933 3.26611 3.41875 3.26611C3.41816 3.26611 3.41758 3.26611 3.417 3.26611C3.41641 3.26611 3.41583 3.26611 3.41524 3.26611C3.41466 3.26611 3.41407 3.26611 3.41349 3.26611C3.4129 3.26611 3.41232 3.26611 3.41173 3.26611C3.41114 3.26611 3.41056 3.26611 3.40997 3.26611C3.40939 3.26611 3.4088 3.26611 3.40821 3.26611C3.40763 3.26611 3.40704 3.26611 3.40646 3.26611C3.40587 3.26611 3.40528 3.26611 3.4047 3.26611C3.40411 3.26611 3.40352 3.26611 3.40293 3.26611C3.40235 3.26611 3.40176 3.26611 3.40117 3.26611C3.40058 3.26611 3.4 3.26611 3.39941 3.26611C3.39882 3.26611 3.39823 3.26611 3.39764 3.26611C3.39706 3.26611 3.39647 3.26611 3.39588 3.26611C3.39529 3.26611 3.3947 3.26611 3.39411 3.26611C3.39352 3.26611 3.39293 3.26611 3.39234 3.26611C3.39176 3.26611 3.39117 3.26611 3.39058 3.26611C3.38999 3.26611 3.3894 3.26611 3.38881 3.26611C3.38822 3.26611 3.38763 3.26611 3.38704 3.26611C3.38645 3.26611 3.38585 3.26611 3.38526 3.26611C3.38467 3.26611 3.38408 3.26611 3.38349 3.26611C3.3829 3.26611 3.38231 3.26611 3.38172 3.26611C3.38113 3.26611 3.38053 3.26611 3.37994 3.26611C3.37935 3.26611 3.37876 3.26611 3.37817 3.26611C3.37757 3.26611 3.37698 3.26611 3.37639 3.26611C3.3758 3.26611 3.3752 3.26611 3.37461 3.26611C3.37402 3.26611 3.37342 3.26611 3.37283 3.26611C3.37224 3.26611 3.37164 3.26611 3.37105 3.26611C3.37046 3.26611 3.36986 3.26611 3.36927 3.26611C3.36868 3.26611 3.36808 3.26611 3.36749 3.26611C3.36689 3.26611 3.3663 3.26611 3.3657 3.26611C3.36511 3.26611 3.36451 3.26611 3.36392 3.26611C3.36332 3.26611 3.36273 3.26611 3.36213 3.26611C3.36154 3.26611 3.36094 3.26611 3.36034 3.26611C3.35975 3.26611 3.35915 3.26611 3.35856 3.26611C3.35796 3.26611 3.35736 3.26611 3.35677 3.26611C3.35617 3.26611 3.35557 3.26611 3.35498 3.26611C3.35438 3.26611 3.35378 3.26611 3.35319 3.26611C3.35259 3.26611 3.35199 3.26611 3.35139 3.26611C3.3508 3.26611 3.3502 3.26611 3.3496 3.26611C3.349 3.26611 3.3484 3.26611 3.3478 3.26611C3.34721 3.26611 3.34661 3.26611 3.34601 3.26611C3.34541 3.26611 3.34481 3.26611 3.34421 3.26611C3.34361 3.26611 3.34301 3.26611 3.34241 3.26611C3.34181 3.26611 3.34121 3.26611 3.34061 3.26611C3.34001 3.26611 3.33941 3.26611 3.33881 3.26611C3.33821 3.26611 3.33761 3.26611 3.33701 3.26611C3.33641 3.26611 3.33581 3.26611 3.33521 3.26611C3.33461 3.26611 3.33401 3.26611 3.3334 3.26611C3.3328 3.26611 3.3322 3.26611 3.3316 3.26611C3.331 3.26611 3.3304 3.26611 3.32979 3.26611C3.32919 3.26611 3.32859 3.26611 3.32799 3.26611C3.32738 3.26611 3.32678 3.26611 3.32618 3.26611C3.32557 3.26611 3.32497 3.26611 3.32437 3.26611C3.32376 3.26611 3.32316 3.26611 3.32256 3.26611C3.32195 3.26611 3.32135 3.26611 3.32074 3.26611C3.32014 3.26611 3.31953 3.26611 3.31893 3.26611C3.31833 3.26611 3.31772 3.26611 3.31712 3.26611C3.31651 3.26611 3.31591 3.26611 3.3153 3.26611C3.31469 3.26611 3.31409 3.26611 3.31348 3.26611C3.31288 3.26611 3.31227 3.26611 3.31166 3.26611C3.31106 3.26611 3.31045 3.26611 3.30985 3.26611C3.30924 3.26611 3.30863 3.26611 3.30803 3.26611C3.30742 3.26611 3.30681 3.26611 3.3062 3.26611C3.3056 3.26611 3.30499 3.26611 3.30438 3.26611C3.30377 3.26611 3.30316 3.26611 3.30256 3.26611C3.30195 3.26611 3.30134 3.26611 3.30073 3.26611C3.30012 3.26611 3.29951 3.26611 3.2989 3.26611C3.2983 3.26611 3.29769 3.26611 3.29708 3.26611C3.29647 3.26611 3.29586 3.26611 3.29525 3.26611C3.29464 3.26611 3.29403 3.26611 3.29342 3.26611C3.29281 3.26611 3.2922 3.26611 3.29159 3.26611C3.29098 3.26611 3.29036 3.26611 3.28975 3.26611C3.28914 3.26611 3.28853 3.26611 3.28792 3.26611C3.28731 3.26611 3.2867 3.26611 3.28608 3.26611C3.28547 3.26611 3.28486 3.26611 3.28425 3.26611C3.28364 3.26611 3.28302 3.26611 3.28241 3.26611C3.2818 3.26611 3.28119 3.26611 3.28057 3.26611C3.27996 3.26611 3.27935 3.26611 3.27873 3.26611C3.27812 3.26611 3.2775 3.26611 3.27689 3.26611C3.27628 3.26611 3.27566 3.26611 3.27505 3.26611C3.27443 3.26611 3.27382 3.26611 3.2732 3.26611C3.27259 3.26611 3.27197 3.26611 3.27136 3.26611C3.27074 3.26611 3.27013 3.26611 3.26951 3.26611C3.2689 3.26611 3.26828 3.26611 3.26767 3.26611C3.26705 3.26611 3.26643 3.26611 3.26582 3.26611C3.2652 3.26611 3.26458 3.26611 3.26397 3.26611C3.26335 3.26611 3.26273 3.26611 3.26212 3.26611C3.2615 3.26611 3.26088 3.26611 3.26026 3.26611V31.2661C3.26088 31.2661 3.2615 31.2661 3.26212 31.2661C3.26273 31.2661 3.26335 31.2661 3.26397 31.2661C3.26458 31.2661 3.2652 31.2661 3.26582 31.2661C3.26643 31.2661 3.26705 31.2661 3.26767 31.2661C3.26828 31.2661 3.2689 31.2661 3.26951 31.2661C3.27013 31.2661 3.27074 31.2661 3.27136 31.2661C3.27197 31.2661 3.27259 31.2661 3.2732 31.2661C3.27382 31.2661 3.27443 31.2661 3.27505 31.2661C3.27566 31.2661 3.27628 31.2661 3.27689 31.2661C3.2775 31.2661 3.27812 31.2661 3.27873 31.2661C3.27935 31.2661 3.27996 31.2661 3.28057 31.2661C3.28119 31.2661 3.2818 31.2661 3.28241 31.2661C3.28302 31.2661 3.28364 31.2661 3.28425 31.2661C3.28486 31.2661 3.28547 31.2661 3.28608 31.2661C3.2867 31.2661 3.28731 31.2661 3.28792 31.2661C3.28853 31.2661 3.28914 31.2661 3.28975 31.2661C3.29036 31.2661 3.29098 31.2661 3.29159 31.2661C3.2922 31.2661 3.29281 31.2661 3.29342 31.2661C3.29403 31.2661 3.29464 31.2661 3.29525 31.2661C3.29586 31.2661 3.29647 31.2661 3.29708 31.2661C3.29769 31.2661 3.2983 31.2661 3.2989 31.2661C3.29951 31.2661 3.30012 31.2661 3.30073 31.2661C3.30134 31.2661 3.30195 31.2661 3.30256 31.2661C3.30316 31.2661 3.30377 31.2661 3.30438 31.2661C3.30499 31.2661 3.3056 31.2661 3.3062 31.2661C3.30681 31.2661 3.30742 31.2661 3.30803 31.2661C3.30863 31.2661 3.30924 31.2661 3.30985 31.2661C3.31045 31.2661 3.31106 31.2661 3.31166 31.2661C3.31227 31.2661 3.31288 31.2661 3.31348 31.2661C3.31409 31.2661 3.31469 31.2661 3.3153 31.2661C3.31591 31.2661 3.31651 31.2661 3.31712 31.2661C3.31772 31.2661 3.31833 31.2661 3.31893 31.2661C3.31953 31.2661 3.32014 31.2661 3.32074 31.2661C3.32135 31.2661 3.32195 31.2661 3.32256 31.2661C3.32316 31.2661 3.32376 31.2661 3.32437 31.2661C3.32497 31.2661 3.32557 31.2661 3.32618 31.2661C3.32678 31.2661 3.32738 31.2661 3.32799 31.2661C3.32859 31.2661 3.32919 31.2661 3.32979 31.2661C3.3304 31.2661 3.331 31.2661 3.3316 31.2661C3.3322 31.2661 3.3328 31.2661 3.3334 31.2661C3.33401 31.2661 3.33461 31.2661 3.33521 31.2661C3.33581 31.2661 3.33641 31.2661 3.33701 31.2661C3.33761 31.2661 3.33821 31.2661 3.33881 31.2661C3.33941 31.2661 3.34001 31.2661 3.34061 31.2661C3.34121 31.2661 3.34181 31.2661 3.34241 31.2661C3.34301 31.2661 3.34361 31.2661 3.34421 31.2661C3.34481 31.2661 3.34541 31.2661 3.34601 31.2661C3.34661 31.2661 3.34721 31.2661 3.3478 31.2661C3.3484 31.2661 3.349 31.2661 3.3496 31.2661C3.3502 31.2661 3.3508 31.2661 3.35139 31.2661C3.35199 31.2661 3.35259 31.2661 3.35319 31.2661C3.35378 31.2661 3.35438 31.2661 3.35498 31.2661C3.35557 31.2661 3.35617 31.2661 3.35677 31.2661C3.35736 31.2661 3.35796 31.2661 3.35856 31.2661C3.35915 31.2661 3.35975 31.2661 3.36034 31.2661C3.36094 31.2661 3.36154 31.2661 3.36213 31.2661C3.36273 31.2661 3.36332 31.2661 3.36392 31.2661C3.36451 31.2661 3.36511 31.2661 3.3657 31.2661C3.3663 31.2661 3.36689 31.2661 3.36749 31.2661C3.36808 31.2661 3.36868 31.2661 3.36927 31.2661C3.36986 31.2661 3.37046 31.2661 3.37105 31.2661C3.37164 31.2661 3.37224 31.2661 3.37283 31.2661C3.37342 31.2661 3.37402 31.2661 3.37461 31.2661C3.3752 31.2661 3.3758 31.2661 3.37639 31.2661C3.37698 31.2661 3.37757 31.2661 3.37817 31.2661C3.37876 31.2661 3.37935 31.2661 3.37994 31.2661C3.38053 31.2661 3.38113 31.2661 3.38172 31.2661C3.38231 31.2661 3.3829 31.2661 3.38349 31.2661C3.38408 31.2661 3.38467 31.2661 3.38526 31.2661C3.38585 31.2661 3.38645 31.2661 3.38704 31.2661C3.38763 31.2661 3.38822 31.2661 3.38881 31.2661C3.3894 31.2661 3.38999 31.2661 3.39058 31.2661C3.39117 31.2661 3.39176 31.2661 3.39234 31.2661C3.39293 31.2661 3.39352 31.2661 3.39411 31.2661C3.3947 31.2661 3.39529 31.2661 3.39588 31.2661C3.39647 31.2661 3.39706 31.2661 3.39764 31.2661C3.39823 31.2661 3.39882 31.2661 3.39941 31.2661C3.4 31.2661 3.40058 31.2661 3.40117 31.2661C3.40176 31.2661 3.40235 31.2661 3.40293 31.2661C3.40352 31.2661 3.40411 31.2661 3.4047 31.2661C3.40528 31.2661 3.40587 31.2661 3.40646 31.2661C3.40704 31.2661 3.40763 31.2661 3.40821 31.2661C3.4088 31.2661 3.40939 31.2661 3.40997 31.2661C3.41056 31.2661 3.41114 31.2661 3.41173 31.2661C3.41232 31.2661 3.4129 31.2661 3.41349 31.2661C3.41407 31.2661 3.41466 31.2661 3.41524 31.2661C3.41583 31.2661 3.41641 31.2661 3.417 31.2661C3.41758 31.2661 3.41816 31.2661 3.41875 31.2661C3.41933 31.2661 3.41992 31.2661 3.4205 31.2661C3.42108 31.2661 3.42167 31.2661 3.42225 31.2661C3.42283 31.2661 3.42342 31.2661 3.424 31.2661C3.42458 31.2661 3.42517 31.2661 3.42575 31.2661C3.42633 31.2661 3.42692 31.2661 3.4275 31.2661C3.42808 31.2661 3.42866 31.2661 3.42925 31.2661C3.42983 31.2661 3.43041 31.2661 3.43099 31.2661C3.43157 31.2661 3.43215 31.2661 3.43274 31.2661C3.43332 31.2661 3.4339 31.2661 3.43448 31.2661C3.43506 31.2661 3.43564 31.2661 3.43622 31.2661C3.4368 31.2661 3.43738 31.2661 3.43797 31.2661C3.43855 31.2661 3.43913 31.2661 3.43971 31.2661C3.44029 31.2661 3.44087 31.2661 3.44145 31.2661C3.44203 31.2661 3.44261 31.2661 3.44319 31.2661C3.44377 31.2661 3.44434 31.2661 3.44492 31.2661C3.4455 31.2661 3.44608 31.2661 3.44666 31.2661C3.44724 31.2661 3.44782 31.2661 3.4484 31.2661C3.44898 31.2661 3.44955 31.2661 3.45013 31.2661C3.45071 31.2661 3.45129 31.2661 3.45187 31.2661C3.45244 31.2661 3.45302 31.2661 3.4536 31.2661C3.45418 31.2661 3.45476 31.2661 3.45533 31.2661C3.45591 31.2661 3.45649 31.2661 3.45706 31.2661C3.45764 31.2661 3.45822 31.2661 3.45879 31.2661C3.45937 31.2661 3.45995 31.2661 3.46052 31.2661C3.4611 31.2661 3.46168 31.2661 3.46225 31.2661C3.46283 31.2661 3.4634 31.2661 3.46398 31.2661C3.46456 31.2661 3.46513 31.2661 3.46571 31.2661C3.46628 31.2661 3.46686 31.2661 3.46743 31.2661C3.46801 31.2661 3.46858 31.2661 3.46916 31.2661C3.46973 31.2661 3.47031 31.2661 3.47088 31.2661C3.47146 31.2661 3.47203 31.2661 3.4726 31.2661C3.47318 31.2661 3.47375 31.2661 3.47433 31.2661C3.4749 31.2661 3.47547 31.2661 3.47605 31.2661C3.47662 31.2661 3.4772 31.2661 3.47777 31.2661C3.47834 31.2661 3.47891 31.2661 3.47949 31.2661C3.48006 31.2661 3.48063 31.2661 3.48121 31.2661C3.48178 31.2661 3.48235 31.2661 3.48292 31.2661C3.4835 31.2661 3.48407 31.2661 3.48464 31.2661C3.48521 31.2661 3.48578 31.2661 3.48636 31.2661C3.48693 31.2661 3.4875 31.2661 3.48807 31.2661C3.48864 31.2661 3.48921 31.2661 3.48979 31.2661C3.49036 31.2661 3.49093 31.2661 3.4915 31.2661C3.49207 31.2661 3.49264 31.2661 3.49321 31.2661C3.49378 31.2661 3.49435 31.2661 3.49492 31.2661C3.49549 31.2661 3.49606 31.2661 3.49663 31.2661C3.4972 31.2661 3.49777 31.2661 3.49834 31.2661C3.49891 31.2661 3.49948 31.2661 3.50005 31.2661C3.50062 31.2661 3.50119 31.2661 3.50176 31.2661C3.50233 31.2661 3.5029 31.2661 3.50346 31.2661C3.50403 31.2661 3.5046 31.2661 3.50517 31.2661C3.50574 31.2661 3.50631 31.2661 3.50688 31.2661C3.50744 31.2661 3.50801 31.2661 3.50858 31.2661C3.50915 31.2661 3.50972 31.2661 3.51028 31.2661C3.51085 31.2661 3.51142 31.2661 3.51199 31.2661C3.51255 31.2661 3.51312 31.2661 3.51369 31.2661C3.51426 31.2661 3.51482 31.2661 3.51539 31.2661C3.51596 31.2661 3.51652 31.2661 3.51709 31.2661C3.51766 31.2661 3.51822 31.2661 3.51879 31.2661C3.51935 31.2661 3.51992 31.2661 3.52049 31.2661C3.52105 31.2661 3.52162 31.2661 3.52218 31.2661C3.52275 31.2661 3.52332 31.2661 3.52388 31.2661C3.52445 31.2661 3.52501 31.2661 3.52558 31.2661C3.52614 31.2661 3.52671 31.2661 3.52727 31.2661C3.52784 31.2661 3.5284 31.2661 3.52897 31.2661C3.52953 31.2661 3.5301 31.2661 3.53066 31.2661C3.53122 31.2661 3.53179 31.2661 3.53235 31.2661C3.53292 31.2661 3.53348 31.2661 3.53404 31.2661C3.53461 31.2661 3.53517 31.2661 3.53573 31.2661C3.5363 31.2661 3.53686 31.2661 3.53743 31.2661C3.53799 31.2661 3.53855 31.2661 3.53911 31.2661C3.53968 31.2661 3.54024 31.2661 3.5408 31.2661C3.54137 31.2661 3.54193 31.2661 3.54249 31.2661C3.54305 31.2661 3.54362 31.2661 3.54418 31.2661C3.54474 31.2661 3.5453 31.2661 3.54586 31.2661C3.54643 31.2661 3.54699 31.2661 3.54755 31.2661C3.54811 31.2661 3.54867 31.2661 3.54923 31.2661C3.5498 31.2661 3.55036 31.2661 3.55092 31.2661C3.55148 31.2661 3.55204 31.2661 3.5526 31.2661C3.55316 31.2661 3.55372 31.2661 3.55428 31.2661C3.55484 31.2661 3.5554 31.2661 3.55596 31.2661C3.55652 31.2661 3.55708 31.2661 3.55764 31.2661C3.5582 31.2661 3.55876 31.2661 3.55932 31.2661C3.55988 31.2661 3.56044 31.2661 3.561 31.2661C3.56156 31.2661 3.56212 31.2661 3.56268 31.2661C3.56324 31.2661 3.5638 31.2661 3.56436 31.2661C3.56492 31.2661 3.56548 31.2661 3.56604 31.2661C3.5666 31.2661 3.56715 31.2661 3.56771 31.2661C3.56827 31.2661 3.56883 31.2661 3.56939 31.2661C3.56995 31.2661 3.5705 31.2661 3.57106 31.2661C3.57162 31.2661 3.57218 31.2661 3.57274 31.2661C3.57329 31.2661 3.57385 31.2661 3.57441 31.2661C3.57497 31.2661 3.57552 31.2661 3.57608 31.2661C3.57664 31.2661 3.5772 31.2661 3.57775 31.2661C3.57831 31.2661 3.57887 31.2661 3.57942 31.2661C3.57998 31.2661 3.58054 31.2661 3.58109 31.2661C3.58165 31.2661 3.58221 31.2661 3.58276 31.2661C3.58332 31.2661 3.58388 31.2661 3.58443 31.2661C3.58499 31.2661 3.58554 31.2661 3.5861 31.2661C3.58666 31.2661 3.58721 31.2661 3.58777 31.2661C3.58832 31.2661 3.58888 31.2661 3.58943 31.2661C3.58999 31.2661 3.59054 31.2661 3.5911 31.2661C3.59165 31.2661 3.59221 31.2661 3.59276 31.2661C3.59332 31.2661 3.59387 31.2661 3.59443 31.2661C3.59498 31.2661 3.59554 31.2661 3.59609 31.2661C3.59665 31.2661 3.5972 31.2661 3.59776 31.2661C3.59831 31.2661 3.59886 31.2661 3.59942 31.2661C3.59997 31.2661 3.60053 31.2661 3.60108 31.2661C3.60163 31.2661 3.60219 31.2661 3.60274 31.2661C3.60329 31.2661 3.60385 31.2661 3.6044 31.2661C3.60495 31.2661 3.60551 31.2661 3.60606 31.2661C3.60661 31.2661 3.60717 31.2661 3.60772 31.2661C3.60827 31.2661 3.60882 31.2661 3.60938 31.2661C3.60993 31.2661 3.61048 31.2661 3.61103 31.2661C3.61159 31.2661 3.61214 31.2661 3.61269 31.2661C3.61324 31.2661 3.6138 31.2661 3.61435 31.2661C3.6149 31.2661 3.61545 31.2661 3.616 31.2661C3.61655 31.2661 3.61711 31.2661 3.61766 31.2661C3.61821 31.2661 3.61876 31.2661 3.61931 31.2661C3.61986 31.2661 3.62041 31.2661 3.62097 31.2661C3.62152 31.2661 3.62207 31.2661 3.62262 31.2661C3.62317 31.2661 3.62372 31.2661 3.62427 31.2661C3.62482 31.2661 3.62537 31.2661 3.62592 31.2661C3.62647 31.2661 3.62702 31.2661 3.62757 31.2661C3.62812 31.2661 3.62867 31.2661 3.62922 31.2661C3.62977 31.2661 3.63032 31.2661 3.63087 31.2661C3.63142 31.2661 3.63197 31.2661 3.63252 31.2661C3.63307 31.2661 3.63362 31.2661 3.63417 31.2661C3.63472 31.2661 3.63527 31.2661 3.63582 31.2661C3.63637 31.2661 3.63692 31.2661 3.63746 31.2661C3.63801 31.2661 3.63856 31.2661 3.63911 31.2661C3.63966 31.2661 3.64021 31.2661 3.64076 31.2661C3.6413 31.2661 3.64185 31.2661 3.6424 31.2661C3.64295 31.2661 3.6435 31.2661 3.64405 31.2661C3.64459 31.2661 3.64514 31.2661 3.64569 31.2661C3.64624 31.2661 3.64679 31.2661 3.64733 31.2661C3.64788 31.2661 3.64843 31.2661 3.64898 31.2661C3.64952 31.2661 3.65007 31.2661 3.65062 31.2661C3.65117 31.2661 3.65171 31.2661 3.65226 31.2661C3.65281 31.2661 3.65335 31.2661 3.6539 31.2661C3.65445 31.2661 3.65499 31.2661 3.65554 31.2661C3.65609 31.2661 3.65663 31.2661 3.65718 31.2661C3.65773 31.2661 3.65827 31.2661 3.65882 31.2661C3.65937 31.2661 3.65991 31.2661 3.66046 31.2661C3.661 31.2661 3.66155 31.2661 3.6621 31.2661C3.66264 31.2661 3.66319 31.2661 3.66373 31.2661C3.66428 31.2661 3.66482 31.2661 3.66537 31.2661C3.66592 31.2661 3.66646 31.2661 3.66701 31.2661C3.66755 31.2661 3.6681 31.2661 3.66864 31.2661C3.66919 31.2661 3.66973 31.2661 3.67028 31.2661C3.67082 31.2661 3.67137 31.2661 3.67191 31.2661C3.67246 31.2661 3.673 31.2661 3.67354 31.2661C3.67409 31.2661 3.67463 31.2661 3.67518 31.2661C3.67572 31.2661 3.67627 31.2661 3.67681 31.2661C3.67735 31.2661 3.6779 31.2661 3.67844 31.2661C3.67899 31.2661 3.67953 31.2661 3.68007 31.2661C3.68062 31.2661 3.68116 31.2661 3.68171 31.2661C3.68225 31.2661 3.68279 31.2661 3.68334 31.2661C3.68388 31.2661 3.68442 31.2661 3.68497 31.2661C3.68551 31.2661 3.68605 31.2661 3.6866 31.2661C3.68714 31.2661 3.68768 31.2661 3.68822 31.2661C3.68877 31.2661 3.68931 31.2661 3.68985 31.2661C3.6904 31.2661 3.69094 31.2661 3.69148 31.2661C3.69202 31.2661 3.69257 31.2661 3.69311 31.2661C3.69365 31.2661 3.69419 31.2661 3.69473 31.2661C3.69528 31.2661 3.69582 31.2661 3.69636 31.2661C3.6969 31.2661 3.69745 31.2661 3.69799 31.2661C3.69853 31.2661 3.69907 31.2661 3.69961 31.2661C3.70015 31.2661 3.7007 31.2661 3.70124 31.2661C3.70178 31.2661 3.70232 31.2661 3.70286 31.2661C3.7034 31.2661 3.70394 31.2661 3.70448 31.2661C3.70503 31.2661 3.70557 31.2661 3.70611 31.2661C3.70665 31.2661 3.70719 31.2661 3.70773 31.2661C3.70827 31.2661 3.70881 31.2661 3.70935 31.2661C3.70989 31.2661 3.71043 31.2661 3.71097 31.2661C3.71151 31.2661 3.71206 31.2661 3.7126 31.2661C3.71314 31.2661 3.71368 31.2661 3.71422 31.2661C3.71476 31.2661 3.7153 31.2661 3.71584 31.2661C3.71638 31.2661 3.71692 31.2661 3.71746 31.2661C3.718 31.2661 3.71854 31.2661 3.71908 31.2661C3.71962 31.2661 3.72015 31.2661 3.72069 31.2661C3.72123 31.2661 3.72177 31.2661 3.72231 31.2661C3.72285 31.2661 3.72339 31.2661 3.72393 31.2661C3.72447 31.2661 3.72501 31.2661 3.72555 31.2661C3.72609 31.2661 3.72663 31.2661 3.72716 31.2661C3.7277 31.2661 3.72824 31.2661 3.72878 31.2661C3.72932 31.2661 3.72986 31.2661 3.7304 31.2661C3.73094 31.2661 3.73147 31.2661 3.73201 31.2661C3.73255 31.2661 3.73309 31.2661 3.73363 31.2661C3.73417 31.2661 3.7347 31.2661 3.73524 31.2661C3.73578 31.2661 3.73632 31.2661 3.73686 31.2661C3.73739 31.2661 3.73793 31.2661 3.73847 31.2661C3.73901 31.2661 3.73955 31.2661 3.74008 31.2661C3.74062 31.2661 3.74116 31.2661 3.7417 31.2661C3.74223 31.2661 3.74277 31.2661 3.74331 31.2661C3.74385 31.2661 3.74438 31.2661 3.74492 31.2661C3.74546 31.2661 3.746 31.2661 3.74653 31.2661C3.74707 31.2661 3.74761 31.2661 3.74814 31.2661C3.74868 31.2661 3.74922 31.2661 3.74975 31.2661C3.75029 31.2661 3.75083 31.2661 3.75136 31.2661C3.7519 31.2661 3.75244 31.2661 3.75297 31.2661C3.75351 31.2661 3.75405 31.2661 3.75458 31.2661C3.75512 31.2661 3.75566 31.2661 3.75619 31.2661C3.75673 31.2661 3.75726 31.2661 3.7578 31.2661C3.75834 31.2661 3.75887 31.2661 3.75941 31.2661C3.75995 31.2661 3.76048 31.2661 3.76102 31.2661C3.76155 31.2661 3.76209 31.2661 3.76262 31.2661C3.76316 31.2661 3.7637 31.2661 3.76423 31.2661C3.76477 31.2661 3.7653 31.2661 3.76584 31.2661C3.76637 31.2661 3.76691 31.2661 3.76744 31.2661C3.76798 31.2661 3.76851 31.2661 3.76905 31.2661C3.76959 31.2661 3.77012 31.2661 3.77066 31.2661C3.77119 31.2661 3.77173 31.2661 3.77226 31.2661C3.7728 31.2661 3.77333 31.2661 3.77387 31.2661C3.7744 31.2661 3.77493 31.2661 3.77547 31.2661C3.776 31.2661 3.77654 31.2661 3.77707 31.2661C3.77761 31.2661 3.77814 31.2661 3.77868 31.2661C3.77921 31.2661 3.77975 31.2661 3.78028 31.2661C3.78081 31.2661 3.78135 31.2661 3.78188 31.2661C3.78242 31.2661 3.78295 31.2661 3.78349 31.2661C3.78402 31.2661 3.78455 31.2661 3.78509 31.2661C3.78562 31.2661 3.78616 31.2661 3.78669 31.2661C3.78722 31.2661 3.78776 31.2661 3.78829 31.2661C3.78882 31.2661 3.78936 31.2661 3.78989 31.2661C3.79042 31.2661 3.79096 31.2661 3.79149 31.2661C3.79203 31.2661 3.79256 31.2661 3.79309 31.2661C3.79363 31.2661 3.79416 31.2661 3.79469 31.2661C3.79523 31.2661 3.79576 31.2661 3.79629 31.2661C3.79683 31.2661 3.79736 31.2661 3.79789 31.2661C3.79842 31.2661 3.79896 31.2661 3.79949 31.2661C3.80002 31.2661 3.80056 31.2661 3.80109 31.2661C3.80162 31.2661 3.80215 31.2661 3.80269 31.2661C3.80322 31.2661 3.80375 31.2661 3.80429 31.2661C3.80482 31.2661 3.80535 31.2661 3.80588 31.2661C3.80642 31.2661 3.80695 31.2661 3.80748 31.2661C3.80801 31.2661 3.80854 31.2661 3.80908 31.2661C3.80961 31.2661 3.81014 31.2661 3.81067 31.2661C3.81121 31.2661 3.81174 31.2661 3.81227 31.2661C3.8128 31.2661 3.81333 31.2661 3.81387 31.2661C3.8144 31.2661 3.81493 31.2661 3.81546 31.2661C3.81599 31.2661 3.81653 31.2661 3.81706 31.2661C3.81759 31.2661 3.81812 31.2661 3.81865 31.2661C3.81918 31.2661 3.81972 31.2661 3.82025 31.2661C3.82078 31.2661 3.82131 31.2661 3.82184 31.2661C3.82237 31.2661 3.82291 31.2661 3.82344 31.2661C3.82397 31.2661 3.8245 31.2661 3.82503 31.2661C3.82556 31.2661 3.82609 31.2661 3.82662 31.2661C3.82716 31.2661 3.82769 31.2661 3.82822 31.2661C3.82875 31.2661 3.82928 31.2661 3.82981 31.2661C3.83034 31.2661 3.83087 31.2661 3.8314 31.2661C3.83194 31.2661 3.83247 31.2661 3.833 31.2661C3.83353 31.2661 3.83406 31.2661 3.83459 31.2661C3.83512 31.2661 3.83565 31.2661 3.83618 31.2661C3.83671 31.2661 3.83724 31.2661 3.83777 31.2661C3.8383 31.2661 3.83883 31.2661 3.83937 31.2661C3.8399 31.2661 3.84043 31.2661 3.84096 31.2661C3.84149 31.2661 3.84202 31.2661 3.84255 31.2661C3.84308 31.2661 3.84361 31.2661 3.84414 31.2661C3.84467 31.2661 3.8452 31.2661 3.84573 31.2661C3.84626 31.2661 3.84679 31.2661 3.84732 31.2661C3.84785 31.2661 3.84838 31.2661 3.84891 31.2661C3.84944 31.2661 3.84997 31.2661 3.8505 31.2661C3.85103 31.2661 3.85156 31.2661 3.85209 31.2661C3.85262 31.2661 3.85315 31.2661 3.85368 31.2661C3.85421 31.2661 3.85474 31.2661 3.85527 31.2661C3.8558 31.2661 3.85633 31.2661 3.85686 31.2661C3.85739 31.2661 3.85792 31.2661 3.85845 31.2661C3.85898 31.2661 3.8595 31.2661 3.86003 31.2661C3.86056 31.2661 3.86109 31.2661 3.86162 31.2661C3.86215 31.2661 3.86268 31.2661 3.86321 31.2661C3.86374 31.2661 3.86427 31.2661 3.8648 31.2661C3.86533 31.2661 3.86586 31.2661 3.86639 31.2661C3.86692 31.2661 3.86744 31.2661 3.86797 31.2661C3.8685 31.2661 3.86903 31.2661 3.86956 31.2661C3.87009 31.2661 3.87062 31.2661 3.87115 31.2661C3.87168 31.2661 3.87221 31.2661 3.87274 31.2661C3.87326 31.2661 3.87379 31.2661 3.87432 31.2661C3.87485 31.2661 3.87538 31.2661 3.87591 31.2661C3.87644 31.2661 3.87697 31.2661 3.87749 31.2661C3.87802 31.2661 3.87855 31.2661 3.87908 31.2661C3.87961 31.2661 3.88014 31.2661 3.88067 31.2661C3.8812 31.2661 3.88172 31.2661 3.88225 31.2661C3.88278 31.2661 3.88331 31.2661 3.88384 31.2661C3.88437 31.2661 3.8849 31.2661 3.88542 31.2661C3.88595 31.2661 3.88648 31.2661 3.88701 31.2661C3.88754 31.2661 3.88807 31.2661 3.88859 31.2661C3.88912 31.2661 3.88965 31.2661 3.89018 31.2661C3.89071 31.2661 3.89124 31.2661 3.89176 31.2661C3.89229 31.2661 3.89282 31.2661 3.89335 31.2661C3.89388 31.2661 3.89441 31.2661 3.89493 31.2661C3.89546 31.2661 3.89599 31.2661 3.89652 31.2661C3.89705 31.2661 3.89757 31.2661 3.8981 31.2661C3.89863 31.2661 3.89916 31.2661 3.89969 31.2661C3.90021 31.2661 3.90074 31.2661 3.90127 31.2661C3.9018 31.2661 3.90233 31.2661 3.90285 31.2661C3.90338 31.2661 3.90391 31.2661 3.90444 31.2661C3.90496 31.2661 3.90549 31.2661 3.90602 31.2661C3.90655 31.2661 3.90708 31.2661 3.9076 31.2661C3.90813 31.2661 3.90866 31.2661 3.90919 31.2661C3.90971 31.2661 3.91024 31.2661 3.91077 31.2661C3.9113 31.2661 3.91183 31.2661 3.91235 31.2661C3.91288 31.2661 3.91341 31.2661 3.91394 31.2661C3.91446 31.2661 3.91499 31.2661 3.91552 31.2661C3.91605 31.2661 3.91657 31.2661 3.9171 31.2661C3.91763 31.2661 3.91816 31.2661 3.91868 31.2661C3.91921 31.2661 3.91974 31.2661 3.92027 31.2661C3.92079 31.2661 3.92132 31.2661 3.92185 31.2661C3.92238 31.2661 3.9229 31.2661 3.92343 31.2661C3.92396 31.2661 3.92449 31.2661 3.92501 31.2661C3.92554 31.2661 3.92607 31.2661 3.9266 31.2661C3.92712 31.2661 3.92765 31.2661 3.92818 31.2661C3.9287 31.2661 3.92923 31.2661 3.92976 31.2661C3.93029 31.2661 3.93081 31.2661 3.93134 31.2661C3.93187 31.2661 3.9324 31.2661 3.93292 31.2661C3.93345 31.2661 3.93398 31.2661 3.9345 31.2661C3.93503 31.2661 3.93556 31.2661 3.93609 31.2661C3.93661 31.2661 3.93714 31.2661 3.93767 31.2661C3.93819 31.2661 3.93872 31.2661 3.93925 31.2661C3.93978 31.2661 3.9403 31.2661 3.94083 31.2661C3.94136 31.2661 3.94188 31.2661 3.94241 31.2661C3.94294 31.2661 3.94347 31.2661 3.94399 31.2661C3.94452 31.2661 3.94505 31.2661 3.94557 31.2661C3.9461 31.2661 3.94663 31.2661 3.94715 31.2661C3.94768 31.2661 3.94821 31.2661 3.94874 31.2661C3.94926 31.2661 3.94979 31.2661 3.95032 31.2661C3.95084 31.2661 3.95137 31.2661 3.9519 31.2661C3.95242 31.2661 3.95295 31.2661 3.95348 31.2661C3.95401 31.2661 3.95453 31.2661 3.95506 31.2661C3.95559 31.2661 3.95611 31.2661 3.95664 31.2661C3.95717 31.2661 3.95769 31.2661 3.95822 31.2661C3.95875 31.2661 3.95928 31.2661 3.9598 31.2661C3.96033 31.2661 3.96086 31.2661 3.96138 31.2661C3.96191 31.2661 3.96244 31.2661 3.96296 31.2661C3.96349 31.2661 3.96402 31.2661 3.96454 31.2661C3.96507 31.2661 3.9656 31.2661 3.96612 31.2661C3.96665 31.2661 3.96718 31.2661 3.96771 31.2661C3.96823 31.2661 3.96876 31.2661 3.96929 31.2661C3.96981 31.2661 3.97034 31.2661 3.97087 31.2661C3.97139 31.2661 3.97192 31.2661 3.97245 31.2661C3.97297 31.2661 3.9735 31.2661 3.97403 31.2661C3.97455 31.2661 3.97508 31.2661 3.97561 31.2661C3.97614 31.2661 3.97666 31.2661 3.97719 31.2661C3.97772 31.2661 3.97824 31.2661 3.97877 31.2661C3.9793 31.2661 3.97982 31.2661 3.98035 31.2661C3.98088 31.2661 3.9814 31.2661 3.98193 31.2661C3.98246 31.2661 3.98298 31.2661 3.98351 31.2661C3.98404 31.2661 3.98457 31.2661 3.98509 31.2661C3.98562 31.2661 3.98615 31.2661 3.98667 31.2661C3.9872 31.2661 3.98773 31.2661 3.98825 31.2661C3.98878 31.2661 3.98931 31.2661 3.98983 31.2661C3.99036 31.2661 3.99089 31.2661 3.99142 31.2661C3.99194 31.2661 3.99247 31.2661 3.993 31.2661C3.99352 31.2661 3.99405 31.2661 3.99458 31.2661C3.9951 31.2661 3.99563 31.2661 3.99616 31.2661C3.99668 31.2661 3.99721 31.2661 3.99774 31.2661C3.99827 31.2661 3.99879 31.2661 3.99932 31.2661C3.99985 31.2661 4.00037 31.2661 4.0009 31.2661C4.00143 31.2661 4.00195 31.2661 4.00248 31.2661C4.00301 31.2661 4.00354 31.2661 4.00406 31.2661C4.00459 31.2661 4.00512 31.2661 4.00564 31.2661C4.00617 31.2661 4.0067 31.2661 4.00723 31.2661C4.00775 31.2661 4.00828 31.2661 4.00881 31.2661C4.00933 31.2661 4.00986 31.2661 4.01039 31.2661C4.01092 31.2661 4.01144 31.2661 4.01197 31.2661C4.0125 31.2661 4.01302 31.2661 4.01355 31.2661C4.01408 31.2661 4.01461 31.2661 4.01513 31.2661C4.01566 31.2661 4.01619 31.2661 4.01671 31.2661C4.01724 31.2661 4.01777 31.2661 4.0183 31.2661C4.01882 31.2661 4.01935 31.2661 4.01988 31.2661C4.0204 31.2661 4.02093 31.2661 4.02146 31.2661C4.02199 31.2661 4.02251 31.2661 4.02304 31.2661C4.02357 31.2661 4.0241 31.2661 4.02462 31.2661C4.02515 31.2661 4.02568 31.2661 4.02621 31.2661C4.02673 31.2661 4.02726 31.2661 4.02779 31.2661C4.02832 31.2661 4.02884 31.2661 4.02937 31.2661C4.0299 31.2661 4.03043 31.2661 4.03095 31.2661C4.03148 31.2661 4.03201 31.2661 4.03254 31.2661C4.03306 31.2661 4.03359 31.2661 4.03412 31.2661C4.03465 31.2661 4.03517 31.2661 4.0357 31.2661C4.03623 31.2661 4.03676 31.2661 4.03728 31.2661C4.03781 31.2661 4.03834 31.2661 4.03887 31.2661C4.03939 31.2661 4.03992 31.2661 4.04045 31.2661C4.04098 31.2661 4.04151 31.2661 4.04203 31.2661C4.04256 31.2661 4.04309 31.2661 4.04362 31.2661C4.04414 31.2661 4.04467 31.2661 4.0452 31.2661C4.04573 31.2661 4.04626 31.2661 4.04678 31.2661C4.04731 31.2661 4.04784 31.2661 4.04837 31.2661C4.0489 31.2661 4.04942 31.2661 4.04995 31.2661C4.05048 31.2661 4.05101 31.2661 4.05154 31.2661C4.05206 31.2661 4.05259 31.2661 4.05312 31.2661C4.05365 31.2661 4.05418 31.2661 4.0547 31.2661C4.05523 31.2661 4.05576 31.2661 4.05629 31.2661C4.05682 31.2661 4.05735 31.2661 4.05787 31.2661C4.0584 31.2661 4.05893 31.2661 4.05946 31.2661C4.05999 31.2661 4.06051 31.2661 4.06104 31.2661C4.06157 31.2661 4.0621 31.2661 4.06263 31.2661C4.06316 31.2661 4.06369 31.2661 4.06421 31.2661C4.06474 31.2661 4.06527 31.2661 4.0658 31.2661C4.06633 31.2661 4.06686 31.2661 4.06739 31.2661C4.06791 31.2661 4.06844 31.2661 4.06897 31.2661C4.0695 31.2661 4.07003 31.2661 4.07056 31.2661C4.07109 31.2661 4.07161 31.2661 4.07214 31.2661C4.07267 31.2661 4.0732 31.2661 4.07373 31.2661C4.07426 31.2661 4.07479 31.2661 4.07532 31.2661C4.07584 31.2661 4.07637 31.2661 4.0769 31.2661C4.07743 31.2661 4.07796 31.2661 4.07849 31.2661C4.07902 31.2661 4.07955 31.2661 4.08008 31.2661C4.08061 31.2661 4.08114 31.2661 4.08166 31.2661C4.08219 31.2661 4.08272 31.2661 4.08325 31.2661C4.08378 31.2661 4.08431 31.2661 4.08484 31.2661C4.08537 31.2661 4.0859 31.2661 4.08643 31.2661C4.08696 31.2661 4.08749 31.2661 4.08802 31.2661C4.08855 31.2661 4.08907 31.2661 4.0896 31.2661C4.09013 31.2661 4.09066 31.2661 4.09119 31.2661C4.09172 31.2661 4.09225 31.2661 4.09278 31.2661C4.09331 31.2661 4.09384 31.2661 4.09437 31.2661C4.0949 31.2661 4.09543 31.2661 4.09596 31.2661C4.09649 31.2661 4.09702 31.2661 4.09755 31.2661C4.09808 31.2661 4.09861 31.2661 4.09914 31.2661C4.09967 31.2661 4.1002 31.2661 4.10073 31.2661C4.10126 31.2661 4.10179 31.2661 4.10232 31.2661C4.10285 31.2661 4.10338 31.2661 4.10391 31.2661C4.10444 31.2661 4.10497 31.2661 4.1055 31.2661C4.10603 31.2661 4.10656 31.2661 4.10709 31.2661C4.10762 31.2661 4.10815 31.2661 4.10868 31.2661V3.26611ZM17.2602 17.2455C17.2612 17.8636 17.1586 18.5848 16.9001 19.3266C16.6441 20.0613 16.3025 20.6238 16.0098 21.0029L-6.15266 3.89073C-9.06398 7.66126 -10.7471 12.2486 -10.7397 17.2867L17.2602 17.2455ZM16.0097 21.0031C15.6389 21.4833 15.1603 21.9365 14.6104 22.3024C14.0742 22.6593 13.6199 22.8339 13.3694 22.9097L5.26121 -3.89066C0.966698 -2.59139 -3.07379 -0.0966778 -6.15256 3.89061L16.0097 21.0031ZM16.9688 -2.21328C17.5718 -1.81963 18.7174 -0.918451 19.6682 0.714094C20.6793 2.4501 21.0427 4.28308 21.0009 5.81258L-6.98864 5.0474C-7.1951 12.5999 -3.10246 18.1218 1.6618 21.2323L16.9688 -2.21328ZM21.0009 5.81255C20.9689 6.98186 20.706 8.29515 20.105 9.6007C19.5082 10.8968 18.7151 11.8891 17.9589 12.5933L-1.12298 -7.89768C-4.65798 -4.60578 -6.84881 -0.0677426 -6.98864 5.04743L21.0009 5.81255ZM17.9588 12.5934C14.227 16.0686 8.74399 15.7668 5.37663 12.5774L24.6313 -7.75144C17.6189 -14.3932 6.31545 -14.8245 -1.1229 -7.89775L17.9588 12.5934ZM5.37638 12.5771C3.205 10.5204 2.26955 7.92942 2.3292 5.42059C2.40653 2.16834 4.13683 -0.746536 6.50555 -2.27114L21.6598 21.2735C27.1992 17.7081 30.1807 11.9979 30.3213 6.08618C30.4442 0.917859 28.384 -4.1968 24.6315 -7.7512L5.37638 12.5771ZM8.82338 22.4758C9.35723 22.6922 9.92165 22.9208 10.4513 23.1355L20.9695 -2.81379C20.4168 -3.03782 19.8927 -3.25017 19.342 -3.47341L8.82338 22.4758ZM2.55273 5.37803C2.44398 5.67721 2.34504 5.98674 2.38644 5.86038C2.39832 5.8241 2.44346 5.68626 2.50637 5.51043C2.56868 5.33627 2.68817 5.01235 2.86219 4.6151C3.2454 3.74032 3.932 2.41424 5.12302 1.04655L26.2388 19.4347C27.4336 18.0627 28.1231 16.7317 28.5093 15.8501C28.6848 15.4495 28.8058 15.1217 28.8697 14.943C28.9342 14.7628 28.9811 14.6198 28.9949 14.5777C29.0439 14.428 28.956 14.7019 28.8681 14.9437L2.55273 5.37803ZM5.10069 1.07226C4.77363 1.44969 5.20535 0.925829 5.75229 0.410074C6.42762 -0.226762 8.43455 -2.0066 11.6919 -2.82725C14.9334 -3.64392 17.5297 -3.03464 18.3975 -2.80546C19.11 -2.61727 19.7265 -2.36971 19.2611 -2.54347L9.46787 23.688C9.52885 23.7108 9.74803 23.7932 9.97334 23.8725C10.1949 23.9505 10.6626 24.1118 11.2473 24.2662C12.3506 24.5576 15.1263 25.1824 18.5324 24.3243C21.9543 23.4622 24.1109 21.5839 24.9621 20.7812C25.408 20.3607 25.7456 19.9907 25.9043 19.8146C26.0655 19.6356 26.2195 19.4571 26.2611 19.409L5.10069 1.07226ZM19.2615 -2.54333C6.72216 -7.22516 -8.08485 0.605176 -9.69285 14.9697L18.1333 18.0847C17.5789 23.0377 12.8496 24.9507 9.46749 23.6879L19.2615 -2.54333ZM-9.69375 14.9777C-9.68096 14.8629 -9.66901 14.7752 -9.66194 14.7258C-9.65517 14.6784 -9.65111 14.654 -9.65427 14.6737C-9.65574 14.6829 -9.65802 14.697 -9.6622 14.7226C-9.66432 14.7355 -9.66641 14.7483 -9.66919 14.7653C-9.67179 14.7811 -9.67488 14.8 -9.67811 14.8198C-9.69067 14.8968 -9.70997 15.0158 -9.73074 15.1518L17.9481 19.3804C17.9473 19.3858 17.9486 19.3771 17.9565 19.3285C17.9607 19.3028 17.9792 19.1904 17.9931 19.1036C18.024 18.9108 18.0836 18.5314 18.1342 18.0767L-9.69375 14.9777ZM11.666 23.1837C20.881 23.1847 29.3859 15.883 29.4174 5.6431L1.41754 5.55693C1.4369 -0.73322 6.57466 -4.81687 11.6691 -4.8163L11.666 23.1837ZM29.4174 5.64268C29.4486 -4.60138 20.9739 -12.0236 11.6641 -12.024L11.6631 15.976C6.49762 15.9758 1.39848 11.8125 1.41754 5.55735L29.4174 5.64268ZM11.6641 -12.024C2.44578 -12.0243 -6.0521 -4.69689 -6.08905 5.51483L21.9108 5.61614C21.888 11.8938 16.7829 15.9762 11.6631 15.976L11.6641 -12.024ZM-6.08905 5.51492C-6.1262 15.7992 2.39049 23.1823 11.6654 23.1837L11.6696 -4.8163C16.7923 -4.81554 21.9335 -0.683134 21.9108 5.61606L-6.08905 5.51492Z" fill="#15436D" mask="url(#path-1-inside-1_624_228)"/>
<path fill-rule="evenodd" clip-rule="evenodd" d="M18.5632 8.77979C19.226 9.41681 19.8641 10.0302 20.5222 10.6628C20.4402 10.7466 20.3448 10.849 20.244 10.9462C18.3636 12.7616 16.4864 14.58 14.5952 16.3849C14.4188 16.5532 14.167 16.681 13.9264 16.7477C13.2055 16.9478 12.4727 17.1083 11.679 17.3001C11.903 16.4343 12.1068 15.6338 12.3214 14.8361C12.3427 14.7573 12.4243 14.6888 12.4891 14.6263C14.472 12.7102 16.4562 10.7955 18.4407 8.88098C18.4778 8.84507 18.5205 8.8147 18.5632 8.77979ZM19.2111 10.7155C18.9457 10.455 18.7457 10.2589 18.5466 10.0635C16.8939 11.6531 15.2363 13.2659 13.5519 14.8525C13.194 15.1896 13.04 15.5627 12.9903 16.0396C13.4364 15.9768 13.8191 15.8963 14.1454 15.572C15.3036 14.4213 16.4874 13.2944 17.6664 12.1632C18.1835 11.6673 18.7121 11.1825 19.2111 10.7155Z" fill="#15436D"/>
<path fill-rule="evenodd" clip-rule="evenodd" d="M20.063 17.2702C19.7428 17.2702 19.4805 17.2702 19.2556 17.2702C19.0953 16.5226 18.943 15.8003 18.7837 15.0795C18.7563 14.9557 18.703 14.8364 18.6548 14.7176C18.3587 13.9879 18.358 13.9882 19.0478 13.4139C19.7247 14.6291 20.0989 15.8934 20.063 17.2702Z" fill="#15436D"/>
</svg>
