<svg width="12" height="7" viewBox="0 0 12 7" fill="none" xmlns="http://www.w3.org/2000/svg">
<path d="M5.9998 0.426562C5.86647 0.426562 5.73714 0.451563 5.6118 0.501563C5.48647 0.551563 5.38247 0.618229 5.2998 0.701563L0.699804 5.30156C0.516471 5.4849 0.424805 5.71823 0.424805 6.00156C0.424805 6.2849 0.516471 6.51823 0.699804 6.70156C0.883138 6.8849 1.11647 6.97656 1.3998 6.97656C1.68314 6.97656 1.91647 6.8849 2.0998 6.70156L5.9998 2.80156L9.8998 6.70156C10.0831 6.8849 10.3165 6.97656 10.5998 6.97656C10.8831 6.97656 11.1165 6.8849 11.2998 6.70156C11.4831 6.51823 11.5748 6.2849 11.5748 6.00156C11.5748 5.71823 11.4831 5.4849 11.2998 5.30156L6.6998 0.701563C6.5998 0.601563 6.49147 0.530562 6.3748 0.488563C6.25814 0.446563 6.13314 0.425896 5.9998 0.426562Z" fill="black"/>
</svg>
