<svg width="24" height="24" viewBox="0 0 24 24" fill="none" xmlns="http://www.w3.org/2000/svg">
<rect x="0.5" y="0.5" width="23" height="23" rx="11.5" fill="white"/>
<path fill-rule="evenodd" clip-rule="evenodd" d="M5 8.30084C6.41236 9.13833 7.77511 9.94653 9.16526 10.7709C10.2705 9.18644 11.3731 7.60571 12.4931 6C13.6096 7.60269 14.7078 9.17897 15.8167 10.7707C17.2038 9.94858 18.5729 9.13715 20 8.29132C19.9307 8.63054 19.874 8.91627 19.8137 9.20129C19.4201 11.0626 19.0217 12.9232 18.6378 14.7864C18.6002 14.9691 18.5206 14.9986 18.3532 14.9984C14.4557 14.9953 10.5583 14.9941 6.66083 15C6.44402 15.0004 6.37697 14.9325 6.33634 14.7366C5.90341 12.6487 5.45848 10.563 5.01756 8.47657C5.00902 8.43634 5.00902 8.39452 5 8.30084Z" fill="#FF7624"/>
<path fill-rule="evenodd" clip-rule="evenodd" d="M19 16C18.9666 16.2909 18.9431 16.561 18.9002 16.8237C18.889 16.8916 18.8217 16.9636 18.7715 16.9845C18.7043 17.0128 18.6285 16.9937 18.5564 16.9937C14.8885 16.9937 11.2204 16.9954 7.55248 16.9917C6.99335 16.9912 7.14857 17.1033 7.02066 16.3101C7.006 16.2188 7.00763 16.1213 7 16.0001C10.9978 16 14.9845 16 19 16Z" fill="#FF7624"/>
<rect x="0.5" y="0.5" width="23" height="23" rx="11.5" stroke="#FF7624"/>
</svg>