<svg width="41" height="24" viewBox="0 0 41 24" fill="none" xmlns="http://www.w3.org/2000/svg">
<path d="M13.2515 13.0627L12.3537 11.2066C12.3537 11.2066 9.0366 3.3818 2.49424 1.9164C2.28496 1.9687 2.25854 3.1466 2.25854 3.1466C2.25854 3.1466 3.25312 3.3823 3.724 3.6698C6.52381 5.4492 10.0413 7.5444 11.428 13.171C12.1106 13.0627 13.2515 13.0627 13.2515 13.0627Z" fill="#454545"/>
<path d="M1.58836 3.4625C2.44091 3.4625 3.13204 2.8064 3.13204 1.9971C3.13204 1.1877 2.44091 0.531601 1.58836 0.531601C0.735807 0.531601 0.0446777 1.1877 0.0446777 1.9971C0.0446777 2.8064 0.735807 3.4625 1.58836 3.4625Z" fill="#FF7624"/>
<path d="M27.5944 12.8992L28.4212 11.0249C28.4212 11.0249 31.7383 3.2001 38.2807 1.7346C38.49 1.7869 38.5164 2.9649 38.5164 2.9649C38.5164 2.9649 37.5218 3.2005 37.0509 3.4881C34.2511 5.2674 30.7336 7.3626 29.3469 12.9892C28.1167 12.4919 27.5944 12.8992 27.5944 12.8992Z" fill="#454545"/>
<path d="M39.4321 3.46239C38.5796 3.46239 37.8885 2.80629 37.8885 1.99689C37.8885 1.18759 38.5796 0.531494 39.4321 0.531494C40.2847 0.531494 40.9758 1.18759 40.9758 1.99689C40.9758 2.80629 40.2847 3.46239 39.4321 3.46239Z" fill="#FF7624"/>
<path d="M2.99345 18.3685C2.50719 18.2206 2.526 17.6077 3.02619 17.5078C7.7082 16.5729 21.7387 14.3861 38.2383 17.6466C38.7514 17.748 38.7804 18.4062 38.2799 18.5522L25.6796 22.3998C25.732 22.3998 25.3679 22.4218 25.6796 22.3998H15.8396C15.7852 22.3998 15.4114 22.1755 15.3596 22.1598L2.99345 18.3685Z" fill="#454545"/>
<path d="M11.9475 11.8402C11.9475 11.8402 20.2183 8.5397 28.5724 11.8402H11.9475Z" fill="#454545"/>
<path d="M20.721 21.2123C17.8347 21.1737 15.4887 21.5993 15.4812 22.1629C15.4737 22.7264 17.8074 23.2145 20.6938 23.2531C23.5801 23.2916 25.926 22.866 25.9336 22.3025C25.9411 21.7389 23.6073 21.2508 20.721 21.2123Z" fill="#FF7624"/>
<path d="M2.91058 17.613C2.8902 17.6278 2.86011 17.6097 2.86011 17.5846C2.86011 17.5766 2.86006 17.572 2.86626 17.567C3.06438 17.4074 7.6779 13.9156 11.8113 12.6801C11.9773 12.6304 12.118 12.8028 12.0405 12.9579C12.0145 13.01 11.9677 13.0481 11.9114 13.063C7.9161 14.1275 3.43514 17.2334 2.91058 17.613Z" fill="#454545"/>
<path d="M38.3994 17.8394C38.3371 17.781 33.0715 13.6818 28.1757 12.2199C27.9815 12.1619 27.817 12.3634 27.9077 12.5447C27.9381 12.6056 27.993 12.6501 28.0588 12.6676C32.9961 13.9814 38.3354 17.78 38.3994 17.8394Z" fill="#454545"/>
<path fill-rule="evenodd" clip-rule="evenodd" d="M20.2858 8.5394C16.192 8.5394 13.2751 10.4278 12.5782 11.8917C12.518 12.0181 12.5692 12.1324 12.6897 12.2192C12.8136 12.3084 13.0139 12.3693 13.243 12.3693H27.4431C27.6722 12.3693 27.8722 12.3083 27.9952 12.2194C28.1148 12.133 28.1649 12.0194 28.1032 11.8936C27.385 10.4301 24.3824 8.5394 20.2858 8.5394ZM12.1552 11.808C12.9056 10.2317 15.9858 8.254 20.2858 8.254C24.5842 8.254 27.7513 10.231 28.525 11.8075C28.6375 12.0366 28.5406 12.2538 28.3253 12.4094C28.1136 12.5624 27.791 12.6547 27.4431 12.6547H13.243C12.895 12.6547 12.5725 12.5625 12.3602 12.4096C12.1444 12.2542 12.046 12.0374 12.1552 11.808Z" fill="#454545"/>
<path d="M11.4362 12.9517C11.2788 13.3393 25.6109 13.5116 29.2877 12.9331C29.6241 11.9611 29.0117 11.7888 28.8903 11.712C21.2384 10.9274 14.9226 11.0997 11.8336 11.7309C11.5935 11.712 11.0359 12.1334 11.4362 12.9517Z" fill="#454545"/>
<path d="M11.4362 12.9517C11.2788 13.3393 25.6109 13.5116 29.2877 12.9331C29.6241 11.9611 29.0117 11.7888 28.8903 11.712C21.2384 10.9274 14.9226 11.0997 11.8336 11.7309C11.5935 11.712 11.0359 12.1334 11.4362 12.9517Z" fill="#454545"/>
</svg>
