<svg width="164" height="48" viewBox="0 0 164 48" fill="none" xmlns="http://www.w3.org/2000/svg">
<path d="M19.2515 23.0627L18.3537 21.2066C18.3537 21.2066 15.0366 13.3818 8.49423 11.9164C8.28495 11.9687 8.25854 13.1466 8.25854 13.1466C8.25854 13.1466 9.25311 13.3823 9.72399 13.6698C12.5238 15.4492 16.0413 17.5444 17.428 23.171C18.1106 23.0627 19.2515 23.0627 19.2515 23.0627Z" fill="#454545"/>
<path d="M7.58836 13.4625C8.44091 13.4625 9.13204 12.8064 9.13204 11.9971C9.13204 11.1877 8.44091 10.5316 7.58836 10.5316C6.73581 10.5316 6.04468 11.1877 6.04468 11.9971C6.04468 12.8064 6.73581 13.4625 7.58836 13.4625Z" fill="#FF7624"/>
<path d="M33.5944 22.8992L34.4212 21.0249C34.4212 21.0249 37.7383 13.2001 44.2807 11.7346C44.49 11.7869 44.5164 12.9649 44.5164 12.9649C44.5164 12.9649 43.5218 13.2005 43.0509 13.4881C40.2511 15.2674 36.7336 17.3626 35.3469 22.9892C34.1167 22.4919 33.5944 22.8992 33.5944 22.8992Z" fill="#454545"/>
<path d="M45.4321 13.4624C44.5796 13.4624 43.8885 12.8063 43.8885 11.9969C43.8885 11.1876 44.5796 10.5315 45.4321 10.5315C46.2847 10.5315 46.9758 11.1876 46.9758 11.9969C46.9758 12.8063 46.2847 13.4624 45.4321 13.4624Z" fill="#FF7624"/>
<path d="M8.99345 28.3685C8.50719 28.2206 8.526 27.6077 9.02619 27.5078C13.7082 26.5729 27.7387 24.3861 44.2383 27.6466C44.7514 27.748 44.7804 28.4062 44.2799 28.5522L31.6796 32.3998C31.3679 32.4218 31.732 32.3998 31.6796 32.3998H21.8396C21.7852 32.3998 21.4114 32.1755 21.3596 32.1598L8.99345 28.3685Z" fill="#454545"/>
<path d="M17.9475 21.8402C17.9475 21.8402 26.2183 18.5397 34.5724 21.8402H17.9475Z" fill="#454545"/>
<path d="M26.721 31.2123C23.8347 31.1737 21.4887 31.5993 21.4812 32.1629C21.4737 32.7264 23.8074 33.2145 26.6938 33.2531C29.5801 33.2916 31.926 32.866 31.9336 32.3025C31.9411 31.7389 29.6073 31.2508 26.721 31.2123Z" fill="#FF7624"/>
<path d="M8.91058 27.613C8.8902 27.6278 8.86011 27.6097 8.86011 27.5846C8.86011 27.5766 8.86006 27.572 8.86626 27.567C9.06438 27.4074 13.6779 23.9156 17.8113 22.6801C17.9773 22.6304 18.118 22.8028 18.0405 22.9579C18.0145 23.01 17.9677 23.0481 17.9114 23.063C13.9161 24.1275 9.43514 27.2334 8.91058 27.613Z" fill="#454545"/>
<path d="M44.3994 27.8394C44.3371 27.781 39.0715 23.6818 34.1757 22.2199C33.9815 22.1619 33.817 22.3634 33.9077 22.5447C33.9381 22.6056 33.993 22.6501 34.0588 22.6676C38.9961 23.9814 44.3354 27.78 44.3994 27.8394Z" fill="#454545"/>
<path fill-rule="evenodd" clip-rule="evenodd" d="M26.2858 18.5394C22.192 18.5394 19.2751 20.4278 18.5782 21.8917C18.518 22.0181 18.5692 22.1324 18.6897 22.2192C18.8136 22.3084 19.0139 22.3693 19.243 22.3693H33.4431C33.6722 22.3693 33.8722 22.3083 33.9952 22.2194C34.1148 22.133 34.1649 22.0194 34.1032 21.8936C33.385 20.4301 30.3824 18.5394 26.2858 18.5394ZM18.1552 21.808C18.9056 20.2317 21.9858 18.254 26.2858 18.254C30.5842 18.254 33.7513 20.231 34.525 21.8075C34.6375 22.0366 34.5406 22.2538 34.3253 22.4094C34.1136 22.5624 33.791 22.6547 33.4431 22.6547H19.243C18.895 22.6547 18.5725 22.5625 18.3602 22.4096C18.1444 22.2542 18.046 22.0374 18.1552 21.808Z" fill="#454545"/>
<path d="M17.4362 22.9517C17.2788 23.3393 31.6109 23.5116 35.2877 22.9331C35.6241 21.9611 35.0117 21.7888 34.8903 21.712C27.2384 20.9274 20.9226 21.0997 17.8336 21.7309C17.5935 21.712 17.0359 22.1334 17.4362 22.9517Z" fill="#454545"/>
<path d="M17.4362 22.9517C17.2788 23.3393 31.6109 23.5116 35.2877 22.9331C35.6241 21.9611 35.0117 21.7888 34.8903 21.712C27.2384 20.9274 20.9226 21.0997 17.8336 21.7309C17.5935 21.712 17.0359 22.1334 17.4362 22.9517Z" fill="#454545"/>
<path d="M49.233 27.8214C49.076 27.9784 48.8668 28.0566 48.6316 28.0566C48.3964 28.0566 48.1871 27.9784 48.0301 27.8214C47.8732 27.6645 47.7944 27.4547 47.7944 27.219V21.3577C47.7944 21.1221 47.8732 20.9128 48.0301 20.7558C48.1871 20.5989 48.3964 20.5206 48.6316 20.5206C48.8668 20.5206 49.076 20.5994 49.233 20.7558C49.39 20.9128 49.4687 21.1221 49.4687 21.3577V27.2454C49.4687 27.4806 49.39 27.6645 49.233 27.8214Z" fill="#FF7624"/>
<path d="M61.7417 26.4083C62.1338 26.4083 62.4482 26.3296 62.7358 26.1985C62.971 26.0416 63.1807 25.8846 63.3377 25.6753C63.4946 25.466 63.5734 25.2308 63.6257 24.9952C63.6775 24.76 63.7039 24.5243 63.7039 24.3145C63.7039 24.1052 63.6521 23.87 63.6257 23.6343C63.5734 23.3987 63.4687 23.1635 63.3377 22.9542C63.1807 22.7444 62.971 22.5615 62.7358 22.431C62.5001 22.274 62.1338 22.2217 61.7417 22.2217H52.0073C51.7716 22.2217 51.5628 22.143 51.4058 21.986C51.2489 21.8291 51.1702 21.6198 51.1702 21.3841C51.1702 21.1484 51.2489 20.9391 51.4058 20.7822C51.5628 20.6252 51.7721 20.5465 52.0073 20.5465H62.082C62.6052 20.5465 63.0238 20.6775 63.4164 20.9127C63.809 21.1484 64.123 21.4359 64.4105 21.8286C64.698 22.1948 64.8814 22.5875 65.0388 23.0583C65.1958 23.5033 65.2481 23.9219 65.2481 24.3927C65.2481 24.8382 65.1694 25.2563 65.0388 25.7017C64.8818 26.1462 64.6726 26.5388 64.4374 26.8791C64.1489 27.2454 63.835 27.5593 63.4951 27.795C63.1548 28.0307 62.7103 28.1612 62.239 28.1876H52.0073C51.7716 28.1876 51.5628 28.1089 51.4058 27.952C51.2489 27.795 51.1702 27.5857 51.1702 27.3505V24.4715C51.1702 24.2358 51.2489 24.027 51.4058 23.87C51.5628 23.7131 51.7721 23.6343 52.0073 23.6343C52.2425 23.6343 52.4518 23.7131 52.6087 23.87C52.7657 24.027 52.8444 24.2363 52.8444 24.4715V26.5911H61.7417V26.4083Z" fill="#FF7624"/>
<path d="M84.1151 27.7426C83.9581 27.9519 83.7225 28.0565 83.4868 28.0565C83.2511 28.0565 83.0423 27.9783 82.8853 27.8213C82.7284 27.6644 82.6497 27.4546 82.6497 27.2189C82.6497 27.0097 82.702 26.8263 82.8066 26.6957L87.046 21.0956C87.2553 20.8081 87.5169 20.6247 87.8308 20.4677C88.1447 20.3108 88.5109 20.2321 88.8513 20.2321C89.1911 20.2321 89.5314 20.3108 89.8453 20.4677C90.1593 20.6247 90.3949 20.834 90.6042 21.0956L94.7913 26.7221C94.87 26.8009 94.9218 26.8791 94.9482 27.0101C95.0001 27.0889 95.0269 27.2194 95.0269 27.3241C95.0269 27.5597 94.9482 27.769 94.7913 27.9255C94.6343 28.0825 94.425 28.1612 94.1898 28.1612C93.9013 28.1612 93.6661 28.0306 93.5092 27.8473L89.4796 22.4828C89.4009 22.4041 89.2698 22.2735 89.1657 22.1689C89.0346 22.0378 88.93 22.0119 88.7989 22.0119C88.6684 22.0119 88.5637 22.0642 88.4327 22.1689C88.3021 22.2994 88.2234 22.3781 88.1452 22.4828L84.1151 27.7426Z" fill="#FF7624"/>
<path d="M107.929 20.5466C108.243 20.5466 108.557 20.6253 108.845 20.7558C109.132 20.8869 109.368 21.0438 109.604 21.279C109.813 21.4883 109.996 21.724 110.127 21.9856C110.258 22.2472 110.337 22.5875 110.337 22.9014C110.337 23.2154 110.258 23.5293 110.127 23.8177C109.996 24.1053 109.839 24.341 109.604 24.5243C109.394 24.7336 109.133 24.8906 108.845 25.0475C108.557 25.1781 108.243 25.2568 107.929 25.2568H98.4037V27.3765C98.4037 27.6122 98.325 27.8219 98.168 27.9789C98.0111 28.1358 97.8018 28.2141 97.5666 28.2141C97.3314 28.2141 97.1212 28.1354 96.9642 27.9789C96.8072 27.8219 96.7285 27.6122 96.7285 27.3765V21.3577C96.7285 21.1221 96.8072 20.9128 96.9642 20.7558C97.1212 20.5989 97.3309 20.5206 97.5666 20.5206C97.5661 20.5465 107.929 20.5466 107.929 20.5466ZM98.3768 22.1949V23.451H107.954C108.111 23.451 108.268 23.3723 108.425 23.2418C108.556 23.1112 108.635 22.9537 108.635 22.7709C108.635 22.6139 108.556 22.457 108.425 22.3259C108.295 22.1954 108.138 22.1166 107.954 22.1166H98.3768V22.1949Z" fill="#454545"/>
<path d="M126.037 24.2887C126.037 24.7332 125.958 25.1522 125.827 25.6231C125.67 26.0676 125.46 26.4602 125.199 26.8528C124.911 27.2191 124.571 27.533 124.204 27.7687C123.812 28.0039 123.367 28.1354 122.87 28.1354H114.994C114.523 28.0826 114.078 27.9784 113.738 27.7432C113.371 27.5076 113.057 27.1936 112.796 26.8269C112.507 26.4607 112.325 26.068 112.193 25.6495C112.036 25.205 111.984 24.7859 111.984 24.341C111.984 23.896 112.063 23.4775 112.193 23.0066C112.35 22.5616 112.56 22.1695 112.821 21.7768C113.11 21.4101 113.424 21.0962 113.817 20.861C114.209 20.6253 114.654 20.4948 115.151 20.4948H123.027C123.498 20.5471 123.943 20.6517 124.283 20.8874C124.65 21.1226 124.964 21.437 125.225 21.8032C125.514 22.17 125.696 22.5621 125.827 22.9807C125.985 23.4251 126.037 23.8432 126.037 24.2887ZM123.472 26.1727C123.708 26.0157 123.917 25.8588 124.074 25.649C124.231 25.4397 124.309 25.2045 124.362 24.9688C124.414 24.7332 124.44 24.498 124.44 24.2887C124.44 24.0789 124.389 23.8432 124.362 23.608C124.336 23.3728 124.205 23.1371 124.074 22.9279C123.917 22.7186 123.708 22.5352 123.472 22.4047C123.237 22.2477 122.87 22.1954 122.478 22.1954H115.517C115.125 22.1954 114.758 22.2741 114.523 22.4047C114.287 22.5616 114.078 22.7186 113.921 22.9279C113.764 23.1371 113.685 23.3728 113.633 23.608C113.581 23.8437 113.554 24.0789 113.554 24.2887C113.554 24.498 113.607 24.7332 113.633 24.9688C113.685 25.2045 113.79 25.4397 113.921 25.649C114.078 25.8588 114.287 26.0416 114.523 26.1727C114.759 26.3296 115.125 26.382 115.517 26.382H122.478C122.897 26.4084 123.211 26.3296 123.472 26.1727Z" fill="#454545"/>
<path d="M129.412 23.4508H133.389C133.991 23.4508 134.567 23.3721 135.169 23.2151C135.771 23.0582 136.32 22.8489 136.869 22.5873C137.419 22.3516 137.943 22.0377 138.44 21.7238C138.963 21.4099 139.434 21.0436 139.905 20.7297C140.115 20.5727 140.298 20.494 140.507 20.494C140.743 20.494 140.952 20.5727 141.109 20.7297C141.266 20.8867 141.344 21.0959 141.344 21.3311C141.344 21.4881 141.292 21.6451 141.187 21.7761C141.109 21.9067 140.978 22.0118 140.873 22.09C140.56 22.3252 140.272 22.5345 140.01 22.7179C139.722 22.9271 139.46 23.1105 139.173 23.2675C138.885 23.4244 138.623 23.6337 138.309 23.7907C138.021 23.9476 137.707 24.1046 137.367 24.2615C137.681 24.4185 137.995 24.5755 138.309 24.7324C138.597 24.8894 138.91 25.0463 139.173 25.2556C139.461 25.4126 139.723 25.6223 140.01 25.8052C140.298 26.015 140.56 26.2507 140.873 26.4331C141.004 26.5118 141.109 26.6428 141.187 26.747C141.266 26.878 141.344 27.0355 141.344 27.1924C141.344 27.4281 141.266 27.6369 141.109 27.7939C140.952 27.9508 140.743 28.0295 140.507 28.0295C140.298 28.0295 140.115 27.9508 139.905 27.7939C139.435 27.4276 138.963 27.1137 138.44 26.7998C137.916 26.4859 137.419 26.1979 136.869 25.9363C136.32 25.7006 135.771 25.4654 135.169 25.3339C134.567 25.1769 133.991 25.0982 133.389 25.0982H129.412V27.2179C129.412 27.4535 129.333 27.6633 129.176 27.8203C129.02 27.9772 128.81 28.0555 128.626 28.0555C128.391 28.0555 128.182 27.9772 128.025 27.8203C127.868 27.6633 127.789 27.4535 127.789 27.2179V21.3575C127.789 21.1219 127.868 20.9126 128.025 20.7556C128.182 20.5987 128.391 20.5204 128.575 20.5204C128.81 20.5204 129.02 20.5991 129.176 20.7556C129.333 20.9126 129.412 21.1219 129.412 21.3575V23.4508Z" fill="#454545"/>
<path d="M88.9823 26.7483C89.5027 26.7483 89.9245 26.3264 89.9245 25.806C89.9245 25.2856 89.5027 24.8638 88.9823 24.8638C88.4619 24.8638 88.04 25.2856 88.04 25.806C88.04 26.3264 88.4619 26.7483 88.9823 26.7483Z" fill="#FF7624"/>
<path d="M66.7141 24.2887C66.7141 23.8433 66.7928 23.4252 66.9234 22.9538C67.0803 22.5089 67.2896 22.1162 67.5517 21.7236C67.8392 21.3574 68.1531 21.0434 68.5458 20.8078C68.9384 20.5721 69.3834 20.4415 69.8802 20.4415H79.9813C80.2165 20.4415 80.4258 20.5202 80.5827 20.6772C80.7397 20.8342 80.8184 21.0434 80.8184 21.2786C80.8184 21.5138 80.7397 21.7236 80.5827 21.8806C80.4258 22.0375 80.2165 22.1162 79.9813 22.1162H70.2469C69.8543 22.1162 69.4875 22.195 69.2519 22.3255C69.0167 22.4825 68.8074 22.6394 68.6504 22.8487C68.4935 23.058 68.4148 23.2937 68.3629 23.5289C68.3101 23.7646 68.2842 23.9998 68.2842 24.2095C68.2842 24.4188 68.3365 24.654 68.3629 24.8897C68.4148 25.1254 68.5199 25.3606 68.6504 25.5698C68.8074 25.7796 69.0167 25.9625 69.2519 26.0935C69.4875 26.2505 69.8543 26.3028 70.2469 26.3028H79.9813C80.2165 26.3028 80.4258 26.3815 80.5827 26.5385C80.7397 26.6954 80.8184 26.9047 80.8184 27.1399C80.8184 27.3751 80.7397 27.5854 80.5827 27.7423C80.4258 27.8993 80.2165 27.978 79.9813 27.978H69.7496C69.2787 27.978 68.8338 27.847 68.4935 27.6113C68.1272 27.3756 67.8133 27.0881 67.5517 26.6954C67.2642 26.3292 67.0808 25.9102 66.9503 25.4657C66.7928 25.1522 66.7141 24.7073 66.7141 24.2887Z" fill="#FF7624"/>
<path d="M69.4355 24.2885C69.4355 24.0528 69.5143 23.8431 69.6448 23.6861C69.7759 23.5292 69.9333 23.4509 70.1157 23.4509H79.9288C80.1386 23.4509 80.2955 23.5292 80.3997 23.6861C80.5307 23.8431 80.6095 24.0528 80.6095 24.2885C80.6095 24.5242 80.5307 24.733 80.3997 24.89C80.2691 25.0469 80.1117 25.1256 79.9288 25.1256H70.1157C69.9064 25.1256 69.7495 25.0469 69.6448 24.89C69.5138 24.6812 69.4355 24.4714 69.4355 24.2885Z" fill="#FF7624"/>
<path d="M142.313 24.1315C142.313 23.6861 142.392 23.268 142.522 22.7966C142.679 22.3517 142.889 21.959 143.151 21.5664C143.439 21.2001 143.753 20.8862 144.145 20.6505C144.538 20.4149 144.982 20.2843 145.48 20.2843H155.554C155.789 20.2843 155.999 20.363 156.156 20.52C156.313 20.6769 156.391 20.8862 156.391 21.1214C156.391 21.3571 156.313 21.5664 156.156 21.7233C155.999 21.8803 155.789 21.959 155.554 21.959H145.819C145.427 21.959 145.061 22.0377 144.825 22.1688C144.59 22.3257 144.381 22.4827 144.224 22.692C144.067 22.9013 143.988 23.1369 143.935 23.3721C143.884 23.6073 143.857 23.843 143.857 24.0528C143.857 24.2621 143.909 24.4973 143.935 24.7329C143.988 24.9686 144.092 25.2038 144.224 25.4131C144.381 25.6229 144.59 25.8057 144.825 25.9368C145.061 26.0937 145.427 26.1461 145.819 26.1461H155.554C155.789 26.1461 155.999 26.2248 156.156 26.3817C156.313 26.5387 156.391 26.748 156.391 26.9832C156.391 27.2184 156.313 27.4286 156.156 27.5856C155.999 27.7425 155.789 27.8213 155.554 27.8213H145.323C144.852 27.8213 144.407 27.6902 144.067 27.4545C143.7 27.2189 143.386 26.9313 143.125 26.5387C142.836 26.1725 142.654 25.7534 142.522 25.3089C142.392 24.995 142.313 24.5496 142.313 24.1315Z" fill="#454545"/>
<path d="M145.035 24.0785C145.035 23.8428 145.113 23.634 145.244 23.477C145.375 23.3201 145.532 23.2413 145.715 23.2413H155.528C155.737 23.2413 155.894 23.3201 155.999 23.477C156.103 23.634 156.208 23.8433 156.208 24.0785C156.208 24.3137 156.13 24.5239 155.999 24.6809C155.868 24.8378 155.71 24.9161 155.528 24.9161H145.715C145.505 24.9161 145.348 24.8378 145.244 24.6809C145.113 24.5239 145.035 24.3141 145.035 24.0785Z" fill="#454545"/>
<path d="M53.0095 32.865L51.846 36.8798H51.2585L50.3254 33.6484L49.3577 36.8798L48.7759 36.8855L47.6527 32.865H48.2115L49.087 36.2692L50.0547 32.865H50.6422L51.5638 36.2577L52.4451 32.865H53.0095ZM55.3707 33.6657C55.6088 33.6657 55.8238 33.7175 56.0158 33.8212C56.2078 33.921 56.3576 34.0727 56.4651 34.2762C56.5764 34.4798 56.6321 34.7274 56.6321 35.0193V36.8798H56.1137V35.0942C56.1137 34.7793 56.035 34.5393 55.8776 34.3742C55.7201 34.2052 55.5051 34.1207 55.2324 34.1207C54.956 34.1207 54.7352 34.2071 54.57 34.3799C54.4088 34.5527 54.3281 34.8042 54.3281 35.1345V36.8798H53.804V32.6174H54.3281V34.1726C54.4318 34.0113 54.5739 33.8865 54.7544 33.7982C54.9387 33.7098 55.1441 33.6657 55.3707 33.6657ZM60.5891 35.1806C60.5891 35.2804 60.5834 35.386 60.5719 35.4974H58.049C58.0682 35.8084 58.1738 36.0522 58.3658 36.2289C58.5616 36.4017 58.7978 36.4881 59.0743 36.4881C59.3008 36.4881 59.489 36.4362 59.6387 36.3326C59.7923 36.225 59.8999 36.083 59.9613 35.9063H60.5258C60.4413 36.2097 60.2723 36.4574 60.0189 36.6494C59.7655 36.8375 59.4506 36.9316 59.0743 36.9316C58.7747 36.9316 58.5059 36.8644 58.2679 36.73C58.0336 36.5956 57.8493 36.4055 57.7149 36.1598C57.5805 35.9102 57.5133 35.6222 57.5133 35.2958C57.5133 34.9694 57.5786 34.6833 57.7091 34.4375C57.8397 34.1918 58.0221 34.0036 58.2563 33.873C58.4944 33.7386 58.7671 33.6714 59.0743 33.6714C59.3738 33.6714 59.6387 33.7367 59.8691 33.8673C60.0995 33.9978 60.2762 34.1783 60.3991 34.4087C60.5258 34.6353 60.5891 34.8926 60.5891 35.1806ZM60.0477 35.0711C60.0477 34.8714 60.0035 34.7006 59.9152 34.5585C59.8269 34.4126 59.7059 34.3031 59.5523 34.2302C59.4026 34.1534 59.2355 34.115 59.0512 34.115C58.7863 34.115 58.5597 34.1994 58.3715 34.3684C58.1872 34.5374 58.0816 34.7716 58.0547 35.0711H60.0477ZM62.026 34.2359C62.1181 34.0554 62.2487 33.9153 62.4176 33.8154C62.5904 33.7156 62.7997 33.6657 63.0455 33.6657V34.2071H62.9072C62.3197 34.2071 62.026 34.5258 62.026 35.1633V36.8798H61.5018V33.7233H62.026V34.2359ZM66.7514 35.1806C66.7514 35.2804 66.7456 35.386 66.7341 35.4974H64.2112C64.2304 35.8084 64.336 36.0522 64.528 36.2289C64.7238 36.4017 64.96 36.4881 65.2365 36.4881C65.463 36.4881 65.6512 36.4362 65.801 36.3326C65.9546 36.225 66.0621 36.083 66.1235 35.9063H66.688C66.6035 36.2097 66.4346 36.4574 66.1811 36.6494C65.9277 36.8375 65.6128 36.9316 65.2365 36.9316C64.937 36.9316 64.6682 36.8644 64.4301 36.73C64.1958 36.5956 64.0115 36.4055 63.8771 36.1598C63.7427 35.9102 63.6755 35.6222 63.6755 35.2958C63.6755 34.9694 63.7408 34.6833 63.8714 34.4375C64.0019 34.1918 64.1843 34.0036 64.4186 33.873C64.6566 33.7386 64.9293 33.6714 65.2365 33.6714C65.536 33.6714 65.801 33.7367 66.0314 33.8673C66.2618 33.9978 66.4384 34.1783 66.5613 34.4087C66.688 34.6353 66.7514 34.8926 66.7514 35.1806ZM66.2099 35.0711C66.2099 34.8714 66.1658 34.7006 66.0774 34.5585C65.9891 34.4126 65.8682 34.3031 65.7146 34.2302C65.5648 34.1534 65.3978 34.115 65.2134 34.115C64.9485 34.115 64.7219 34.1994 64.5338 34.3684C64.3494 34.5374 64.2438 34.7716 64.217 35.0711H66.2099ZM70.0598 34.1553V36.0158C70.0598 36.1694 70.0925 36.2788 70.1577 36.3441C70.223 36.4055 70.3363 36.4362 70.4976 36.4362H70.8835V36.8798H70.4112C70.1193 36.8798 69.9005 36.8126 69.7545 36.6782C69.6086 36.5438 69.5357 36.323 69.5357 36.0158V34.1553H69.1267V33.7233H69.5357V32.9284H70.0598V33.7233H70.8835V34.1553H70.0598ZM73.3061 33.6657C73.5442 33.6657 73.7592 33.7175 73.9512 33.8212C74.1432 33.921 74.293 34.0727 74.4005 34.2762C74.5119 34.4798 74.5675 34.7274 74.5675 35.0193V36.8798H74.0491V35.0942C74.0491 34.7793 73.9704 34.5393 73.813 34.3742C73.6555 34.2052 73.4405 34.1207 73.1679 34.1207C72.8914 34.1207 72.6706 34.2071 72.5055 34.3799C72.3442 34.5527 72.2635 34.8042 72.2635 35.1345V36.8798H71.7394V32.6174H72.2635V34.1726C72.3672 34.0113 72.5093 33.8865 72.6898 33.7982C72.8741 33.7098 73.0795 33.6657 73.3061 33.6657ZM78.5246 35.1806C78.5246 35.2804 78.5188 35.386 78.5073 35.4974H75.9844C76.0036 35.8084 76.1092 36.0522 76.3012 36.2289C76.497 36.4017 76.7332 36.4881 77.0097 36.4881C77.2362 36.4881 77.4244 36.4362 77.5742 36.3326C77.7278 36.225 77.8353 36.083 77.8967 35.9063H78.4612C78.3767 36.2097 78.2078 36.4574 77.9543 36.6494C77.7009 36.8375 77.386 36.9316 77.0097 36.9316C76.7102 36.9316 76.4414 36.8644 76.2033 36.73C75.969 36.5956 75.7847 36.4055 75.6503 36.1598C75.5159 35.9102 75.4487 35.6222 75.4487 35.2958C75.4487 34.9694 75.514 34.6833 75.6446 34.4375C75.7751 34.1918 75.9575 34.0036 76.1918 33.873C76.4298 33.7386 76.7025 33.6714 77.0097 33.6714C77.3092 33.6714 77.5742 33.7367 77.8046 33.8673C78.035 33.9978 78.2116 34.1783 78.3345 34.4087C78.4612 34.6353 78.5246 34.8926 78.5246 35.1806ZM77.9831 35.0711C77.9831 34.8714 77.939 34.7006 77.8506 34.5585C77.7623 34.4126 77.6414 34.3031 77.4878 34.2302C77.338 34.1534 77.171 34.115 76.9866 34.115C76.7217 34.115 76.4951 34.1994 76.307 34.3684C76.1226 34.5374 76.017 34.7716 75.9902 35.0711H77.9831ZM85.3985 33.7233L84.4135 36.8798H83.8721L83.1117 34.3742L82.3514 36.8798H81.81L80.8193 33.7233H81.3549L82.0807 36.3729L82.8641 33.7233H83.3997L84.1658 36.3786L84.8801 33.7233H85.3985ZM87.5161 36.9316C87.2204 36.9316 86.9516 36.8644 86.7097 36.73C86.4716 36.5956 86.2835 36.4055 86.1452 36.1598C86.0108 35.9102 85.9436 35.6222 85.9436 35.2958C85.9436 34.9732 86.0127 34.689 86.151 34.4433C86.2931 34.1937 86.4851 34.0036 86.727 33.873C86.9689 33.7386 87.2396 33.6714 87.5391 33.6714C87.8387 33.6714 88.1094 33.7386 88.3513 33.873C88.5932 34.0036 88.7833 34.1918 88.9215 34.4375C89.0636 34.6833 89.1347 34.9694 89.1347 35.2958C89.1347 35.6222 89.0617 35.9102 88.9158 36.1598C88.7737 36.4055 88.5798 36.5956 88.334 36.73C88.0883 36.8644 87.8156 36.9316 87.5161 36.9316ZM87.5161 36.4708C87.7043 36.4708 87.8809 36.4266 88.046 36.3383C88.2111 36.25 88.3436 36.1175 88.4435 35.9409C88.5471 35.7642 88.599 35.5492 88.599 35.2958C88.599 35.0423 88.5491 34.8273 88.4492 34.6506C88.3494 34.474 88.2188 34.3434 88.0575 34.259C87.8963 34.1706 87.7215 34.1265 87.5334 34.1265C87.3414 34.1265 87.1647 34.1706 87.0035 34.259C86.846 34.3434 86.7193 34.474 86.6233 34.6506C86.5273 34.8273 86.4793 35.0423 86.4793 35.2958C86.4793 35.553 86.5254 35.77 86.6175 35.9466C86.7135 36.1233 86.8403 36.2558 86.9977 36.3441C87.1551 36.4286 87.3279 36.4708 87.5161 36.4708ZM90.5688 34.2359C90.661 34.0554 90.7915 33.9153 90.9605 33.8154C91.1333 33.7156 91.3426 33.6657 91.5883 33.6657V34.2071H91.4501C90.8626 34.2071 90.5688 34.5258 90.5688 35.1633V36.8798H90.0446V33.7233H90.5688V34.2359ZM92.9383 32.6174V36.8798H92.4142V32.6174H92.9383ZM93.8566 35.29C93.8566 34.9674 93.9219 34.6852 94.0525 34.4433C94.183 34.1975 94.3616 34.0074 94.5882 33.873C94.8186 33.7386 95.0758 33.6714 95.36 33.6714C95.6058 33.6714 95.8342 33.729 96.0454 33.8442C96.2566 33.9556 96.4179 34.1034 96.5293 34.2878V32.6174H97.0592V36.8798H96.5293V36.2865C96.4256 36.4746 96.272 36.6302 96.0685 36.753C95.865 36.8721 95.6269 36.9316 95.3542 36.9316C95.0739 36.9316 94.8186 36.8625 94.5882 36.7242C94.3616 36.586 94.183 36.3921 94.0525 36.1425C93.9219 35.8929 93.8566 35.6087 93.8566 35.29ZM96.5293 35.2958C96.5293 35.0577 96.4813 34.8503 96.3853 34.6737C96.2893 34.497 96.1587 34.3626 95.9936 34.2705C95.8323 34.1745 95.6538 34.1265 95.4579 34.1265C95.2621 34.1265 95.0835 34.1726 94.9222 34.2647C94.761 34.3569 94.6323 34.4913 94.5363 34.6679C94.4403 34.8446 94.3923 35.0519 94.3923 35.29C94.3923 35.5319 94.4403 35.7431 94.5363 35.9236C94.6323 36.1002 94.761 36.2366 94.9222 36.3326C95.0835 36.4247 95.2621 36.4708 95.4579 36.4708C95.6538 36.4708 95.8323 36.4247 95.9936 36.3326C96.1587 36.2366 96.2893 36.1002 96.3853 35.9236C96.4813 35.7431 96.5293 35.5338 96.5293 35.2958ZM99.7264 35.2958C99.7264 34.9694 99.7917 34.6852 99.9222 34.4433C100.053 34.1975 100.233 34.0074 100.464 33.873C100.698 33.7386 100.965 33.6714 101.264 33.6714C101.652 33.6714 101.971 33.7655 102.22 33.9537C102.474 34.1418 102.641 34.403 102.722 34.737H102.157C102.103 34.545 101.998 34.3934 101.84 34.282C101.687 34.1706 101.495 34.115 101.264 34.115C100.965 34.115 100.723 34.2186 100.539 34.426C100.354 34.6295 100.262 34.9194 100.262 35.2958C100.262 35.6759 100.354 35.9697 100.539 36.177C100.723 36.3844 100.965 36.4881 101.264 36.4881C101.495 36.4881 101.687 36.4343 101.84 36.3268C101.994 36.2193 102.099 36.0657 102.157 35.866H102.722C102.637 36.1886 102.468 36.4478 102.215 36.6436C101.961 36.8356 101.644 36.9316 101.264 36.9316C100.965 36.9316 100.698 36.8644 100.464 36.73C100.233 36.5956 100.053 36.4055 99.9222 36.1598C99.7917 35.914 99.7264 35.626 99.7264 35.2958ZM105.018 36.9316C104.723 36.9316 104.454 36.8644 104.212 36.73C103.974 36.5956 103.786 36.4055 103.648 36.1598C103.513 35.9102 103.446 35.6222 103.446 35.2958C103.446 34.9732 103.515 34.689 103.653 34.4433C103.795 34.1937 103.987 34.0036 104.229 33.873C104.471 33.7386 104.742 33.6714 105.041 33.6714C105.341 33.6714 105.612 33.7386 105.854 33.873C106.096 34.0036 106.286 34.1918 106.424 34.4375C106.566 34.6833 106.637 34.9694 106.637 35.2958C106.637 35.6222 106.564 35.9102 106.418 36.1598C106.276 36.4055 106.082 36.5956 105.836 36.73C105.591 36.8644 105.318 36.9316 105.018 36.9316ZM105.018 36.4708C105.207 36.4708 105.383 36.4266 105.548 36.3383C105.713 36.25 105.846 36.1175 105.946 35.9409C106.049 35.7642 106.101 35.5492 106.101 35.2958C106.101 35.0423 106.051 34.8273 105.952 34.6506C105.852 34.474 105.721 34.3434 105.56 34.259C105.399 34.1706 105.224 34.1265 105.036 34.1265C104.844 34.1265 104.667 34.1706 104.506 34.259C104.348 34.3434 104.222 34.474 104.126 34.6506C104.03 34.8273 103.982 35.0423 103.982 35.2958C103.982 35.553 104.028 35.77 104.12 35.9466C104.216 36.1233 104.343 36.2558 104.5 36.3441C104.657 36.4286 104.83 36.4708 105.018 36.4708ZM111.343 33.6657C111.589 33.6657 111.807 33.7175 111.999 33.8212C112.191 33.921 112.343 34.0727 112.454 34.2762C112.566 34.4798 112.621 34.7274 112.621 35.0193V36.8798H112.103V35.0942C112.103 34.7793 112.024 34.5393 111.867 34.3742C111.713 34.2052 111.504 34.1207 111.239 34.1207C110.966 34.1207 110.749 34.209 110.588 34.3857C110.427 34.5585 110.346 34.81 110.346 35.1402V36.8798H109.828V35.0942C109.828 34.7793 109.749 34.5393 109.592 34.3742C109.438 34.2052 109.229 34.1207 108.964 34.1207C108.691 34.1207 108.474 34.209 108.313 34.3857C108.152 34.5585 108.071 34.81 108.071 35.1402V36.8798H107.547V33.7233H108.071V34.1783C108.175 34.0132 108.313 33.8865 108.486 33.7982C108.662 33.7098 108.856 33.6657 109.068 33.6657C109.333 33.6657 109.567 33.7252 109.77 33.8442C109.974 33.9633 110.125 34.138 110.225 34.3684C110.314 34.1457 110.46 33.9729 110.663 33.85C110.867 33.7271 111.093 33.6657 111.343 33.6657ZM116.582 35.1806C116.582 35.2804 116.576 35.386 116.565 35.4974H114.042C114.061 35.8084 114.167 36.0522 114.359 36.2289C114.555 36.4017 114.791 36.4881 115.067 36.4881C115.294 36.4881 115.482 36.4362 115.632 36.3326C115.785 36.225 115.893 36.083 115.954 35.9063H116.519C116.434 36.2097 116.265 36.4574 116.012 36.6494C115.758 36.8375 115.444 36.9316 115.067 36.9316C114.768 36.9316 114.499 36.8644 114.261 36.73C114.027 36.5956 113.842 36.4055 113.708 36.1598C113.573 35.9102 113.506 35.6222 113.506 35.2958C113.506 34.9694 113.572 34.6833 113.702 34.4375C113.833 34.1918 114.015 34.0036 114.249 33.873C114.487 33.7386 114.76 33.6714 115.067 33.6714C115.367 33.6714 115.632 33.7367 115.862 33.8673C116.093 33.9978 116.269 34.1783 116.392 34.4087C116.519 34.6353 116.582 34.8926 116.582 35.1806ZM116.041 35.0711C116.041 34.8714 115.997 34.7006 115.908 34.5585C115.82 34.4126 115.699 34.3031 115.545 34.2302C115.396 34.1534 115.229 34.115 115.044 34.115C114.779 34.115 114.553 34.1994 114.365 34.3684C114.18 34.5374 114.075 34.7716 114.048 35.0711H116.041ZM118.612 36.9316C118.37 36.9316 118.153 36.8913 117.961 36.8106C117.769 36.7262 117.618 36.611 117.506 36.465C117.395 36.3153 117.334 36.1444 117.322 35.9524H117.863C117.879 36.1098 117.952 36.2385 118.082 36.3383C118.217 36.4382 118.391 36.4881 118.606 36.4881C118.806 36.4881 118.964 36.4439 119.079 36.3556C119.194 36.2673 119.252 36.1559 119.252 36.0215C119.252 35.8833 119.19 35.7815 119.067 35.7162C118.944 35.6471 118.754 35.5799 118.497 35.5146C118.263 35.4532 118.071 35.3918 117.921 35.3303C117.775 35.265 117.648 35.171 117.541 35.0481C117.437 34.9214 117.385 34.7562 117.385 34.5527C117.385 34.3914 117.433 34.2436 117.529 34.1092C117.625 33.9748 117.762 33.8692 117.938 33.7924C118.115 33.7118 118.317 33.6714 118.543 33.6714C118.893 33.6714 119.175 33.7598 119.39 33.9364C119.605 34.113 119.72 34.355 119.735 34.6622H119.211C119.2 34.497 119.133 34.3646 119.01 34.2647C118.891 34.1649 118.729 34.115 118.526 34.115C118.338 34.115 118.188 34.1553 118.077 34.2359C117.965 34.3166 117.91 34.4222 117.91 34.5527C117.91 34.6564 117.942 34.7428 118.007 34.8119C118.077 34.8772 118.161 34.931 118.261 34.9732C118.365 35.0116 118.507 35.0558 118.687 35.1057C118.914 35.1671 119.098 35.2286 119.24 35.29C119.382 35.3476 119.503 35.4359 119.603 35.555C119.707 35.674 119.76 35.8295 119.764 36.0215C119.764 36.1943 119.716 36.3498 119.62 36.4881C119.524 36.6263 119.388 36.7358 119.211 36.8164C119.038 36.8932 118.839 36.9316 118.612 36.9316ZM123.121 34.1553V36.0158C123.121 36.1694 123.153 36.2788 123.219 36.3441C123.284 36.4055 123.397 36.4362 123.559 36.4362H123.944V36.8798H123.472C123.18 36.8798 122.961 36.8126 122.815 36.6782C122.67 36.5438 122.597 36.323 122.597 36.0158V34.1553H122.188V33.7233H122.597V32.9284H123.121V33.7233H123.944V34.1553H123.121ZM126.177 36.9316C125.881 36.9316 125.612 36.8644 125.371 36.73C125.132 36.5956 124.944 36.4055 124.806 36.1598C124.672 35.9102 124.604 35.6222 124.604 35.2958C124.604 34.9732 124.674 34.689 124.812 34.4433C124.954 34.1937 125.146 34.0036 125.388 33.873C125.63 33.7386 125.9 33.6714 126.2 33.6714C126.5 33.6714 126.77 33.7386 127.012 33.873C127.254 34.0036 127.444 34.1918 127.582 34.4375C127.724 34.6833 127.796 34.9694 127.796 35.2958C127.796 35.6222 127.723 35.9102 127.577 36.1598C127.435 36.4055 127.241 36.5956 126.995 36.73C126.749 36.8644 126.476 36.9316 126.177 36.9316ZM126.177 36.4708C126.365 36.4708 126.542 36.4266 126.707 36.3383C126.872 36.25 127.004 36.1175 127.104 35.9409C127.208 35.7642 127.26 35.5492 127.26 35.2958C127.26 35.0423 127.21 34.8273 127.11 34.6506C127.01 34.474 126.88 34.3434 126.718 34.259C126.557 34.1706 126.382 34.1265 126.194 34.1265C126.002 34.1265 125.826 34.1706 125.664 34.259C125.507 34.3434 125.38 34.474 125.284 34.6506C125.188 34.8273 125.14 35.0423 125.14 35.2958C125.14 35.553 125.186 35.77 125.278 35.9466C125.374 36.1233 125.501 36.2558 125.659 36.3441C125.816 36.4286 125.989 36.4708 126.177 36.4708ZM130.733 33.2106C130.633 33.2106 130.548 33.1761 130.479 33.107C130.41 33.0378 130.376 32.9534 130.376 32.8535C130.376 32.7537 130.41 32.6692 130.479 32.6001C130.548 32.531 130.633 32.4964 130.733 32.4964C130.829 32.4964 130.909 32.531 130.975 32.6001C131.044 32.6692 131.078 32.7537 131.078 32.8535C131.078 32.9534 131.044 33.0378 130.975 33.107C130.909 33.1761 130.829 33.2106 130.733 33.2106ZM130.986 33.7233V36.8798H130.462V33.7233H130.986ZM133.638 33.6657C134.022 33.6657 134.333 33.7828 134.571 34.017C134.809 34.2474 134.928 34.5815 134.928 35.0193V36.8798H134.41V35.0942C134.41 34.7793 134.331 34.5393 134.174 34.3742C134.016 34.2052 133.801 34.1207 133.529 34.1207C133.252 34.1207 133.031 34.2071 132.866 34.3799C132.705 34.5527 132.624 34.8042 132.624 35.1345V36.8798H132.1V33.7233H132.624V34.1726C132.728 34.0113 132.868 33.8865 133.045 33.7982C133.225 33.7098 133.423 33.6657 133.638 33.6657ZM137.543 33.6657C137.927 33.6657 138.238 33.7828 138.476 34.017C138.715 34.2474 138.834 34.5815 138.834 35.0193V36.8798H138.315V35.0942C138.315 34.7793 138.236 34.5393 138.079 34.3742C137.922 34.2052 137.707 34.1207 137.434 34.1207C137.157 34.1207 136.937 34.2071 136.771 34.3799C136.61 34.5527 136.53 34.8042 136.53 35.1345V36.8798H136.005V33.7233H136.53V34.1726C136.633 34.0113 136.773 33.8865 136.95 33.7982C137.131 33.7098 137.328 33.6657 137.543 33.6657ZM141.287 36.9316C140.992 36.9316 140.723 36.8644 140.481 36.73C140.243 36.5956 140.055 36.4055 139.916 36.1598C139.782 35.9102 139.715 35.6222 139.715 35.2958C139.715 34.9732 139.784 34.689 139.922 34.4433C140.064 34.1937 140.256 34.0036 140.498 33.873C140.74 33.7386 141.011 33.6714 141.31 33.6714C141.61 33.6714 141.88 33.7386 142.122 33.873C142.364 34.0036 142.554 34.1918 142.693 34.4375C142.835 34.6833 142.906 34.9694 142.906 35.2958C142.906 35.6222 142.833 35.9102 142.687 36.1598C142.545 36.4055 142.351 36.5956 142.105 36.73C141.859 36.8644 141.587 36.9316 141.287 36.9316ZM141.287 36.4708C141.475 36.4708 141.652 36.4266 141.817 36.3383C141.982 36.25 142.115 36.1175 142.215 35.9409C142.318 35.7642 142.37 35.5492 142.37 35.2958C142.37 35.0423 142.32 34.8273 142.22 34.6506C142.12 34.474 141.99 34.3434 141.829 34.259C141.667 34.1706 141.493 34.1265 141.304 34.1265C141.112 34.1265 140.936 34.1706 140.775 34.259C140.617 34.3434 140.49 34.474 140.394 34.6506C140.298 34.8273 140.25 35.0423 140.25 35.2958C140.25 35.553 140.296 35.77 140.389 35.9466C140.485 36.1233 140.611 36.2558 140.769 36.3441C140.926 36.4286 141.099 36.4708 141.287 36.4708ZM144.991 36.3959L145.97 33.7233H146.529L145.29 36.8798H144.68L143.441 33.7233H144.006L144.991 36.3959ZM147.069 35.29C147.069 34.9674 147.135 34.6852 147.265 34.4433C147.396 34.1975 147.574 34.0074 147.801 33.873C148.031 33.7386 148.287 33.6714 148.567 33.6714C148.844 33.6714 149.084 33.731 149.287 33.85C149.491 33.969 149.642 34.1188 149.742 34.2993V33.7233H150.272V36.8798H149.742V36.2922C149.638 36.4766 149.483 36.6302 149.276 36.753C149.072 36.8721 148.834 36.9316 148.561 36.9316C148.281 36.9316 148.028 36.8625 147.801 36.7242C147.574 36.586 147.396 36.3921 147.265 36.1425C147.135 35.8929 147.069 35.6087 147.069 35.29ZM149.742 35.2958C149.742 35.0577 149.694 34.8503 149.598 34.6737C149.502 34.497 149.372 34.3626 149.206 34.2705C149.045 34.1745 148.867 34.1265 148.671 34.1265C148.475 34.1265 148.296 34.1726 148.135 34.2647C147.974 34.3569 147.845 34.4913 147.749 34.6679C147.653 34.8446 147.605 35.0519 147.605 35.29C147.605 35.5319 147.653 35.7431 147.749 35.9236C147.845 36.1002 147.974 36.2366 148.135 36.3326C148.296 36.4247 148.475 36.4708 148.671 36.4708C148.867 36.4708 149.045 36.4247 149.206 36.3326C149.372 36.2366 149.502 36.1002 149.598 35.9236C149.694 35.7431 149.742 35.5338 149.742 35.2958ZM152.018 34.1553V36.0158C152.018 36.1694 152.051 36.2788 152.116 36.3441C152.181 36.4055 152.294 36.4362 152.456 36.4362H152.842V36.8798H152.369C152.077 36.8798 151.859 36.8126 151.713 36.6782C151.567 36.5438 151.494 36.323 151.494 36.0158V34.1553H151.085V33.7233H151.494V32.9284H152.018V33.7233H152.842V34.1553H152.018ZM156.578 35.1806C156.578 35.2804 156.572 35.386 156.56 35.4974H154.037C154.057 35.8084 154.162 36.0522 154.354 36.2289C154.55 36.4017 154.786 36.4881 155.063 36.4881C155.289 36.4881 155.477 36.4362 155.627 36.3326C155.781 36.225 155.888 36.083 155.95 35.9063H156.514C156.43 36.2097 156.261 36.4574 156.007 36.6494C155.754 36.8375 155.439 36.9316 155.063 36.9316C154.763 36.9316 154.494 36.8644 154.256 36.73C154.022 36.5956 153.838 36.4055 153.703 36.1598C153.569 35.9102 153.502 35.6222 153.502 35.2958C153.502 34.9694 153.567 34.6833 153.698 34.4375C153.828 34.1918 154.01 34.0036 154.245 33.873C154.483 33.7386 154.755 33.6714 155.063 33.6714C155.362 33.6714 155.627 33.7367 155.858 33.8673C156.088 33.9978 156.265 34.1783 156.387 34.4087C156.514 34.6353 156.578 34.8926 156.578 35.1806ZM156.036 35.0711C156.036 34.8714 155.992 34.7006 155.904 34.5585C155.815 34.4126 155.694 34.3031 155.541 34.2302C155.391 34.1534 155.224 34.115 155.04 34.115C154.775 34.115 154.548 34.1994 154.36 34.3684C154.176 34.5374 154.07 34.7716 154.043 35.0711H156.036Z" fill="#454545"/>
</svg>
