<svg width="14" height="10" viewBox="0 0 14 10" fill="none" xmlns="http://www.w3.org/2000/svg">
<path d="M7.218 0.314941C4.16592 0.314941 1.55944 2.21334 0.503418 4.89307C1.55944 7.5728 4.16592 9.47119 7.218 9.47119C10.2701 9.47119 12.8766 7.5728 13.9326 4.89307C12.8766 2.21334 10.2701 0.314941 7.218 0.314941ZM7.218 7.94515C5.53325 7.94515 4.16592 6.57782 4.16592 4.89307C4.16592 3.20832 5.53325 1.84098 7.218 1.84098C8.90275 1.84098 10.2701 3.20832 10.2701 4.89307C10.2701 6.57782 8.90275 7.94515 7.218 7.94515ZM7.218 3.06182C6.20471 3.06182 5.38675 3.87977 5.38675 4.89307C5.38675 5.90636 6.20471 6.72432 7.218 6.72432C8.23129 6.72432 9.04925 5.90636 9.04925 4.89307C9.04925 3.87977 8.23129 3.06182 7.218 3.06182Z" fill="#1F7793"/>
</svg>
