<svg width="13" height="11" viewBox="0 0 13 11" fill="none" xmlns="http://www.w3.org/2000/svg">
<path d="M4.20793 4.89309C4.83931 4.89309 5.44483 4.64227 5.89129 4.19582C6.33774 3.74936 6.58855 3.14384 6.58855 2.51246C6.58855 1.88108 6.33774 1.27556 5.89129 0.829105C5.44483 0.382651 4.83931 0.131836 4.20793 0.131836C3.57655 0.131836 2.97103 0.382651 2.52457 0.829105C2.07812 1.27556 1.8273 1.88108 1.8273 2.51246C1.8273 3.14384 2.07812 3.74936 2.52457 4.19582C2.97103 4.64227 3.57655 4.89309 4.20793 4.89309ZM8.37366 8.6618C8.76188 8.82075 9.25559 8.92184 9.88407 8.92184C12.8141 8.92184 12.8141 6.72434 12.8141 6.72434C12.8141 6.43306 12.6984 6.1537 12.4925 5.94766C12.2866 5.74163 12.0073 5.62578 11.7161 5.62559H8.32604C8.61392 5.97426 8.78679 6.42035 8.78679 6.90746V7.16823C8.78529 7.22991 8.78113 7.2915 8.77433 7.35282C8.72491 7.8105 8.58847 8.25466 8.37366 8.6618ZM11.7161 3.06184C11.7161 3.54751 11.5231 4.0133 11.1797 4.35673C10.8363 4.70015 10.3705 4.89309 9.8848 4.89309C9.39913 4.89309 8.93334 4.70015 8.58992 4.35673C8.24649 4.0133 8.05356 3.54751 8.05356 3.06184C8.05356 2.57616 8.24649 2.11037 8.58992 1.76695C8.93334 1.42352 9.39913 1.23059 9.8848 1.23059C10.3705 1.23059 10.8363 1.42352 11.1797 1.76695C11.5231 2.11037 11.7161 2.57616 11.7161 3.06184ZM0.362305 7.09059C0.362305 6.70204 0.516652 6.32942 0.791393 6.05468C1.06613 5.77993 1.43876 5.62559 1.8273 5.62559H6.58855C6.9771 5.62559 7.34973 5.77993 7.62447 6.05468C7.89921 6.32942 8.05356 6.70204 8.05356 7.09059C8.05356 7.09059 8.05356 10.0206 4.20793 10.0206C0.362305 10.0206 0.362305 7.09059 0.362305 7.09059ZM8.78605 7.16823L8.78386 7.21511L8.78532 7.16823H8.78605Z" fill="#1F7793"/>
</svg>
