<svg width="14" height="12" viewBox="0 0 14 12" fill="none" xmlns="http://www.w3.org/2000/svg">
<path fill-rule="evenodd" clip-rule="evenodd" d="M13.3804 0.631723C13.2204 0.842935 13.068 1.06051 12.8992 1.26445C11.5354 2.91354 10.1679 4.55975 8.80472 6.20945C8.76266 6.26036 8.73615 6.34006 8.73569 6.40657C8.72899 7.60127 8.7235 8.79612 8.72792 9.99066C8.72883 10.244 8.6307 10.3978 8.40106 10.5081C7.60609 10.8898 6.81843 11.2864 6.0259 11.6734C5.94346 11.7135 5.84853 11.7441 5.75801 11.7481C5.59405 11.7552 5.44563 11.6323 5.40769 11.4737C5.39078 11.4031 5.38666 11.3281 5.38651 11.2549C5.38544 9.64703 5.38499 8.039 5.38742 6.43112C5.38742 6.33566 5.36365 6.26187 5.30179 6.18748C3.82125 4.40612 2.34255 2.62324 0.865215 0.839148C0.814015 0.777329 0.780186 0.701269 0.738281 0.631875C0.738281 0.574602 0.738281 0.517329 0.738281 0.460056C0.824986 0.243087 0.984072 0.162784 1.21904 0.163087C5.11253 0.167178 9.00601 0.167178 12.8995 0.163087C13.1345 0.162784 13.2936 0.243238 13.3803 0.460056C13.3804 0.517178 13.3804 0.57445 13.3804 0.631723ZM1.94697 0.932632C1.98064 0.976875 1.99954 1.00354 2.02026 1.02869C3.3443 2.62566 4.66758 4.22339 5.99466 5.81794C6.112 5.95869 6.16426 6.10718 6.16396 6.28763C6.16106 7.72385 6.16243 9.16006 6.16243 10.5963C6.16243 10.6425 6.16243 10.6885 6.16243 10.7495C6.22598 10.7193 6.26636 10.7007 6.30628 10.681C6.81417 10.4313 7.32144 10.1798 7.83085 9.93324C7.91801 9.89112 7.95459 9.84369 7.95428 9.74112C7.95139 8.58324 7.9555 7.42521 7.95489 6.26733C7.95489 6.10491 7.99984 5.96748 8.1056 5.84021C9.43451 4.24187 10.761 2.64142 12.0876 1.04127C12.114 1.00945 12.1373 0.974905 12.1688 0.932632C8.75398 0.932632 5.36076 0.932632 1.94697 0.932632Z" fill="#A7A7A7"/>
</svg>
